<svg width="538" height="359" viewBox="0 0 538 359" fill="none" xmlns="http://www.w3.org/2000/svg">
<path d="M251.992 255.328C253.705 254.112 255.572 253.129 257.544 252.406L258.305 246.662L267.881 245.786L269.674 251.314C271.744 251.666 273.759 252.291 275.664 253.174L280.276 249.634L287.665 255.795L285.032 260.971C286.246 262.686 287.225 264.555 287.945 266.529L293.683 267.29L294.566 276.875L289.085 278.656C288.737 280.726 288.112 282.74 287.227 284.644L290.764 289.261L284.609 296.656L279.437 294.021C277.724 295.235 275.857 296.216 273.885 296.936L273.125 302.68L263.548 303.563L261.755 298.027C259.684 297.679 257.67 297.053 255.765 296.168L251.153 299.708L243.764 293.547L246.404 288.37C245.186 286.658 244.204 284.788 243.484 282.813L237.746 282.052L236.871 272.467L242.394 270.672C242.746 268.6 243.37 266.584 244.252 264.676L240.716 260.06L246.87 252.664L252.042 255.306L251.992 255.328ZM258.053 267.735C256.752 269.307 255.946 271.23 255.736 273.261C255.527 275.292 255.924 277.339 256.876 279.144C257.829 280.949 259.295 282.431 261.089 283.403C262.883 284.374 264.924 284.791 266.955 284.602C268.986 284.412 270.915 283.624 272.499 282.337C274.082 281.051 275.249 279.323 275.852 277.372C276.455 275.422 276.466 273.337 275.885 271.38C275.304 269.423 274.156 267.682 272.587 266.378C271.544 265.511 270.34 264.859 269.045 264.458C267.75 264.057 266.389 263.915 265.039 264.041C263.689 264.167 262.378 264.558 261.179 265.192C259.98 265.826 258.918 266.69 258.053 267.735Z" fill="#B8B8B8"/>
<path d="M308.819 286.798C309.895 286.04 311.064 285.424 312.298 284.967L312.779 281.377L318.783 280.824L319.909 284.292C321.207 284.509 322.469 284.903 323.661 285.462L326.53 283.244L331.164 287.099L329.514 290.352C330.275 291.426 330.888 292.597 331.336 293.834L334.923 294.308L335.475 300.318L332.01 301.445C331.787 302.743 331.394 304.005 330.841 305.2L333.058 308.072L329.256 312.711L326.006 311.059C324.932 311.82 323.762 312.436 322.527 312.89L322.054 316.48L316.05 317.033L314.909 313.586C313.611 313.37 312.349 312.976 311.158 312.416L308.288 314.635L303.654 310.779L305.304 307.527C304.541 306.453 303.926 305.282 303.475 304.044L299.888 303.57L299.336 297.561L302.801 296.433C303.018 295.135 303.409 293.872 303.963 292.678L301.746 289.806L305.605 285.168L308.848 286.819L308.819 286.798ZM312.621 294.581C311.806 295.564 311.301 296.767 311.17 298.038C311.038 299.308 311.285 300.59 311.88 301.719C312.476 302.849 313.392 303.777 314.514 304.386C315.636 304.995 316.913 305.257 318.184 305.14C319.455 305.023 320.662 304.531 321.654 303.727C322.646 302.923 323.377 301.843 323.756 300.624C324.135 299.404 324.144 298.099 323.782 296.874C323.421 295.649 322.704 294.559 321.724 293.741C321.072 293.197 320.318 292.787 319.507 292.535C318.697 292.282 317.844 292.193 316.998 292.271C316.153 292.349 315.331 292.593 314.58 292.989C313.829 293.386 313.163 293.927 312.621 294.581Z" fill="#B8B8B8"/>
<path d="M144.313 70.2491C145.557 69.3537 146.915 68.6293 148.352 68.0951L148.911 63.8948L155.876 63.2558L157.182 67.2838C158.689 67.5393 160.155 67.9932 161.543 68.6336L164.9 66.0632L170.28 70.5435L168.358 74.313C169.254 75.5572 169.978 76.917 170.51 78.3553L174.699 78.9082L175.345 85.8872L171.321 87.1939C171.066 88.7033 170.61 90.1716 169.965 91.5594L172.54 94.9124L168.064 100.297L164.269 98.4091C163.023 99.3018 161.666 100.026 160.231 100.563L159.671 104.756L152.706 105.395L151.4 101.367C149.893 101.115 148.426 100.661 147.039 100.017L143.682 102.595L138.302 98.1075L140.224 94.338C139.327 93.0947 138.603 91.7347 138.072 90.2957L133.876 89.7428L133.237 82.771L137.262 81.4571C137.516 79.9501 137.972 78.4841 138.617 77.0988L136.042 73.7386L140.518 68.3536L144.284 70.2778L144.313 70.2491ZM148.725 79.2744C147.774 80.4171 147.183 81.8163 147.027 83.2951C146.871 84.7739 147.156 86.2658 147.847 87.5822C148.539 88.8985 149.604 89.9801 150.91 90.6901C152.215 91.4002 153.701 91.7068 155.181 91.5712C156.66 91.4356 158.066 90.8638 159.221 89.9282C160.376 88.9926 161.227 87.7353 161.668 86.3152C162.109 84.8951 162.119 83.3761 161.697 81.9503C161.275 80.5244 160.44 79.2559 159.298 78.3051C157.767 77.0308 155.794 76.4172 153.811 76.5989C151.828 76.7807 149.999 77.743 148.725 79.2744Z" fill="#313131"/>
<path d="M276.245 27.4779C277.482 26.5837 278.833 25.8593 280.262 25.3239L280.814 21.1451L287.751 20.5133L289.085 24.5556C290.574 24.811 292.021 25.265 293.389 25.9054L296.725 23.3422L302.083 27.801L300.168 31.5489C301.051 32.79 301.763 34.1449 302.284 35.5769L306.459 36.1298L307.09 43.08L303.087 44.3796C302.832 45.8694 302.379 47.3183 301.739 48.6876L304.3 52.0263L299.845 57.44L296.101 55.5229C294.861 56.4172 293.508 57.1416 292.076 57.6769L291.524 61.8485L284.595 62.4875L283.289 58.4811C281.8 58.2262 280.353 57.7722 278.985 57.1313L275.642 59.6945L270.291 55.2357L272.199 51.4878C271.302 50.2243 270.581 48.8452 270.054 47.388L265.886 46.8351L265.248 39.8921L269.251 38.5925C269.507 37.0912 269.96 35.6306 270.599 34.2486L268.038 30.9099L272.493 25.5464L276.245 27.4635V27.4779ZM280.628 36.46C279.681 37.597 279.093 38.9895 278.937 40.4612C278.782 41.9329 279.065 43.4177 279.753 44.7279C280.44 46.0381 281.501 47.1148 282.8 47.8218C284.099 48.5288 285.578 48.8343 287.05 48.6997C288.523 48.565 289.922 47.9963 291.072 47.0655C292.221 46.1347 293.069 44.8835 293.508 43.4703C293.947 42.0571 293.957 40.5454 293.538 39.1263C293.118 37.7072 292.288 36.4445 291.151 35.4979C290.397 34.8689 289.527 34.3948 288.59 34.1027C287.653 33.8106 286.667 33.7062 285.69 33.7956C284.713 33.885 283.763 34.1663 282.894 34.6235C282.025 35.0806 281.255 35.7047 280.628 36.46Z" fill="#6C6C6C"/>
<path d="M340.317 37.2068C341.023 36.7044 341.792 36.2987 342.606 36.0005L342.921 33.6239L346.867 33.2649L347.584 35.541C348.439 35.6878 349.271 35.9461 350.059 36.3093L351.96 34.8733L355.001 37.4078L353.918 39.5618C354.415 40.27 354.818 41.0399 355.116 41.8522L357.49 42.1681L357.856 46.1171L355.575 46.8351C355.432 47.6894 355.174 48.5203 354.807 49.3051L356.242 51.2078L353.71 54.2521L351.558 53.1679C350.873 53.655 350.128 54.0508 349.341 54.3454L349.011 56.722L345.066 57.0882L344.349 54.8049C343.497 54.66 342.667 54.4041 341.881 54.0439L339.98 55.4799L336.939 52.9381L338.022 50.7841C337.523 50.0768 337.121 49.3067 336.824 48.4937L334.449 48.185L334.091 44.236L336.365 43.518C336.515 42.6681 336.778 41.8423 337.147 41.0624L335.712 39.1669L338.244 36.1154L340.396 37.2068H340.317ZM342.814 42.3117C342.275 42.9587 341.94 43.751 341.851 44.5884C341.762 45.4259 341.924 46.2709 342.315 47.0166C342.706 47.7623 343.309 48.3752 344.048 48.7777C344.787 49.1803 345.629 49.3544 346.467 49.278C347.305 49.2017 348.101 48.8783 348.755 48.3489C349.41 47.8194 349.893 47.1076 350.143 46.3035C350.393 45.4994 350.399 44.6391 350.161 43.8314C349.922 43.0238 349.45 42.305 348.803 41.7661C347.937 41.0436 346.819 40.6953 345.696 40.7976C344.572 40.8999 343.536 41.4446 342.814 42.3117Z" fill="#6C6C6C"/>
<path d="M106.883 150.888C108.033 150.071 109.288 149.412 110.613 148.928L111.122 145.058L117.578 144.469L118.783 148.181C120.172 148.414 121.524 148.834 122.8 149.43L125.899 147.054L130.856 151.182L129.084 154.664C129.904 155.811 130.563 157.065 131.042 158.391L134.909 158.901L135.504 165.363L131.724 166.576C131.49 167.968 131.073 169.322 130.483 170.604L132.85 173.699L128.725 178.667L125.246 176.894C124.097 177.709 122.845 178.368 121.523 178.854L121.014 182.724L114.558 183.313L113.353 179.601C111.964 179.365 110.613 178.945 109.336 178.351L106.237 180.728L101.28 176.592L103.045 173.117C102.23 171.967 101.572 170.714 101.086 169.391L97.22 168.874L96.6318 162.412L100.34 161.205C100.58 159.816 101 158.465 101.589 157.185L99.2214 154.09L103.346 149.121L106.818 150.895L106.883 150.888ZM110.95 159.209C110.074 160.262 109.529 161.552 109.385 162.915C109.241 164.277 109.504 165.652 110.141 166.866C110.777 168.079 111.759 169.076 112.962 169.73C114.165 170.385 115.534 170.668 116.898 170.544C118.261 170.419 119.557 169.893 120.622 169.031C121.686 168.169 122.472 167.011 122.879 165.702C123.285 164.394 123.295 162.994 122.907 161.68C122.519 160.365 121.75 159.196 120.698 158.319C119.998 157.732 119.19 157.29 118.318 157.017C117.447 156.744 116.53 156.646 115.621 156.729C114.712 156.811 113.828 157.073 113.02 157.499C112.212 157.924 111.497 158.506 110.914 159.209H110.95Z" fill="#313131"/>
<path d="M52.9103 99.1845H27.5741C27.1569 99.1874 26.7432 99.1076 26.3569 98.9497C25.9706 98.7919 25.6193 98.5591 25.3233 98.2648C25.0273 97.9704 24.7923 97.6204 24.632 97.2349C24.4717 96.8493 24.3892 96.4358 24.3892 96.0181V60.9223C24.3892 60.0806 24.7232 59.2734 25.3178 58.6783C25.9124 58.0831 26.7189 57.7487 27.5598 57.7487H43.628L56.0738 70.5794V96.0181C56.0747 96.4342 55.9935 96.8464 55.8349 97.231C55.6763 97.6156 55.4433 97.965 55.1493 98.2592C54.8554 98.5534 54.5063 98.7866 54.1221 98.9454C53.7378 99.1042 53.326 99.1855 52.9103 99.1845Z" fill="#B8B8B8"/>
<path d="M24.3892 86.6123H56.0738V95.0776C56.0738 96.1668 55.6415 97.2114 54.872 97.9816C54.1025 98.7518 53.0588 99.1845 51.9706 99.1845H28.5138C27.9732 99.1874 27.4373 99.0832 26.937 98.8781C26.4367 98.673 25.9818 98.3709 25.5985 97.9893C25.2152 97.6076 24.9111 97.1539 24.7035 96.6542C24.496 96.1545 24.3892 95.6187 24.3892 95.0776V86.6123Z" fill="#313131"/>
<path d="M35.6299 94.7257L36.4261 93.7708C36.5443 93.9767 36.7117 94.1501 36.9132 94.2754C37.1148 94.4007 37.3442 94.474 37.581 94.4888C38.1549 94.4888 38.4562 94.137 38.4562 93.4549V90.468H36.3042V89.3192H39.8908V93.34C39.8908 94.8765 39.1161 95.6304 37.6599 95.6304C37.2749 95.6457 36.8915 95.572 36.5395 95.4151C36.1874 95.2582 35.8762 95.0224 35.6299 94.7257Z" fill="#424242"/>
<path d="M40.7373 95.0776L41.1964 94.0867C41.6986 94.3835 42.2703 94.542 42.8534 94.5462C43.4919 94.5462 43.7286 94.3811 43.7286 94.1154C43.7286 93.3328 40.8593 94.1154 40.8593 92.2271C40.8593 91.3224 41.677 90.6834 43.0686 90.6834C43.7031 90.6716 44.3309 90.8145 44.8978 91.0998L44.4387 92.0835C44.0205 91.8485 43.5482 91.7273 43.0686 91.7317C42.4446 91.7317 42.1791 91.9255 42.1791 92.1697C42.1791 92.9882 45.0485 92.1697 45.0485 94.0795C45.0485 94.9627 44.2235 95.5945 42.8032 95.5945C42.081 95.6086 41.368 95.4301 40.7373 95.0776Z" fill="#424242"/>
<path d="M31.1177 80.0139L32.1076 78.8508C32.37 79.282 32.7372 79.6398 33.1749 79.8909C33.6126 80.1419 34.1067 80.2781 34.6111 80.2868C35.9597 80.2868 36.6627 79.4611 36.6627 77.8527V71.082H32.3587V69.646H38.3843V77.7881C38.3843 80.4591 37.0859 81.7802 34.6398 81.7802C33.9528 81.7987 33.2719 81.6471 32.6575 81.339C32.0431 81.0309 31.5142 80.5757 31.1177 80.0139Z" fill="#424242"/>
<path d="M40.4648 80.6458L41.1822 79.3462C42.1305 79.9616 43.2369 80.2884 44.3671 80.2868C45.8879 80.2868 46.5191 79.8272 46.5191 79.0518C46.5191 77.0127 40.7805 78.779 40.7805 75.1674C40.7805 73.5376 42.2151 72.439 44.5608 72.439C45.7066 72.414 46.839 72.6887 47.8462 73.236L47.1289 74.5356C46.345 74.0452 45.4347 73.7955 44.5106 73.8176C43.0759 73.8176 42.3586 74.3489 42.3586 75.0669C42.3586 77.2209 48.0973 75.4618 48.0973 78.9944C48.0973 80.6386 46.5909 81.6797 44.1735 81.6797C42.8616 81.7156 41.5693 81.3553 40.4648 80.6458Z" fill="#424242"/>
<g opacity="0.3">
<path d="M43.6426 57.7487V67.6284C43.6435 68.0184 43.7216 68.4043 43.8725 68.7639C44.0233 69.1234 44.2438 69.4495 44.5213 69.7232C44.7988 69.997 45.1277 70.2129 45.4891 70.3587C45.8505 70.5044 46.2371 70.577 46.6267 70.5722H56.074L43.6426 57.7487Z" fill="black"/>
</g>
<path d="M43.7573 68.49C43.7623 69.2381 44.0224 69.962 44.4947 70.5418C44.967 71.1216 45.623 71.5225 46.3541 71.6779C46.4578 71.7064 46.5632 71.7279 46.6697 71.7426C47.9107 71.9651 56.0596 73.4155 56.0596 73.2288V70.5794H46.6267C46.6267 70.5794 44.2164 70.4932 43.7573 68.49Z" fill="#313131"/>
<path d="M96.7608 78.7359H65.4635C64.4248 78.7359 63.4285 78.3229 62.694 77.5877C61.9595 76.8525 61.5469 75.8553 61.5469 74.8156V31.4556C61.5469 30.4159 61.9595 29.4187 62.694 28.6835C63.4285 27.9483 64.4248 27.5353 65.4635 27.5353H85.3121L100.67 43.3887V74.8156C100.67 75.8541 100.259 76.8501 99.5256 77.5851C98.7926 78.3201 97.7983 78.734 96.7608 78.7359Z" fill="#B8B8B8"/>
<path d="M62.4078 63.184H99.7593C99.9953 63.184 100.221 63.2778 100.388 63.4448C100.555 63.6117 100.649 63.8382 100.649 64.0743V74.0689C100.649 74.6799 100.529 75.2849 100.295 75.8494C100.061 76.4139 99.719 76.9268 99.2874 77.3588C98.8557 77.7908 98.3433 78.1335 97.7793 78.3674C97.2154 78.6012 96.6109 78.7215 96.0005 78.7215H66.1953C65.5849 78.7215 64.9804 78.6012 64.4165 78.3674C63.8525 78.1335 63.3401 77.7908 62.9085 77.3588C62.4768 76.9268 62.1344 76.4139 61.9008 75.8494C61.6672 75.2849 61.547 74.6799 61.547 74.0689V64.0887C61.5431 63.855 61.6312 63.6291 61.7923 63.4599C61.9533 63.2906 62.1744 63.1915 62.4078 63.184Z" fill="#313131"/>
<g opacity="0.2">
<path d="M85.3125 27.5353V39.7413C85.3125 40.7074 85.6954 41.6341 86.3773 42.3179C87.0591 43.0017 87.9842 43.3868 88.9494 43.3887H100.671L85.3125 27.5353Z" fill="black"/>
</g>
<path d="M85.4702 40.8111C85.4767 41.7356 85.799 42.6301 86.3836 43.3459C86.9682 44.0616 87.7799 44.5556 88.6839 44.7458C88.8088 44.7821 88.9357 44.8108 89.0641 44.8319C90.5992 45.1048 100.671 46.8998 100.671 46.67V43.3887H88.9493C88.9493 43.3887 86.0226 43.2882 85.4702 40.8111Z" fill="#313131"/>
<path d="M72.7446 69.9691C72.7841 69.3122 73.0157 68.6815 73.4108 68.1554C73.8058 67.6294 74.3468 67.2314 74.9663 67.0109C75.5857 66.7905 76.2563 66.7573 76.8945 66.9156C77.5326 67.074 78.1101 67.4167 78.555 67.9013L77.6512 68.7341C77.4665 68.5076 77.2333 68.3255 76.9688 68.2012C76.7044 68.0769 76.4154 68.0137 76.1233 68.0161C75.8576 68 75.5914 68.0384 75.3411 68.1291C75.0908 68.2198 74.8616 68.3607 74.6678 68.5433C74.474 68.7259 74.3195 68.9463 74.2139 69.1909C74.1083 69.4355 74.0539 69.6991 74.0539 69.9655C74.0539 70.2319 74.1083 70.4956 74.2139 70.7401C74.3195 70.9847 74.474 71.2051 74.6678 71.3877C74.8616 71.5703 75.0908 71.7113 75.3411 71.8019C75.5914 71.8926 75.8576 71.931 76.1233 71.9149C76.4154 71.9173 76.7044 71.8541 76.9688 71.7298C77.2333 71.6055 77.4665 71.4234 77.6512 71.1969L78.555 72.0298C78.112 72.5173 77.5351 72.8631 76.8965 73.0237C76.2579 73.1842 75.5862 73.1525 74.9656 72.9324C74.345 72.7123 73.8031 72.3136 73.408 71.7865C73.0129 71.2593 72.7821 70.6271 72.7446 69.9691Z" fill="#555555"/>
<path d="M78.9712 72.4103L79.4446 71.3548C80.0359 71.7618 80.7356 71.9819 81.4532 71.9867C82.2924 71.9867 82.6296 71.7067 82.6296 71.3333C82.6296 70.1917 79.0931 70.9815 79.0931 68.7126C79.0931 67.6787 79.9252 66.8171 81.654 66.8171C82.4069 66.7972 83.151 66.9834 83.806 67.3556L83.3684 68.4254C82.8557 68.1271 82.2757 67.964 81.6827 67.9515C80.8506 67.9515 80.5278 68.2603 80.5278 68.6695C80.5278 69.7896 84.0643 69.0142 84.0643 71.2543C84.0643 72.2667 83.2178 73.1427 81.4819 73.1427C80.5893 73.1651 79.7119 72.9092 78.9712 72.4103Z" fill="#555555"/>
<path d="M84.5088 72.4103L84.9894 71.3548C85.5807 71.7618 86.2804 71.9819 86.9979 71.9867C87.83 71.9867 88.1744 71.7067 88.1744 71.3333C88.1744 70.1917 84.6307 70.9815 84.6307 68.7126C84.6307 67.6787 85.47 66.8171 87.1988 66.8171C87.9374 66.8029 88.6661 66.989 89.3078 67.3556L88.8774 68.4254C88.3646 68.1271 87.7846 67.964 87.1916 67.9515C86.3523 67.9515 86.0295 68.2603 86.0295 68.6695C86.0295 69.7896 89.5732 69.0142 89.5732 71.2543C89.5732 72.2667 88.7267 73.1427 86.9908 73.1427C86.108 73.1591 85.2415 72.9035 84.5088 72.4103Z" fill="#555555"/>
<path d="M74.7318 50.26C75.3774 50.461 75.6715 50.8631 75.6715 51.8324V54.0654C75.653 54.2043 75.6665 54.3456 75.711 54.4784C75.7554 54.6113 75.8296 54.7322 75.9279 54.832C76.0262 54.9318 76.146 55.0077 76.2781 55.0541C76.4102 55.1004 76.5511 55.1159 76.6901 55.0993H76.9412V56.801H76.1306C74.3875 56.801 73.4908 55.9107 73.4908 54.3023V51.7678C73.5042 51.6817 73.4978 51.5937 73.4722 51.5105C73.4466 51.4272 73.4024 51.3509 73.343 51.2872C73.2836 51.2236 73.2104 51.1743 73.1292 51.1431C73.0479 51.1119 72.9606 51.0997 72.8739 51.1072H72.4507V49.4056H72.9098C72.9965 49.4131 73.0838 49.4009 73.165 49.3697C73.2463 49.3385 73.3194 49.2892 73.3789 49.2256C73.4383 49.162 73.4825 49.0856 73.5081 49.0024C73.5337 48.9191 73.5401 48.8311 73.5267 48.745V46.2105C73.5267 44.6022 74.4234 43.7047 76.1665 43.7047H76.9771V45.4135H76.726C76.587 45.3969 76.446 45.4124 76.3139 45.4588C76.1818 45.5051 76.062 45.581 75.9637 45.6808C75.8655 45.7806 75.7913 45.9015 75.7468 46.0344C75.7024 46.1673 75.6889 46.3085 75.7074 46.4474V48.6876C75.6715 49.6569 75.3774 50.059 74.7318 50.26Z" fill="#555555"/>
<path d="M89.8027 49.4056V51.1072H89.3437C89.2569 51.0997 89.1697 51.1119 89.0884 51.1431C89.0071 51.1743 88.934 51.2236 88.8746 51.2872C88.8151 51.3509 88.7709 51.4272 88.7453 51.5105C88.7197 51.5937 88.7134 51.6817 88.7267 51.7678V54.3023C88.7267 55.9107 87.8373 56.801 86.087 56.801H85.2764V55.0993H85.5274C85.6664 55.1159 85.8074 55.1004 85.9395 55.0541C86.0716 55.0077 86.1914 54.9318 86.2897 54.832C86.388 54.7322 86.4622 54.6113 86.5066 54.4784C86.551 54.3456 86.5645 54.2043 86.5461 54.0654V51.8252C86.5461 50.8559 86.8402 50.4539 87.4858 50.2528C86.8402 50.059 86.5461 49.6569 86.5461 48.6876V46.4474C86.5645 46.3085 86.551 46.1673 86.5066 46.0344C86.4622 45.9015 86.388 45.7806 86.2897 45.6808C86.1914 45.581 86.0716 45.5051 85.9395 45.4588C85.8074 45.4124 85.6664 45.3969 85.5274 45.4135H85.2764V43.7047H86.0798C87.8301 43.7047 88.7196 44.6022 88.7196 46.2105V48.745C88.7062 48.8311 88.7125 48.9191 88.7381 49.0024C88.7638 49.0856 88.8079 49.162 88.8674 49.2256C88.9268 49.2892 88.9999 49.3385 89.0812 49.3697C89.1625 49.4009 89.2498 49.4131 89.3365 49.4056H89.8027Z" fill="#555555"/>
<path d="M519.12 332.039C519.12 332.147 407.13 332.226 269.014 332.226C130.899 332.226 18.8804 332.147 18.8804 332.039C18.8804 331.931 130.849 331.852 269.014 331.852C407.18 331.852 519.12 331.939 519.12 332.039Z" fill="#9747FF"/>
<path d="M400.399 21.7088H509.219C512.94 21.7088 515.957 24.7281 515.957 28.4534V183.642C515.957 187.367 512.94 190.387 509.219 190.387H400.399C396.679 190.387 393.662 187.367 393.662 183.642V28.4534C393.662 24.728 396.679 21.7088 400.399 21.7088Z" stroke="black"/>
<path d="M464.794 114.793H444.824C442.063 114.793 439.824 117.032 439.824 119.793V134.83C439.824 137.591 442.063 139.83 444.824 139.83H464.794C467.556 139.83 469.794 137.591 469.794 134.83V119.793C469.794 117.032 467.556 114.793 464.794 114.793Z" fill="#313131"/>
<path d="M502.713 115.109H482.743C479.981 115.109 477.743 117.347 477.743 120.109V135.146C477.743 137.907 479.981 140.146 482.743 140.146H502.713C505.474 140.146 507.713 137.907 507.713 135.146V120.109C507.713 117.347 505.474 115.109 502.713 115.109Z" fill="#313131"/>
<path d="M426.883 115.109H406.913C404.152 115.109 401.913 117.347 401.913 120.109V135.146C401.913 137.907 404.152 140.146 406.913 140.146H426.883C429.645 140.146 431.883 137.907 431.883 135.146V120.109C431.883 117.347 429.645 115.109 426.883 115.109Z" fill="#313131"/>
<path d="M516.457 57.2452H393.162V103.003H516.457V57.2452Z" fill="#313131"/>
<path d="M399.818 21.2088H508.997C510.975 21.2088 512.873 21.9955 514.272 23.3959C515.671 24.7963 516.457 26.6956 516.457 28.676V38.1464H393.162V27.8647C393.164 26.0988 393.866 24.4059 395.114 23.1578C396.362 21.9098 398.054 21.2088 399.818 21.2088Z" fill="#313131"/>
<path d="M410.299 47.6958C410.3 48.7601 409.986 49.8008 409.396 50.6863C408.807 51.5718 407.967 52.2622 406.985 52.6701C406.003 53.078 404.923 53.1851 403.88 52.9779C402.837 52.7706 401.879 52.2582 401.127 51.5057C400.375 50.7532 399.863 49.7943 399.656 48.7504C399.449 47.7066 399.556 46.6247 399.964 45.6417C400.371 44.6587 401.061 43.8189 401.946 43.2285C402.83 42.6382 403.87 42.3238 404.933 42.3252C406.356 42.3252 407.721 42.891 408.727 43.8982C409.734 44.9054 410.299 46.2715 410.299 47.6958Z" fill="#9747FF"/>
<path d="M456.231 45.3121H441.114C439.843 45.3121 438.813 46.3424 438.813 47.6133C438.813 48.8842 439.843 49.9145 441.114 49.9145H456.231C457.502 49.9145 458.533 48.8842 458.533 47.6133C458.533 46.3424 457.502 45.3121 456.231 45.3121Z" fill="#313131"/>
<path d="M480.814 45.3121H465.697C464.426 45.3121 463.396 46.3424 463.396 47.6133C463.396 48.8842 464.426 49.9145 465.697 49.9145H480.814C482.085 49.9145 483.115 48.8842 483.115 47.6133C483.115 46.3424 482.085 45.3121 480.814 45.3121Z" fill="#313131"/>
<path d="M505.39 45.3121H490.273C489.002 45.3121 487.972 46.3424 487.972 47.6133C487.972 48.8842 489.002 49.9145 490.273 49.9145H505.39C506.661 49.9145 507.691 48.8842 507.691 47.6133C507.691 46.3424 506.661 45.3121 505.39 45.3121Z" fill="#313131"/>
<path d="M429.88 148.611H403.916C402.81 148.611 401.913 149.508 401.913 150.614C401.913 151.72 402.81 152.617 403.916 152.617H429.88C430.986 152.617 431.883 151.72 431.883 150.614C431.883 149.508 430.986 148.611 429.88 148.611Z" fill="#313131"/>
<path d="M429.88 157.363H403.916C402.81 157.363 401.913 158.26 401.913 159.366C401.913 160.473 402.81 161.37 403.916 161.37H429.88C430.986 161.37 431.883 160.473 431.883 159.366C431.883 158.26 430.986 157.363 429.88 157.363Z" fill="#313131"/>
<path d="M416.136 166.116H403.916C402.81 166.116 401.913 167.012 401.913 168.119C401.913 169.225 402.81 170.122 403.916 170.122H416.136C417.242 170.122 418.139 169.225 418.139 168.119C418.139 167.012 417.242 166.116 416.136 166.116Z" fill="#313131"/>
<path d="M468.401 148.611H442.437C441.331 148.611 440.434 149.508 440.434 150.614C440.434 151.72 441.331 152.617 442.437 152.617H468.401C469.507 152.617 470.404 151.72 470.404 150.614C470.404 149.508 469.507 148.611 468.401 148.611Z" fill="#313131"/>
<path d="M468.401 157.363H442.437C441.331 157.363 440.434 158.26 440.434 159.366C440.434 160.473 441.331 161.37 442.437 161.37H468.401C469.507 161.37 470.404 160.473 470.404 159.366C470.404 158.26 469.507 157.363 468.401 157.363Z" fill="#313131"/>
<path d="M454.657 166.116H442.437C441.331 166.116 440.434 167.012 440.434 168.119C440.434 169.225 441.331 170.122 442.437 170.122H454.657C455.763 170.122 456.66 169.225 456.66 168.119C456.66 167.012 455.763 166.116 454.657 166.116Z" fill="#313131"/>
<path d="M506.929 148.611H480.965C479.859 148.611 478.962 149.508 478.962 150.614C478.962 151.72 479.859 152.617 480.965 152.617H506.929C508.035 152.617 508.932 151.72 508.932 150.614C508.932 149.508 508.035 148.611 506.929 148.611Z" fill="#313131"/>
<path d="M506.929 157.363H480.965C479.859 157.363 478.962 158.26 478.962 159.366C478.962 160.473 479.859 161.37 480.965 161.37H506.929C508.035 161.37 508.932 160.473 508.932 159.366C508.932 158.26 508.035 157.363 506.929 157.363Z" fill="#313131"/>
<path d="M493.185 166.116H480.965C479.859 166.116 478.962 167.012 478.962 168.119C478.962 169.225 479.859 170.122 480.965 170.122H493.185C494.291 170.122 495.188 169.225 495.188 168.119C495.188 167.012 494.291 166.116 493.185 166.116Z" fill="#313131"/>
<path d="M509.219 190.879H509.592C509.961 190.86 510.327 190.814 510.69 190.743C512.105 190.427 513.397 189.703 514.405 188.661C515.141 187.89 515.697 186.965 516.034 185.954C516.385 184.716 516.511 183.424 516.407 182.141C516.407 179.348 516.407 176.125 516.407 172.499C516.407 157.973 516.407 136.972 516.349 111.023C516.349 98.042 516.349 83.8256 516.349 68.5681C516.349 60.9334 516.349 53.0497 516.349 44.9172C516.349 40.8533 516.349 36.7296 516.349 32.546V29.3725C516.415 28.334 516.301 27.2919 516.012 26.2923C515.689 25.3001 515.152 24.391 514.439 23.6292C513.727 22.8675 512.856 22.2716 511.888 21.8837C510.902 21.5076 509.85 21.3366 508.796 21.3811H400.479C399.271 21.3791 398.084 21.6878 397.03 22.2774C395.976 22.8671 395.091 23.7181 394.46 24.7486C393.831 25.7729 393.477 26.9429 393.434 28.1447C393.434 29.3581 393.434 30.5931 393.434 31.8065V74.8865C393.434 93.5545 393.434 111.576 393.434 128.737C393.434 145.897 393.434 162.202 393.434 177.467V183.111C393.326 184.951 393.921 186.763 395.099 188.18C396.263 189.562 397.91 190.448 399.704 190.657C400.579 190.736 401.49 190.693 402.38 190.707H405.048H425.399L486.817 190.765H503.516L486.817 190.8L425.291 191.009H402.265C401.368 191.009 400.486 191.045 399.56 190.958C397.69 190.75 395.972 189.83 394.761 188.388C393.533 186.913 392.907 185.028 393.011 183.111V177.438C393.011 162.174 393.011 145.846 393.011 128.708C393.011 111.569 393.011 93.5258 393.011 74.8578V46.3963C393.011 41.5713 393.011 36.7128 393.011 31.8209C393.011 30.6003 393.011 29.3868 393.011 28.1447C393.052 26.8737 393.425 25.6357 394.094 24.5547C394.758 23.4694 395.688 22.5731 396.798 21.9519C397.907 21.3307 399.157 21.0056 400.428 21.0078H508.746C509.844 20.9593 510.94 21.1377 511.967 21.5319C512.979 21.9416 513.889 22.5686 514.633 23.3688C515.376 24.169 515.935 25.1229 516.271 26.163C516.575 27.1941 516.694 28.271 516.622 29.3438V32.4886C516.622 36.6674 516.622 40.7911 516.622 44.8597C516.622 52.9971 516.622 60.8807 516.622 68.5107C516.622 83.7682 516.622 97.9487 516.622 110.966C516.622 136.915 516.579 157.916 516.565 172.441C516.565 176.067 516.565 179.291 516.565 182.084C516.565 182.802 516.565 183.455 516.565 184.102C516.527 184.723 516.406 185.336 516.206 185.925C515.798 187.13 515.082 188.206 514.13 189.048C513.177 189.889 512.021 190.466 510.776 190.721C510.411 190.789 510.042 190.83 509.671 190.844L509.219 190.879Z" fill="#263238"/>
<path d="M405.206 30.5644C405.206 30.9705 405.085 31.3675 404.86 31.7052C404.635 32.0429 404.314 32.3061 403.939 32.4615C403.564 32.617 403.152 32.6576 402.754 32.5784C402.356 32.4992 401.99 32.3036 401.703 32.0164C401.417 31.7292 401.221 31.3633 401.142 30.965C401.063 30.5666 401.103 30.1538 401.259 29.7785C401.414 29.4033 401.677 29.0826 402.014 28.857C402.352 28.6313 402.748 28.5109 403.154 28.5109C403.698 28.5109 404.22 28.7272 404.605 29.1123C404.99 29.4974 405.206 30.0197 405.206 30.5644Z" fill="black"/>
<path d="M411.705 30.5644C411.706 30.9722 411.587 31.3713 411.361 31.7112C411.136 32.051 410.815 32.3162 410.439 32.4733C410.063 32.6303 409.649 32.6722 409.249 32.5935C408.849 32.5148 408.482 32.3191 408.193 32.0312C407.904 31.7433 407.708 31.3761 407.627 30.9762C407.547 30.5763 407.588 30.1616 407.743 29.7846C407.899 29.4077 408.163 29.0854 408.502 28.8587C408.84 28.6319 409.239 28.5109 409.646 28.5109C410.191 28.5109 410.713 28.727 411.099 29.1119C411.485 29.4968 411.703 30.0191 411.705 30.5644Z" fill="black"/>
<path d="M418.197 30.5644C418.198 30.9722 418.078 31.3713 417.853 31.7112C417.628 32.051 417.307 32.3162 416.931 32.4733C416.555 32.6303 416.14 32.6722 415.741 32.5935C415.341 32.5148 414.973 32.3191 414.685 32.0312C414.396 31.7433 414.199 31.3761 414.119 30.9762C414.039 30.5763 414.08 30.1616 414.235 29.7846C414.391 29.4077 414.655 29.0854 414.993 28.8587C415.332 28.6319 415.73 28.5109 416.138 28.5109C416.408 28.5099 416.675 28.5624 416.925 28.6651C417.175 28.7679 417.402 28.919 417.593 29.1098C417.784 29.3006 417.936 29.5273 418.04 29.7769C418.143 30.0265 418.197 30.2941 418.197 30.5644Z" fill="black"/>
<path d="M446.273 81.0613V71.0093C446.278 70.5699 446.398 70.1395 446.621 69.7608C446.844 69.3821 447.162 69.0684 447.543 68.8507C447.925 68.6329 448.356 68.5188 448.795 68.5196C449.234 68.5204 449.666 68.6362 450.046 68.8553L458.984 73.8813L467.922 78.9073C468.302 79.1148 468.62 79.421 468.841 79.7937C469.062 80.1665 469.179 80.5919 469.179 81.0254C469.179 81.4589 469.062 81.8843 468.841 82.2571C468.62 82.6298 468.302 82.936 467.922 83.1435L458.984 88.1695L450.046 93.1955C449.668 93.4133 449.24 93.5291 448.804 93.5315C448.368 93.534 447.939 93.423 447.558 93.2095C447.178 92.9959 446.859 92.6872 446.634 92.3134C446.409 91.9397 446.284 91.5138 446.273 91.0774V81.0613Z" fill="#9747FF"/>
<path d="M123.217 90.8459H369.147C369.995 90.8459 370.835 91.0131 371.618 91.338C372.402 91.6628 373.114 92.1389 373.714 92.7392C374.313 93.3395 374.789 94.0521 375.114 94.8365C375.438 95.6208 375.605 96.4615 375.605 97.3105V259.772C375.605 261.996 374.723 264.127 373.153 265.699C371.582 267.271 369.452 268.154 367.232 268.154H122.829C121.221 268.154 119.679 267.515 118.542 266.376C117.405 265.238 116.766 263.694 116.766 262.084V97.3105C116.766 95.597 117.445 93.9537 118.655 92.7416C119.865 91.5295 121.505 90.8478 123.217 90.8459Z" stroke="black"/>
<path d="M165.763 115.921H151.435C150.33 115.921 149.435 116.816 149.435 117.921C149.435 119.025 150.33 119.92 151.435 119.92H165.763C166.868 119.92 167.763 119.025 167.763 117.921C167.763 116.816 166.868 115.921 165.763 115.921Z" fill="#3E3E3E"/>
<path d="M156.596 133.835H151.435C150.33 133.835 149.435 134.73 149.435 135.835C149.435 136.939 150.33 137.834 151.435 137.834H156.596C157.7 137.834 158.595 136.939 158.595 135.835C158.595 134.73 157.7 133.835 156.596 133.835Z" fill="#9747FF"/>
<path d="M167.234 142.846H158.328C157.224 142.846 156.329 143.741 156.329 144.846C156.329 145.95 157.224 146.845 158.328 146.845H167.234C168.338 146.845 169.233 145.95 169.233 144.846C169.233 143.741 168.338 142.846 167.234 142.846Z" fill="#3E3E3E"/>
<path d="M176.803 142.846H173.285C172.18 142.846 171.285 143.741 171.285 144.846C171.285 145.95 172.18 146.845 173.285 146.845H176.803C177.908 146.845 178.803 145.95 178.803 144.846C178.803 143.741 177.908 142.846 176.803 142.846Z" fill="#3E3E3E"/>
<path d="M244.204 142.846H232.744C231.64 142.846 230.745 143.741 230.745 144.846C230.745 145.95 231.64 146.845 232.744 146.845H244.204C245.308 146.845 246.203 145.95 246.203 144.846C246.203 143.741 245.308 142.846 244.204 142.846Z" fill="#3E3E3E"/>
<path d="M289.396 151.627H267.277C266.173 151.627 265.277 152.522 265.277 153.627C265.277 154.731 266.173 155.626 267.277 155.626H289.396C290.5 155.626 291.395 154.731 291.395 153.627C291.395 152.522 290.5 151.627 289.396 151.627Z" fill="#3E3E3E"/>
<path d="M329.695 142.846H321.149C320.044 142.846 319.149 143.741 319.149 144.846C319.149 145.95 320.044 146.845 321.149 146.845H329.695C330.8 146.845 331.695 145.95 331.695 144.846C331.695 143.741 330.8 142.846 329.695 142.846Z" fill="#3E3E3E"/>
<path d="M358.762 142.846H337.54C336.435 142.846 335.54 143.741 335.54 144.846C335.54 145.95 336.435 146.845 337.54 146.845H358.762C359.866 146.845 360.761 145.95 360.761 144.846C360.761 143.741 359.866 142.846 358.762 142.846Z" fill="#3E3E3E"/>
<path d="M167.234 151.627H158.328C157.224 151.627 156.329 152.522 156.329 153.627C156.329 154.731 157.224 155.626 158.328 155.626H167.234C168.338 155.626 169.233 154.731 169.233 153.627C169.233 152.522 168.338 151.627 167.234 151.627Z" fill="#3E3E3E"/>
<path d="M159.308 160.387H150.402C149.298 160.387 148.402 161.282 148.402 162.386C148.402 163.491 149.298 164.386 150.402 164.386H159.308C160.412 164.386 161.307 163.491 161.307 162.386C161.307 161.282 160.412 160.387 159.308 160.387Z" fill="#9747FF"/>
<path d="M159.3 169.154H157.274C156.17 169.154 155.274 170.049 155.274 171.153C155.274 172.258 156.17 173.153 157.274 173.153H159.3C160.405 173.153 161.3 172.258 161.3 171.153C161.3 170.049 160.405 169.154 159.3 169.154Z" fill="#3E3E3E"/>
<path d="M181.43 187.606H179.403C178.299 187.606 177.404 188.501 177.404 189.606C177.404 190.71 178.299 191.605 179.403 191.605H181.43C182.534 191.605 183.429 190.71 183.429 189.606C183.429 188.501 182.534 187.606 181.43 187.606Z" fill="#3E3E3E"/>
<path d="M270.107 220.957H262.327C261.223 220.957 260.328 221.853 260.328 222.957C260.328 224.061 261.223 224.957 262.327 224.957H270.107C271.211 224.957 272.106 224.061 272.106 222.957C272.106 221.853 271.211 220.957 270.107 220.957Z" fill="#3E3E3E"/>
<path d="M335.915 220.957H311.056C309.951 220.957 309.056 221.853 309.056 222.957C309.056 224.061 309.951 224.957 311.056 224.957H335.915C337.019 224.957 337.914 224.061 337.914 222.957C337.914 221.853 337.019 220.957 335.915 220.957Z" fill="#3E3E3E"/>
<path d="M225.761 212.205H217.982C216.877 212.205 215.982 213.1 215.982 214.205C215.982 215.309 216.877 216.204 217.982 216.204H225.761C226.865 216.204 227.761 215.309 227.761 214.205C227.761 213.1 226.865 212.205 225.761 212.205Z" fill="#313131"/>
<path d="M183.087 204.687H175.308C174.203 204.687 173.308 205.583 173.308 206.687C173.308 207.791 174.203 208.687 175.308 208.687H183.087C184.191 208.687 185.087 207.791 185.087 206.687C185.087 205.583 184.191 204.687 183.087 204.687Z" fill="#3E3E3E"/>
<path d="M255.889 220.957H241.317C240.212 220.957 239.317 221.853 239.317 222.957C239.317 224.061 240.212 224.957 241.317 224.957H255.889C256.993 224.957 257.889 224.061 257.889 222.957C257.889 221.853 256.993 220.957 255.889 220.957Z" fill="#3E3E3E"/>
<path d="M163.059 178.078H157.274C156.17 178.078 155.274 178.974 155.274 180.078C155.274 181.182 156.17 182.078 157.274 182.078H163.059C164.164 182.078 165.059 181.182 165.059 180.078C165.059 178.974 164.164 178.078 163.059 178.078Z" fill="#3E3E3E"/>
<path d="M171.423 187.757H157.274C156.17 187.757 155.274 188.652 155.274 189.757C155.274 190.861 156.17 191.756 157.274 191.756H171.423C172.528 191.756 173.423 190.861 173.423 189.757C173.423 188.652 172.528 187.757 171.423 187.757Z" fill="#3E3E3E"/>
<path d="M179.823 195.174H157.274C156.17 195.174 155.274 196.069 155.274 197.174C155.274 198.278 156.17 199.173 157.274 199.173H179.823C180.928 199.173 181.823 198.278 181.823 197.174C181.823 196.069 180.928 195.174 179.823 195.174Z" fill="#3E3E3E"/>
<path d="M227.927 195.174H205.378C204.274 195.174 203.378 196.069 203.378 197.174C203.378 198.278 204.274 199.173 205.378 199.173H227.927C229.032 199.173 229.927 198.278 229.927 197.174C229.927 196.069 229.032 195.174 227.927 195.174Z" fill="#3E3E3E"/>
<path d="M208.351 212.205H175.071C173.967 212.205 173.071 213.1 173.071 214.205C173.071 215.309 173.967 216.204 175.071 216.204H208.351C209.456 216.204 210.351 215.309 210.351 214.205C210.351 213.1 209.456 212.205 208.351 212.205Z" fill="#3E3E3E"/>
<path d="M234.125 220.957H175.071C173.967 220.957 173.071 221.853 173.071 222.957C173.071 224.061 173.967 224.957 175.071 224.957H234.125C235.23 224.957 236.125 224.061 236.125 222.957C236.125 221.853 235.23 220.957 234.125 220.957Z" fill="#3E3E3E"/>
<path d="M215.052 229.71H155.997C154.893 229.71 153.998 230.605 153.998 231.709C153.998 232.814 154.893 233.709 155.997 233.709H215.052C216.156 233.709 217.051 232.814 217.051 231.709C217.051 230.605 216.156 229.71 215.052 229.71Z" fill="#3E3E3E"/>
<path d="M198.553 195.174H186.627C185.523 195.174 184.627 196.069 184.627 197.174C184.627 198.278 185.523 199.173 186.627 199.173H198.553C199.657 199.173 200.552 198.278 200.552 197.174C200.552 196.069 199.657 195.174 198.553 195.174Z" fill="#3E3E3E"/>
<path d="M178.116 169.154H165.681C164.576 169.154 163.681 170.049 163.681 171.153C163.681 172.258 164.576 173.153 165.681 173.153H178.116C179.22 173.153 180.115 172.258 180.115 171.153C180.115 170.049 179.22 169.154 178.116 169.154Z" fill="#3E3E3E"/>
<path d="M181.738 178.078H169.303C168.199 178.078 167.304 178.974 167.304 180.078C167.304 181.182 168.199 182.078 169.303 182.078H181.738C182.843 182.078 183.738 181.182 183.738 180.078C183.738 178.974 182.843 178.078 181.738 178.078Z" fill="#3E3E3E"/>
<path d="M245.416 178.078H205.895C204.79 178.078 203.895 178.974 203.895 180.078C203.895 181.182 204.79 182.078 205.895 182.078H245.416C246.52 182.078 247.416 181.182 247.416 180.078C247.416 178.974 246.52 178.078 245.416 178.078Z" fill="#3E3E3E"/>
<path d="M296.863 178.078H250.599C249.494 178.078 248.599 178.974 248.599 180.078C248.599 181.182 249.494 182.078 250.599 182.078H296.863C297.967 182.078 298.863 181.182 298.863 180.078C298.863 178.974 297.967 178.078 296.863 178.078Z" fill="#3E3E3E"/>
<path d="M198.043 178.078H188.442C187.338 178.078 186.442 178.974 186.442 180.078C186.442 181.182 187.338 182.078 188.442 182.078H198.043C199.148 182.078 200.043 181.182 200.043 180.078C200.043 178.974 199.148 178.078 198.043 178.078Z" fill="#3E3E3E"/>
<path d="M201.91 169.154H184.367C183.263 169.154 182.368 170.049 182.368 171.153C182.368 172.258 183.263 173.153 184.367 173.153H201.91C203.014 173.153 203.909 172.258 203.909 171.153C203.909 170.049 203.014 169.154 201.91 169.154Z" fill="#3E3E3E"/>
<path d="M216.285 169.154H208.291C207.186 169.154 206.291 170.049 206.291 171.153C206.291 172.258 207.186 173.153 208.291 173.153H216.285C217.39 173.153 218.285 172.258 218.285 171.153C218.285 170.049 217.39 169.154 216.285 169.154Z" fill="#313131"/>
<path d="M182.736 151.627H173.285C172.18 151.627 171.285 152.522 171.285 153.627C171.285 154.731 172.18 155.626 173.285 155.626H182.736C183.84 155.626 184.735 154.731 184.735 153.627C184.735 152.522 183.84 151.627 182.736 151.627Z" fill="#3E3E3E"/>
<path d="M258.292 151.627H195.874C194.769 151.627 193.874 152.522 193.874 153.627C193.874 154.731 194.769 155.626 195.874 155.626H258.292C259.397 155.626 260.292 154.731 260.292 153.627C260.292 152.522 259.397 151.627 258.292 151.627Z" fill="#3E3E3E"/>
<path d="M332.852 178.078H305.446C304.342 178.078 303.447 178.974 303.447 180.078C303.447 181.182 304.342 182.078 305.446 182.078H332.852C333.956 182.078 334.852 181.182 334.852 180.078C334.852 178.974 333.956 178.078 332.852 178.078Z" fill="#3E3E3E"/>
<path d="M304.575 220.957H277.169C276.065 220.957 275.169 221.853 275.169 222.957C275.169 224.061 276.065 224.957 277.169 224.957H304.575C305.679 224.957 306.574 224.061 306.574 222.957C306.574 221.853 305.679 220.957 304.575 220.957Z" fill="#3E3E3E"/>
<path d="M312.264 142.846H250.836C249.731 142.846 248.836 143.741 248.836 144.846C248.836 145.95 249.731 146.845 250.836 146.845H312.264C313.369 146.845 314.264 145.95 314.264 144.846C314.264 143.741 313.369 142.846 312.264 142.846Z" fill="#3E3E3E"/>
<path d="M224.678 142.846H183.148C182.044 142.846 181.148 143.741 181.148 144.846C181.148 145.95 182.044 146.845 183.148 146.845H224.678C225.782 146.845 226.678 145.95 226.678 144.846C226.678 143.741 225.782 142.846 224.678 142.846Z" fill="#3E3E3E"/>
<path d="M178.087 124.401H151.435C150.33 124.401 149.435 125.296 149.435 126.4C149.435 127.505 150.33 128.4 151.435 128.4H178.087C179.191 128.4 180.087 127.505 180.087 126.4C180.087 125.296 179.191 124.401 178.087 124.401Z" fill="#3E3E3E"/>
<path d="M223.114 124.401H185.142C184.038 124.401 183.143 125.296 183.143 126.4C183.143 127.505 184.038 128.4 185.142 128.4H223.114C224.218 128.4 225.114 127.505 225.114 126.4C225.114 125.296 224.218 124.401 223.114 124.401Z" fill="#3E3E3E"/>
<path d="M182.112 115.921H172.618C171.513 115.921 170.618 116.816 170.618 117.921C170.618 119.025 171.513 119.92 172.618 119.92H182.112C183.216 119.92 184.111 119.025 184.111 117.921C184.111 116.816 183.216 115.921 182.112 115.921Z" fill="#313131"/>
<path d="M135.447 117.984V117.858C135.447 116.788 134.58 115.921 133.511 115.921C132.441 115.921 131.574 116.788 131.574 117.858V117.984C131.574 119.053 132.441 119.92 133.511 119.92C134.58 119.92 135.447 119.053 135.447 117.984Z" fill="#3E3E3E"/>
<path d="M135.447 126.736V126.61C135.447 125.541 134.58 124.674 133.511 124.674C132.441 124.674 131.574 125.541 131.574 126.61V126.736C131.574 127.806 132.441 128.673 133.511 128.673C134.58 128.673 135.447 127.806 135.447 126.736Z" fill="#3E3E3E"/>
<path d="M135.447 135.488V135.363C135.447 134.293 134.58 133.426 133.511 133.426C132.441 133.426 131.574 134.293 131.574 135.363V135.488C131.574 136.558 132.441 137.425 133.511 137.425C134.58 137.425 135.447 136.558 135.447 135.488Z" fill="#3E3E3E"/>
<path d="M135.447 144.241V144.115C135.447 143.045 134.58 142.178 133.511 142.178C132.441 142.178 131.574 143.045 131.574 144.115V144.241C131.574 145.31 132.441 146.178 133.511 146.178C134.58 146.178 135.447 145.31 135.447 144.241Z" fill="#3E3E3E"/>
<path d="M135.447 152.993V152.868C135.447 151.798 134.58 150.931 133.511 150.931C132.441 150.931 131.574 151.798 131.574 152.868V152.993C131.574 154.063 132.441 154.93 133.511 154.93C134.58 154.93 135.447 154.063 135.447 152.993Z" fill="#3E3E3E"/>
<path d="M135.447 161.746V161.62C135.447 160.55 134.58 159.683 133.511 159.683C132.441 159.683 131.574 160.55 131.574 161.62V161.746C131.574 162.815 132.441 163.682 133.511 163.682C134.58 163.682 135.447 162.815 135.447 161.746Z" fill="#3E3E3E"/>
<path d="M135.447 170.498V170.372C135.447 169.303 134.58 168.436 133.511 168.436C132.441 168.436 131.574 169.303 131.574 170.372V170.498C131.574 171.568 132.441 172.435 133.511 172.435C134.58 172.435 135.447 171.568 135.447 170.498Z" fill="#3E3E3E"/>
<path d="M135.447 179.251V179.125C135.447 178.055 134.58 177.188 133.511 177.188C132.441 177.188 131.574 178.055 131.574 179.125V179.251C131.574 180.32 132.441 181.187 133.511 181.187C134.58 181.187 135.447 180.32 135.447 179.251Z" fill="#3E3E3E"/>
<path d="M135.447 188.003V187.877C135.447 186.808 134.58 185.94 133.511 185.94C132.441 185.94 131.574 186.808 131.574 187.877V188.003C131.574 189.073 132.441 189.94 133.511 189.94C134.58 189.94 135.447 189.073 135.447 188.003Z" fill="#3E3E3E"/>
<path d="M179.952 248.615H177.926C176.822 248.615 175.926 249.51 175.926 250.614C175.926 251.719 176.822 252.614 177.926 252.614H179.952C181.057 252.614 181.952 251.719 181.952 250.614C181.952 249.51 181.057 248.615 179.952 248.615Z" fill="#313131"/>
<path d="M170.261 248.615H156.112C155.008 248.615 154.112 249.51 154.112 250.614C154.112 251.719 155.008 252.614 156.112 252.614H170.261C171.366 252.614 172.261 251.719 172.261 250.614C172.261 249.51 171.366 248.615 170.261 248.615Z" fill="#9747FF"/>
<path d="M135.447 250.232V250.106C135.447 249.037 134.58 248.17 133.511 248.17C132.441 248.17 131.574 249.037 131.574 250.106V250.232C131.574 251.302 132.441 252.169 133.511 252.169C134.58 252.169 135.447 251.302 135.447 250.232Z" fill="#3E3E3E"/>
<path d="M135.447 196.755V196.63C135.447 195.56 134.58 194.693 133.511 194.693C132.441 194.693 131.574 195.56 131.574 196.63V196.755C131.574 197.825 132.441 198.692 133.511 198.692C134.58 198.692 135.447 197.825 135.447 196.755Z" fill="#3E3E3E"/>
<path d="M135.447 205.508V205.382C135.447 204.312 134.58 203.445 133.511 203.445C132.441 203.445 131.574 204.312 131.574 205.382V205.508C131.574 206.577 132.441 207.445 133.511 207.445C134.58 207.445 135.447 206.577 135.447 205.508Z" fill="#3E3E3E"/>
<path d="M135.447 214.267V214.142C135.447 213.072 134.58 212.205 133.511 212.205C132.441 212.205 131.574 213.072 131.574 214.142V214.267C131.574 215.337 132.441 216.204 133.511 216.204C134.58 216.204 135.447 215.337 135.447 214.267Z" fill="#3E3E3E"/>
<path d="M135.447 223.02V222.894C135.447 221.824 134.58 220.957 133.511 220.957C132.441 220.957 131.574 221.824 131.574 222.894V223.02C131.574 224.089 132.441 224.957 133.511 224.957C134.58 224.957 135.447 224.089 135.447 223.02Z" fill="#3E3E3E"/>
<path d="M135.447 231.772V231.647C135.447 230.577 134.58 229.71 133.511 229.71C132.441 229.71 131.574 230.577 131.574 231.647V231.772C131.574 232.842 132.441 233.709 133.511 233.709C134.58 233.709 135.447 232.842 135.447 231.772Z" fill="#3E3E3E"/>
<path d="M170.383 238.922H155.997C154.893 238.922 153.998 239.817 153.998 240.921C153.998 242.026 154.893 242.921 155.997 242.921H170.383C171.488 242.921 172.383 242.026 172.383 240.921C172.383 239.817 171.488 238.922 170.383 238.922Z" fill="#3E3E3E"/>
<path d="M215.51 238.922H177.926C176.822 238.922 175.926 239.817 175.926 240.921C175.926 242.026 176.822 242.921 177.926 242.921H215.51C216.615 242.921 217.51 242.026 217.51 240.921C217.51 239.817 216.615 238.922 215.51 238.922Z" fill="#3E3E3E"/>
<path d="M135.447 240.984V240.858C135.447 239.789 134.58 238.922 133.511 238.922C132.441 238.922 131.574 239.789 131.574 240.858V240.984C131.574 242.054 132.441 242.921 133.511 242.921C134.58 242.921 135.447 242.054 135.447 240.984Z" fill="#3E3E3E"/>
<path d="M241.736 124.372H232.242C231.138 124.372 230.243 125.267 230.243 126.372C230.243 127.476 231.138 128.371 232.242 128.371H241.736C242.84 128.371 243.736 127.476 243.736 126.372C243.736 125.267 242.84 124.372 241.736 124.372Z" fill="#313131"/>
<path d="M130.763 104.627C132.28 104.627 133.51 103.396 133.51 101.877C133.51 100.358 132.28 99.1271 130.763 99.1271C129.246 99.1271 128.016 100.358 128.016 101.877C128.016 103.396 129.246 104.627 130.763 104.627Z" fill="#3E3E3E"/>
<path d="M138.381 104.627C139.899 104.627 141.129 103.396 141.129 101.877C141.129 100.358 139.899 99.1271 138.381 99.1271C136.864 99.1271 135.634 100.358 135.634 101.877C135.634 103.396 136.864 104.627 138.381 104.627Z" fill="#3E3E3E"/>
<path d="M145.999 104.627C147.517 104.627 148.747 103.396 148.747 101.877C148.747 100.358 147.517 99.1271 145.999 99.1271C144.482 99.1271 143.252 100.358 143.252 101.877C143.252 103.396 144.482 104.627 145.999 104.627Z" fill="#3E3E3E"/>
<g opacity="0.3">
<path d="M353.272 197.17H255.443C252.574 197.17 250.249 199.497 250.249 202.368V254.05C250.249 256.921 252.574 259.248 255.443 259.248H353.272C356.141 259.248 358.466 256.921 358.466 254.05V202.368C358.466 199.497 356.141 197.17 353.272 197.17Z" fill="black"/>
</g>
<path d="M362.921 190.536H261.074C259.315 190.536 257.889 191.963 257.889 193.724V249.426C257.889 251.187 259.315 252.614 261.074 252.614H362.921C364.68 252.614 366.106 251.187 366.106 249.426V193.724C366.106 191.963 364.68 190.536 362.921 190.536Z" fill="#9747FF"/>
<path d="M142.283 114.779C142.384 114.779 142.47 149.208 142.47 191.677C142.47 234.147 142.384 268.582 142.283 268.582C142.183 268.582 142.097 234.154 142.097 191.677C142.097 149.2 142.176 114.779 142.283 114.779Z" fill="#3E3E3E"/>
<path d="M426.253 258.559C426.255 259.251 426.051 259.928 425.668 260.504C425.285 261.08 424.74 261.529 424.102 261.795C423.464 262.06 422.761 262.131 422.083 261.996C421.405 261.862 420.782 261.53 420.292 261.041C419.803 260.552 419.47 259.929 419.334 259.251C419.199 258.572 419.268 257.869 419.532 257.23C419.796 256.59 420.244 256.044 420.818 255.659C421.393 255.275 422.069 255.069 422.76 255.069C423.685 255.069 424.573 255.437 425.228 256.091C425.883 256.745 426.251 257.633 426.253 258.559Z" fill="#9747FF"/>
<path d="M443.175 243.079C443.175 243.77 442.97 244.447 442.587 245.022C442.203 245.597 441.657 246.045 441.019 246.309C440.38 246.574 439.678 246.643 439 246.508C438.323 246.373 437.7 246.04 437.212 245.551C436.723 245.062 436.39 244.439 436.256 243.761C436.121 243.083 436.19 242.38 436.454 241.741C436.719 241.102 437.167 240.556 437.741 240.172C438.316 239.787 438.991 239.582 439.682 239.582C440.608 239.582 441.497 239.951 442.152 240.606C442.807 241.262 443.175 242.152 443.175 243.079Z" fill="#9747FF"/>
<path d="M426.591 227.606C426.592 228.298 426.389 228.975 426.006 229.551C425.623 230.127 425.077 230.576 424.439 230.842C423.801 231.107 423.098 231.178 422.42 231.044C421.742 230.909 421.119 230.577 420.63 230.088C420.14 229.6 419.807 228.976 419.672 228.298C419.536 227.62 419.605 226.916 419.869 226.277C420.133 225.637 420.581 225.091 421.156 224.706C421.73 224.322 422.406 224.117 423.097 224.117C423.556 224.116 424.01 224.205 424.434 224.38C424.858 224.555 425.243 224.812 425.567 225.136C425.892 225.46 426.149 225.845 426.325 226.269C426.5 226.693 426.591 227.147 426.591 227.606Z" fill="#9747FF"/>
<path d="M439.201 243.079C439.201 243.179 425.608 243.266 408.844 243.266C392.08 243.266 378.486 243.179 378.486 243.079C378.486 242.978 392.073 242.892 408.844 242.892C425.615 242.892 439.201 242.971 439.201 243.079Z" fill="#9747FF"/>
<path d="M422.76 260.153C422.66 260.153 422.574 253.009 422.574 244.199C422.574 235.389 422.66 228.245 422.76 228.245C422.861 228.245 422.947 235.389 422.947 244.199C422.947 253.009 422.868 260.153 422.76 260.153Z" fill="#9747FF"/>
<path d="M224.812 280.738C224.823 280.838 224.823 280.939 224.812 281.04C224.812 281.262 224.812 281.557 224.812 281.937C224.812 282.741 224.812 283.897 224.848 285.376C224.848 288.392 224.884 292.707 224.906 298.042C224.906 300.72 224.906 303.649 224.906 306.787C224.906 307.577 224.906 308.374 224.906 309.185C224.906 309.997 224.949 310.815 224.855 311.677C224.685 313.019 224.1 314.275 223.184 315.269C222.267 316.264 221.064 316.948 219.741 317.227C218.824 317.358 217.897 317.404 216.972 317.363H199.483L157.735 317.306L145.081 317.248L141.645 317.212H145.081L157.735 317.148L199.483 317.098H217.036C217.937 317.141 218.84 317.1 219.734 316.975C220.589 316.804 221.396 316.449 222.101 315.934C222.781 315.441 223.353 314.815 223.782 314.092C224.212 313.37 224.489 312.567 224.597 311.734C224.683 310.93 224.597 310.09 224.647 309.279C224.698 308.467 224.647 307.67 224.647 306.88C224.647 303.743 224.647 300.813 224.647 298.135C224.647 292.8 224.698 288.485 224.712 285.47C224.712 283.991 224.712 282.835 224.712 282.03C224.712 281.65 224.712 281.355 224.712 281.133C224.729 280.998 224.762 280.865 224.812 280.738Z" fill="#9747FF"/>
<path d="M227.309 278.239C227.304 278.734 227.154 279.217 226.876 279.626C226.598 280.036 226.205 280.354 225.747 280.54C225.288 280.726 224.785 280.772 224.301 280.672C223.817 280.573 223.373 280.332 223.025 279.98C222.677 279.628 222.442 279.18 222.347 278.694C222.253 278.208 222.305 277.706 222.496 277.249C222.688 276.793 223.01 276.403 223.422 276.129C223.834 275.856 224.318 275.711 224.812 275.712C225.142 275.713 225.469 275.779 225.773 275.907C226.077 276.035 226.354 276.221 226.586 276.456C226.818 276.691 227.001 276.969 227.125 277.275C227.249 277.582 227.311 277.909 227.309 278.239Z" fill="#9747FF"/>
<path d="M143.022 316.796C143.022 317.292 142.875 317.777 142.6 318.189C142.324 318.601 141.933 318.922 141.475 319.112C141.017 319.301 140.513 319.35 140.028 319.253C139.542 319.156 139.096 318.916 138.746 318.565C138.396 318.214 138.158 317.767 138.062 317.28C137.967 316.794 138.017 316.29 138.208 315.832C138.398 315.374 138.72 314.983 139.133 314.709C139.546 314.434 140.03 314.289 140.526 314.29C140.854 314.29 141.179 314.355 141.483 314.481C141.786 314.607 142.062 314.792 142.294 315.025C142.525 315.257 142.709 315.534 142.834 315.838C142.959 316.142 143.023 316.467 143.022 316.796Z" fill="#9747FF"/>
<path d="M245.966 57.0882H193.386C190.066 57.0882 187.375 59.782 187.375 63.105V93.8282C187.375 97.1512 190.066 99.8451 193.386 99.8451H245.966C249.286 99.8451 251.978 97.1512 251.978 93.8282V63.105C251.978 59.782 249.286 57.0882 245.966 57.0882Z" fill="#9747FF"/>
<g opacity="0.3">
<path d="M245.966 57.0882H193.386C190.066 57.0882 187.375 59.782 187.375 63.105V93.8282C187.375 97.1512 190.066 99.8451 193.386 99.8451H245.966C249.286 99.8451 251.978 97.1512 251.978 93.8282V63.105C251.978 59.782 249.286 57.0882 245.966 57.0882Z" fill="black"/>
</g>
<path d="M241.626 57.0882H189.046C185.726 57.0882 183.035 59.782 183.035 63.105V93.8282C183.035 97.1512 185.726 99.8451 189.046 99.8451H241.626C244.946 99.8451 247.638 97.1512 247.638 93.8282V63.105C247.638 59.782 244.946 57.0882 241.626 57.0882Z" fill="#9747FF"/>
<path d="M208.356 76.0649L199.555 79.1882L208.356 82.3115V86.3467L194.727 81.3207V77.0701L208.356 72.0441V76.0649Z" fill="black"/>
<path d="M218.069 65.5965H222.732L213.622 91.6168H208.959L218.069 65.5965Z" fill="black"/>
<path d="M236.62 77.0629V81.3135L222.99 86.3395V82.3043L231.799 79.181L222.99 76.0577V72.0226L236.62 77.0629Z" fill="black"/>
<path d="M309.953 72.3529C312.096 71.0585 314.402 70.0564 316.811 69.3732L318.245 62.5737L329.723 62.3727L331.373 69.1147C333.805 69.712 336.145 70.6345 338.331 71.8574L341.516 68.052H344.127L352.383 76.029L348.797 81.9597C350.092 84.1036 351.094 86.4123 351.774 88.8238L358.56 90.2598L358.768 101.748L351.996 103.392C351.396 105.823 350.474 108.163 349.256 110.349L353.058 116.158L345.088 124.415H342.477L339.163 120.825C337.021 122.122 334.714 123.124 332.305 123.805L330.87 130.604L319.393 130.805L317.743 124.063C315.312 123.465 312.971 122.542 310.785 121.32L304.989 125.126H302.378L296.74 117.149L300.326 111.218C299.028 109.075 298.025 106.766 297.342 104.354L290.556 102.918L290.355 91.4301L297.091 89.7715C297.687 87.3381 298.606 84.9956 299.824 82.8069L296.03 77.0055L301.381 68.7485H303.992L309.917 72.3385L309.953 72.3529ZM316.072 87.6463C314.382 89.3986 313.25 91.6132 312.817 94.0098C312.385 96.4065 312.672 98.8777 313.643 101.111C314.614 103.344 316.225 105.239 318.271 106.556C320.318 107.873 322.709 108.553 325.142 108.509C327.575 108.466 329.94 107.702 331.939 106.313C333.938 104.924 335.48 102.974 336.371 100.707C337.262 98.4412 337.462 95.9614 336.945 93.5816C336.428 91.2018 335.218 89.0288 333.467 87.3375C332.305 86.2145 330.933 85.3317 329.429 84.7395C327.926 84.1472 326.321 83.8572 324.706 83.8858C323.09 83.9145 321.497 84.2614 320.015 84.9066C318.534 85.5518 317.194 86.4827 316.072 87.6463Z" fill="#313131"/>
<g opacity="0.3">
<path d="M309.953 72.3529C312.096 71.0585 314.402 70.0564 316.811 69.3732L318.245 62.5737L329.723 62.3727L331.373 69.1147C333.805 69.712 336.145 70.6345 338.331 71.8574L341.516 68.052H344.127L352.383 76.029L348.797 81.9597C350.092 84.1036 351.094 86.4123 351.774 88.8238L358.56 90.2598L358.768 101.748L351.996 103.392C351.396 105.823 350.474 108.163 349.256 110.349L353.058 116.158L345.088 124.415H342.477L339.163 120.825C337.021 122.122 334.714 123.124 332.305 123.805L330.87 130.604L319.393 130.805L317.743 124.063C315.312 123.465 312.971 122.542 310.785 121.32L304.989 125.126H302.378L296.74 117.149L300.326 111.218C299.028 109.075 298.025 106.766 297.342 104.354L290.556 102.918L290.355 91.4301L297.091 89.7715C297.687 87.3381 298.606 84.9956 299.824 82.8069L296.03 77.0055L301.381 68.7485H303.992L309.917 72.3385L309.953 72.3529ZM316.072 87.6463C314.382 89.3986 313.25 91.6132 312.817 94.0098C312.385 96.4065 312.672 98.8777 313.643 101.111C314.614 103.344 316.225 105.239 318.271 106.556C320.318 107.873 322.709 108.553 325.142 108.509C327.575 108.466 329.94 107.702 331.939 106.313C333.938 104.924 335.48 102.974 336.371 100.707C337.262 98.4412 337.462 95.9614 336.945 93.5816C336.428 91.2018 335.218 89.0288 333.467 87.3375C332.305 86.2145 330.933 85.3317 329.429 84.7395C327.926 84.1472 326.321 83.8572 324.706 83.8858C323.09 83.9145 321.497 84.2614 320.015 84.9066C318.534 85.5518 317.194 86.4827 316.072 87.6463Z" fill="black"/>
</g>
<path d="M307.342 72.3529C309.481 71.0565 311.785 70.0543 314.192 69.3732L315.627 62.5737L327.104 62.3727L328.754 69.1147C331.186 69.7131 333.526 70.6356 335.712 71.8574L341.508 68.052L349.758 76.029L346.171 81.9597C347.469 84.1033 348.473 86.4121 349.155 88.8238L355.941 90.2598L356.142 101.748L349.377 103.392C348.783 105.824 347.864 108.164 346.644 110.349L350.439 116.158L342.477 124.415L336.552 120.825C334.409 122.121 332.103 123.123 329.694 123.805L328.259 130.604L316.782 130.805L315.132 124.063C312.7 123.466 310.36 122.543 308.174 121.32L302.378 125.126L294.121 117.149L297.708 111.218C296.415 109.073 295.414 106.764 294.731 104.354L287.945 102.918L287.744 91.4301L294.473 89.7715C295.074 87.3388 295.995 84.9968 297.213 82.8069L293.411 77.0055L301.381 68.7485L307.306 72.3385L307.342 72.3529ZM313.453 87.6463C311.765 89.399 310.633 91.6135 310.202 94.0099C309.77 96.4063 310.058 98.8769 311.029 101.109C312 103.342 313.611 105.236 315.657 106.553C317.704 107.869 320.094 108.549 322.527 108.506C324.959 108.463 327.324 107.699 329.323 106.31C331.321 104.922 332.864 102.972 333.755 100.706C334.647 98.4407 334.847 95.9614 334.331 93.5818C333.815 91.2023 332.606 89.0293 330.856 87.3375C328.51 85.0722 325.361 83.8322 322.102 83.89C318.842 83.9479 315.739 85.299 313.475 87.6463H313.453Z" fill="#313131"/>
<path d="M506.088 331.539H506.088L458.744 331.338H458.742C453.299 331.338 448.956 327.138 448.977 322.068C448.977 322.068 448.977 322.068 448.977 322.068L449.479 210.06V210.058C449.479 204.987 453.885 200.845 459.335 200.872L459.335 200.872L506.679 201.073H506.681C512.117 201.073 516.466 205.274 516.446 210.343L515.98 322.377C515.98 322.377 515.98 322.378 515.98 322.378C515.925 327.419 511.542 331.567 506.088 331.539Z" stroke="#969696"/>
<path d="M507.026 214.625C507.025 214.701 507.009 214.776 506.978 214.846C506.948 214.915 506.905 214.978 506.85 215.031C506.795 215.084 506.73 215.125 506.66 215.153C506.589 215.18 506.513 215.194 506.437 215.192C506.363 215.192 506.289 215.177 506.22 215.149C506.152 215.12 506.089 215.078 506.037 215.026C505.984 214.973 505.942 214.91 505.914 214.842C505.885 214.773 505.871 214.699 505.871 214.625C505.871 214.55 505.885 214.476 505.914 214.408C505.942 214.339 505.984 214.276 506.037 214.223C506.089 214.171 506.152 214.129 506.22 214.101C506.289 214.072 506.363 214.057 506.437 214.057C506.513 214.055 506.589 214.069 506.66 214.096C506.73 214.124 506.795 214.165 506.85 214.218C506.905 214.271 506.948 214.334 506.978 214.404C507.009 214.473 507.025 214.549 507.026 214.625Z" fill="#263238"/>
<path d="M507.018 216.671C507.018 216.827 506.956 216.977 506.846 217.087C506.736 217.198 506.586 217.26 506.43 217.26C506.274 217.26 506.124 217.198 506.014 217.087C505.904 216.977 505.842 216.827 505.842 216.671C505.842 216.515 505.904 216.365 506.014 216.255C506.124 216.144 506.274 216.082 506.43 216.082C506.586 216.082 506.736 216.144 506.846 216.255C506.956 216.365 507.018 216.515 507.018 216.671Z" fill="#263238"/>
<path d="M507.011 218.717C507.015 218.834 506.984 218.95 506.923 219.05C506.861 219.15 506.77 219.228 506.663 219.276C506.556 219.324 506.437 219.339 506.322 219.319C506.206 219.298 506.099 219.244 506.015 219.163C505.931 219.081 505.872 218.976 505.848 218.862C505.823 218.747 505.834 218.628 505.878 218.519C505.921 218.41 505.997 218.317 506.094 218.251C506.191 218.185 506.306 218.15 506.423 218.15C506.499 218.148 506.574 218.161 506.645 218.189C506.716 218.216 506.781 218.258 506.835 218.31C506.89 218.363 506.934 218.426 506.964 218.496C506.994 218.566 507.01 218.641 507.011 218.717Z" fill="#263238"/>
<path d="M466.876 217.238C466.899 218.008 466.692 218.767 466.281 219.419C465.87 220.07 465.275 220.584 464.571 220.894C463.866 221.205 463.086 221.298 462.328 221.162C461.571 221.026 460.871 220.667 460.319 220.13C459.767 219.594 459.387 218.905 459.228 218.151C459.069 217.398 459.139 216.614 459.428 215.9C459.717 215.186 460.212 214.575 460.85 214.144C461.488 213.713 462.24 213.483 463.01 213.483C464.019 213.47 464.993 213.857 465.718 214.561C466.443 215.265 466.859 216.228 466.876 217.238Z" fill="#9747FF"/>
<path d="M495.598 217.963H475.778C475.436 217.963 475.108 217.827 474.865 217.585C474.623 217.342 474.487 217.014 474.487 216.671C474.487 216.501 474.521 216.333 474.586 216.176C474.65 216.019 474.746 215.877 474.865 215.757C474.985 215.637 475.128 215.542 475.284 215.477C475.441 215.412 475.609 215.378 475.778 215.378H495.598C495.94 215.38 496.268 215.517 496.509 215.759C496.751 216.001 496.888 216.329 496.89 216.671C496.888 217.013 496.751 217.341 496.509 217.583C496.268 217.825 495.94 217.961 495.598 217.963Z" fill="#313131"/>
<path d="M471.08 265.825V254.725C471.093 254.241 471.231 253.769 471.48 253.355C471.73 252.94 472.083 252.598 472.504 252.361C472.926 252.125 473.402 252.002 473.885 252.004C474.369 252.007 474.843 252.136 475.262 252.377L485.154 257.927L495.053 263.477C495.474 263.707 495.825 264.046 496.069 264.459C496.314 264.871 496.443 265.342 496.443 265.822C496.443 266.301 496.314 266.772 496.069 267.184C495.825 267.597 495.474 267.936 495.053 268.166L485.154 273.716L475.262 279.302C474.843 279.543 474.369 279.672 473.885 279.675C473.402 279.677 472.926 279.554 472.504 279.318C472.083 279.081 471.73 278.739 471.48 278.324C471.231 277.91 471.093 277.438 471.08 276.954V265.825Z" fill="#9747FF"/>
<path d="M366.557 314.111C370.753 307.426 377.862 305.868 384.318 307.34C383.437 300.054 385.449 292.713 389.921 286.897C394.392 281.081 400.966 277.255 408.228 276.241C415.49 275.228 422.859 277.108 428.75 281.478C434.64 285.848 438.581 292.358 439.725 299.607C446.418 294.854 456.46 298.071 461.367 304.633C466.274 311.196 466.575 325.268 460.829 331.881L368.142 331.35C368.142 331.35 361.069 322.777 366.557 314.111Z" fill="#9747FF"/>
<g opacity="0.3">
<path d="M366.557 314.111C370.753 307.426 377.862 305.868 384.318 307.34C383.437 300.054 385.449 292.713 389.921 286.897C394.392 281.081 400.966 277.255 408.228 276.241C415.49 275.228 422.859 277.108 428.75 281.478C434.64 285.848 438.581 292.358 439.725 299.607C446.418 294.854 456.46 298.071 461.367 304.633C466.274 311.196 466.575 325.268 460.829 331.881L368.142 331.35C368.142 331.35 361.069 322.777 366.557 314.111Z" fill="black"/>
</g>
<path d="M358.559 314.111C362.755 307.426 369.864 305.868 376.32 307.34C375.296 299.983 377.233 292.52 381.706 286.592C386.179 280.665 392.821 276.759 400.171 275.734C407.522 274.708 414.978 276.647 420.9 281.124C426.821 285.602 430.724 292.25 431.748 299.607C438.441 294.854 448.484 298.071 453.39 304.633C458.297 311.196 458.598 325.268 452.852 331.881L360.166 331.35C360.166 331.35 353.107 322.777 358.559 314.111Z" fill="#9747FF"/>
<path d="M35.5368 239.759H126.954C128.21 239.759 129.23 240.779 129.23 242.038V329.268C129.23 330.527 128.21 331.546 126.954 331.546H35.5368C34.2802 331.546 33.2607 330.527 33.2607 329.268V242.038C33.2607 240.779 34.2802 239.759 35.5368 239.759Z" stroke="black"/>
<mask id="path-146-inside-1_187_2924" fill="white">
<path d="M129.902 268.877C129.902 268.977 108.239 269.063 81.5322 269.063C54.8259 269.063 33.1553 268.977 33.1553 268.877C33.1553 268.776 54.8116 268.69 81.5322 268.69C108.253 268.69 129.902 268.769 129.902 268.877Z"/>
</mask>
<path d="M128.902 268.877C128.902 268.291 129.365 268.033 129.39 268.018C129.495 267.956 129.587 267.928 129.613 267.92C129.68 267.901 129.732 267.893 129.739 267.892C129.766 267.888 129.78 267.888 129.765 267.889C129.742 267.89 129.695 267.893 129.615 267.896C129.459 267.902 129.221 267.908 128.9 267.914C128.261 267.926 127.314 267.937 126.091 267.948C123.645 267.97 120.105 267.991 115.728 268.008C106.976 268.042 94.8845 268.063 81.5322 268.063V270.063C94.8863 270.063 106.98 270.042 115.736 270.008C120.114 269.991 123.658 269.97 126.109 269.948C127.334 269.937 128.288 269.925 128.938 269.913C129.261 269.907 129.515 269.901 129.689 269.895C129.775 269.891 129.852 269.888 129.913 269.883C129.94 269.881 129.985 269.878 130.033 269.87C130.051 269.868 130.111 269.859 130.183 269.838C130.211 269.829 130.305 269.801 130.412 269.738C130.438 269.722 130.902 269.463 130.902 268.877H128.902ZM81.5322 268.063C68.18 268.063 56.0871 268.042 47.3328 268.008C42.9554 267.991 39.414 267.97 36.9677 267.948C35.744 267.937 34.797 267.926 34.1572 267.914C33.8362 267.908 33.598 267.902 33.4424 267.896C33.3625 267.893 33.3151 267.89 33.2924 267.889C33.2772 267.888 33.2911 267.888 33.3181 267.892C33.3248 267.893 33.3772 267.901 33.444 267.92C33.4699 267.928 33.5617 267.956 33.6669 268.018C33.6919 268.033 34.1553 268.291 34.1553 268.877H32.1553C32.1553 269.463 32.6193 269.722 32.6456 269.738C32.7521 269.801 32.8459 269.829 32.8745 269.838C32.9465 269.859 33.0068 269.868 33.0241 269.87C33.0721 269.878 33.1175 269.881 33.1441 269.883C33.205 269.888 33.2826 269.891 33.368 269.895C33.5428 269.901 33.7962 269.907 34.12 269.913C34.7696 269.925 35.7243 269.937 36.9495 269.948C39.401 269.97 42.9464 269.991 47.325 270.008C56.0826 270.042 68.1782 270.063 81.5322 270.063V268.063ZM34.1553 268.877C34.1553 269.462 33.6924 269.72 33.6672 269.735C33.5619 269.798 33.4701 269.825 33.4442 269.833C33.3773 269.853 33.3249 269.86 33.3182 269.861C33.2912 269.865 33.2772 269.866 33.2925 269.865C33.3151 269.863 33.3625 269.86 33.4422 269.857C33.5977 269.852 33.8358 269.846 34.1566 269.84C34.796 269.828 35.7425 269.816 36.9657 269.805C39.4109 269.783 42.9509 269.763 47.3274 269.746C56.0799 269.712 68.1728 269.69 81.5322 269.69V267.69C68.171 267.69 56.0754 267.712 47.3196 267.746C42.942 267.763 39.3979 267.783 36.9475 267.805C35.7228 267.816 34.7687 267.828 34.1194 267.84C33.7958 267.846 33.5426 267.852 33.3678 267.859C33.2824 267.862 33.2049 267.866 33.144 267.87C33.1174 267.872 33.072 267.876 33.024 267.883C33.0067 267.885 32.9464 267.894 32.8743 267.916C32.8457 267.924 32.7519 267.953 32.6453 268.016C32.6188 268.032 32.1553 268.29 32.1553 268.877H34.1553ZM81.5322 269.69C94.8918 269.69 106.983 269.71 115.734 269.743C120.109 269.76 123.648 269.779 126.093 269.802C127.315 269.813 128.261 269.825 128.9 269.838C129.221 269.844 129.458 269.85 129.613 269.856C129.693 269.859 129.739 269.862 129.76 269.864C129.775 269.865 129.759 269.864 129.729 269.859C129.722 269.858 129.666 269.85 129.595 269.827C129.567 269.818 129.472 269.788 129.364 269.719C129.317 269.689 128.902 269.429 128.902 268.877H130.902C130.902 268.323 130.487 268.063 130.438 268.032C130.329 267.962 130.232 267.931 130.201 267.921C130.125 267.897 130.061 267.887 130.043 267.884C129.992 267.876 129.945 267.872 129.918 267.87C129.856 267.865 129.777 267.861 129.692 267.858C129.516 267.851 129.263 267.844 128.939 267.838C128.29 267.825 127.335 267.813 126.111 267.802C123.661 267.78 120.118 267.76 115.741 267.743C106.987 267.71 94.8934 267.69 81.5322 267.69V269.69Z" fill="black" mask="url(#path-146-inside-1_187_2924)"/>
<mask id="path-148-inside-2_187_2924" fill="white">
<path d="M129.902 298.688C129.902 298.789 108.239 298.875 81.5322 298.875C54.8259 298.875 33.1553 298.789 33.1553 298.688C33.1553 298.587 54.8116 298.501 81.5322 298.501C108.253 298.501 129.902 298.559 129.902 298.688Z"/>
</mask>
<path d="M128.902 298.688C128.902 298.102 129.365 297.844 129.39 297.829C129.495 297.767 129.587 297.739 129.613 297.732C129.68 297.712 129.732 297.705 129.739 297.704C129.766 297.7 129.78 297.699 129.765 297.7C129.742 297.702 129.695 297.704 129.615 297.707C129.459 297.713 129.221 297.719 128.9 297.725C128.261 297.737 127.314 297.749 126.091 297.76C123.645 297.782 120.105 297.802 115.728 297.819C106.976 297.853 94.8845 297.875 81.5322 297.875V299.875C94.8863 299.875 106.98 299.853 115.736 299.819C120.114 299.802 123.658 299.782 126.109 299.76C127.334 299.748 128.288 299.737 128.938 299.725C129.261 299.719 129.515 299.712 129.689 299.706C129.775 299.703 129.852 299.699 129.913 299.695C129.94 299.693 129.985 299.689 130.033 299.682C130.051 299.679 130.111 299.67 130.183 299.649C130.211 299.64 130.305 299.612 130.412 299.549C130.438 299.533 130.902 299.275 130.902 298.688H128.902ZM81.5322 297.875C68.18 297.875 56.0871 297.853 47.3328 297.819C42.9554 297.802 39.414 297.782 36.9677 297.76C35.744 297.749 34.797 297.737 34.1572 297.725C33.8362 297.719 33.598 297.713 33.4424 297.707C33.3625 297.704 33.3151 297.702 33.2924 297.7C33.2772 297.699 33.2911 297.7 33.3181 297.704C33.3248 297.705 33.3772 297.712 33.444 297.732C33.4699 297.739 33.5617 297.767 33.6669 297.829C33.6919 297.844 34.1553 298.102 34.1553 298.688H32.1553C32.1553 299.275 32.6193 299.533 32.6456 299.549C32.7521 299.612 32.8459 299.64 32.8745 299.649C32.9465 299.67 33.0068 299.679 33.0241 299.682C33.0721 299.689 33.1175 299.693 33.1441 299.695C33.205 299.699 33.2825 299.703 33.368 299.706C33.5428 299.712 33.7962 299.719 34.12 299.725C34.7696 299.737 35.7243 299.748 36.9495 299.76C39.401 299.782 42.9464 299.802 47.325 299.819C56.0826 299.853 68.1782 299.875 81.5322 299.875V297.875ZM34.1553 298.688C34.1553 299.274 33.6924 299.531 33.6672 299.546C33.5619 299.609 33.4701 299.636 33.4442 299.644C33.3773 299.664 33.3249 299.671 33.3182 299.672C33.2912 299.676 33.2772 299.677 33.2925 299.676C33.3151 299.674 33.3625 299.672 33.4422 299.669C33.5977 299.663 33.8358 299.657 34.1566 299.651C34.796 299.639 35.7425 299.627 36.9657 299.616C39.4109 299.594 42.9509 299.574 47.3274 299.557C56.0799 299.523 68.1728 299.501 81.5322 299.501V297.501C68.171 297.501 56.0754 297.523 47.3196 297.557C42.942 297.574 39.3979 297.594 36.9475 297.616C35.7228 297.628 34.7687 297.639 34.1194 297.651C33.7958 297.657 33.5426 297.664 33.3678 297.67C33.2824 297.673 33.2049 297.677 33.144 297.681C33.1174 297.683 33.072 297.687 33.024 297.694C33.0067 297.697 32.9464 297.706 32.8743 297.727C32.8457 297.736 32.7519 297.764 32.6453 297.827C32.6188 297.843 32.1553 298.102 32.1553 298.688H34.1553ZM81.5322 299.501C94.8921 299.501 106.983 299.516 115.734 299.546C120.11 299.561 123.648 299.581 126.092 299.604C127.315 299.616 128.26 299.629 128.898 299.643C129.218 299.65 129.454 299.657 129.607 299.664C129.686 299.667 129.729 299.67 129.746 299.672C129.76 299.673 129.738 299.672 129.701 299.665C129.69 299.663 129.624 299.651 129.543 299.62C129.508 299.606 129.406 299.566 129.295 299.482C129.207 299.415 128.902 299.156 128.902 298.688H130.902C130.902 298.219 130.597 297.959 130.507 297.891C130.395 297.806 130.291 297.764 130.253 297.75C130.166 297.717 130.093 297.703 130.072 297.699C130.014 297.688 129.96 297.683 129.932 297.68C129.866 297.674 129.784 297.67 129.698 297.666C129.52 297.658 129.265 297.65 128.941 297.643C128.291 297.629 127.336 297.616 126.111 297.604C123.661 297.581 120.118 297.561 115.741 297.546C106.987 297.516 94.893 297.501 81.5322 297.501V299.501Z" fill="black" mask="url(#path-148-inside-2_187_2924)"/>
<path d="M50.3927 257.03C51.5574 257.03 52.5016 256.085 52.5016 254.919C52.5016 253.753 51.5574 252.808 50.3927 252.808C49.2279 252.808 48.2837 253.753 48.2837 254.919C48.2837 256.085 49.2279 257.03 50.3927 257.03Z" fill="black"/>
<path d="M57.9537 257.03C59.1184 257.03 60.0627 256.085 60.0627 254.919C60.0627 253.753 59.1184 252.808 57.9537 252.808C56.7889 252.808 55.8447 253.753 55.8447 254.919C55.8447 256.085 56.7889 257.03 57.9537 257.03Z" fill="black"/>
<path d="M105.706 251.666H105.34C104.909 251.666 104.559 252.017 104.559 252.449V258.071C104.559 258.503 104.909 258.853 105.34 258.853H105.706C106.138 258.853 106.488 258.503 106.488 258.071V252.449C106.488 252.017 106.138 251.666 105.706 251.666Z" fill="#263238"/>
<path d="M110.57 251.666H110.204C109.772 251.666 109.422 252.017 109.422 252.449V258.071C109.422 258.503 109.772 258.853 110.204 258.853H110.57C111.002 258.853 111.352 258.503 111.352 258.071V252.449C111.352 252.017 111.002 251.666 110.57 251.666Z" fill="#263238"/>
<path d="M115.053 251.666H114.687C114.255 251.666 113.905 252.017 113.905 252.449V258.071C113.905 258.503 114.255 258.853 114.687 258.853H115.053C115.485 258.853 115.835 258.503 115.835 258.071V252.449C115.835 252.017 115.485 251.666 115.053 251.666Z" fill="black"/>
<path d="M100.785 251.666H100.42C99.9878 251.666 99.6377 252.017 99.6377 252.449V258.071C99.6377 258.503 99.9878 258.853 100.42 258.853H100.785C101.217 258.853 101.567 258.503 101.567 258.071V252.449C101.567 252.017 101.217 251.666 100.785 251.666Z" fill="#9747FF"/>
<path d="M50.3927 285.965C51.5574 285.965 52.5016 285.02 52.5016 283.854C52.5016 282.688 51.5574 281.743 50.3927 281.743C49.2279 281.743 48.2837 282.688 48.2837 283.854C48.2837 285.02 49.2279 285.965 50.3927 285.965Z" fill="black"/>
<path d="M57.5445 285.965C58.7093 285.965 59.6535 285.02 59.6535 283.854C59.6535 282.688 58.7093 281.743 57.5445 281.743C56.3798 281.743 55.4355 282.688 55.4355 283.854C55.4355 285.02 56.3798 285.965 57.5445 285.965Z" fill="black"/>
<path d="M105.706 280.609H105.34C104.909 280.609 104.559 280.959 104.559 281.391V287.013C104.559 287.446 104.909 287.796 105.34 287.796H105.706C106.138 287.796 106.488 287.446 106.488 287.013V281.391C106.488 280.959 106.138 280.609 105.706 280.609Z" fill="#263238"/>
<path d="M110.57 280.609H110.204C109.772 280.609 109.422 280.959 109.422 281.391V287.013C109.422 287.446 109.772 287.796 110.204 287.796H110.57C111.002 287.796 111.352 287.446 111.352 287.013V281.391C111.352 280.959 111.002 280.609 110.57 280.609Z" fill="#263238"/>
<path d="M115.053 280.609H114.687C114.255 280.609 113.905 280.959 113.905 281.391V287.013C113.905 287.446 114.255 287.796 114.687 287.796H115.053C115.485 287.796 115.835 287.446 115.835 287.013V281.391C115.835 280.959 115.485 280.609 115.053 280.609Z" fill="black"/>
<path d="M100.785 280.609H100.42C99.9878 280.609 99.6377 280.959 99.6377 281.391V287.013C99.6377 287.446 99.9878 287.796 100.42 287.796H100.785C101.217 287.796 101.567 287.446 101.567 287.013V281.391C101.567 280.959 101.217 280.609 100.785 280.609Z" fill="#9747FF"/>
<path d="M50.3927 317.119C51.5574 317.119 52.5016 316.174 52.5016 315.008C52.5016 313.842 51.5574 312.897 50.3927 312.897C49.2279 312.897 48.2837 313.842 48.2837 315.008C48.2837 316.174 49.2279 317.119 50.3927 317.119Z" fill="black"/>
<path d="M58.1544 317.119C59.3191 317.119 60.2633 316.174 60.2633 315.008C60.2633 313.842 59.3191 312.897 58.1544 312.897C56.9896 312.897 56.0454 313.842 56.0454 315.008C56.0454 316.174 56.9896 317.119 58.1544 317.119Z" fill="black"/>
<path d="M105.706 311.763H105.34C104.909 311.763 104.559 312.113 104.559 312.545V318.167C104.559 318.6 104.909 318.95 105.34 318.95H105.706C106.138 318.95 106.488 318.6 106.488 318.167V312.545C106.488 312.113 106.138 311.763 105.706 311.763Z" fill="#263238"/>
<path d="M110.57 311.763H110.204C109.772 311.763 109.422 312.113 109.422 312.545V318.167C109.422 318.6 109.772 318.95 110.204 318.95H110.57C111.002 318.95 111.352 318.6 111.352 318.167V312.545C111.352 312.113 111.002 311.763 110.57 311.763Z" fill="#263238"/>
<path d="M115.053 311.763H114.687C114.255 311.763 113.905 312.113 113.905 312.545V318.167C113.905 318.6 114.255 318.95 114.687 318.95H115.053C115.485 318.95 115.835 318.6 115.835 318.167V312.545C115.835 312.113 115.485 311.763 115.053 311.763Z" fill="black"/>
<path d="M100.785 311.763H100.42C99.9878 311.763 99.6377 312.113 99.6377 312.545V318.167C99.6377 318.6 99.9878 318.95 100.42 318.95H100.785C101.217 318.95 101.567 318.6 101.567 318.167V312.545C101.567 312.113 101.217 311.763 100.785 311.763Z" fill="#9747FF"/>
</svg>
