<svg width="42" height="42" viewBox="0 0 42 42" fill="none" xmlns="http://www.w3.org/2000/svg">
<g clip-path="url(#clip0_1081_83)">
<path d="M16.969 32.2019C17.8611 31.8551 18.8663 31.3139 19.9894 30.5542C19.6288 29.3184 18.9628 28.1538 17.9901 27.1811C16.7249 25.9158 15.1068 25.1333 13.3583 24.9202C12.61 26.3234 12.1592 27.5285 11.9641 28.5471C14.098 29.0117 15.903 30.3665 16.969 32.2019Z" fill="#EDEDED"/>
<path d="M10.3714 41.999C13.6425 41.9768 16.2876 39.3192 16.2876 36.0428C16.2876 32.7528 13.6205 30.0857 10.3305 30.0857C7.05506 30.0857 4.39577 32.7436 4.37211 36.0134C4.37211 36.0117 4.37211 36.0103 4.37211 36.0103C4.37211 36.0103 4.37211 36.0114 4.37211 36.0143C4.37211 37.3714 2.58 42 0 42H10.3714V41.999Z" fill="#EDEDED"/>
<path d="M41.8143 0.151654L41.8142 0.151825L41.7975 0.136568L41.7977 0.136397C40.4753 -1.07046 29.2115 5.86948 20.6469 15.209C17.7783 18.367 15.6977 21.0635 14.2817 23.3302C16.1339 23.698 17.8368 24.6035 19.2023 25.969C20.233 26.9997 20.9805 28.2079 21.4461 29.4959C23.5252 27.8881 25.9476 25.623 28.7313 22.5876C37.2517 13.2077 43.1367 1.3586 41.8143 0.151654Z" fill="#EDEDED"/>
</g>
<defs>
<clipPath id="clip0_1081_83">
<rect width="42" height="42" fill="white"/>
</clipPath>
</defs>
</svg>
