<svg width="70" height="70" viewBox="0 0 70 70" fill="none" xmlns="http://www.w3.org/2000/svg">
<path d="M61.278 53.6631C65.4505 49.9443 67.8132 44.9876 67.8132 39.8438C67.8132 34.3772 65.2541 29.2648 60.6071 25.4473C56.0845 21.7332 50.0981 19.6875 43.75 19.6875C37.4019 19.6875 31.4155 21.7332 26.8935 25.4476C22.2466 29.2648 19.6875 34.3772 19.6875 39.8438C19.6875 45.3104 22.2466 50.4228 26.8935 54.2403C31.4155 57.9547 37.4019 60.0003 43.75 60.0003C44.5959 60.0003 45.447 59.9629 46.2909 59.8887L47.7328 61.1384C52.7 65.4427 59.0523 67.8123 65.625 67.8125H67.8125V63.1563L67.1718 62.5157C64.6445 59.9809 62.6417 56.9727 61.278 53.6631ZM50.5981 57.832L47.705 55.3245L46.7403 55.4427C45.7482 55.5641 44.7495 55.6249 43.75 55.625C32.8945 55.625 24.0625 48.5455 24.0625 39.8438C24.0625 31.1421 32.8945 24.0625 43.75 24.0625C54.6055 24.0625 63.4375 31.1419 63.4375 39.8438C63.4375 44.1792 61.2746 48.2266 57.3472 51.2404L56.0874 52.2071L56.6687 53.8526C57.86 57.2131 59.6111 60.3479 61.8479 63.1244C57.6824 62.4291 53.7896 60.5978 50.5981 57.832Z" fill="white"/>
<path d="M8.22842 43.4049C10.2761 40.8129 11.8838 37.902 12.9873 34.7885L13.5643 33.1513L12.3055 32.1852C8.60207 29.3434 6.5625 25.5292 6.5625 21.4453C6.5625 13.2389 14.9036 6.5625 25.1562 6.5625C32.6987 6.5625 39.2064 10.176 42.1199 15.3535C42.6609 15.3273 43.2042 15.3125 43.75 15.3125C44.8462 15.3125 45.9324 15.3657 47.0086 15.4721C45.8827 12.5552 43.9273 9.89242 41.239 7.68441C36.9239 4.13971 31.2129 2.1875 25.1562 2.1875C19.0996 2.1875 13.3886 4.13971 9.0732 7.68441C4.63285 11.3319 2.1875 16.2189 2.1875 21.4453C2.1875 26.3398 4.42312 31.0559 8.37402 34.6035C7.08468 37.7063 5.20072 40.5269 2.8283 42.9063L2.1875 43.547V48.125H4.375C8.42011 48.1245 12.4096 47.1825 16.0277 45.3735C15.6309 43.8698 15.3985 42.3275 15.3344 40.7736C13.1384 42.0607 10.7331 42.9514 8.22842 43.4049Z" fill="white"/>
</svg>
