<svg width="42" height="42" viewBox="0 0 42 42" fill="none" xmlns="http://www.w3.org/2000/svg">
<g clip-path="url(#clip0_1081_693)">
<path d="M9.33187 30.87L11.1956 29.0193C6.74625 24.57 4.42313 22.3125 3.13688 21L11.1956 12.9806C11.318 12.8582 11.4151 12.7129 11.4813 12.553C11.5475 12.3931 11.5816 12.2218 11.5816 12.0487C11.5816 11.8756 11.5475 11.7043 11.4813 11.5444C11.4151 11.3845 11.318 11.2392 11.1956 11.1168C11.0732 10.9945 10.928 10.8974 10.7681 10.8312C10.6082 10.7649 10.4368 10.7308 10.2638 10.7308C10.0907 10.7308 9.91931 10.7649 9.75942 10.8312C9.59953 10.8974 9.45425 10.9945 9.33187 11.1168L0.380625 20.0681C0.140787 20.3196 0.00483458 20.6524 0 21C0.000720891 21.1736 0.035895 21.3454 0.103484 21.5054C0.171074 21.6653 0.269734 21.8103 0.39375 21.9318L9.33187 30.87Z" fill="#9747FF"/>
<path d="M41.6193 20.0681C41.4881 19.9499 32.6681 11.1168 32.6681 11.1168L30.8174 12.9806C35.2537 17.4168 37.5768 19.7531 38.8631 20.9737L30.8174 29.0193C30.6331 29.2021 30.5072 29.4355 30.4555 29.6898C30.4038 29.9442 30.4287 30.2082 30.527 30.4484C30.6254 30.6887 30.7927 30.8943 31.008 31.0395C31.2232 31.1846 31.4766 31.2626 31.7362 31.2637C31.9099 31.263 32.0816 31.2278 32.2416 31.1602C32.4016 31.0926 32.5465 30.994 32.6681 30.8699L41.6193 21.9318C41.741 21.8092 41.8372 21.6637 41.9025 21.5038C41.9678 21.3439 42.0009 21.1727 41.9999 20.9999C42.0009 20.8272 41.9678 20.656 41.9025 20.4961C41.8372 20.3362 41.741 20.1907 41.6193 20.0681Z" fill="#9747FF"/>
<path d="M17.4168 36.6319C17.7166 36.6406 18.0104 36.5464 18.2492 36.3649C18.488 36.1834 18.6574 35.9256 18.7293 35.6344L25.8562 6.99564C25.9248 6.66337 25.8622 6.31741 25.6813 6.03034C25.5004 5.74327 25.2154 5.53739 24.8861 5.4559C24.5567 5.37441 24.2086 5.42363 23.9147 5.59325C23.6209 5.76286 23.4041 6.03968 23.3099 6.36564L16.1437 35.0044C16.059 35.3367 16.1077 35.6889 16.2794 35.9856C16.4511 36.2824 16.7322 36.5003 17.0624 36.5925C17.1782 36.6217 17.2974 36.6349 17.4168 36.6319Z" fill="#9747FF"/>
</g>
<defs>
<clipPath id="clip0_1081_693">
<rect width="42" height="42" fill="white"/>
</clipPath>
</defs>
</svg>
