<svg width="46" height="46" viewBox="0 0 46 46" fill="none" xmlns="http://www.w3.org/2000/svg">
<rect width="46" height="46" rx="5" fill="#9747FF"/>
<path d="M29.625 27.125C29.3958 27.3542 29.1042 27.4687 28.75 27.4687C28.3958 27.4687 28.1042 27.3542 27.875 27.125L23 22.25L18.125 27.125C17.8958 27.3542 17.6042 27.4687 17.25 27.4687C16.8958 27.4687 16.6042 27.3542 16.375 27.125C16.1458 26.8958 16.0312 26.6042 16.0312 26.25C16.0312 25.8958 16.1458 25.6042 16.375 25.375L22.125 19.625C22.25 19.5 22.3854 19.4113 22.5313 19.3588C22.6771 19.3063 22.8333 19.2804 23 19.2813C23.1667 19.2813 23.3229 19.3075 23.4688 19.36C23.6146 19.4125 23.75 19.5008 23.875 19.625L29.625 25.375C29.8542 25.6042 29.9688 25.8958 29.9688 26.25C29.9688 26.6042 29.8542 26.8958 29.625 27.125Z" fill="white"/>
</svg>
