<svg width="42" height="42" viewBox="0 0 42 42" fill="none" xmlns="http://www.w3.org/2000/svg">
<g clip-path="url(#clip0_57_655)">
<path d="M7.28 35.308C7.11539 35.308 6.95451 35.259 6.81774 35.1674C6.68097 35.0758 6.57448 34.9457 6.51175 34.7935C4.93863 30.8159 4.97176 26.3828 6.60417 22.4291C8.23657 18.4754 11.3406 15.3102 15.2618 13.601C15.4612 13.5339 15.6787 13.545 15.8703 13.6319C16.0619 13.7189 16.2135 13.8753 16.2943 14.0696C16.3751 14.2639 16.3792 14.4816 16.3058 14.6788C16.2324 14.8761 16.0869 15.0381 15.8988 15.1323C12.3788 16.6679 9.59289 19.5106 8.1286 23.0608C6.66432 26.611 6.63613 30.5912 8.05 34.1618C8.09175 34.2627 8.11314 34.371 8.11294 34.4802C8.11274 34.5895 8.09096 34.6976 8.04884 34.7985C8.00672 34.8993 7.9451 34.9908 7.86752 35.0677C7.78994 35.1446 7.69792 35.2055 7.59675 35.2468C7.49666 35.2872 7.38796 35.308 7.28 35.308ZM32.732 30.674C35.392 29.6748 36.5295 27.1565 35.777 23.9313C34.5765 18.781 28.1453 11.8003 19.6508 12.649C19.538 12.6542 19.4275 12.6824 19.326 12.7317C19.2245 12.781 19.1341 12.8505 19.0603 12.9359C18.9865 13.0213 18.9308 13.1208 18.8968 13.2284C18.8627 13.336 18.8509 13.4494 18.8621 13.5617C18.8732 13.6741 18.9072 13.7829 18.9618 13.8817C19.0164 13.9804 19.0906 14.0671 19.1798 14.1362C19.269 14.2054 19.3713 14.2557 19.4806 14.284C19.5898 14.3123 19.7037 14.3181 19.8153 14.301C22.9866 14.0992 26.1325 14.9795 28.7385 16.7978C31.3446 18.6162 33.2566 21.265 34.1617 24.311C34.5149 25.2169 34.5024 26.2245 34.1269 27.1213C33.7515 28.0182 33.0424 28.7341 32.1493 29.1183C30.6565 29.6783 28.9712 28.4428 26.9167 26.768C26.8323 26.6992 26.7351 26.6477 26.6307 26.6164C26.5264 26.5851 26.4169 26.5747 26.3085 26.5858C26.2001 26.5968 26.0949 26.6291 25.999 26.6808C25.9031 26.7325 25.8183 26.8026 25.7495 26.887C25.6807 26.9715 25.6292 27.0687 25.5979 27.173C25.5666 27.2774 25.5562 27.3869 25.5673 27.4953C25.5783 27.6037 25.6106 27.7088 25.6623 27.8047C25.714 27.9007 25.784 27.9854 25.8685 28.0543C27.4627 29.3545 29.3773 30.9173 31.395 30.9173C31.8518 30.9173 32.3049 30.836 32.732 30.674ZM26.1082 39.2788C26.1983 39.0782 26.2052 38.8501 26.1274 38.6445C26.0497 38.4389 25.8937 38.2724 25.6935 38.1815C20.4172 35.7998 16.8385 30.7055 16.807 27.4453C16.7557 26.9615 16.8549 26.4737 17.0911 26.0484C17.3272 25.6231 17.6888 25.281 18.1265 25.0688C18.8723 24.7478 19.6909 24.634 20.496 24.7393C21.3011 24.8447 22.0628 25.1653 22.701 25.6673C22.8892 25.7817 23.1151 25.8166 23.3291 25.7645C23.5431 25.7123 23.7276 25.5772 23.842 25.389C23.9564 25.2008 23.9914 24.9749 23.9392 24.7609C23.887 24.5469 23.752 24.3624 23.5638 24.248C22.6898 23.6024 21.6606 23.1994 20.5806 23.0799C19.5007 22.9603 18.4083 23.1285 17.4143 23.5673C16.689 23.9135 16.0847 24.4701 15.6802 25.1646C15.2757 25.8591 15.0896 26.6593 15.1462 27.461C15.1813 31.2183 18.963 36.9653 25.0093 39.6935C25.21 39.7841 25.4385 39.7913 25.6446 39.7135C25.8506 39.6357 26.0174 39.4794 26.1082 39.2788ZM33.1415 36.1883C33.195 35.9748 33.1617 35.7488 33.0489 35.5598C32.936 35.3708 32.7528 35.2344 32.5395 35.1803C27.9842 34.0288 23.2015 30.7808 21.4148 27.6238C21.3633 27.5246 21.2923 27.4369 21.2062 27.3658C21.12 27.2947 21.0204 27.2417 20.9133 27.2099C20.8062 27.1782 20.6938 27.1683 20.5828 27.181C20.4718 27.1937 20.3645 27.2286 20.2673 27.2837C20.1701 27.3387 20.085 27.4128 20.0171 27.5015C19.9492 27.5902 19.8998 27.6917 19.872 27.7999C19.8442 27.9081 19.8384 28.0208 19.8552 28.1312C19.8719 28.2417 19.9107 28.3476 19.9693 28.4428C22.2565 32.4835 27.8197 35.7 32.1318 36.7903C32.1987 36.8068 32.2675 36.815 32.3365 36.8148C32.5212 36.8146 32.7006 36.753 32.8464 36.6395C32.9922 36.5261 33.096 36.3673 33.1415 36.1883ZM15.694 40.0733C15.8788 39.9536 16.0085 39.7655 16.0547 39.5503C16.101 39.3351 16.06 39.1103 15.9408 38.9253C10.0625 29.799 11.9963 23.632 15.4385 21.1243C18.816 18.662 24.7765 18.942 29.1725 24.297C29.2409 24.3832 29.3258 24.4548 29.4222 24.5078C29.5186 24.5609 29.6246 24.5942 29.7339 24.6059C29.8433 24.6175 29.9539 24.6073 30.0594 24.5759C30.1648 24.5444 30.2629 24.4922 30.3479 24.4225C30.433 24.3527 30.5033 24.2668 30.5549 24.1696C30.6064 24.0724 30.6381 23.9659 30.6481 23.8564C30.6581 23.7468 30.6461 23.6364 30.613 23.5314C30.5799 23.4265 30.5263 23.3293 30.4552 23.2453C25.4152 17.0993 18.4537 16.8753 14.4602 19.7838C10.4353 22.715 8.04125 29.7238 14.546 39.8248C14.6651 40.0097 14.8527 40.1398 15.0677 40.1864C15.2826 40.233 15.5073 40.1923 15.6923 40.0733H15.694ZM8.4875 7.69477C10.8028 5.53527 23.1385 -0.299234 32.4223 7.11727C32.5069 7.18876 32.605 7.24258 32.7108 7.27554C32.8165 7.3085 32.9279 7.31993 33.0381 7.30917C33.1484 7.29841 33.2554 7.26566 33.3528 7.21286C33.4502 7.16007 33.5361 7.08829 33.6053 7.00178C33.6745 6.91526 33.7257 6.81576 33.7558 6.70914C33.7859 6.60252 33.7944 6.49094 33.7807 6.381C33.767 6.27105 33.7314 6.16497 33.676 6.06901C33.6206 5.97304 33.5466 5.88915 33.4582 5.82227C23.8438 -1.86023 10.8885 3.17977 7.35525 6.48202C7.27562 6.55636 7.21141 6.64566 7.1663 6.74482C7.12118 6.84398 7.09603 6.95105 7.09229 7.05993C7.08856 7.16881 7.1063 7.27735 7.14451 7.37937C7.18272 7.48139 7.24066 7.57489 7.315 7.65452C7.38935 7.73415 7.47865 7.79836 7.57781 7.84347C7.67696 7.88859 7.78404 7.91374 7.89292 7.91747C8.00179 7.92121 8.11034 7.90347 8.21236 7.86526C8.31438 7.82704 8.40787 7.76911 8.4875 7.69477ZM38.8447 22.8673C39.0612 22.8261 39.2525 22.7007 39.3765 22.5186C39.5006 22.3364 39.5472 22.1125 39.5062 21.896C38.6961 18.0211 36.659 14.5103 33.697 11.884C30.7349 9.25763 27.0055 7.6555 23.0615 7.31502C19.0071 6.83062 14.9066 7.7075 11.4049 9.80777C7.90315 11.908 5.19878 15.1126 3.717 18.9175C3.63811 19.1178 3.63995 19.3408 3.72213 19.5397C3.80432 19.7386 3.96044 19.8979 4.15766 19.984C4.35488 20.0701 4.57783 20.0764 4.77959 20.0016C4.98136 19.9267 5.14622 19.7765 5.2395 19.5825C8.5155 12.0575 15.1095 8.08502 22.876 8.96527C26.4666 9.26725 29.8644 10.718 32.5657 13.1026C35.2671 15.4872 37.1283 18.6786 37.8735 22.204C37.9093 22.3942 38.0104 22.5659 38.1593 22.6895C38.3082 22.8131 38.4955 22.881 38.689 22.8813C38.7413 22.8807 38.7934 22.8755 38.8447 22.8655V22.8673Z" fill="#EBEBEB"/>
</g>
<defs>
<clipPath id="clip0_57_655">
<rect width="42" height="42" fill="white"/>
</clipPath>
</defs>
</svg>
