<svg width="42" height="42" viewBox="0 0 42 42" fill="none" xmlns="http://www.w3.org/2000/svg">
<g clip-path="url(#clip0_1081_716)">
<path d="M7.28005 35.308C7.11544 35.3079 6.95456 35.259 6.81779 35.1674C6.68102 35.0758 6.57452 34.9456 6.5118 34.7935C4.93867 30.8158 4.97181 26.3827 6.60421 22.429C8.23662 18.4753 11.3407 15.3101 15.2618 13.601C15.4613 13.5339 15.6787 13.5449 15.8704 13.6319C16.062 13.7188 16.2135 13.8752 16.2943 14.0695C16.3752 14.2638 16.3793 14.4816 16.3059 14.6788C16.2325 14.876 16.087 15.038 15.8988 15.1322C12.3789 16.6678 9.59294 19.5106 8.12865 23.0608C6.66436 26.611 6.63618 30.5911 8.05005 34.1617C8.09179 34.2627 8.11318 34.3709 8.11298 34.4802C8.11279 34.5894 8.091 34.6976 8.04889 34.7984C8.00677 34.8992 7.94515 34.9907 7.86757 35.0677C7.78998 35.1446 7.69797 35.2054 7.5968 35.2467C7.49671 35.2872 7.38801 35.308 7.28005 35.308ZM32.732 30.674C35.392 29.6747 36.5295 27.1565 35.777 23.9312C34.5765 18.781 28.1453 11.8002 19.6508 12.649C19.5381 12.6542 19.4276 12.6823 19.326 12.7316C19.2245 12.7809 19.1341 12.8504 19.0603 12.9358C18.9865 13.0212 18.9309 13.1208 18.8968 13.2284C18.8627 13.336 18.8509 13.4494 18.8621 13.5617C18.8733 13.674 18.9072 13.7828 18.9619 13.8816C19.0165 13.9804 19.0906 14.067 19.1798 14.1362C19.269 14.2053 19.3714 14.2556 19.4806 14.2839C19.5899 14.3123 19.7037 14.3181 19.8153 14.301C22.9866 14.0992 26.1325 14.9794 28.7386 16.7978C31.3446 18.6161 33.2566 21.2649 34.1618 24.311C34.5149 25.2168 34.5024 26.2244 34.127 27.1213C33.7515 28.0181 33.0425 28.7341 32.1493 29.1182C30.6565 29.6782 28.9713 28.4427 26.9168 26.768C26.8323 26.6991 26.7352 26.6476 26.6308 26.6163C26.5264 26.5851 26.4169 26.5747 26.3085 26.5857C26.2001 26.5968 26.095 26.6291 25.9991 26.6807C25.9032 26.7324 25.8184 26.8025 25.7495 26.887C25.6807 26.9714 25.6292 27.0686 25.5979 27.173C25.5667 27.2773 25.5562 27.3868 25.5673 27.4952C25.5784 27.6036 25.6106 27.7088 25.6623 27.8047C25.714 27.9006 25.7841 27.9854 25.8685 28.0542C27.4628 29.3545 29.3773 30.9172 31.395 30.9172C31.8519 30.9172 32.3049 30.836 32.732 30.674ZM26.1083 39.2787C26.1983 39.0781 26.2052 38.8501 26.1275 38.6444C26.0497 38.4388 25.8937 38.2723 25.6935 38.1815C20.4173 35.7997 16.8385 30.7055 16.807 27.4452C16.7558 26.9615 16.855 26.4737 17.0911 26.0484C17.3273 25.6231 17.6888 25.281 18.1265 25.0687C18.8724 24.7478 19.691 24.634 20.496 24.7393C21.3011 24.8446 22.0629 25.1652 22.701 25.6672C22.8892 25.7816 23.1152 25.8166 23.3292 25.7644C23.5432 25.7122 23.7276 25.5772 23.842 25.389C23.9565 25.2008 23.9914 24.9748 23.9392 24.7608C23.887 24.5469 23.752 24.3624 23.5638 24.248C22.6898 23.6024 21.6607 23.1993 20.5807 23.0798C19.5007 22.9602 18.4083 23.1284 17.4143 23.5672C16.689 23.9135 16.0848 24.4701 15.6802 25.1646C15.2757 25.8591 15.0897 26.6592 15.1463 27.461C15.1813 31.2182 18.963 36.9652 25.0093 39.6935C25.2101 39.784 25.4385 39.7912 25.6446 39.7134C25.8507 39.6357 26.0174 39.4793 26.1083 39.2787ZM33.1415 36.1882C33.1951 35.9747 33.1618 35.7487 33.0489 35.5597C32.9361 35.3708 32.7529 35.2343 32.5395 35.1802C27.9843 34.0287 23.2015 30.7807 21.4148 27.6237C21.3633 27.5246 21.2924 27.4368 21.2062 27.3657C21.12 27.2946 21.0204 27.2416 20.9133 27.2099C20.8062 27.1781 20.6938 27.1683 20.5828 27.181C20.4718 27.1936 20.3645 27.2285 20.2673 27.2836C20.1701 27.3387 20.085 27.4128 20.0171 27.5015C19.9492 27.5902 19.8999 27.6916 19.872 27.7998C19.8442 27.908 19.8385 28.0207 19.8552 28.1312C19.8719 28.2416 19.9107 28.3476 19.9693 28.4427C22.2565 32.4835 27.8198 35.7 32.1318 36.7902C32.1988 36.8068 32.2675 36.815 32.3365 36.8147C32.5213 36.8146 32.7007 36.7529 32.8464 36.6395C32.9922 36.526 33.096 36.3672 33.1415 36.1882ZM15.694 40.0732C15.8788 39.9535 16.0085 39.7654 16.0548 39.5502C16.1011 39.335 16.0601 39.1102 15.9408 38.9252C10.0625 29.799 11.9963 23.632 15.4385 21.1242C18.816 18.662 24.7765 18.942 29.1725 24.297C29.241 24.3831 29.3259 24.4548 29.4222 24.5078C29.5186 24.5608 29.6246 24.5941 29.734 24.6058C29.8434 24.6175 29.954 24.6073 30.0594 24.5758C30.1648 24.5443 30.2629 24.4922 30.348 24.4224C30.433 24.3527 30.5034 24.2667 30.5549 24.1695C30.6064 24.0723 30.6381 23.9658 30.6481 23.8563C30.6581 23.7467 30.6462 23.6363 30.6131 23.5314C30.58 23.4265 30.5264 23.3292 30.4553 23.2452C25.4153 17.0992 18.4538 16.8752 14.4603 19.7837C10.4353 22.715 8.0413 29.7237 14.546 39.8247C14.6651 40.0096 14.8528 40.1397 15.0677 40.1863C15.2827 40.2329 15.5073 40.1922 15.6923 40.0732H15.694ZM8.48755 7.69471C10.8028 5.53521 23.1385 -0.299295 32.4223 7.11721C32.5069 7.1887 32.605 7.24252 32.7108 7.27548C32.8166 7.30844 32.9279 7.31987 33.0382 7.30911C33.1484 7.29834 33.2554 7.2656 33.3528 7.2128C33.4503 7.16001 33.5361 7.08823 33.6053 7.00172C33.6745 6.9152 33.7257 6.8157 33.7558 6.70908C33.786 6.60246 33.7944 6.49088 33.7807 6.38094C33.767 6.27099 33.7314 6.16491 33.676 6.06895C33.6207 5.97298 33.5466 5.88908 33.4583 5.82221C23.8438 -1.8603 10.8885 3.17971 7.3553 6.48196C7.27567 6.5563 7.21146 6.6456 7.16634 6.74476C7.12122 6.84392 7.09608 6.95099 7.09234 7.05987C7.0886 7.16875 7.10635 7.27729 7.14456 7.37931C7.18277 7.48133 7.2407 7.57483 7.31505 7.65446C7.38939 7.73409 7.47869 7.79829 7.57785 7.84341C7.67701 7.88853 7.78408 7.91368 7.89296 7.91741C8.00184 7.92115 8.11038 7.90341 8.2124 7.8652C8.31442 7.82698 8.40792 7.76905 8.48755 7.69471ZM38.8448 22.8672C39.0613 22.8261 39.2525 22.7006 39.3766 22.5185C39.5006 22.3364 39.5473 22.1125 39.5063 21.896C38.6961 18.021 36.6591 14.5103 33.697 11.8839C30.735 9.25757 27.0056 7.65543 23.0615 7.31496C19.0071 6.83056 14.9066 7.70744 11.4049 9.80771C7.9032 11.908 5.19883 15.1125 3.71705 18.9175C3.63815 19.1177 3.63999 19.3407 3.72218 19.5396C3.80436 19.7385 3.96049 19.8978 4.15771 19.9839C4.35493 20.0701 4.57787 20.0764 4.77964 20.0015C4.98141 19.9266 5.14627 19.7764 5.23955 19.5825C8.51555 12.0575 15.1095 8.08496 22.876 8.96521C26.4666 9.26719 29.8644 10.718 32.5658 13.1025C35.2671 15.4871 37.1283 18.6786 37.8735 22.204C37.9094 22.3941 38.0105 22.5658 38.1593 22.6894C38.3082 22.8131 38.4955 22.8809 38.689 22.8812C38.7413 22.8807 38.7935 22.8754 38.8448 22.8655V22.8672Z" fill="#9747FF"/>
</g>
<defs>
<clipPath id="clip0_1081_716">
<rect width="42" height="42" fill="white"/>
</clipPath>
</defs>
</svg>
