<svg width="24" height="24" viewBox="0 0 24 24" fill="none" xmlns="http://www.w3.org/2000/svg">
<path d="M12 21C13.2031 21.0001 14.3941 20.7589 15.5024 20.2907C16.6107 19.8226 17.614 19.137 18.4528 18.2744C19.2915 17.4118 19.9489 16.3899 20.3859 15.2689C20.8229 14.1479 21.0307 12.9507 20.997 11.748C19.7383 12.6241 18.2268 13.0626 16.6947 12.9961C15.1626 12.9296 13.6947 12.3619 12.5166 11.3801C11.3385 10.3983 10.5155 9.05682 10.1739 7.5618C9.83232 6.06678 9.99115 4.50096 10.626 3.10498C8.38419 3.45045 6.35553 4.62964 4.94586 6.40665C3.53619 8.18365 2.84949 10.4274 3.02313 12.689C3.19678 14.9506 4.21797 17.0632 5.8824 18.6042C7.54683 20.1451 9.73173 21.0008 12 21Z" stroke="#9747FF" stroke-width="1.5" stroke-linecap="round" stroke-linejoin="round"/>
</svg>
