<svg width="487" height="372" viewBox="0 0 487 372" fill="none" xmlns="http://www.w3.org/2000/svg">
<rect x="0.5" y="0.5" width="486" height="371" rx="19.5" fill="white" stroke="black"/>
<path d="M449.579 245.526L441.059 245.707L436.735 245.778C435.287 245.81 433.832 245.778 432.384 245.817H432.099V245.526L432.06 238.278V237.955H432.384L440.981 237.994C443.851 237.994 446.715 238.065 449.579 238.097H449.76V238.278C449.76 239.505 449.708 240.726 449.676 241.934L449.579 245.526ZM449.579 245.526L449.488 241.876C449.455 240.675 449.416 239.486 449.403 238.297L449.579 238.478C446.715 238.511 443.851 238.582 440.981 238.582L432.384 238.62L432.709 238.297V245.526L432.417 245.242C433.832 245.242 435.248 245.242 436.67 245.274L440.897 245.384L449.579 245.526Z" fill="#1A1818"/>
<path d="M439.988 254.641L431.469 254.822L427.138 254.893C425.696 254.893 424.242 254.893 422.794 254.932H422.508V254.641V247.412V247.089H422.832L431.43 247.135C434.293 247.135 437.163 247.206 440.027 247.238H440.209V247.412C440.209 248.64 440.157 249.861 440.124 251.069L439.988 254.641ZM439.988 254.641L439.897 250.991C439.865 249.79 439.826 248.601 439.813 247.412L439.988 247.593C437.124 247.626 434.254 247.697 431.391 247.697L422.794 247.735L423.118 247.412V254.641L422.826 254.357C424.242 254.357 425.657 254.357 427.079 254.389L431.345 254.467L439.988 254.641Z" fill="#1A1818"/>
<path d="M459.169 254.641L450.65 254.822L446.326 254.893C444.878 254.893 443.423 254.893 441.975 254.932H441.689V254.641L441.65 247.412V247.089H441.975L450.572 247.135C453.442 247.135 456.306 247.206 459.169 247.238H459.351V247.412C459.351 248.64 459.293 249.861 459.267 251.069L459.169 254.641ZM459.169 254.641L459.079 250.991C459.079 249.79 459.007 248.601 458.994 247.412L459.169 247.593C456.306 247.626 453.442 247.697 450.572 247.697L441.975 247.735L442.3 247.412V254.641L442.008 254.357C443.43 254.357 444.839 254.357 446.261 254.389L450.533 254.467L459.169 254.641Z" fill="#1A1818"/>
<path d="M204.403 159.511L195.884 159.692L191.559 159.763C190.111 159.763 188.657 159.763 187.209 159.763H186.923V159.472L186.884 152.244V151.921H187.209L195.806 151.959C198.676 151.959 201.54 152.031 204.403 152.063H204.585V152.237C204.585 153.465 204.527 154.679 204.494 155.887L204.403 159.511ZM204.403 159.511L204.312 155.855C204.312 154.653 204.241 153.465 204.228 152.282L204.403 152.457C201.54 152.457 198.676 152.56 195.806 152.56L187.209 152.605L187.534 152.282L187.501 159.511L187.209 159.221C188.624 159.221 190.04 159.221 191.462 159.259L195.735 159.33L204.403 159.511Z" fill="#1A1818"/>
<path d="M194.8 168.626L186.281 168.807L181.95 168.878C180.508 168.878 179.054 168.878 177.606 168.911H177.32V168.62L177.268 161.404V161.081H177.593L186.19 161.12C189.053 161.12 191.924 161.191 194.787 161.223H194.969V161.404C194.969 162.631 194.917 163.846 194.884 165.054L194.8 168.626ZM194.8 168.626L194.709 164.97C194.677 163.768 194.638 162.58 194.625 161.398L194.8 161.572C191.937 161.604 189.066 161.675 186.203 161.675L177.606 161.721L177.93 161.398L177.917 168.626L177.625 168.336C179.041 168.336 180.456 168.336 181.878 168.374L186.144 168.445L194.8 168.626Z" fill="#1A1818"/>
<path d="M213.994 168.626L205.475 168.807L201.15 168.878C199.702 168.878 198.254 168.878 196.8 168.911H196.514V168.62L196.475 161.404V161.081H196.8L205.397 161.12C208.267 161.12 211.131 161.191 213.994 161.223H214.176V161.404C214.176 162.631 214.117 163.846 214.092 165.054L213.994 168.626ZM213.994 168.626L213.903 164.97C213.903 163.768 213.832 162.58 213.819 161.398L213.994 161.572C211.131 161.604 208.267 161.675 205.397 161.675L196.8 161.721L197.124 161.398L197.092 168.626L196.8 168.336C198.222 168.336 199.631 168.336 201.053 168.374L205.326 168.445L213.994 168.626Z" fill="#1A1818"/>
<path d="M64.206 207.341L55.6868 207.522L51.3557 207.593C49.9142 207.593 48.4597 207.593 47.0117 207.625H46.752V207.335V200.106V199.783H47.0766L55.6738 199.822C58.5374 199.822 61.4074 199.893 64.271 199.925H64.4528V200.099C64.4528 201.327 64.4008 202.541 64.3684 203.749L64.206 207.341ZM64.206 207.341L64.1151 203.685C64.1151 202.483 64.0437 201.294 64.0307 200.112L64.206 200.287C61.3425 200.319 58.4724 200.39 55.6089 200.39L47.0117 200.435L47.3364 200.112L47.3039 207.341L47.0117 207.05C48.4272 207.05 49.8428 207.05 51.2648 207.089L55.5309 207.16L64.206 207.341Z" fill="#1A1818"/>
<path d="M349.25 159.505L340.731 159.686L336.407 159.757C334.959 159.789 333.504 159.757 332.056 159.789H331.77V159.498L331.731 152.27V151.947H332.056L340.653 151.985C343.523 151.985 346.387 152.063 349.25 152.095H349.432V152.27C349.432 153.497 349.38 154.718 349.348 155.919L349.25 159.505ZM349.25 159.505L349.16 155.855C349.127 154.647 349.088 153.458 349.075 152.276L349.25 152.45C346.387 152.483 343.523 152.554 340.653 152.56L332.056 152.599L332.381 152.276L332.348 159.505L332.056 159.214C333.472 159.214 334.887 159.214 336.309 159.253L340.582 159.324L349.25 159.505Z" fill="#1A1818"/>
<path d="M448.585 89.2975L440.066 89.4783L435.735 89.5494C434.293 89.5494 432.839 89.5494 431.391 89.5882H431.105V89.2975V82.0687V81.7457H431.43L440.027 81.7845C442.89 81.7845 445.76 81.862 448.624 81.8943H448.806V82.0687C448.806 83.2961 448.754 84.5171 448.721 85.7186L448.585 89.2975ZM448.585 89.2975L448.494 85.6476C448.462 84.4395 448.423 83.2509 448.41 82.0687L448.585 82.2431C445.722 82.2431 442.851 82.3465 439.988 82.353L431.391 82.3917L431.715 82.0687L431.683 89.2975L431.391 89.0068C432.806 89.0068 434.222 89.0068 435.644 89.0455L439.91 89.1166L448.585 89.2975Z" fill="#1A1818"/>
<path d="M458.176 98.4125L449.656 98.5934L445.332 98.6645C443.884 98.6968 442.429 98.6645 440.981 98.7032H440.696V98.4125L440.657 91.1838V90.8608H440.981L449.579 90.8995C452.449 90.8995 455.312 90.9771 458.176 91.0094H458.358V91.1838C458.358 92.4112 458.299 93.6321 458.267 94.8337L458.176 98.4125ZM458.176 98.4125L458.085 94.7626C458.085 93.5546 458.013 92.366 458 91.1838L458.176 91.3582C455.312 91.3905 452.449 91.4616 449.579 91.468L440.981 91.5068L441.306 91.1838V98.4125L441.014 98.1218C442.429 98.1218 443.845 98.1218 445.267 98.1606L449.54 98.2316L458.176 98.4125Z" fill="#1A1818"/>
<path d="M45.0246 89.3039L36.4989 89.4848L32.1743 89.5559C30.7328 89.5559 29.2783 89.5559 27.8303 89.5946H27.5381V89.3039V82.0752V81.7522H27.8692L36.4664 81.7974C39.33 81.7974 42.1935 81.8685 45.0636 81.9008H45.2389V82.0752C45.2389 83.3026 45.1805 84.5235 45.1545 85.7316L45.0246 89.3039ZM45.0246 89.3039L44.9272 85.654C44.9272 84.4525 44.8558 83.2574 44.8428 82.0752L45.0246 82.2496C42.1546 82.2884 39.291 82.353 36.4275 82.3594L27.8303 82.3982L28.155 82.0752L28.116 89.3039L27.8303 89.052C29.2458 89.052 30.6549 89.052 32.0769 89.052L36.3495 89.1231L45.0246 89.3039Z" fill="#1A1818"/>
<path d="M449.092 165.164L452.916 159.033L451.027 157.87C450.756 157.701 450.539 157.46 450.398 157.175C450.257 156.89 450.198 156.572 450.228 156.255C450.247 155.896 450.247 155.536 450.228 155.177C450.219 154.859 450.298 154.546 450.457 154.271C450.617 153.996 450.85 153.77 451.131 153.62L453.079 152.573L449.65 146.217L447.702 147.257C447.42 147.407 447.102 147.475 446.783 147.455C446.464 147.434 446.157 147.325 445.897 147.14C445.605 146.94 445.293 146.746 444.975 146.572C444.694 146.422 444.46 146.198 444.3 145.925C444.139 145.651 444.058 145.338 444.066 145.021L444.137 142.812L436.891 142.586L436.826 144.802C436.812 145.119 436.71 145.427 436.532 145.69C436.353 145.954 436.104 146.163 435.813 146.294L435.339 146.533C435.176 146.617 435.021 146.707 434.871 146.798C434.601 146.964 434.29 147.053 433.972 147.053C433.654 147.053 433.343 146.964 433.073 146.798L431.17 145.629L427.346 151.759L429.242 152.922C429.511 153.092 429.728 153.333 429.868 153.618C430.009 153.903 430.069 154.221 430.04 154.537C430.008 154.896 429.995 155.256 430.001 155.616C430.011 155.931 429.932 156.244 429.774 156.517C429.616 156.791 429.384 157.016 429.105 157.166L427.157 158.213L430.586 164.576L432.534 163.529C432.815 163.382 433.132 163.315 433.449 163.336C433.767 163.356 434.072 163.463 434.332 163.646C434.627 163.849 434.933 164.036 435.248 164.208C435.531 164.356 435.767 164.58 435.928 164.856C436.089 165.131 436.168 165.446 436.157 165.764L436.092 167.974L443.339 168.2L443.41 165.984C443.423 165.668 443.524 165.362 443.701 165.099C443.879 164.837 444.127 164.629 444.416 164.498L444.897 164.259L445.365 163.994C445.636 163.828 445.948 163.74 446.267 163.74C446.586 163.74 446.898 163.828 447.17 163.994L449.092 165.164ZM442.955 160.642C441.92 161.194 440.743 161.428 439.573 161.315C438.404 161.202 437.294 160.747 436.385 160.006C435.476 159.266 434.808 158.274 434.465 157.155C434.123 156.037 434.121 154.843 434.461 153.724C434.8 152.605 435.466 151.611 436.373 150.868C437.28 150.125 438.388 149.667 439.558 149.551C440.727 149.434 441.904 149.665 442.941 150.215C443.979 150.765 444.828 151.608 445.384 152.638C446.121 154.016 446.279 155.628 445.823 157.122C445.368 158.616 444.337 159.87 442.955 160.609V160.642Z" fill="#1A1818"/>
<path d="M102.082 293.123L99.5427 288.743L98.1921 289.519C97.9978 289.629 97.7762 289.684 97.5525 289.676C97.3288 289.668 97.1117 289.598 96.9259 289.473C96.7162 289.337 96.4995 289.212 96.2766 289.099C96.0797 288.997 95.915 288.843 95.8004 288.653C95.6859 288.464 95.6259 288.247 95.6272 288.026V286.482H90.517V288.02C90.5182 288.241 90.4583 288.458 90.3438 288.647C90.2292 288.836 90.0645 288.99 89.8676 289.092C89.6404 289.209 89.4196 289.331 89.2183 289.467C89.029 289.598 88.8059 289.671 88.5756 289.679C88.3454 289.687 88.1177 289.629 87.9196 289.512L86.5755 288.737L84.0366 293.117L85.3872 293.892C85.5798 294.004 85.737 294.168 85.8414 294.364C85.9458 294.56 85.9931 294.782 85.9781 295.003C85.9781 295.126 85.9781 295.255 85.9781 295.378C85.9781 295.501 85.9781 295.623 85.9781 295.753C85.9933 295.973 85.9466 296.192 85.8434 296.387C85.7402 296.582 85.5845 296.745 85.3937 296.857L84.0366 297.639L86.5755 302.019L87.9261 301.244C88.1242 301.126 88.3519 301.068 88.5821 301.076C88.8124 301.084 89.0355 301.158 89.2248 301.289C89.4345 301.425 89.6512 301.55 89.8741 301.663C90.07 301.765 90.2341 301.918 90.3486 302.106C90.4631 302.294 90.5236 302.51 90.5235 302.729V304.28H95.6077V302.729C95.6069 302.509 95.6671 302.294 95.7817 302.106C95.8962 301.917 96.0608 301.765 96.2571 301.663C96.4779 301.547 96.6986 301.424 96.9064 301.289C97.0923 301.165 97.3093 301.095 97.533 301.087C97.7568 301.079 97.9783 301.133 98.1726 301.244L99.5232 302.019L102.062 297.639L100.712 296.864C100.519 296.751 100.362 296.588 100.257 296.392C100.153 296.195 100.106 295.974 100.121 295.753C100.121 295.63 100.121 295.501 100.121 295.378C100.121 295.255 100.121 295.126 100.121 295.003C100.106 294.782 100.153 294.56 100.257 294.364C100.362 294.168 100.519 294.004 100.712 293.892L102.082 293.123ZM97.2246 295.384C97.2246 296.203 96.9805 297.004 96.5231 297.685C96.0658 298.366 95.4157 298.897 94.6552 299.21C93.8946 299.523 93.0577 299.605 92.2503 299.446C91.443 299.286 90.7013 298.892 90.1192 298.312C89.5371 297.733 89.1407 296.995 88.9801 296.192C88.8195 295.389 88.9019 294.556 89.217 293.8C89.532 293.043 90.0655 292.396 90.7499 291.941C91.4344 291.486 92.2391 291.243 93.0624 291.243C94.1663 291.243 95.2249 291.68 96.0055 292.456C96.7861 293.233 97.2246 294.286 97.2246 295.384Z" fill="#1A1818"/>
<path d="M58.3748 243.595C54.4601 243.593 50.633 244.747 47.3774 246.91C44.1218 249.073 41.5841 252.147 40.0851 255.745C38.5861 259.343 38.1932 263.302 38.9562 267.122C39.7191 270.942 41.6036 274.451 44.3712 277.205C47.1389 279.96 50.6654 281.836 54.5048 282.596C58.3442 283.356 62.324 282.967 65.9408 281.476C69.5576 279.986 72.6491 277.463 74.8241 274.224C76.9991 270.986 78.16 267.179 78.16 263.285C78.1609 260.699 77.6498 258.139 76.6558 255.75C75.6619 253.361 74.2047 251.19 72.3674 249.362C70.5301 247.534 68.3487 246.083 65.9478 245.093C63.5469 244.104 60.9736 243.595 58.3748 243.595ZM58.3748 272.471C56.5471 272.471 54.7603 271.931 53.2407 270.921C51.721 269.911 50.5367 268.475 49.8376 266.795C49.1384 265.114 48.9558 263.266 49.3129 261.482C49.6699 259.699 50.5506 258.061 51.8435 256.776C53.1364 255.49 54.7834 254.615 56.5762 254.261C58.369 253.907 60.2271 254.09 61.9153 254.787C63.6036 255.484 65.0463 256.663 66.0608 258.176C67.0753 259.688 67.6161 261.466 67.6149 263.285C67.6131 265.722 66.6389 268.058 64.9062 269.781C63.1736 271.503 60.8243 272.471 58.3748 272.471Z" fill="#1A1818"/>
<path d="M62.18 244.415H54.5698L54.9919 239.053H61.7579L62.18 244.415Z" fill="#1A1818"/>
<path d="M47.6936 246.96L42.3171 252.316L38.8042 248.233L43.5898 243.472L47.6936 246.96Z" fill="#1A1818"/>
<path d="M39.2648 258.956V266.528L33.8818 266.108V259.376L39.2648 258.956Z" fill="#1A1818"/>
<path d="M41.8301 273.362L47.2131 278.718L43.1093 282.206L38.3237 277.445L41.8301 273.362Z" fill="#1A1818"/>
<path d="M53.8813 281.747H61.4915L61.076 287.109H54.3034L53.8813 281.747Z" fill="#1A1818"/>
<path d="M68.3682 279.196L73.7511 273.847L77.2575 277.929L72.472 282.69L68.3682 279.196Z" fill="#1A1818"/>
<path d="M76.7964 267.206V259.635L82.1794 260.055V266.786L76.7964 267.206Z" fill="#1A1818"/>
<path d="M74.2316 252.8L68.8486 247.445L72.9589 243.95L77.7445 248.711L74.2316 252.8Z" fill="#1A1818"/>
<path d="M60.9528 125.228C60.9528 124.42 61.0632 122.269 61.0632 121.352C61.0632 117.424 59.6541 115.648 55.9789 115.538C54.2452 115.435 53.2192 114.414 53.2192 112.954C53.2192 111.494 54.2452 110.48 55.9789 110.37C59.6541 110.228 61.0372 108.509 61.0372 104.556C61.0372 103.645 60.9268 101.494 60.9268 100.68C60.9268 95.4603 63.1411 92.1269 71.5239 90.2987C73.1992 89.9176 74.4979 90.9447 74.4979 92.5016C74.5142 92.9812 74.3762 93.4534 74.1041 93.8496C73.832 94.2458 73.4399 94.5453 72.9849 94.7045C67.7383 96.3195 66.9786 97.9861 66.9786 101.649C66.9786 102.721 67.089 104.498 67.089 105.628C67.089 109.821 65.0371 111.869 61.4658 112.999C65.0891 114.181 67.089 116.171 67.089 120.37C67.089 121.494 66.9786 123.271 66.9786 124.349C66.9786 128.006 67.7383 129.672 72.9849 131.287C73.4399 131.447 73.832 131.746 74.1041 132.142C74.3762 132.539 74.5142 133.011 74.4979 133.49C74.4979 135.054 73.1992 136.074 71.5239 135.7C63.167 133.846 60.9528 130.506 60.9528 125.228Z" fill="#1A1818"/>
<path d="M92.6403 100.68C92.6403 101.487 92.5299 103.639 92.5299 104.556C92.5299 108.542 93.9909 110.26 97.6661 110.422C99.3414 110.531 100.367 111.552 100.367 113.006C100.367 114.459 99.3414 115.48 97.6661 115.59C93.9909 115.699 92.5299 117.476 92.5299 121.404C92.5299 122.315 92.6403 124.466 92.6403 125.28C92.6403 130.551 90.4196 133.891 82.0367 135.719C80.3614 136.094 79.0692 135.073 79.0692 133.51C79.0522 133.023 79.196 132.544 79.4786 132.146C79.7613 131.748 80.1671 131.453 80.6341 131.307C85.8288 129.692 86.582 128.025 86.582 124.369C86.582 123.29 86.4716 121.514 86.4716 120.389C86.4716 116.19 88.53 114.149 92.0949 113.019C88.4716 111.836 86.4716 109.84 86.4716 105.648C86.4716 104.517 86.582 102.741 86.582 101.668C86.582 98.0056 85.8223 96.3389 80.6341 94.7239C80.1671 94.5773 79.7613 94.2826 79.4786 93.8847C79.196 93.4869 79.0522 93.0079 79.0692 92.521C79.0692 90.9642 80.3679 89.937 82.0367 90.3182C90.4196 92.1011 92.6403 95.4345 92.6403 100.68Z" fill="#1A1818"/>
<path d="M32.9341 337.924L85.5755 337.769L138.217 337.71L243.5 337.601L348.783 337.71L401.424 337.769L454.066 337.924L401.424 338.085L348.783 338.143L243.5 338.247L138.217 338.137L85.5755 338.085L32.9341 337.924Z" fill="#778389"/>
<path d="M71.4713 325.491H415.529C418.824 325.491 421.495 328.162 421.495 331.457C421.495 334.752 418.824 337.424 415.529 337.424H71.4714C68.1762 337.424 65.5049 334.752 65.5049 331.457C65.5049 328.162 68.1762 325.491 71.4713 325.491Z" stroke="black"/>
<path d="M111.894 137.014H375.107C380.353 137.014 384.607 141.267 384.607 146.514V314.991C384.607 320.237 380.354 324.491 375.107 324.491H111.894C106.647 324.491 102.394 320.237 102.394 314.991V146.514C102.394 141.267 106.647 137.014 111.894 137.014Z" stroke="black"/>
<path d="M113.952 139.313H373.055C378.302 139.313 382.555 143.567 382.555 148.813V312.691C382.555 317.938 378.302 322.191 373.055 322.191H113.952C108.705 322.191 104.452 317.938 104.452 312.691V148.813C104.452 143.567 108.705 139.313 113.952 139.313Z" stroke="black"/>
<path d="M126.309 151.129H360.691C365.938 151.129 370.191 155.382 370.191 160.629V300.869C370.191 306.116 365.938 310.369 360.691 310.369H126.309C121.062 310.369 116.809 306.116 116.809 300.869V160.629C116.809 155.382 121.062 151.129 126.309 151.129Z" stroke="black"/>
<path d="M128 157.5H163C168.247 157.5 172.5 161.753 172.5 167V299C172.5 304.247 168.247 308.5 163 308.5H128C122.753 308.5 118.5 304.247 118.5 299V167C118.5 161.753 122.753 157.5 128 157.5Z" stroke="black"/>
<path d="M169.712 209.492H123.293C122.659 209.492 122.146 210.006 122.146 210.639C122.146 211.272 122.659 211.786 123.293 211.786H169.712C170.346 211.786 170.859 211.272 170.859 210.639C170.859 210.006 170.346 209.492 169.712 209.492Z" fill="#9747FF"/>
<path d="M146.516 164.447H127.575V165.474H146.516V164.447Z" fill="black"/>
<path d="M125.153 164.634H126.374L125.763 165.28L125.153 164.634Z" fill="black"/>
<path d="M131.607 168.252H129.094V169.279H131.607V168.252Z" fill="black"/>
<path d="M127.575 169.369V168.155L128.224 168.762L127.575 169.369Z" fill="black"/>
<path d="M131.607 172.057H129.094V173.084H131.607V172.057Z" fill="black"/>
<path d="M127.289 172.244H128.51L127.899 172.89L127.289 172.244Z" fill="black"/>
<path d="M131.607 175.861H129.094V176.889H131.607V175.861Z" fill="black"/>
<path d="M127.289 176.049H128.51L127.899 176.701L127.289 176.049Z" fill="black"/>
<path d="M133.133 179.666H130.62V180.694H133.133V179.666Z" fill="black"/>
<path d="M129.094 180.784V179.57L129.75 180.177L129.094 180.784Z" fill="black"/>
<path d="M134.659 183.478H132.146V184.505H134.659V183.478Z" fill="black"/>
<path d="M130.62 184.595V183.381L131.276 183.988L130.62 184.595Z" fill="black"/>
<path d="M134.659 221.527H132.146V222.554H134.659V221.527Z" fill="black"/>
<path d="M130.62 222.645V221.43L131.276 222.038L130.62 222.645Z" fill="black"/>
<path d="M136.185 187.276H133.672V188.303H136.185V187.276Z" fill="black"/>
<path d="M132.146 188.394V187.179L132.802 187.787L132.146 188.394Z" fill="black"/>
<path d="M136.185 217.722H133.672V218.749H136.185V217.722Z" fill="black"/>
<path d="M132.146 218.84V217.625L132.802 218.233L132.146 218.84Z" fill="black"/>
<path d="M137.711 191.081H135.198V192.108H137.711V191.081Z" fill="black"/>
<path d="M133.672 192.199V190.984L134.328 191.592L133.672 192.199Z" fill="black"/>
<path d="M137.711 213.911H135.198V214.938H137.711V213.911Z" fill="black"/>
<path d="M133.672 215.035V213.82L134.328 214.428L133.672 215.035Z" fill="black"/>
<path d="M139.237 194.893H136.724V195.92H139.237V194.893Z" fill="black"/>
<path d="M135.198 196.01V194.796L135.854 195.403L135.198 196.01Z" fill="black"/>
<path d="M139.522 198.691H137.009V199.718H139.522V198.691Z" fill="black"/>
<path d="M135.198 198.878H136.418L135.808 199.531L135.198 198.878Z" fill="black"/>
<path d="M139.522 202.496H137.009V203.523H139.522V202.496Z" fill="black"/>
<path d="M135.198 202.683H136.418L135.808 203.336L135.198 202.683Z" fill="black"/>
<path d="M139.522 206.301H137.009V207.328H139.522V206.301Z" fill="black"/>
<path d="M135.198 206.488H136.418L135.808 207.141L135.198 206.488Z" fill="black"/>
<path d="M139.522 210.106H137.009V211.133H139.522V210.106Z" fill="black"/>
<path d="M135.198 210.293H136.418L135.808 210.946L135.198 210.293Z" fill="black"/>
<path d="M131.607 225.332H129.094V226.359H131.607V225.332Z" fill="black"/>
<path d="M127.575 226.45V225.235L128.224 225.842L127.575 226.45Z" fill="black"/>
<path d="M131.607 229.137H129.094V230.164H131.607V229.137Z" fill="black"/>
<path d="M127.289 229.324H128.51L127.899 229.977L127.289 229.324Z" fill="black"/>
<path d="M131.607 232.942H129.094V233.969H131.607V232.942Z" fill="black"/>
<path d="M127.289 233.129H128.51L127.899 233.782L127.289 233.129Z" fill="black"/>
<path d="M133.133 236.747H130.62V237.774H133.133V236.747Z" fill="black"/>
<path d="M129.094 237.871V236.656L129.75 237.264L129.094 237.871Z" fill="black"/>
<path d="M134.659 240.558H132.146V241.585H134.659V240.558Z" fill="black"/>
<path d="M130.62 241.676V240.461L131.276 241.069L130.62 241.676Z" fill="black"/>
<path d="M134.659 244.363H132.146V245.39H134.659V244.363Z" fill="black"/>
<path d="M130.62 245.487V244.273L131.276 244.88L130.62 245.487Z" fill="black"/>
<path d="M134.945 248.168H132.432V249.195H134.945V248.168Z" fill="black"/>
<path d="M130.62 248.356H131.841L131.23 249.008L130.62 248.356Z" fill="black"/>
<path d="M134.945 251.973H132.432V253H134.945V251.973Z" fill="black"/>
<path d="M130.62 252.161H131.841L131.23 252.813L130.62 252.161Z" fill="black"/>
<path d="M134.945 255.778H132.432V256.805H134.945V255.778Z" fill="black"/>
<path d="M130.62 255.965H131.841L131.23 256.618L130.62 255.965Z" fill="black"/>
<path d="M134.945 259.583H132.432V260.61H134.945V259.583Z" fill="black"/>
<path d="M130.62 259.77H131.841L131.23 260.423L130.62 259.77Z" fill="black"/>
<path d="M367.61 150.629H119.39C117.688 150.629 116.309 152.008 116.309 153.71C116.309 155.412 117.688 156.792 119.39 156.792H367.61C369.312 156.792 370.691 155.412 370.691 153.71C370.691 152.008 369.312 150.629 367.61 150.629Z" fill="#9747FF"/>
<path d="M122.146 153.717C122.146 153.948 122.077 154.174 121.948 154.366C121.819 154.558 121.635 154.708 121.42 154.797C121.206 154.885 120.969 154.908 120.741 154.863C120.513 154.818 120.304 154.707 120.14 154.543C119.975 154.38 119.863 154.171 119.818 153.945C119.773 153.718 119.796 153.483 119.885 153.269C119.974 153.055 120.124 152.873 120.318 152.744C120.511 152.616 120.738 152.547 120.971 152.547C121.282 152.547 121.581 152.67 121.802 152.89C122.022 153.109 122.146 153.406 122.146 153.717Z" fill="black"/>
<path d="M126.932 153.717C126.932 153.948 126.863 154.174 126.734 154.366C126.604 154.558 126.421 154.708 126.206 154.797C125.991 154.885 125.755 154.908 125.527 154.863C125.299 154.818 125.09 154.707 124.925 154.543C124.761 154.38 124.649 154.171 124.604 153.945C124.558 153.718 124.582 153.483 124.671 153.269C124.759 153.055 124.91 152.873 125.103 152.744C125.297 152.616 125.524 152.547 125.756 152.547C126.068 152.547 126.367 152.67 126.587 152.89C126.808 153.109 126.932 153.406 126.932 153.717Z" fill="black"/>
<path d="M131.724 153.717C131.724 153.948 131.655 154.174 131.526 154.366C131.397 154.558 131.213 154.708 130.999 154.797C130.784 154.885 130.548 154.908 130.32 154.863C130.092 154.818 129.882 154.707 129.718 154.543C129.553 154.38 129.441 154.171 129.396 153.945C129.351 153.718 129.374 153.483 129.463 153.269C129.552 153.055 129.703 152.873 129.896 152.744C130.089 152.616 130.316 152.547 130.549 152.547C130.861 152.547 131.159 152.67 131.38 152.89C131.6 153.109 131.724 153.406 131.724 153.717Z" fill="#37718C"/>
<path d="M188.261 184.195H183.67V185.312H188.261V184.195Z" fill="#1A1818"/>
<path d="M295.401 184.195H193.67V185.312H295.401V184.195Z" fill="#1A1818"/>
<path d="M306.94 184.195H298.226V185.312H306.94V184.195Z" fill="#9747FF"/>
<path d="M341.595 210.668H312.174V211.786H341.595V210.668Z" fill="#1A1818"/>
<path d="M352.03 184.195H308.836V185.312H352.03V184.195Z" fill="black"/>
<path d="M188.261 189.486H183.67V190.603H188.261V189.486Z" fill="#1A1818"/>
<path d="M232.695 189.486H198.144V190.603H232.695V189.486Z" fill="black"/>
<path d="M310.109 210.668H297.038V211.786H310.109V210.668Z" fill="black"/>
<path d="M226.67 205.371H193.67V206.488H226.67V205.371Z" fill="black"/>
<path d="M221.293 194.783H198.144V195.9H221.293V194.783Z" fill="#9747FF"/>
<path d="M347.913 200.074H304.057V201.191H347.913V200.074Z" fill="black"/>
<path d="M295.408 226.062H251.552V227.18H295.408V226.062Z" fill="black"/>
<path d="M309.92 194.783H223.864V195.9H309.92V194.783Z" fill="black"/>
<path d="M294.044 210.668H193.67V211.786H294.044V210.668Z" fill="#9747FF"/>
<path d="M305.973 189.486H234.864V190.603H305.973V189.486Z" fill="#1A1818"/>
<path d="M328.485 194.783H313.602V195.9H328.485V194.783Z" fill="#1A1818"/>
<path d="M188.261 194.783H183.67V195.9H188.261V194.783Z" fill="#1A1818"/>
<path d="M188.261 200.074H183.67V201.191H188.261V200.074Z" fill="black"/>
<path d="M220.793 200.074H193.67V201.191H220.793V200.074Z" fill="#1A1818"/>
<path d="M225.267 215.959H198.144V217.076H225.267V215.959Z" fill="#1A1818"/>
<path d="M335.68 221.256H297.811V222.374H335.68V221.256Z" fill="#9747FF"/>
<path d="M295.44 221.256H222.676V222.374H295.44V221.256Z" fill="#1A1818"/>
<path d="M218.533 221.256H198.144V222.374H218.533V221.256Z" fill="black"/>
<path d="M306.94 205.371H228.54V206.488H306.94V205.371Z" fill="#1A1818"/>
<path d="M355.614 205.371H308.836V206.488H355.614V205.371Z" fill="#9747FF"/>
<path d="M301.921 200.074H223.553V201.191H301.921V200.074Z" fill="#9747FF"/>
<path d="M188.261 205.371H183.67V206.488H188.261V205.371Z" fill="#1A1818"/>
<path d="M188.261 210.668H183.67V211.786H188.261V210.668Z" fill="#1A1818"/>
<path d="M188.261 215.959H183.67V217.076H188.261V215.959Z" fill="black"/>
<path d="M188.261 221.256H183.67V222.374H188.261V221.256Z" fill="#1A1818"/>
<path d="M188.261 226.062H183.67V227.18H188.261V226.062Z" fill="#1A1818"/>
<path d="M247.481 226.062H193.67V227.18H247.481V226.062Z" fill="#1A1818"/>
<path d="M188.261 231.359H183.67V232.477H188.261V231.359Z" fill="#1A1818"/>
<path d="M232.695 231.359H198.144V232.477H232.695V231.359Z" fill="black"/>
<path d="M226.67 247.238H193.67V248.356H226.67V247.238Z" fill="black"/>
<path d="M221.293 236.65H198.144V237.768H221.293V236.65Z" fill="#9747FF"/>
<path d="M274.311 257.832H251.162V258.95H274.311V257.832Z" fill="#9747FF"/>
<path d="M221.293 268.42H198.144V269.538H221.293V268.42Z" fill="#9747FF"/>
<path d="M309.92 236.65H223.864V237.768H309.92V236.65Z" fill="black"/>
<path d="M294.044 252.535H193.67V253.653H294.044V252.535Z" fill="#9747FF"/>
<path d="M305.973 231.359H234.864V232.477H305.973V231.359Z" fill="#1A1818"/>
<path d="M321.024 241.947H306.167V243.065H321.024V241.947Z" fill="#1A1818"/>
<path d="M188.261 236.65H183.67V237.768H188.261V236.65Z" fill="#1A1818"/>
<path d="M188.261 241.947H183.67V243.065H188.261V241.947Z" fill="black"/>
<path d="M220.793 241.947H193.67V243.065H220.793V241.947Z" fill="#1A1818"/>
<path d="M306.94 247.238H228.54V248.356H306.94V247.238Z" fill="#1A1818"/>
<path d="M301.921 241.947H223.553V243.065H301.921V241.947Z" fill="#9747FF"/>
<path d="M188.261 247.238H183.67V248.356H188.261V247.238Z" fill="#1A1818"/>
<path d="M188.261 257.832H183.67V258.95H188.261V257.832Z" fill="#1A1818"/>
<path d="M247.481 257.832H193.67V258.95H247.481V257.832Z" fill="#1A1818"/>
<path d="M188.261 263.123H183.67V264.241H188.261V263.123Z" fill="#1A1818"/>
<path d="M232.695 263.123H198.144V264.241H232.695V263.123Z" fill="black"/>
<path d="M226.67 279.008H193.67V280.126H226.67V279.008Z" fill="black"/>
<path d="M309.92 268.42H223.864V269.538H309.92V268.42Z" fill="black"/>
<path d="M321.024 273.711H306.167V274.829H321.024V273.711Z" fill="#1A1818"/>
<path d="M188.261 268.42H183.67V269.538H188.261V268.42Z" fill="#1A1818"/>
<path d="M188.261 273.711H183.67V274.829H188.261V273.711Z" fill="black"/>
<path d="M220.793 273.711H193.67V274.829H220.793V273.711Z" fill="#1A1818"/>
<path d="M306.94 279.008H228.54V280.126H306.94V279.008Z" fill="#1A1818"/>
<path d="M301.921 273.711H223.553V274.829H301.921V273.711Z" fill="#9747FF"/>
<path d="M188.261 279.008H183.67V280.126H188.261V279.008Z" fill="#1A1818"/>
<path d="M186.502 173.962C186.54 173.998 186.571 174.042 186.591 174.09C186.612 174.139 186.623 174.191 186.623 174.243C186.623 174.296 186.612 174.348 186.591 174.396C186.571 174.444 186.54 174.488 186.502 174.524C186.466 174.561 186.424 174.59 186.377 174.61C186.33 174.63 186.28 174.64 186.229 174.641C186.12 174.641 186.015 174.6 185.937 174.524L184.164 172.741C184.164 172.741 184.164 172.741 184.164 172.703C184.161 172.685 184.161 172.668 184.164 172.651C184.164 172.651 184.164 172.619 184.164 172.612C184.164 172.606 184.164 172.612 184.164 172.58V172.535C184.164 172.535 184.164 172.535 184.164 172.496C184.164 172.457 184.164 172.496 184.164 172.463V172.386C184.164 172.386 184.164 172.354 184.164 172.334C184.174 172.314 184.184 172.295 184.197 172.276C184.197 172.276 184.197 172.276 184.229 172.237L186.002 170.448C186.078 170.376 186.179 170.335 186.284 170.335C186.389 170.335 186.491 170.376 186.567 170.448C186.605 170.484 186.635 170.528 186.656 170.576C186.677 170.624 186.688 170.676 186.688 170.729C186.688 170.782 186.677 170.834 186.656 170.882C186.635 170.93 186.605 170.974 186.567 171.01L185.073 172.509L186.502 173.962Z" fill="#9747FF"/>
<path d="M188.105 174.163L189.651 170.513C189.669 170.47 189.695 170.431 189.727 170.399C189.76 170.366 189.799 170.341 189.842 170.323C189.885 170.306 189.931 170.297 189.977 170.297C190.023 170.298 190.069 170.307 190.112 170.325C190.153 170.343 190.19 170.368 190.221 170.4C190.253 170.432 190.277 170.47 190.293 170.512C190.31 170.553 190.317 170.597 190.316 170.642C190.315 170.686 190.305 170.73 190.287 170.771L188.742 174.434C188.715 174.496 188.67 174.548 188.614 174.585C188.557 174.622 188.491 174.641 188.424 174.641C188.381 174.65 188.336 174.65 188.294 174.641C188.248 174.624 188.206 174.598 188.171 174.564C188.136 174.53 188.109 174.489 188.091 174.444C188.073 174.399 188.065 174.35 188.068 174.302C188.07 174.253 188.083 174.206 188.105 174.163Z" fill="#9747FF"/>
<path d="M193.333 172.69C193.333 172.69 193.333 172.722 193.294 172.735L191.521 174.518C191.484 174.555 191.439 174.584 191.39 174.604C191.341 174.624 191.288 174.634 191.235 174.634C191.157 174.632 191.082 174.607 191.017 174.563C190.953 174.519 190.903 174.457 190.874 174.385C190.844 174.314 190.836 174.235 190.851 174.158C190.865 174.082 190.902 174.012 190.956 173.956L192.45 172.457L190.956 170.958C190.918 170.922 190.887 170.879 190.867 170.83C190.846 170.782 190.835 170.73 190.835 170.677C190.835 170.625 190.846 170.573 190.867 170.524C190.887 170.476 190.918 170.432 190.956 170.396C191.032 170.324 191.133 170.284 191.239 170.284C191.344 170.284 191.445 170.324 191.521 170.396L193.294 172.186C193.294 172.186 193.294 172.186 193.333 172.224C193.345 172.243 193.356 172.263 193.365 172.283C193.363 172.302 193.363 172.321 193.365 172.341V172.38C193.365 172.38 193.365 172.379 193.365 172.412V172.496C193.364 172.515 193.364 172.535 193.365 172.554L193.333 172.69Z" fill="#9747FF"/>
<path d="M109.9 185.119H76.79V142.095H101.75L109.9 150.202V185.119Z" fill="#9747FF"/>
<path opacity="0.6" d="M109.9 185.119H76.79V142.095H101.75L109.9 150.202V185.119Z" fill="black"/>
<path d="M109.9 150.202H101.75V142.095L109.9 150.202Z" fill="#9747FF"/>
<path d="M84.4458 157.257C84.4471 157.742 84.5931 158.216 84.8653 158.619C85.1375 159.022 85.5237 159.336 85.975 159.521C86.4264 159.705 86.9226 159.753 87.401 159.657C87.8794 159.561 88.3185 159.326 88.6626 158.981C89.0068 158.637 89.2407 158.199 89.3346 157.723C89.4285 157.246 89.3784 156.753 89.1904 156.305C89.0025 155.857 88.6852 155.474 88.2787 155.206C87.8723 154.937 87.3948 154.794 86.9068 154.795C86.5825 154.795 86.2615 154.859 85.962 154.983C85.6626 155.107 85.3907 155.288 85.162 155.517C84.9333 155.746 84.7523 156.017 84.6294 156.316C84.5065 156.614 84.4441 156.934 84.4458 157.257Z" fill="#9747FF"/>
<path d="M88.2505 168.168H104.997L96.6269 158L88.2505 168.168Z" fill="#9747FF"/>
<path d="M81.686 168.168H95.5103L88.6014 161.546L81.686 168.168Z" fill="#9747FF"/>
<path opacity="0.1" d="M81.686 168.168H95.5103L88.6014 161.546L81.686 168.168Z" fill="black"/>
<path d="M104.991 151.895H81.686V168.168H104.991V151.895Z" stroke="#9747FF" stroke-width="2" stroke-miterlimit="10"/>
<path d="M92.5297 169.925H68.7446V179.718H92.5297V169.925Z" fill="#37718C"/>
<path d="M75.7318 172.593V177.341H74.8097V175.312H72.6409V177.341H71.7124V172.593H72.6409V174.531H74.8097V172.593H75.7318Z" fill="black"/>
<path d="M80.2897 173.4H78.7638V177.341H77.8482V173.4H76.3223V172.593H80.2897V173.4Z" fill="black"/>
<path d="M84.7766 177.341V174.195L83.5428 176.54H83.0428L81.8156 174.195V177.341H80.8936V172.593H81.887L83.2961 175.293L84.7246 172.593H85.7116V177.341H84.7766Z" fill="black"/>
<path d="M86.6987 177.341V172.593H87.6597V176.533H90.0947V177.341H86.6987Z" fill="black"/>
<path d="M109.899 237.38H76.751V194.311H101.744L109.899 202.425V237.38Z" fill="#9747FF"/>
<path opacity="0.6" d="M109.899 237.38H76.751V194.311H101.744L109.899 202.425V237.38Z" fill="black"/>
<path d="M109.899 202.425H101.744V194.311L109.899 202.425Z" fill="#9747FF"/>
<path d="M84.4131 209.486C84.4144 209.973 84.5607 210.448 84.8336 210.852C85.1065 211.256 85.4937 211.571 85.9463 211.756C86.3988 211.941 86.8964 211.988 87.3761 211.892C87.8557 211.796 88.2959 211.56 88.641 211.215C88.9861 210.87 89.2205 210.431 89.3147 209.953C89.4089 209.475 89.3586 208.981 89.1702 208.531C88.9818 208.082 88.6636 207.699 88.2561 207.429C87.8485 207.16 87.3699 207.017 86.8806 207.018C86.225 207.021 85.5974 207.283 85.135 207.745C84.6726 208.208 84.4131 208.834 84.4131 209.486Z" fill="#9747FF"/>
<path d="M88.2314 220.41H104.991L96.6078 210.229L88.2314 220.41Z" fill="#9747FF"/>
<path d="M81.6602 220.41H95.4975L88.5756 213.782L81.6602 220.41Z" fill="#9747FF"/>
<path opacity="0.1" d="M81.6602 220.41H95.4975L88.5756 213.782L81.6602 220.41Z" fill="black"/>
<path d="M104.991 204.124H81.6602V220.41H104.991V204.124Z" stroke="#9747FF" stroke-width="2" stroke-miterlimit="10"/>
<path d="M92.5101 222.167H68.7056V231.967H92.5101V222.167Z" fill="#37718C"/>
<path d="M74.3291 227.18C74.3297 226.886 74.3825 226.596 74.4849 226.321C74.5886 226.04 74.745 225.781 74.9459 225.558C75.1558 225.332 75.407 225.148 75.6862 225.016C75.998 224.875 76.3372 224.804 76.6797 224.809C77.0804 224.798 77.4763 224.899 77.8225 225.1C78.1276 225.276 78.3754 225.536 78.5368 225.849L77.8225 226.34C77.7214 226.101 77.5401 225.905 77.3095 225.784C77.2076 225.728 77.0983 225.687 76.9849 225.662C76.8756 225.641 76.7648 225.63 76.6537 225.629C76.4422 225.624 76.2326 225.671 76.0433 225.765C75.8779 225.859 75.7323 225.984 75.6148 226.133C75.4966 226.285 75.4085 226.459 75.355 226.644C75.234 227.024 75.234 227.432 75.355 227.813C75.4186 227.999 75.5153 228.172 75.6407 228.323C75.7642 228.471 75.9166 228.592 76.0888 228.678C76.2627 228.77 76.4569 228.817 76.6537 228.814C76.7673 228.814 76.8806 228.801 76.9913 228.775C77.1075 228.749 77.2191 228.705 77.3225 228.646C77.4334 228.59 77.5325 228.513 77.6147 228.42C77.7079 228.324 77.7827 228.213 77.8355 228.091L78.5952 228.523C78.5184 228.701 78.4057 228.862 78.264 228.995C78.1247 229.134 77.9649 229.252 77.79 229.344C77.6082 229.436 77.4165 229.507 77.2186 229.557C77.0255 229.606 76.8269 229.63 76.6277 229.628C76.3035 229.631 75.9831 229.558 75.6927 229.415C75.4176 229.276 75.1709 229.088 74.9654 228.859C74.7591 228.627 74.5963 228.36 74.4849 228.071C74.3759 227.787 74.323 227.484 74.3291 227.18Z" fill="black"/>
<path d="M82.0753 226.081C82.0241 226.032 81.9674 225.989 81.9065 225.952C81.692 225.825 81.4602 225.729 81.2182 225.668C81.0784 225.631 80.9342 225.614 80.7897 225.616C80.5898 225.603 80.3905 225.65 80.2182 225.752C80.1568 225.799 80.1075 225.86 80.0747 225.929C80.042 225.999 80.0266 226.076 80.0299 226.153C80.0276 226.238 80.0526 226.321 80.1014 226.392C80.1586 226.463 80.2292 226.522 80.3092 226.566C80.4174 226.619 80.5305 226.663 80.6468 226.695C80.7832 226.74 80.9455 226.779 81.1208 226.824C81.2961 226.87 81.5689 226.954 81.7702 227.025C81.9466 227.087 82.1113 227.179 82.2572 227.296C82.3866 227.398 82.491 227.529 82.5623 227.677C82.64 227.852 82.6777 228.042 82.6727 228.233C82.6769 228.457 82.6256 228.679 82.5234 228.879C82.429 229.053 82.2957 229.203 82.1338 229.318C81.9619 229.433 81.7705 229.516 81.5689 229.563C81.3554 229.609 81.1378 229.633 80.9195 229.634C80.5589 229.634 80.2002 229.582 79.8546 229.479C79.5179 229.378 79.1999 229.223 78.9131 229.021L79.3222 228.226C79.392 228.283 79.4657 228.335 79.5429 228.381C79.8088 228.539 80.0949 228.661 80.3936 228.743C80.5697 228.787 80.7508 228.809 80.9325 228.808C81.4455 228.808 81.6987 228.646 81.6987 228.317C81.7028 228.223 81.6729 228.131 81.6143 228.058C81.545 227.978 81.4585 227.914 81.3611 227.871C81.2359 227.81 81.1055 227.76 80.9715 227.722L80.4585 227.574C80.2568 227.522 80.0593 227.455 79.8676 227.373C79.7136 227.308 79.5711 227.219 79.4455 227.109C79.3359 227.013 79.2494 226.893 79.1923 226.76C79.1349 226.609 79.1062 226.449 79.1079 226.288C79.1029 226.065 79.1496 225.844 79.2442 225.642C79.3319 225.46 79.4582 225.299 79.6144 225.171C79.7817 225.043 79.9709 224.947 80.1728 224.886C80.3834 224.823 80.6021 224.79 80.8221 224.789C81.139 224.787 81.4537 224.841 81.7507 224.951C82.0037 225.059 82.2434 225.195 82.4649 225.358L82.0753 226.081Z" fill="black"/>
<path d="M86.2054 226.081C86.1501 226.034 86.0915 225.991 86.0301 225.952C85.8173 225.822 85.5849 225.726 85.3418 225.668C85.2042 225.631 85.0621 225.614 84.9197 225.616C84.7197 225.601 84.5198 225.649 84.3483 225.752C84.2859 225.798 84.2361 225.859 84.2032 225.929C84.1704 225.999 84.1555 226.075 84.16 226.153C84.1557 226.237 84.1784 226.321 84.2249 226.392C84.2822 226.463 84.3527 226.522 84.4327 226.566C84.541 226.619 84.654 226.663 84.7703 226.695C84.9067 226.74 85.069 226.779 85.2444 226.824C85.4197 226.87 85.6924 226.954 85.8937 227.025C86.0708 227.086 86.2357 227.178 86.3807 227.296C86.5101 227.398 86.6145 227.529 86.6859 227.677C86.7635 227.852 86.8012 228.042 86.7963 228.233C86.8004 228.457 86.7491 228.679 86.6469 228.879C86.5574 229.056 86.4231 229.207 86.2573 229.318C86.0855 229.433 85.8941 229.516 85.6924 229.563C85.479 229.609 85.2614 229.633 85.0431 229.634C84.6824 229.634 84.3238 229.582 83.9782 229.479C83.642 229.377 83.3243 229.222 83.0366 229.021L83.4522 228.226C83.5181 228.285 83.5899 228.337 83.6665 228.381C83.7885 228.452 83.9142 228.517 84.0431 228.575C84.1959 228.645 84.3545 228.701 84.5171 228.743C84.6933 228.787 84.8744 228.809 85.0561 228.808C85.569 228.808 85.8223 228.646 85.8223 228.317C85.8264 228.223 85.7964 228.131 85.7378 228.058C85.6696 227.979 85.5855 227.916 85.4911 227.871C85.3632 227.811 85.2308 227.761 85.095 227.722L84.5885 227.574C84.3844 227.523 84.1847 227.456 83.9911 227.373C83.8371 227.308 83.6946 227.219 83.5691 227.109C83.4594 227.013 83.3729 226.893 83.3158 226.76C83.2584 226.609 83.2298 226.449 83.2314 226.288C83.2265 226.065 83.2731 225.844 83.3678 225.642C83.4556 225.459 83.5844 225.297 83.7444 225.171C83.9094 225.043 84.0965 224.947 84.2963 224.886C84.5071 224.824 84.7257 224.791 84.9457 224.789C85.2626 224.785 85.5775 224.84 85.8742 224.951C86.1344 225.045 86.3829 225.168 86.6144 225.319L86.2054 226.081Z" fill="black"/>
<path d="M73.6278 215.403H72.9785" stroke="#778389" stroke-width="0.75" stroke-miterlimit="10"/>
<path d="M71.79 215.403H67.6343" stroke="#778389" stroke-width="0.75" stroke-miterlimit="10" stroke-dasharray="1.83 1.83"/>
<path d="M67.0434 215.403H66.394V214.757" stroke="#778389" stroke-width="0.75" stroke-miterlimit="10"/>
<path d="M66.394 213.478V157.825" stroke="#778389" stroke-width="0.75" stroke-miterlimit="10" stroke-dasharray="1.98 1.98"/>
<path d="M66.394 157.186V156.54H67.0434" stroke="#778389" stroke-width="0.75" stroke-miterlimit="10"/>
<path d="M68.0889 156.54H71.7706" stroke="#778389" stroke-width="0.75" stroke-miterlimit="10" stroke-dasharray="1.62 1.62"/>
<path d="M72.29 156.54H72.9394" stroke="#778389" stroke-width="0.75" stroke-miterlimit="10"/>
<path d="M73.5951 214.673C73.7402 214.673 73.8821 214.716 74.0027 214.796C74.1234 214.876 74.2174 214.99 74.273 215.124C74.3285 215.257 74.343 215.404 74.3147 215.546C74.2864 215.687 74.2165 215.817 74.1139 215.919C74.0113 216.021 73.8806 216.091 73.7382 216.119C73.5959 216.147 73.4484 216.133 73.3143 216.078C73.1802 216.022 73.0656 215.929 72.985 215.809C72.9044 215.689 72.8613 215.548 72.8613 215.403C72.863 215.21 72.9409 215.025 73.0781 214.889C73.2153 214.752 73.401 214.675 73.5951 214.673Z" fill="#778389"/>
<path d="M72.9071 157.27C73.3123 157.27 73.6408 156.943 73.6408 156.54C73.6408 156.136 73.3123 155.81 72.9071 155.81C72.5018 155.81 72.1733 156.136 72.1733 156.54C72.1733 156.943 72.5018 157.27 72.9071 157.27Z" fill="#778389"/>
<path d="M66.3941 185.933H58.4463V118.535H143.392" stroke="#778389" stroke-width="0.75" stroke-miterlimit="10" stroke-dasharray="2 2"/>
<path d="M143.106 119.498L144.788 118.535L143.106 117.566V119.498Z" fill="#778389"/>
<path d="M210.657 100.385H436.579C441.825 100.385 446.079 104.639 446.079 109.885V244.796C446.079 250.043 441.825 254.296 436.579 254.296H210.657C205.41 254.296 201.157 250.043 201.157 244.796V109.885C201.157 104.639 205.41 100.385 210.657 100.385Z" stroke="black"/>
<path d="M446.657 254.874H200.56V99.8337H446.657V254.874ZM200.735 254.712H446.495V99.9629H200.735V254.712Z" fill="#778389"/>
<path d="M443.597 99.8854H203.638C201.992 99.8854 200.657 101.22 200.657 102.867C200.657 104.513 201.992 105.848 203.638 105.848H443.597C445.244 105.848 446.579 104.513 446.579 102.867C446.579 101.22 445.244 99.8854 443.597 99.8854Z" fill="#9747FF"/>
<path d="M206.293 102.863C206.294 103.089 206.228 103.309 206.102 103.497C205.977 103.684 205.798 103.83 205.588 103.915C205.379 104.001 205.149 104.022 204.927 103.977C204.705 103.931 204.502 103.821 204.344 103.659C204.186 103.498 204.08 103.294 204.039 103.072C203.998 102.851 204.025 102.622 204.116 102.416C204.207 102.21 204.357 102.035 204.549 101.914C204.74 101.794 204.963 101.733 205.189 101.739C205.484 101.746 205.765 101.868 205.971 102.078C206.178 102.288 206.293 102.57 206.293 102.863Z" fill="black"/>
<path d="M210.923 102.863C210.924 103.088 210.859 103.307 210.734 103.494C210.61 103.681 210.432 103.827 210.225 103.913C210.017 104 209.788 104.022 209.567 103.979C209.346 103.936 209.143 103.828 208.983 103.669C208.824 103.511 208.716 103.309 208.672 103.089C208.628 102.869 208.651 102.641 208.738 102.434C208.825 102.228 208.972 102.051 209.159 101.927C209.347 101.804 209.568 101.738 209.793 101.739C210.093 101.739 210.38 101.858 210.592 102.069C210.804 102.279 210.923 102.565 210.923 102.863Z" fill="black"/>
<path d="M215.579 102.863C215.58 103.088 215.514 103.307 215.39 103.494C215.266 103.681 215.088 103.827 214.88 103.913C214.672 104 214.443 104.022 214.222 103.979C214.001 103.936 213.798 103.828 213.639 103.669C213.48 103.511 213.371 103.309 213.328 103.089C213.284 102.869 213.307 102.641 213.394 102.434C213.481 102.228 213.627 102.051 213.815 101.927C214.003 101.804 214.224 101.738 214.449 101.739C214.749 101.739 215.036 101.858 215.248 102.069C215.46 102.279 215.579 102.565 215.579 102.863Z" fill="#37718C"/>
<path d="M225.832 105.842H207.65V186.197H225.832V105.842Z" fill="#1A1818"/>
<path d="M426.326 115.751H220.91C218.148 115.751 215.91 117.99 215.91 120.751V130.215C215.91 132.977 218.148 135.215 220.91 135.215H426.326C429.087 135.215 431.326 132.977 431.326 130.215V120.751C431.326 117.99 429.087 115.751 426.326 115.751Z" fill="#9747FF"/>
<path d="M230.792 123.284H225.832V124.085H230.792V123.284Z" fill="black"/>
<path d="M230.792 126.882H225.832V127.683H230.792V126.882Z" fill="black"/>
<path d="M230.792 125.105H225.832V125.906H230.792V125.105Z" fill="black"/>
<path d="M289.642 122.56H241.89V128.413H289.642V122.56Z" fill="black"/>
<path d="M289.7 128.458H241.831V122.482H289.7V128.458Z" fill="black"/>
<path d="M289.7 122.495H283.694V128.471H289.7V122.495Z" fill="#37718C"/>
<path d="M288.564 127.127L288.019 127.534L287.012 126.242L286.648 125.758C286.723 125.726 286.792 125.684 286.856 125.635C286.979 125.543 287.076 125.421 287.135 125.28L287.525 125.79L288.564 127.127Z" fill="black"/>
<path d="M287.492 124.014C287.32 123.792 287.088 123.623 286.822 123.528C286.557 123.433 286.27 123.415 285.995 123.477C285.72 123.539 285.468 123.678 285.27 123.877C285.071 124.076 284.934 124.327 284.874 124.602C284.814 124.876 284.834 125.161 284.932 125.424C285.03 125.687 285.201 125.917 285.426 126.087C285.65 126.257 285.919 126.359 286.2 126.382C286.481 126.405 286.763 126.347 287.012 126.216C287.085 126.177 287.155 126.132 287.22 126.081C287.337 125.992 287.44 125.885 287.525 125.764C287.71 125.508 287.806 125.199 287.8 124.883C287.794 124.568 287.686 124.263 287.492 124.014ZM286.843 125.609C286.779 125.658 286.709 125.7 286.635 125.732C286.436 125.811 286.214 125.815 286.012 125.744C285.809 125.673 285.639 125.532 285.533 125.346C285.427 125.161 285.392 124.943 285.435 124.734C285.478 124.524 285.595 124.337 285.765 124.207C285.919 124.09 286.107 124.027 286.301 124.026C286.494 124.025 286.683 124.087 286.838 124.203C286.993 124.318 287.106 124.481 287.16 124.666C287.213 124.851 287.205 125.048 287.135 125.228C287.08 125.378 286.983 125.51 286.856 125.609H286.843Z" fill="black"/>
<path d="M243.442 123.71H243.124V127.263H243.442V123.71Z" fill="black"/>
<path d="M421.372 124.595H400.736V126.378H421.372V124.595Z" fill="black"/>
<path d="M389.704 124.595H369.068V126.378H389.704V124.595Z" fill="black"/>
<path opacity="0.1" d="M358.036 124.595H337.4V126.378H358.036V124.595Z" fill="black"/>
<path d="M326.368 124.595H305.732V126.378H326.368V124.595Z" fill="black"/>
<path d="M441.579 195.862H205.657C202.895 195.862 200.657 198.1 200.657 200.862V210.326C200.657 213.087 202.895 215.326 205.657 215.326H441.579C444.34 215.326 446.579 213.087 446.579 210.326V200.862C446.579 198.1 444.34 195.862 441.579 195.862Z" fill="#9747FF"/>
<path d="M263.506 224.518H215.91V226.708H263.506V224.518Z" fill="#37718C"/>
<path d="M215.91 232.025L223.546 231.908L231.182 231.837L246.454 231.779L261.727 231.837L269.363 231.902L276.999 232.025L269.363 232.141L261.727 232.212L246.454 232.264L231.182 232.212L223.546 232.141L215.91 232.025Z" fill="black"/>
<path d="M215.91 235.009L223.546 234.893L231.182 234.828L246.454 234.77L261.727 234.822L269.363 234.893L276.999 235.009L269.363 235.132L261.727 235.197L246.454 235.255L231.182 235.197L223.546 235.132L215.91 235.009Z" fill="black"/>
<path d="M215.91 238L223.546 237.884L231.182 237.813L246.454 237.755L261.727 237.813L269.363 237.884L276.999 238L269.363 238.117L261.727 238.188L246.454 238.239L231.182 238.188L223.546 238.117L215.91 238Z" fill="black"/>
<path d="M215.91 240.985L223.546 240.868L231.182 240.804L246.454 240.746L261.727 240.804L269.363 240.868L276.999 240.985L269.363 241.107L261.727 241.172L246.454 241.23L231.182 241.172L223.546 241.107L215.91 240.985Z" fill="black"/>
<path d="M215.91 243.976C218.455 243.879 221 243.827 223.546 243.788L231.182 243.737L238.818 243.788C241.364 243.827 243.909 243.872 246.454 243.976C243.909 244.079 241.364 244.124 238.818 244.163L231.163 244.221L223.526 244.163C221 244.124 218.455 244.092 215.91 243.976Z" fill="black"/>
<path d="M340.666 224.518H293.07V226.708H340.666V224.518Z" fill="#37718C"/>
<path d="M293.07 232.025L300.706 231.908L308.343 231.837L323.615 231.779L338.887 231.837L346.523 231.902L354.16 232.025L346.523 232.141L338.887 232.212L323.615 232.264L308.343 232.212L300.706 232.141L293.07 232.025Z" fill="black"/>
<path d="M293.07 235.009L300.706 234.893L308.343 234.828L323.615 234.77L338.887 234.822L346.523 234.893L354.16 235.009L346.523 235.132L338.887 235.197L323.615 235.255L308.343 235.197L300.706 235.132L293.07 235.009Z" fill="black"/>
<path d="M293.07 238L300.706 237.884L308.343 237.813L323.615 237.755L338.887 237.813L346.523 237.884L354.16 238L346.523 238.117L338.887 238.188L323.615 238.239L308.343 238.188L300.706 238.117L293.07 238Z" fill="black"/>
<path d="M293.07 240.985L300.706 240.868L308.343 240.804L323.615 240.746L338.887 240.804L346.523 240.868L354.16 240.985L346.523 241.107L338.887 241.172L323.615 241.23L308.343 241.172L300.706 241.107L293.07 240.985Z" fill="black"/>
<path d="M293.07 243.976C295.616 243.879 298.161 243.827 300.706 243.788L308.343 243.737L315.979 243.788C318.524 243.827 321.07 243.872 323.615 243.976C321.07 244.079 318.524 244.124 315.979 244.163L308.343 244.221L300.706 244.163C298.161 244.124 295.616 244.092 293.07 243.976Z" fill="black"/>
<path d="M417.827 224.518H370.23V226.708H417.827V224.518Z" fill="#37718C"/>
<path d="M370.23 232.025L377.867 231.908L385.503 231.837L400.775 231.779L416.054 231.837L423.69 231.902L431.326 232.025L423.69 232.141L416.054 232.212L400.775 232.264L385.503 232.212L377.867 232.141L370.23 232.025Z" fill="black"/>
<path d="M370.23 235.009L377.867 234.893L385.503 234.828L400.775 234.77L416.054 234.822L423.69 234.893L431.326 235.009L423.69 235.132L416.054 235.197L400.775 235.255L385.503 235.197L377.867 235.132L370.23 235.009Z" fill="black"/>
<path d="M370.23 238L377.867 237.884L385.503 237.813L400.775 237.755L416.054 237.813L423.69 237.884L431.326 238L423.69 238.117L416.054 238.188L400.775 238.239L385.503 238.188L377.867 238.117L370.23 238Z" fill="black"/>
<path d="M370.23 240.985L377.867 240.868L385.503 240.804L400.775 240.746L416.054 240.804L423.69 240.868L431.326 240.985L423.69 241.107L416.054 241.172L400.775 241.23L385.503 241.172L377.867 241.107L370.23 240.985Z" fill="black"/>
<path d="M370.23 243.976C372.776 243.879 375.321 243.827 377.867 243.788L385.503 243.737L393.139 243.788C395.684 243.827 398.23 243.872 400.775 243.976C398.23 244.079 395.684 244.124 393.139 244.163L385.503 244.221L377.867 244.163C375.315 244.124 372.776 244.092 370.23 243.976Z" fill="black"/>
<path d="M247.993 188.633H279.616C282.377 188.633 284.616 186.394 284.616 183.633V152.224C284.616 149.463 282.377 147.224 279.616 147.224H247.993C245.232 147.224 242.993 149.463 242.993 152.224V183.633C242.993 186.394 245.232 188.633 247.993 188.633Z" fill="#1A1818"/>
<path d="M250.442 186.197H277.168C279.929 186.197 282.168 183.959 282.168 181.197V154.66C282.168 151.898 279.929 149.66 277.168 149.66H250.442C247.68 149.66 245.442 151.898 245.442 154.66V181.197C245.442 183.959 247.68 186.197 250.442 186.197Z" fill="#37718C"/>
<path d="M251.357 158.374C251.211 159.1 251.304 159.854 251.621 160.523C251.939 161.193 252.465 161.743 253.121 162.092C253.777 162.441 254.529 162.571 255.265 162.463C256.001 162.354 256.683 162.013 257.209 161.489C257.735 160.966 258.078 160.288 258.187 159.556C258.296 158.823 258.165 158.075 257.814 157.423C257.463 156.77 256.91 156.247 256.237 155.931C255.564 155.615 254.807 155.522 254.077 155.667C253.406 155.801 252.789 156.129 252.305 156.611C251.821 157.093 251.491 157.706 251.357 158.374Z" fill="#BBBBBB"/>
<path d="M255.623 176.714H282.168L268.895 161.908L255.623 176.714Z" fill="#BBBBBB"/>
<path d="M245.441 176.714H267.356L256.396 167.069L245.441 176.714Z" fill="#778389"/>
<path d="M367.62 188.633H399.243C402.004 188.633 404.243 186.394 404.243 183.633V152.224C404.243 149.463 402.004 147.224 399.243 147.224H367.62C364.859 147.224 362.62 149.463 362.62 152.224V183.633C362.62 186.394 364.859 188.633 367.62 188.633Z" fill="#1A1818"/>
<path d="M370.068 186.197H396.794C399.556 186.197 401.794 183.959 401.794 181.197V154.66C401.794 151.898 399.556 149.66 396.794 149.66H370.068C367.307 149.66 365.068 151.898 365.068 154.66V181.197C365.068 183.959 367.307 186.197 370.068 186.197Z" fill="#37718C"/>
<path d="M370.984 158.374C370.839 159.099 370.933 159.85 371.25 160.518C371.568 161.185 372.093 161.734 372.747 162.082C373.402 162.43 374.152 162.559 374.887 162.451C375.621 162.342 376.301 162.002 376.826 161.479C377.351 160.957 377.693 160.281 377.802 159.55C377.911 158.82 377.781 158.074 377.431 157.422C377.081 156.771 376.53 156.249 375.859 155.933C375.188 155.617 374.433 155.524 373.704 155.667C373.033 155.8 372.415 156.128 371.931 156.61C371.447 157.092 371.117 157.706 370.984 158.374Z" fill="#BBBBBB"/>
<path d="M375.25 176.714H401.794L388.522 161.908L375.25 176.714Z" fill="#BBBBBB"/>
<path d="M365.062 176.714H386.977L376.022 167.069L365.062 176.714Z" fill="#778389"/>
<path d="M307.797 188.633H339.426C342.187 188.633 344.426 186.394 344.426 183.633V152.224C344.426 149.463 342.187 147.224 339.426 147.224H307.797C305.036 147.224 302.797 149.463 302.797 152.224V183.633C302.797 186.394 305.036 188.633 307.797 188.633Z" fill="#1A1818"/>
<path d="M310.252 186.197H336.978C339.739 186.197 341.978 183.959 341.978 181.197V154.66C341.978 151.898 339.739 149.66 336.978 149.66H310.252C307.49 149.66 305.252 151.898 305.252 154.66V181.197C305.252 183.959 307.49 186.197 310.252 186.197Z" fill="#9747FF"/>
<path opacity="0.1" d="M311.167 158.374C311.021 159.1 311.114 159.854 311.432 160.523C311.749 161.193 312.275 161.743 312.931 162.092C313.587 162.441 314.339 162.571 315.075 162.463C315.811 162.354 316.493 162.013 317.019 161.489C317.545 160.966 317.888 160.288 317.997 159.556C318.106 158.823 317.975 158.075 317.624 157.423C317.273 156.77 316.72 156.247 316.047 155.931C315.375 155.615 314.617 155.522 313.888 155.667C313.216 155.801 312.599 156.129 312.115 156.611C311.631 157.093 311.301 157.706 311.167 158.374Z" fill="black"/>
<path opacity="0.1" d="M315.433 176.714H341.978L328.705 161.908L315.433 176.714Z" fill="black"/>
<path d="M305.251 176.714H327.166L316.212 167.069L305.251 176.714Z" fill="#9747FF"/>
<g opacity="0.2">
<path d="M305.251 176.714H327.166L316.212 167.069L305.251 176.714Z" fill="black"/>
</g>
<path d="M245.441 201.114L255.603 200.997L265.766 200.926L286.096 200.868L306.42 200.926L316.582 200.991L326.751 201.114L316.582 201.23L306.42 201.301L286.096 201.353L265.766 201.301L255.603 201.23L245.441 201.114Z" fill="black"/>
<path d="M245.441 204.098L255.603 203.982L265.766 203.917L286.096 203.859L306.42 203.917L316.582 203.982L326.751 204.098L316.582 204.221L306.42 204.285L286.096 204.344L265.766 204.285L255.603 204.221L245.441 204.098Z" fill="black"/>
<path d="M245.441 207.089L255.603 206.973L265.766 206.902L286.096 206.85L306.42 206.902L316.582 206.973L326.751 207.089L316.582 207.205L306.42 207.276L286.096 207.328L265.766 207.276L255.603 207.205L245.441 207.089Z" fill="black"/>
<path d="M245.448 210.08C248.831 209.977 252.221 209.931 255.61 209.893L265.772 209.835L275.934 209.893C279.324 209.931 282.713 209.977 286.103 210.08C282.713 210.177 279.324 210.222 275.934 210.261L265.772 210.319L255.61 210.261C252.214 210.222 248.825 210.177 245.448 210.08Z" fill="black"/>
<path d="M218.877 208.562V202.632L215.981 205.384L218.877 208.562Z" fill="black"/>
<path d="M428.508 202.632V208.562L431.404 205.81L428.508 202.632Z" fill="black"/>
<path d="M163.418 114.362C163.418 116.848 164.159 119.277 165.547 121.344C166.935 123.41 168.908 125.02 171.216 125.971C173.524 126.922 176.064 127.17 178.514 126.685C180.964 126.2 183.214 125.002 184.98 123.245C186.746 121.487 187.948 119.247 188.435 116.81C188.922 114.372 188.671 111.845 187.714 109.549C186.757 107.254 185.137 105.292 183.059 103.912C180.981 102.532 178.539 101.796 176.041 101.798C172.693 101.803 169.485 103.128 167.118 105.484C164.752 107.839 163.421 111.032 163.418 114.362ZM166.106 114.362C166.105 112.406 166.687 110.493 167.779 108.865C168.871 107.238 170.423 105.969 172.24 105.22C174.057 104.47 176.056 104.274 177.985 104.655C179.914 105.037 181.686 105.979 183.077 107.362C184.468 108.746 185.415 110.509 185.798 112.428C186.181 114.347 185.984 116.336 185.231 118.144C184.477 119.951 183.202 121.496 181.566 122.582C179.931 123.668 178.008 124.247 176.041 124.246C173.406 124.246 170.879 123.205 169.016 121.351C167.153 119.498 166.106 116.984 166.106 114.362ZM163.418 114.362C163.418 116.848 164.159 119.277 165.547 121.344C166.935 123.41 168.908 125.02 171.216 125.971C173.524 126.922 176.064 127.17 178.514 126.685C180.964 126.2 183.214 125.002 184.98 123.245C186.746 121.487 187.948 119.247 188.435 116.81C188.922 114.372 188.671 111.845 187.714 109.549C186.757 107.254 185.137 105.292 183.059 103.912C180.981 102.532 178.539 101.796 176.041 101.798C172.693 101.803 169.485 103.128 167.118 105.484C164.752 107.839 163.421 111.032 163.418 114.362ZM166.106 114.362C166.105 112.406 166.687 110.493 167.779 108.865C168.871 107.238 170.423 105.969 172.24 105.22C174.057 104.47 176.056 104.274 177.985 104.655C179.914 105.037 181.686 105.979 183.077 107.362C184.468 108.746 185.415 110.509 185.798 112.428C186.181 114.347 185.984 116.336 185.231 118.144C184.477 119.951 183.202 121.496 181.566 122.582C179.931 123.668 178.008 124.247 176.041 124.246C173.406 124.246 170.879 123.205 169.016 121.351C167.153 119.498 166.106 116.984 166.106 114.362ZM154.762 114.362C154.763 118.55 156.013 122.644 158.353 126.126C160.693 129.608 164.018 132.321 167.908 133.922C171.798 135.524 176.078 135.942 180.206 135.124C184.335 134.305 188.127 132.287 191.103 129.325C194.079 126.362 196.105 122.589 196.925 118.481C197.745 114.373 197.322 110.115 195.71 106.246C194.098 102.377 191.368 99.0709 187.867 96.7451C184.366 94.4194 180.251 93.1787 176.041 93.1799C173.245 93.1799 170.477 93.7279 167.895 94.7926C165.312 95.8573 162.966 97.4177 160.99 99.3849C159.014 101.352 157.447 103.687 156.378 106.257C155.31 108.827 154.761 111.581 154.762 114.362ZM162.21 114.362C162.21 111.639 163.022 108.977 164.543 106.713C166.063 104.449 168.225 102.685 170.754 101.643C173.282 100.602 176.065 100.329 178.749 100.861C181.434 101.393 183.899 102.704 185.834 104.63C187.769 106.556 189.086 109.01 189.62 111.681C190.153 114.351 189.878 117.12 188.829 119.635C187.781 122.15 186.007 124.3 183.73 125.812C181.454 127.324 178.778 128.13 176.041 128.129C172.374 128.122 168.859 126.669 166.266 124.089C163.674 121.508 162.215 118.011 162.21 114.362ZM163.418 114.362C163.418 116.848 164.159 119.277 165.547 121.344C166.935 123.41 168.908 125.02 171.216 125.971C173.524 126.922 176.064 127.17 178.514 126.685C180.964 126.2 183.214 125.002 184.98 123.245C186.746 121.487 187.948 119.247 188.435 116.81C188.922 114.372 188.671 111.845 187.714 109.549C186.757 107.254 185.137 105.292 183.059 103.912C180.981 102.532 178.539 101.796 176.041 101.798C172.693 101.803 169.485 103.128 167.118 105.484C164.752 107.839 163.421 111.032 163.418 114.362ZM166.106 114.362C166.105 112.406 166.687 110.493 167.779 108.865C168.871 107.238 170.423 105.969 172.24 105.22C174.057 104.47 176.056 104.274 177.985 104.655C179.914 105.037 181.686 105.979 183.077 107.362C184.468 108.746 185.415 110.509 185.798 112.428C186.181 114.347 185.984 116.336 185.231 118.144C184.477 119.951 183.202 121.496 181.566 122.582C179.931 123.668 178.008 124.247 176.041 124.246C173.406 124.246 170.879 123.205 169.016 121.351C167.153 119.498 166.106 116.984 166.106 114.362Z" fill="#9747FF"/>
<path d="M173.547 93.5675H178.417L177.93 88.729H174.028L173.547 93.5675Z" fill="#9747FF"/>
<path d="M184.333 95.1115L188.554 97.534L190.56 93.1024L187.184 91.158L184.333 95.1115Z" fill="#9747FF"/>
<path d="M192.897 101.811L195.332 106.01L199.3 103.167L197.352 99.8079L192.897 101.811Z" fill="#9747FF"/>
<path d="M196.943 111.869V116.72L201.806 116.236V112.353L196.943 111.869Z" fill="#9747FF"/>
<path d="M195.398 122.599L192.956 126.798L197.41 128.8L199.365 125.441L195.398 122.599Z" fill="#9747FF"/>
<path d="M188.658 131.12L184.437 133.549L187.294 137.496L190.671 135.551L188.658 131.12Z" fill="#9747FF"/>
<path d="M178.547 135.151H173.671L174.158 139.989H178.06L178.547 135.151Z" fill="#9747FF"/>
<path d="M167.762 133.607L163.541 131.184L161.528 135.616L164.911 137.56L167.762 133.607Z" fill="#9747FF"/>
<path d="M159.197 126.908L156.756 122.709L152.789 125.545L154.743 128.91L159.197 126.908Z" fill="#9747FF"/>
<path d="M155.145 116.843V111.998L150.282 112.482V116.365L155.145 116.843Z" fill="#9747FF"/>
<path d="M156.698 106.119L159.133 101.92L154.678 99.9177L152.724 103.277L156.698 106.119Z" fill="#9747FF"/>
<path d="M163.431 97.5922L167.652 95.1697L164.801 91.2226L161.418 93.1606L163.431 97.5922Z" fill="#9747FF"/>
<path d="M122.926 95.1244C122.861 97.5615 123.524 99.963 124.832 102.025C126.139 104.087 128.032 105.717 130.27 106.709C132.509 107.701 134.993 108.01 137.408 107.598C139.823 107.185 142.061 106.069 143.839 104.391C145.616 102.713 146.854 100.548 147.394 98.1698C147.935 95.7919 147.755 93.3079 146.877 91.0319C145.998 88.7559 144.461 86.7902 142.46 85.3833C140.459 83.9764 138.083 83.1916 135.633 83.1282C134.007 83.0852 132.388 83.3615 130.869 83.9412C129.35 84.5209 127.961 85.3927 126.781 86.5067C125.601 87.6208 124.653 88.9553 123.991 90.4339C123.33 91.9126 122.968 93.5065 122.926 95.1244ZM129.523 95.2988C129.553 94.1607 129.921 93.057 130.582 92.1273C131.242 91.1975 132.165 90.4836 133.234 90.0757C134.302 89.6678 135.468 89.5843 136.584 89.8357C137.7 90.0871 138.716 90.6622 139.504 91.4882C140.292 92.3142 140.815 93.354 141.009 94.4761C141.202 95.5983 141.057 96.7523 140.591 97.7922C140.125 98.8321 139.36 99.7113 138.392 100.318C137.424 100.926 136.297 101.234 135.153 101.203C133.619 101.163 132.165 100.518 131.109 99.4107C130.053 98.3034 129.483 96.8244 129.523 95.2988Z" fill="#1A1818"/>
<path d="M133.244 83.5739L138.003 83.7031L137.828 80.3439L133.594 80.2277L133.244 83.5739Z" fill="#1A1818"/>
<path d="M142.263 85.4086L145.542 88.8517L147.808 86.3517L144.892 83.2961L142.263 85.4086Z" fill="#1A1818"/>
<path d="M147.34 93.0572L147.21 97.7924L150.587 97.618L150.704 93.406L147.34 93.0572Z" fill="#1A1818"/>
<path d="M145.496 102.03L142.035 105.292L144.548 107.547L147.626 104.646L145.496 102.03Z" fill="#1A1818"/>
<path d="M137.808 107.082L133.049 106.953L133.224 110.318L137.458 110.428L137.808 107.082Z" fill="#1A1818"/>
<path d="M128.789 105.247L125.51 101.804L123.244 104.304L126.159 107.366L128.789 105.247Z" fill="#1A1818"/>
<path d="M123.711 97.5986L123.841 92.8634L120.465 93.0378L120.348 97.2497L123.711 97.5986Z" fill="#1A1818"/>
<path d="M125.555 88.6257L129.016 85.3634L126.503 83.1088L123.425 86.0158L125.555 88.6257Z" fill="#1A1818"/>
<path d="M138.601 92.4306L134.536 91.2291L131.464 94.1296L132.464 98.2252L136.523 99.4268L139.607 96.5263L138.601 92.4306ZM135.49 96.6619C135.224 96.6554 134.966 96.5703 134.748 96.4174C134.531 96.2646 134.364 96.0509 134.268 95.8034C134.173 95.556 134.154 95.2859 134.213 95.0276C134.272 94.7693 134.407 94.5343 134.601 94.3524C134.795 94.1706 135.038 94.0501 135.301 94.0063C135.564 93.9625 135.834 93.9973 136.076 94.1063C136.319 94.2153 136.524 94.3936 136.665 94.6186C136.805 94.8436 136.876 95.1051 136.867 95.3699C136.855 95.7223 136.704 96.0558 136.446 96.2978C136.188 96.5398 135.845 96.6706 135.49 96.6619Z" fill="#1A1818"/>
<path d="M175.982 85.3182V81.9396H252.675V94.8273" stroke="#778389" stroke-width="0.75" stroke-miterlimit="10" stroke-dasharray="2 2"/>
<path d="M251.701 94.5495L252.675 96.2226L253.643 94.5495H251.701Z" fill="#778389"/>
<rect x="5.5" y="5.5" width="477" height="22" rx="11" stroke="black"/>
<circle opacity="0.8" cx="61" cy="17" r="3.5" stroke="#FFC727"/>
<circle cx="72" cy="17" r="3.5" stroke="#00D115"/>
<circle cx="83" cy="17" r="3.5" stroke="#D10000"/>
</svg>
