<svg width="333" height="254" viewBox="0 0 333 254" fill="none" xmlns="http://www.w3.org/2000/svg">
<rect x="0.5" y="0.5" width="331.522" height="253" rx="19.5" fill="white" stroke="black"/>
<path d="M306.971 167.644L301.154 167.768L298.201 167.816C297.212 167.838 296.219 167.816 295.23 167.843H295.035V167.644L295.009 162.695V162.475H295.23L301.101 162.501C303.06 162.501 305.015 162.55 306.971 162.572H307.095V162.695C307.095 163.533 307.059 164.367 307.037 165.192L306.971 167.644ZM306.971 167.644L306.909 165.152C306.886 164.332 306.86 163.52 306.851 162.708L306.971 162.832C305.015 162.854 303.06 162.902 301.101 162.902L295.23 162.929L295.452 162.708V167.644L295.253 167.45C296.219 167.45 297.186 167.45 298.157 167.472L301.043 167.547L306.971 167.644Z" fill="black"/>
<path d="M300.422 173.868L294.605 173.991L291.648 174.04C290.664 174.04 289.671 174.04 288.682 174.066H288.487V173.868V168.932V168.712H288.708L294.579 168.742C296.534 168.742 298.493 168.791 300.449 168.813H300.573V168.932C300.573 169.77 300.537 170.604 300.515 171.429L300.422 173.868ZM300.422 173.868L300.36 171.376C300.338 170.555 300.311 169.744 300.302 168.932L300.422 169.056C298.467 169.078 296.507 169.126 294.552 169.126L288.682 169.153L288.904 168.932V173.868L288.704 173.674C289.671 173.674 290.637 173.674 291.608 173.696L294.521 173.749L300.422 173.868Z" fill="black"/>
<path d="M313.519 173.868L307.702 173.991L304.749 174.04C303.761 174.04 302.768 174.04 301.779 174.066H301.584V173.868L301.557 168.932V168.712H301.779L307.649 168.742C309.609 168.742 311.564 168.791 313.519 168.813H313.643V168.932C313.643 169.77 313.603 170.604 313.586 171.429L313.519 173.868ZM313.519 173.868L313.457 171.376C313.457 170.555 313.408 169.744 313.399 168.932L313.519 169.056C311.564 169.078 309.609 169.126 307.649 169.126L301.779 169.153L302 168.932V173.868L301.801 173.674C302.772 173.674 303.734 173.674 304.705 173.696L307.622 173.749L313.519 173.868Z" fill="black"/>
<path d="M139.566 108.914L133.749 109.037L130.797 109.086C129.808 109.086 128.815 109.086 127.826 109.086H127.631V108.887L127.604 103.951V103.731H127.826L133.696 103.757C135.656 103.757 137.611 103.806 139.566 103.828H139.691V103.947C139.691 104.785 139.651 105.614 139.628 106.439L139.566 108.914ZM139.566 108.914L139.504 106.417C139.504 105.597 139.456 104.785 139.447 103.978L139.566 104.097C137.611 104.097 135.656 104.167 133.696 104.167L127.826 104.198L128.048 103.978L128.026 108.914L127.826 108.715C128.793 108.715 129.759 108.715 130.73 108.742L133.648 108.79L139.566 108.914Z" fill="black"/>
<path d="M133.009 115.137L127.192 115.261L124.235 115.309C123.25 115.309 122.257 115.309 121.269 115.331H121.074V115.133L121.038 110.206V109.985H121.26L127.13 110.012C129.085 110.012 131.045 110.06 133 110.082H133.124V110.206C133.124 111.044 133.089 111.873 133.066 112.698L133.009 115.137ZM133.009 115.137L132.947 112.641C132.925 111.82 132.898 111.009 132.889 110.202L133.009 110.321C131.054 110.343 129.094 110.391 127.139 110.391L121.269 110.422L121.49 110.202L121.481 115.137L121.282 114.939C122.248 114.939 123.215 114.939 124.186 114.965L127.099 115.014L133.009 115.137Z" fill="black"/>
<path d="M146.115 115.137L140.298 115.261L137.345 115.309C136.356 115.309 135.368 115.309 134.375 115.331H134.179V115.133L134.153 110.206V109.985H134.375L140.245 110.012C142.204 110.012 144.16 110.06 146.115 110.082H146.239V110.206C146.239 111.044 146.199 111.873 146.181 112.698L146.115 115.137ZM146.115 115.137L146.053 112.641C146.053 111.82 146.004 111.009 145.995 110.202L146.115 110.321C144.16 110.343 142.204 110.391 140.245 110.391L134.375 110.422L134.596 110.202L134.574 115.137L134.375 114.939C135.345 114.939 136.308 114.939 137.279 114.965L140.196 115.014L146.115 115.137Z" fill="black"/>
<path d="M43.8399 141.572L38.023 141.695L35.0658 141.744C34.0815 141.744 33.0884 141.744 32.0997 141.766H31.9224V141.567V136.631V136.411H32.144L38.0142 136.437C39.9694 136.437 41.929 136.486 43.8843 136.508H44.0084V136.627C44.0084 137.465 43.9729 138.294 43.9508 139.119L43.8399 141.572ZM43.8399 141.572L43.7779 139.075C43.7779 138.255 43.7291 137.443 43.7202 136.636L43.8399 136.755C41.8847 136.777 39.925 136.826 37.9698 136.826L32.0997 136.856L32.3214 136.636L32.2992 141.572L32.0997 141.373C33.0662 141.373 34.0328 141.373 35.0037 141.4L37.9166 141.448L43.8399 141.572Z" fill="black"/>
<path d="M238.467 108.909L232.65 109.033L229.697 109.081C228.708 109.103 227.715 109.081 226.727 109.103H226.531V108.905L226.505 103.969V103.748H226.727L232.597 103.775C234.556 103.775 236.512 103.828 238.467 103.85H238.591V103.969C238.591 104.807 238.555 105.641 238.533 106.461L238.467 108.909ZM238.467 108.909L238.405 106.417C238.383 105.592 238.356 104.781 238.347 103.973L238.467 104.092C236.512 104.115 234.556 104.163 232.597 104.167L226.727 104.194L226.948 103.973L226.926 108.909L226.727 108.711C227.693 108.711 228.66 108.711 229.631 108.737L232.548 108.786L238.467 108.909Z" fill="black"/>
<path d="M306.292 60.9719L300.475 61.0954L297.518 61.1439C296.534 61.1439 295.541 61.1439 294.552 61.1704H294.357V60.9719V56.0362V55.8156H294.579L300.449 55.8421C302.404 55.8421 304.364 55.895 306.319 55.9171H306.443V56.0362C306.443 56.8742 306.408 57.7079 306.385 58.5283L306.292 60.9719ZM306.292 60.9719L306.23 58.4798C306.208 57.6549 306.181 56.8433 306.173 56.0362L306.292 56.1552C304.337 56.1552 302.377 56.2258 300.422 56.2302L294.552 56.2567L294.774 56.0362L294.752 60.9719L294.552 60.7734C295.519 60.7734 296.485 60.7734 297.456 60.7999L300.369 60.8484L306.292 60.9719Z" fill="black"/>
<path d="M312.841 67.1957L307.024 67.3192L304.071 67.3677C303.082 67.3897 302.089 67.3677 301.101 67.3942H300.906V67.1957L300.879 62.2599V62.0394H301.101L306.971 62.0658C308.93 62.0658 310.886 62.1188 312.841 62.1408H312.965V62.2599C312.965 63.098 312.925 63.9316 312.903 64.752L312.841 67.1957ZM312.841 67.1957L312.779 64.7035C312.779 63.8787 312.73 63.0671 312.721 62.2599L312.841 62.379C310.886 62.4011 308.93 62.4496 306.971 62.454L301.101 62.4805L301.322 62.2599V67.1957L301.123 66.9972C302.089 66.9972 303.056 66.9972 304.027 67.0236L306.944 67.0722L312.841 67.1957Z" fill="black"/>
<path d="M30.743 60.9763L24.9216 61.0998L21.9688 61.1483C20.9846 61.1483 19.9914 61.1483 19.0027 61.1748H18.8032V60.9763V56.0406V55.82H19.0293L24.8995 55.8509C26.8547 55.8509 28.8099 55.8994 30.7696 55.9215H30.8893V56.0406C30.8893 56.8786 30.8494 57.7123 30.8316 58.5371L30.743 60.9763ZM30.743 60.9763L30.6765 58.4842C30.6765 57.6637 30.6277 56.8477 30.6188 56.0406L30.743 56.1596C28.7833 56.1861 26.8281 56.2302 24.8728 56.2346L19.0027 56.2611L19.2244 56.0406L19.1978 60.9763L19.0027 60.8043C19.9693 60.8043 20.9314 60.8043 21.9023 60.8043L24.8196 60.8528L30.743 60.9763Z" fill="black"/>
<path d="M306.638 112.773L309.25 108.587L307.96 107.793C307.775 107.678 307.626 107.513 307.53 107.319C307.434 107.124 307.394 106.906 307.414 106.69C307.428 106.445 307.428 106.199 307.414 105.954C307.408 105.737 307.462 105.523 307.571 105.335C307.68 105.148 307.839 104.994 308.031 104.891L309.361 104.176L307.02 99.836L305.69 100.546C305.497 100.649 305.28 100.695 305.062 100.681C304.844 100.667 304.635 100.593 304.457 100.467C304.258 100.33 304.045 100.198 303.827 100.079C303.636 99.9766 303.476 99.8236 303.366 99.6367C303.257 99.4498 303.202 99.2363 303.207 99.02L303.256 97.5115L298.308 97.3571L298.263 98.87C298.254 99.0869 298.184 99.297 298.062 99.4768C297.94 99.6567 297.77 99.7994 297.572 99.889L297.248 100.052C297.137 100.109 297.031 100.171 296.929 100.233C296.744 100.347 296.532 100.407 296.315 100.407C296.098 100.407 295.885 100.347 295.701 100.233L294.402 99.4346L291.79 103.621L293.085 104.414C293.269 104.531 293.417 104.695 293.513 104.89C293.609 105.084 293.65 105.301 293.63 105.517C293.608 105.762 293.599 106.008 293.604 106.254C293.61 106.469 293.556 106.682 293.448 106.869C293.34 107.056 293.182 107.21 292.992 107.312L291.662 108.027L294.003 112.372L295.333 111.657C295.525 111.557 295.741 111.511 295.958 111.525C296.175 111.539 296.383 111.612 296.561 111.737C296.762 111.875 296.971 112.003 297.186 112.12C297.379 112.221 297.54 112.375 297.65 112.563C297.76 112.751 297.814 112.966 297.807 113.183L297.762 114.692L302.71 114.846L302.759 113.333C302.768 113.117 302.836 112.908 302.958 112.729C303.079 112.55 303.248 112.408 303.446 112.319L303.774 112.156L304.093 111.975C304.279 111.861 304.492 111.801 304.71 111.801C304.927 111.801 305.141 111.861 305.326 111.975L306.638 112.773ZM302.449 109.685C301.741 110.063 300.938 110.223 300.139 110.145C299.341 110.068 298.583 109.757 297.962 109.251C297.342 108.746 296.885 108.069 296.651 107.305C296.418 106.542 296.416 105.726 296.648 104.962C296.88 104.198 297.335 103.519 297.954 103.012C298.573 102.505 299.33 102.192 300.128 102.112C300.927 102.033 301.731 102.191 302.439 102.566C303.147 102.941 303.727 103.517 304.107 104.22C304.61 105.161 304.718 106.262 304.407 107.282C304.096 108.302 303.392 109.158 302.449 109.663V109.685Z" fill="black"/>
<path d="M69.7014 200.143L67.9679 197.153L67.0457 197.682C66.913 197.758 66.7617 197.795 66.609 197.789C66.4562 197.784 66.308 197.736 66.1811 197.651C66.0379 197.558 65.8899 197.473 65.7377 197.395C65.6033 197.326 65.4909 197.22 65.4126 197.091C65.3344 196.962 65.2935 196.814 65.2944 196.663V195.609H61.8051V196.659C61.806 196.81 61.7651 196.958 61.6869 197.087C61.6087 197.216 61.4962 197.321 61.3618 197.391C61.2066 197.47 61.0558 197.554 60.9184 197.647C60.7891 197.736 60.6368 197.786 60.4796 197.792C60.3224 197.797 60.1669 197.758 60.0317 197.678L59.1139 197.148L57.3804 200.139L58.3026 200.668C58.434 200.745 58.5414 200.857 58.6127 200.991C58.6839 201.125 58.7163 201.276 58.706 201.427C58.706 201.511 58.706 201.599 58.706 201.683C58.706 201.767 58.706 201.85 58.706 201.939C58.7164 202.089 58.6845 202.239 58.614 202.372C58.5436 202.505 58.4373 202.616 58.307 202.693L57.3804 203.227L59.1139 206.217L60.0361 205.688C60.1713 205.608 60.3268 205.568 60.484 205.574C60.6413 205.579 60.7936 205.63 60.9228 205.719C61.066 205.812 61.214 205.897 61.3662 205.975C61.4999 206.044 61.612 206.148 61.6901 206.277C61.7683 206.405 61.8096 206.552 61.8096 206.702V207.761H65.2811V206.702C65.2805 206.552 65.3216 206.405 65.3998 206.276C65.4781 206.148 65.5904 206.044 65.7244 205.975C65.8752 205.895 66.0259 205.811 66.1678 205.719C66.2947 205.634 66.4429 205.586 66.5957 205.581C66.7484 205.575 66.8997 205.612 67.0324 205.688L67.9546 206.217L69.6881 203.227L68.7659 202.697C68.6345 202.621 68.5271 202.509 68.4558 202.375C68.3846 202.241 68.3522 202.09 68.3624 201.939C68.3624 201.855 68.3624 201.767 68.3624 201.683C68.3624 201.599 68.3624 201.511 68.3624 201.427C68.3522 201.276 68.3846 201.125 68.4558 200.991C68.5271 200.857 68.6345 200.745 68.7659 200.668L69.7014 200.143ZM66.3851 201.687C66.3851 202.246 66.2184 202.793 65.9061 203.258C65.5938 203.723 65.15 204.085 64.6307 204.299C64.1114 204.513 63.54 204.569 62.9887 204.46C62.4374 204.351 61.931 204.082 61.5335 203.686C61.1361 203.291 60.8654 202.787 60.7558 202.239C60.6461 201.69 60.7024 201.122 60.9175 200.605C61.1326 200.089 61.4968 199.647 61.9642 199.336C62.4316 199.026 62.981 198.86 63.5431 198.86C64.2968 198.86 65.0197 199.158 65.5527 199.688C66.0856 200.218 66.3851 200.937 66.3851 201.687Z" fill="black"/>
<path d="M39.8584 166.325C37.1855 166.324 34.5723 167.112 32.3494 168.589C30.1265 170.066 28.3938 172.165 27.3703 174.622C26.3468 177.078 26.0785 179.782 26.5995 182.39C27.1204 184.998 28.4071 187.394 30.2968 189.275C32.1866 191.155 34.5945 192.436 37.216 192.955C39.8375 193.474 42.5549 193.208 45.0244 192.191C47.494 191.174 49.6048 189.45 51.0899 187.239C52.575 185.028 53.3677 182.429 53.3677 179.77C53.3683 178.004 53.0193 176.256 52.3406 174.625C51.662 172.994 50.667 171.512 49.4125 170.263C48.158 169.015 46.6685 168.024 45.0292 167.349C43.3899 166.673 41.6329 166.325 39.8584 166.325ZM39.8584 186.042C38.6104 186.042 37.3905 185.674 36.3529 184.984C35.3153 184.294 34.5066 183.313 34.0292 182.166C33.5518 181.019 33.4272 179.757 33.671 178.539C33.9148 177.321 34.5161 176.203 35.3988 175.325C36.2816 174.448 37.4062 173.85 38.6303 173.609C39.8545 173.367 41.1231 173.492 42.2759 173.968C43.4286 174.443 44.4137 175.249 45.1064 176.281C45.7991 177.314 46.1684 178.528 46.1675 179.77C46.1663 181.434 45.5011 183.029 44.318 184.205C43.135 185.381 41.5309 186.042 39.8584 186.042Z" fill="black"/>
<path d="M42.4565 166.885H37.2603L37.5484 163.224H42.1683L42.4565 166.885Z" fill="black"/>
<path d="M32.5652 168.623L28.8942 172.28L26.4956 169.492L29.7632 166.241L32.5652 168.623Z" fill="black"/>
<path d="M26.8102 176.814V181.984L23.1348 181.697V177.101L26.8102 176.814Z" fill="black"/>
<path d="M28.5616 186.651L32.2371 190.307L29.4351 192.689L26.1675 189.438L28.5616 186.651Z" fill="black"/>
<path d="M36.7905 192.376H41.9867L41.703 196.037H37.0787L36.7905 192.376Z" fill="black"/>
<path d="M46.6816 190.634L50.3571 186.981L52.7513 189.769L49.4837 193.02L46.6816 190.634Z" fill="black"/>
<path d="M52.4365 182.447V177.277L56.112 177.564V182.16L52.4365 182.447Z" fill="black"/>
<path d="M50.6852 172.611L47.0098 168.954L49.8162 166.568L53.0838 169.819L50.6852 172.611Z" fill="black"/>
<path d="M41.6188 85.5051C41.6188 84.9538 41.6942 83.485 41.6942 82.8586C41.6942 80.1768 40.7321 78.9638 38.2227 78.8888C37.0389 78.8183 36.3384 78.1214 36.3384 77.1245C36.3384 76.1276 37.0389 75.4351 38.2227 75.3602C40.7321 75.2631 41.6765 74.0898 41.6765 71.3904C41.6765 70.7684 41.6011 69.2996 41.6011 68.7439C41.6011 65.1799 43.113 62.9039 48.8368 61.6556C49.9806 61.3954 50.8674 62.0967 50.8674 63.1597C50.8785 63.4872 50.7843 63.8096 50.5985 64.0801C50.4127 64.3506 50.145 64.5551 49.8343 64.6638C46.252 65.7665 45.7332 66.9045 45.7332 69.4055C45.7332 70.1377 45.8086 71.3507 45.8086 72.1226C45.8086 74.9852 44.4076 76.3835 41.9691 77.1554C44.443 77.9626 45.8086 79.3211 45.8086 82.1882C45.8086 82.9557 45.7332 84.1686 45.7332 84.9053C45.7332 87.4018 46.252 88.5398 49.8343 89.6425C50.145 89.7512 50.4127 89.9557 50.5985 90.2262C50.7843 90.4967 50.8785 90.8192 50.8674 91.1466C50.8674 92.214 49.9806 92.911 48.8368 92.6551C43.1307 91.3892 41.6188 89.1088 41.6188 85.5051Z" fill="black"/>
<path d="M63.2545 68.7438C63.2545 69.2952 63.1791 70.764 63.1791 71.3903C63.1791 74.1118 64.1767 75.2851 66.6861 75.3954C67.83 75.4704 68.5305 76.1673 68.5305 77.1597C68.5305 78.1522 67.83 78.8491 66.6861 78.9241C64.1767 78.9991 63.1791 80.2121 63.1791 82.8939C63.1791 83.5158 63.2545 84.9846 63.2545 85.5404C63.2545 89.1396 61.7382 91.42 56.0144 92.6683C54.8705 92.9242 53.9882 92.2272 53.9882 91.1598C53.9766 90.8274 54.0748 90.5003 54.2678 90.2287C54.4608 89.957 54.7379 89.7558 55.0567 89.6557C58.6036 88.553 59.1179 87.415 59.1179 84.9184C59.1179 84.1818 59.0426 82.9688 59.0426 82.2014C59.0426 79.3343 60.448 77.9405 62.8821 77.1686C60.4081 76.3614 59.0426 74.9984 59.0426 72.1358C59.0426 71.3639 59.1179 70.1509 59.1179 69.4187C59.1179 66.9177 58.5992 65.7797 55.0567 64.677C54.7379 64.5769 54.4608 64.3757 54.2678 64.104C54.0748 63.8324 53.9766 63.5053 53.9882 63.1729C53.9882 62.1099 54.875 61.4086 56.0144 61.6688C61.7382 62.8862 63.2545 65.1622 63.2545 68.7438Z" fill="black"/>
<path d="M22.4873 230.733L58.4307 230.627L94.374 230.587L166.261 230.512L238.147 230.587L274.091 230.627L310.034 230.733L274.091 230.843L238.147 230.883L166.261 230.953L94.374 230.878L58.4307 230.843L22.4873 230.733Z" fill="#263238"/>
<path d="M48.8 222.402H283.721C285.883 222.402 287.636 224.155 287.636 226.317C287.636 228.48 285.883 230.233 283.721 230.233H48.8C46.6377 230.233 44.8848 228.48 44.8848 226.317C44.8848 224.155 46.6377 222.402 48.8 222.402Z" stroke="black"/>
<path d="M79.5723 93.7109H252.949C258.196 93.7109 262.449 97.9642 262.449 103.211V211.902C262.449 217.149 258.196 221.402 252.949 221.402H79.5723C74.3256 221.402 70.0723 217.149 70.0723 211.902V103.211C70.0723 97.9642 74.3256 93.7109 79.5723 93.7109Z" stroke="black"/>
<path d="M80.9775 95.2811H251.548C256.795 95.2811 261.048 99.5344 261.048 104.781V210.332C261.048 215.579 256.795 219.832 251.548 219.832H80.9775C75.7308 219.832 71.4775 215.579 71.4775 210.332V104.781C71.4775 99.5344 75.7308 95.2811 80.9775 95.2811Z" stroke="black"/>
<path d="M89.415 103.349H243.107C248.353 103.349 252.607 107.602 252.607 112.849V202.26C252.607 207.507 248.353 211.76 243.107 211.76H89.415C84.1683 211.76 79.915 207.507 79.915 202.26V112.849C79.915 107.602 84.1683 103.349 89.415 103.349Z" stroke="black"/>
<path d="M90.5698 107.699H108.124C113.37 107.699 117.624 111.952 117.624 117.199V200.984C117.624 206.231 113.37 210.484 108.124 210.484H90.5698C85.3231 210.484 81.0698 206.231 81.0698 200.984V117.199C81.0698 111.952 85.3231 107.699 90.5698 107.699Z" stroke="black"/>
<path d="M115.878 143.04H84.1833C83.7509 143.04 83.4004 143.391 83.4004 143.823C83.4004 144.256 83.7509 144.606 84.1833 144.606H115.878C116.311 144.606 116.661 144.256 116.661 143.823C116.661 143.391 116.311 143.04 115.878 143.04Z" fill="#9747FF"/>
<path d="M100.04 112.283H87.1069V112.985H100.04V112.283Z" fill="black"/>
<path d="M85.4536 112.411H86.2871L85.8704 112.852L85.4536 112.411Z" fill="black"/>
<path d="M89.8603 114.881H88.1445V115.583H89.8603V114.881Z" fill="black"/>
<path d="M87.1069 115.644V114.815L87.5503 115.23L87.1069 115.644Z" fill="black"/>
<path d="M89.8603 117.479H88.1445V118.181H89.8603V117.479Z" fill="black"/>
<path d="M86.9121 117.607H87.7456L87.3289 118.048L86.9121 117.607Z" fill="black"/>
<path d="M89.8603 120.077H88.1445V120.779H89.8603V120.077Z" fill="black"/>
<path d="M86.9121 120.205H87.7456L87.3289 120.651L86.9121 120.205Z" fill="black"/>
<path d="M90.9023 122.675H89.1865V123.377H90.9023V122.675Z" fill="black"/>
<path d="M88.1445 123.438V122.609L88.5923 123.024L88.1445 123.438Z" fill="black"/>
<path d="M91.9443 125.278H90.2285V125.979H91.9443V125.278Z" fill="black"/>
<path d="M89.1865 126.041V125.212L89.6343 125.626L89.1865 126.041Z" fill="black"/>
<path d="M91.9443 151.258H90.2285V151.959H91.9443V151.258Z" fill="black"/>
<path d="M89.1865 152.021V151.192L89.6343 151.606L89.1865 152.021Z" fill="black"/>
<path d="M92.9863 127.871H91.2705V128.573H92.9863V127.871Z" fill="black"/>
<path d="M90.2285 128.634V127.805L90.6763 128.22L90.2285 128.634Z" fill="black"/>
<path d="M92.9863 148.66H91.2705V149.361H92.9863V148.66Z" fill="black"/>
<path d="M90.2285 149.423V148.594L90.6763 149.008L90.2285 149.423Z" fill="black"/>
<path d="M94.0278 130.469H92.312V131.171H94.0278V130.469Z" fill="black"/>
<path d="M91.2705 131.233V130.403L91.7183 130.818L91.2705 131.233Z" fill="black"/>
<path d="M94.0278 146.057H92.312V146.759H94.0278V146.057Z" fill="black"/>
<path d="M91.2705 146.825V145.996L91.7183 146.41L91.2705 146.825Z" fill="black"/>
<path d="M95.0698 133.072H93.354V133.773H95.0698V133.072Z" fill="black"/>
<path d="M92.312 133.835V133.006L92.7598 133.42L92.312 133.835Z" fill="black"/>
<path d="M95.2651 135.665H93.5493V136.367H95.2651V135.665Z" fill="black"/>
<path d="M92.312 135.793H93.1455L92.7288 136.239L92.312 135.793Z" fill="black"/>
<path d="M95.2651 138.263H93.5493V138.965H95.2651V138.263Z" fill="black"/>
<path d="M92.312 138.391H93.1455L92.7288 138.837L92.312 138.391Z" fill="black"/>
<path d="M95.2651 140.861H93.5493V141.563H95.2651V140.861Z" fill="black"/>
<path d="M92.312 140.989H93.1455L92.7288 141.435L92.312 140.989Z" fill="black"/>
<path d="M95.2651 143.459H93.5493V144.161H95.2651V143.459Z" fill="black"/>
<path d="M92.312 143.587H93.1455L92.7288 144.033L92.312 143.587Z" fill="black"/>
<path d="M89.8603 153.856H88.1445V154.557H89.8603V153.856Z" fill="black"/>
<path d="M87.1069 154.619V153.79L87.5503 154.204L87.1069 154.619Z" fill="black"/>
<path d="M89.8603 156.454H88.1445V157.155H89.8603V156.454Z" fill="black"/>
<path d="M86.9121 156.582H87.7456L87.3289 157.027L86.9121 156.582Z" fill="black"/>
<path d="M89.8603 159.052H88.1445V159.753H89.8603V159.052Z" fill="black"/>
<path d="M86.9121 159.18H87.7456L87.3289 159.625L86.9121 159.18Z" fill="black"/>
<path d="M90.9023 161.65H89.1865V162.351H90.9023V161.65Z" fill="black"/>
<path d="M88.1445 162.417V161.588L88.5923 162.003L88.1445 162.417Z" fill="black"/>
<path d="M91.9443 164.252H90.2285V164.954H91.9443V164.252Z" fill="black"/>
<path d="M89.1865 165.015V164.186L89.6343 164.601L89.1865 165.015Z" fill="black"/>
<path d="M91.9443 166.85H90.2285V167.552H91.9443V166.85Z" fill="black"/>
<path d="M89.1865 167.618V166.788L89.6343 167.203L89.1865 167.618Z" fill="black"/>
<path d="M92.1392 169.448H90.4233V170.15H92.1392V169.448Z" fill="black"/>
<path d="M89.1865 169.576H90.02L89.6033 170.022L89.1865 169.576Z" fill="black"/>
<path d="M92.1392 172.046H90.4233V172.748H92.1392V172.046Z" fill="black"/>
<path d="M89.1865 172.174H90.02L89.6033 172.62L89.1865 172.174Z" fill="black"/>
<path d="M92.1392 174.644H90.4233V175.345H92.1392V174.644Z" fill="black"/>
<path d="M89.1865 174.772H90.02L89.6033 175.218L89.1865 174.772Z" fill="black"/>
<path d="M92.1392 177.242H90.4233V177.944H92.1392V177.242Z" fill="black"/>
<path d="M89.1865 177.37H90.02L89.6033 177.816L89.1865 177.37Z" fill="black"/>
<path d="M251.003 102.849H81.519C80.357 102.849 79.415 103.791 79.415 104.953C79.415 106.115 80.357 107.057 81.519 107.057H251.003C252.165 107.057 253.107 106.115 253.107 104.953C253.107 103.791 252.165 102.849 251.003 102.849Z" fill="#9747FF"/>
<path d="M83.4009 104.957C83.4009 105.115 83.3538 105.269 83.2656 105.401C83.1774 105.532 83.0521 105.634 82.9055 105.695C82.7588 105.755 82.5975 105.771 82.4418 105.74C82.2862 105.709 82.1432 105.633 82.0309 105.522C81.9187 105.41 81.8423 105.268 81.8113 105.113C81.7804 104.958 81.7962 104.797 81.857 104.651C81.9177 104.506 82.0206 104.381 82.1525 104.293C82.2845 104.205 82.4397 104.159 82.5984 104.159C82.8112 104.159 83.0153 104.243 83.1658 104.392C83.3163 104.542 83.4009 104.745 83.4009 104.957Z" fill="black"/>
<path d="M86.6684 104.957C86.6684 105.115 86.6214 105.269 86.5332 105.401C86.445 105.532 86.3197 105.634 86.1731 105.695C86.0264 105.755 85.8651 105.771 85.7094 105.74C85.5537 105.709 85.4108 105.633 85.2985 105.522C85.1863 105.41 85.1099 105.268 85.0789 105.113C85.0479 104.958 85.0638 104.797 85.1246 104.651C85.1853 104.506 85.2882 104.381 85.4201 104.293C85.5521 104.205 85.7072 104.159 85.866 104.159C86.0788 104.159 86.2829 104.243 86.4334 104.392C86.5839 104.542 86.6684 104.745 86.6684 104.957Z" fill="black"/>
<path d="M89.9404 104.957C89.9404 105.115 89.8934 105.269 89.8052 105.401C89.717 105.532 89.5917 105.634 89.445 105.695C89.2984 105.755 89.137 105.771 88.9814 105.74C88.8257 105.709 88.6827 105.633 88.5705 105.522C88.4583 105.41 88.3818 105.268 88.3509 105.113C88.3199 104.958 88.3358 104.797 88.3965 104.651C88.4573 104.506 88.5601 104.381 88.6921 104.293C88.8241 104.205 88.9792 104.159 89.1379 104.159C89.3508 104.159 89.5549 104.243 89.7054 104.392C89.8559 104.542 89.9404 104.745 89.9404 104.957Z" fill="#455A64"/>
<path d="M128.544 125.767H125.409V126.531H128.544V125.767Z" fill="black"/>
<path d="M201.698 125.767H132.237V126.531H201.698V125.767Z" fill="black"/>
<path d="M209.577 125.767H203.627V126.531H209.577V125.767Z" fill="#9747FF"/>
<path d="M233.239 143.843H213.15V144.606H233.239V143.843Z" fill="black"/>
<path d="M240.364 125.767H210.872V126.531H240.364V125.767Z" fill="#A6A6A6"/>
<path d="M128.544 129.38H125.409V130.143H128.544V129.38Z" fill="black"/>
<path d="M158.883 129.38H135.292V130.143H158.883V129.38Z" fill="#A6A6A6"/>
<path d="M211.741 143.843H202.816V144.606H211.741V143.843Z" fill="#A6A6A6"/>
<path d="M154.768 140.226H132.237V140.989H154.768V140.226Z" fill="#A6A6A6"/>
<path d="M151.097 132.997H135.292V133.76H151.097V132.997Z" fill="#9747FF"/>
<path d="M237.553 136.609H207.608V137.372H237.553V136.609Z" fill="#A6A6A6"/>
<path d="M201.703 154.354H171.758V155.117H201.703V154.354Z" fill="#A6A6A6"/>
<path d="M211.612 132.997H152.854V133.76H211.612V132.997Z" fill="#A6A6A6"/>
<path d="M200.772 143.843H132.237V144.606H200.772V143.843Z" fill="#9747FF"/>
<path d="M208.916 129.38H160.364V130.143H208.916V129.38Z" fill="black"/>
<path d="M224.288 132.997H214.126V133.76H224.288V132.997Z" fill="black"/>
<path d="M128.544 132.997H125.409V133.76H128.544V132.997Z" fill="black"/>
<path d="M128.544 136.609H125.409V137.372H128.544V136.609Z" fill="#A6A6A6"/>
<path d="M150.756 136.609H132.237V137.372H150.756V136.609Z" fill="black"/>
<path d="M153.811 147.456H135.292V148.219H153.811V147.456Z" fill="black"/>
<path d="M229.2 151.073H203.343V151.836H229.2V151.073Z" fill="#9747FF"/>
<path d="M201.725 151.073H152.042V151.836H201.725V151.073Z" fill="black"/>
<path d="M149.213 151.073H135.292V151.836H149.213V151.073Z" fill="#A6A6A6"/>
<path d="M209.577 140.226H156.045V140.989H209.577V140.226Z" fill="black"/>
<path d="M242.811 140.226H210.872V140.989H242.811V140.226Z" fill="#9747FF"/>
<path d="M206.15 136.609H152.641V137.372H206.15V136.609Z" fill="#9747FF"/>
<path d="M128.544 140.226H125.409V140.989H128.544V140.226Z" fill="black"/>
<path d="M128.544 143.843H125.409V144.606H128.544V143.843Z" fill="black"/>
<path d="M128.544 147.456H125.409V148.219H128.544V147.456Z" fill="#A6A6A6"/>
<path d="M128.544 151.073H125.409V151.836H128.544V151.073Z" fill="black"/>
<path d="M128.544 154.354H125.409V155.117H128.544V154.354Z" fill="black"/>
<path d="M168.978 154.354H132.237V155.117H168.978V154.354Z" fill="black"/>
<path d="M128.544 157.971H125.409V158.734H128.544V157.971Z" fill="black"/>
<path d="M158.883 157.971H135.292V158.734H158.883V157.971Z" fill="#A6A6A6"/>
<path d="M154.768 168.813H132.237V169.576H154.768V168.813Z" fill="#A6A6A6"/>
<path d="M151.097 161.584H135.292V162.347H151.097V161.584Z" fill="#9747FF"/>
<path d="M187.298 176.047H171.492V176.81H187.298V176.047Z" fill="#9747FF"/>
<path d="M151.097 183.276H135.292V184.039H151.097V183.276Z" fill="#9747FF"/>
<path d="M211.612 161.584H152.854V162.347H211.612V161.584Z" fill="#A6A6A6"/>
<path d="M200.772 172.43H132.237V173.193H200.772V172.43Z" fill="#9747FF"/>
<path d="M208.916 157.971H160.364V158.734H208.916V157.971Z" fill="black"/>
<path d="M219.193 165.201H209.049V165.964H219.193V165.201Z" fill="black"/>
<path d="M128.544 161.584H125.409V162.347H128.544V161.584Z" fill="black"/>
<path d="M128.544 165.201H125.409V165.964H128.544V165.201Z" fill="#A6A6A6"/>
<path d="M150.756 165.201H132.237V165.964H150.756V165.201Z" fill="black"/>
<path d="M209.577 168.813H156.045V169.576H209.577V168.813Z" fill="black"/>
<path d="M206.15 165.201H152.641V165.964H206.15V165.201Z" fill="#9747FF"/>
<path d="M128.544 168.813H125.409V169.576H128.544V168.813Z" fill="black"/>
<path d="M128.544 176.047H125.409V176.81H128.544V176.047Z" fill="black"/>
<path d="M168.978 176.047H132.237V176.81H168.978V176.047Z" fill="black"/>
<path d="M128.544 179.659H125.409V180.422H128.544V179.659Z" fill="black"/>
<path d="M158.883 179.659H135.292V180.422H158.883V179.659Z" fill="#A6A6A6"/>
<path d="M154.768 190.506H132.237V191.269H154.768V190.506Z" fill="#A6A6A6"/>
<path d="M211.612 183.276H152.854V184.039H211.612V183.276Z" fill="#A6A6A6"/>
<path d="M219.193 186.889H209.049V187.652H219.193V186.889Z" fill="black"/>
<path d="M128.544 183.276H125.409V184.039H128.544V183.276Z" fill="black"/>
<path d="M128.544 186.889H125.409V187.652H128.544V186.889Z" fill="#A6A6A6"/>
<path d="M150.756 186.889H132.237V187.652H150.756V186.889Z" fill="black"/>
<path d="M209.577 190.506H156.045V191.269H209.577V190.506Z" fill="black"/>
<path d="M206.15 186.889H152.641V187.652H206.15V186.889Z" fill="#9747FF"/>
<path d="M128.544 190.506H125.409V191.269H128.544V190.506Z" fill="black"/>
<path d="M127.342 118.781C127.368 118.805 127.389 118.835 127.403 118.868C127.418 118.901 127.425 118.937 127.425 118.973C127.425 119.008 127.418 119.044 127.403 119.077C127.389 119.11 127.368 119.14 127.342 119.164C127.318 119.189 127.289 119.209 127.257 119.223C127.225 119.236 127.191 119.244 127.156 119.244C127.081 119.244 127.01 119.216 126.956 119.164L125.746 117.947C125.746 117.947 125.746 117.947 125.746 117.921C125.744 117.909 125.744 117.897 125.746 117.885C125.746 117.885 125.746 117.863 125.746 117.859C125.746 117.854 125.746 117.859 125.746 117.837V117.806C125.746 117.806 125.746 117.806 125.746 117.779C125.746 117.753 125.746 117.779 125.746 117.757V117.704C125.746 117.704 125.746 117.682 125.746 117.669C125.752 117.655 125.76 117.642 125.768 117.629C125.768 117.629 125.768 117.629 125.79 117.603L127.001 116.381C127.053 116.332 127.122 116.304 127.194 116.304C127.265 116.304 127.334 116.332 127.386 116.381C127.413 116.406 127.433 116.436 127.448 116.469C127.462 116.502 127.469 116.537 127.469 116.573C127.469 116.609 127.462 116.644 127.448 116.677C127.433 116.71 127.413 116.74 127.386 116.765L126.367 117.788L127.342 118.781Z" fill="#9747FF"/>
<path d="M128.438 118.917L129.493 116.425C129.505 116.396 129.523 116.37 129.545 116.348C129.567 116.325 129.594 116.308 129.623 116.296C129.653 116.284 129.684 116.278 129.716 116.278C129.747 116.279 129.778 116.285 129.808 116.297C129.836 116.309 129.861 116.327 129.882 116.349C129.904 116.37 129.92 116.396 129.931 116.425C129.943 116.453 129.948 116.483 129.947 116.514C129.947 116.544 129.94 116.574 129.927 116.602L128.872 119.103C128.854 119.145 128.823 119.181 128.785 119.206C128.746 119.231 128.701 119.244 128.655 119.244C128.626 119.25 128.595 119.25 128.566 119.244C128.535 119.232 128.506 119.215 128.482 119.191C128.459 119.168 128.44 119.14 128.428 119.109C128.416 119.079 128.41 119.045 128.412 119.012C128.414 118.979 128.422 118.947 128.438 118.917Z" fill="#9747FF"/>
<path d="M132.006 117.912C132.006 117.912 132.006 117.934 131.98 117.943L130.769 119.16C130.744 119.185 130.713 119.205 130.68 119.219C130.646 119.233 130.61 119.24 130.574 119.239C130.521 119.238 130.469 119.221 130.425 119.191C130.381 119.161 130.347 119.119 130.327 119.07C130.307 119.021 130.302 118.967 130.312 118.915C130.322 118.863 130.347 118.814 130.384 118.776L131.403 117.753L130.384 116.73C130.357 116.705 130.337 116.675 130.322 116.642C130.308 116.609 130.301 116.574 130.301 116.538C130.301 116.502 130.308 116.466 130.322 116.433C130.337 116.4 130.357 116.371 130.384 116.346C130.436 116.297 130.505 116.269 130.576 116.269C130.648 116.269 130.717 116.297 130.769 116.346L131.98 117.568C131.98 117.568 131.98 117.568 132.006 117.594C132.014 117.607 132.022 117.62 132.028 117.634C132.027 117.647 132.027 117.66 132.028 117.674V117.7C132.028 117.7 132.028 117.7 132.028 117.722V117.779C132.028 117.793 132.028 117.806 132.028 117.819L132.006 117.912Z" fill="#9747FF"/>
<path d="M75.0392 126.398H52.4321V97.0219H69.475L75.0392 102.557V126.398Z" fill="#9747FF"/>
<path opacity="0.6" d="M75.0392 126.398H52.4321V97.0219H69.475L75.0392 102.557V126.398Z" fill="black"/>
<path d="M75.0393 102.557H69.4751V97.0219L75.0393 102.557Z" fill="#9747FF"/>
<path d="M57.6592 107.374C57.6601 107.706 57.7597 108.029 57.9456 108.305C58.1315 108.58 58.3952 108.794 58.7033 108.92C59.0115 109.046 59.3504 109.078 59.677 109.013C60.0036 108.947 60.3034 108.787 60.5384 108.552C60.7734 108.317 60.9331 108.018 60.9972 107.692C61.0614 107.367 61.0271 107.03 60.8988 106.724C60.7705 106.418 60.5538 106.157 60.2763 105.974C59.9987 105.79 59.6728 105.693 59.3395 105.694C59.1181 105.694 58.8989 105.737 58.6944 105.822C58.49 105.906 58.3044 106.03 58.1482 106.186C57.9921 106.343 57.8685 106.528 57.7846 106.732C57.7006 106.936 57.658 107.154 57.6592 107.374Z" fill="#9747FF"/>
<path d="M60.2573 114.824H71.6916L65.9767 107.881L60.2573 114.824Z" fill="#9747FF"/>
<path d="M55.7754 114.824H65.2146L60.4972 110.303L55.7754 114.824Z" fill="#9747FF"/>
<path opacity="0.1" d="M55.7754 114.824H65.2146L60.4972 110.303L55.7754 114.824Z" fill="black"/>
<path d="M71.6877 103.713H55.7754V114.824H71.6877V103.713Z" stroke="#9747FF" stroke-width="2" stroke-miterlimit="10"/>
<path d="M63.1793 116.024H46.939V122.711H63.1793V116.024Z" fill="#455A64"/>
<path d="M51.7097 117.846V121.087H51.0802V119.702H49.5993V121.087H48.9653V117.846H49.5993V119.169H51.0802V117.846H51.7097Z" fill="black"/>
<path d="M54.8217 118.397H53.7798V121.087H53.1547V118.397H52.1128V117.846H54.8217V118.397Z" fill="black"/>
<path d="M57.8857 121.087V118.939L57.0433 120.541H56.7019L55.8639 118.939V121.087H55.2344V117.846H55.9127L56.8748 119.689L57.8502 117.846H58.5241V121.087H57.8857Z" fill="black"/>
<path d="M59.1978 121.087V117.846H59.8539V120.536H61.5165V121.087H59.1978Z" fill="black"/>
<path d="M75.0394 162.082H52.4058V132.675H69.4708L75.0394 138.215V162.082Z" fill="#9747FF"/>
<path opacity="0.6" d="M75.0394 162.082H52.4058V132.675H69.4708L75.0394 138.215V162.082Z" fill="black"/>
<path d="M75.0393 138.215H69.4707V132.675L75.0393 138.215Z" fill="#9747FF"/>
<path d="M57.6372 143.036C57.6381 143.368 57.738 143.693 57.9244 143.969C58.1107 144.245 58.3751 144.459 58.6841 144.586C58.9931 144.712 59.3328 144.745 59.6603 144.679C59.9878 144.613 60.2884 144.452 60.524 144.217C60.7596 143.981 60.9197 143.681 60.984 143.355C61.0483 143.029 61.014 142.691 60.8853 142.384C60.7567 142.078 60.5395 141.816 60.2612 141.632C59.9829 141.448 59.6561 141.35 59.322 141.351C58.8743 141.353 58.4458 141.532 58.1301 141.848C57.8144 142.163 57.6372 142.591 57.6372 143.036Z" fill="#9747FF"/>
<path d="M60.2441 150.495H71.6873L65.9635 143.543L60.2441 150.495Z" fill="#9747FF"/>
<path d="M55.7573 150.495H65.2054L60.4791 145.969L55.7573 150.495Z" fill="#9747FF"/>
<path opacity="0.1" d="M55.7573 150.495H65.2054L60.4791 145.969L55.7573 150.495Z" fill="black"/>
<path d="M71.6873 139.375H55.7573V150.495H71.6873V139.375Z" stroke="#9747FF" stroke-width="2" stroke-miterlimit="10"/>
<path d="M63.1658 151.694H46.9121V158.386H63.1658V151.694Z" fill="#455A64"/>
<path d="M50.7518 155.117C50.7522 154.917 50.7882 154.718 50.8582 154.531C50.929 154.339 51.0358 154.162 51.173 154.01C51.3163 153.856 51.4878 153.73 51.6784 153.64C51.8913 153.543 52.1229 153.495 52.3568 153.499C52.6304 153.491 52.9007 153.56 53.1371 153.697C53.3454 153.818 53.5146 153.995 53.6248 154.209L53.1371 154.544C53.068 154.381 52.9442 154.247 52.7868 154.165C52.7172 154.126 52.6426 154.098 52.5651 154.081C52.4906 154.067 52.4149 154.059 52.339 154.059C52.1946 154.055 52.0515 154.087 51.9223 154.151C51.8093 154.216 51.7099 154.301 51.6296 154.403C51.549 154.507 51.4888 154.625 51.4523 154.751C51.3697 155.011 51.3697 155.29 51.4523 155.55C51.4957 155.676 51.5618 155.795 51.6474 155.898C51.7317 155.999 51.8358 156.081 51.9533 156.141C52.072 156.203 52.2047 156.235 52.339 156.233C52.4166 156.233 52.4939 156.224 52.5696 156.207C52.6489 156.189 52.7251 156.159 52.7957 156.119C52.8714 156.08 52.9391 156.028 52.9952 155.964C53.0588 155.899 53.1099 155.823 53.1459 155.739L53.6647 156.035C53.6123 156.156 53.5353 156.266 53.4386 156.357C53.3434 156.452 53.2343 156.532 53.1149 156.595C52.9907 156.658 52.8598 156.707 52.7247 156.74C52.5929 156.774 52.4573 156.79 52.3213 156.789C52.0999 156.791 51.8812 156.741 51.6828 156.643C51.495 156.549 51.3266 156.42 51.1863 156.264C51.0454 156.106 50.9343 155.923 50.8582 155.726C50.7838 155.532 50.7476 155.325 50.7518 155.117Z" fill="black"/>
<path d="M56.041 154.367C56.006 154.334 55.9673 154.304 55.9257 154.279C55.7793 154.192 55.621 154.127 55.4558 154.085C55.3603 154.06 55.2619 154.048 55.1632 154.05C55.0267 154.041 54.8906 154.073 54.773 154.142C54.731 154.174 54.6974 154.216 54.675 154.264C54.6526 154.311 54.6421 154.363 54.6444 154.416C54.6428 154.474 54.6599 154.531 54.6932 154.579C54.7323 154.628 54.7805 154.668 54.8351 154.698C54.909 154.735 54.9862 154.764 55.0656 154.786C55.1587 154.817 55.2696 154.844 55.3893 154.875C55.509 154.906 55.6952 154.963 55.8326 155.011C55.9531 155.054 56.0656 155.117 56.1652 155.197C56.2535 155.267 56.3248 155.356 56.3735 155.457C56.4265 155.576 56.4523 155.706 56.4489 155.836C56.4517 155.989 56.4167 156.141 56.3469 156.277C56.2825 156.396 56.1915 156.499 56.0809 156.577C55.9636 156.656 55.8329 156.713 55.6952 156.745C55.5495 156.776 55.4009 156.792 55.2518 156.793C55.0056 156.793 54.7607 156.758 54.5247 156.688C54.2948 156.618 54.0777 156.513 53.8818 156.374L54.1612 155.832C54.2088 155.871 54.2592 155.906 54.3119 155.938C54.4934 156.046 54.6888 156.129 54.8927 156.185C55.013 156.215 55.1366 156.23 55.2607 156.229C55.6109 156.229 55.7839 156.119 55.7839 155.894C55.7867 155.83 55.7662 155.767 55.7262 155.717C55.6789 155.662 55.6198 155.619 55.5533 155.589C55.4678 155.548 55.3788 155.514 55.2873 155.488L54.937 155.386C54.7993 155.351 54.6644 155.305 54.5336 155.25C54.4284 155.205 54.3311 155.144 54.2454 155.069C54.1705 155.003 54.1114 154.922 54.0725 154.831C54.0333 154.728 54.0137 154.619 54.0148 154.509C54.0115 154.356 54.0433 154.205 54.108 154.067C54.1678 153.943 54.254 153.833 54.3607 153.745C54.475 153.658 54.6041 153.593 54.742 153.551C54.8858 153.508 55.0351 153.486 55.1853 153.485C55.4016 153.483 55.6165 153.521 55.8193 153.596C55.9921 153.669 56.1557 153.762 56.307 153.873L56.041 154.367Z" fill="black"/>
<path d="M58.8609 154.367C58.8231 154.335 58.7831 154.306 58.7412 154.279C58.5959 154.19 58.4372 154.125 58.2712 154.085C58.1773 154.06 58.0803 154.048 57.983 154.05C57.8464 154.039 57.71 154.072 57.5929 154.142C57.5503 154.174 57.5163 154.215 57.4938 154.263C57.4714 154.311 57.4612 154.363 57.4643 154.416C57.4614 154.474 57.4769 154.531 57.5086 154.579C57.5477 154.628 57.5959 154.668 57.6505 154.698C57.7244 154.735 57.8016 154.764 57.881 154.786C57.9742 154.817 58.085 154.844 58.2047 154.875C58.3244 154.906 58.5106 154.963 58.6481 155.011C58.769 155.053 58.8816 155.116 58.9806 155.197C59.069 155.267 59.1402 155.356 59.189 155.457C59.242 155.576 59.2677 155.706 59.2643 155.836C59.2672 155.989 59.2321 156.141 59.1624 156.277C59.1012 156.399 59.0096 156.502 58.8963 156.577C58.779 156.656 58.6483 156.713 58.5106 156.745C58.3649 156.776 58.2163 156.793 58.0673 156.793C57.821 156.793 57.5761 156.758 57.3401 156.688C57.1106 156.617 56.8937 156.512 56.6973 156.374L56.981 155.832C57.026 155.872 57.0751 155.907 57.1273 155.938C57.2106 155.986 57.2965 156.03 57.3845 156.07C57.4888 156.118 57.5971 156.156 57.7081 156.185C57.8284 156.215 57.9521 156.23 58.0761 156.229C58.4264 156.229 58.5993 156.119 58.5993 155.894C58.6021 155.83 58.5816 155.767 58.5417 155.717C58.495 155.663 58.4377 155.62 58.3732 155.589C58.2858 155.548 58.1954 155.515 58.1027 155.488L57.7569 155.386C57.6175 155.352 57.4811 155.306 57.349 155.25C57.2438 155.205 57.1465 155.144 57.0608 155.069C56.986 155.003 56.9269 154.922 56.8879 154.831C56.8487 154.728 56.8291 154.619 56.8303 154.509C56.8269 154.356 56.8588 154.205 56.9234 154.068C56.9834 153.942 57.0713 153.832 57.1805 153.746C57.2932 153.659 57.4209 153.593 57.5574 153.551C57.7013 153.509 57.8506 153.486 58.0008 153.485C58.2172 153.482 58.4322 153.52 58.6348 153.596C58.8124 153.66 58.9821 153.744 59.1402 153.847L58.8609 154.367Z" fill="black"/>
<path d="M50.273 147.076H49.8296" stroke="#263238" stroke-width="0.75" stroke-miterlimit="10"/>
<path d="M49.0182 147.076H46.1807" stroke="#263238" stroke-width="0.75" stroke-miterlimit="10" stroke-dasharray="1.83 1.83"/>
<path d="M45.7773 147.076H45.334V146.635" stroke="#263238" stroke-width="0.75" stroke-miterlimit="10"/>
<path d="M45.334 145.762V107.762" stroke="#263238" stroke-width="0.75" stroke-miterlimit="10" stroke-dasharray="1.98 1.98"/>
<path d="M45.334 107.326V106.885H45.7773" stroke="#263238" stroke-width="0.75" stroke-miterlimit="10"/>
<path d="M46.4912 106.885H49.0051" stroke="#263238" stroke-width="0.75" stroke-miterlimit="10" stroke-dasharray="1.62 1.62"/>
<path d="M49.3599 106.885H49.8032" stroke="#263238" stroke-width="0.75" stroke-miterlimit="10"/>
<path d="M50.251 146.578C50.3501 146.578 50.447 146.607 50.5293 146.662C50.6117 146.717 50.6759 146.794 50.7139 146.886C50.7518 146.977 50.7617 147.077 50.7424 147.174C50.723 147.27 50.6753 147.359 50.6053 147.429C50.5352 147.498 50.4459 147.546 50.3487 147.565C50.2516 147.584 50.1508 147.575 50.0593 147.537C49.9677 147.499 49.8895 147.435 49.8344 147.353C49.7794 147.271 49.75 147.175 49.75 147.076C49.7512 146.944 49.8043 146.818 49.898 146.725C49.9917 146.632 50.1185 146.579 50.251 146.578Z" fill="#263238"/>
<path d="M49.7808 107.383C50.0575 107.383 50.2818 107.16 50.2818 106.885C50.2818 106.609 50.0575 106.386 49.7808 106.386C49.5041 106.386 49.2798 106.609 49.2798 106.885C49.2798 107.16 49.5041 107.383 49.7808 107.383Z" fill="#263238"/>
<path d="M45.334 126.954H39.9072V80.9354H97.9079" stroke="#263238" stroke-width="0.75" stroke-miterlimit="10" stroke-dasharray="2 2"/>
<path d="M97.7129 81.5926L98.8612 80.9354L97.7129 80.2738V81.5926Z" fill="#263238"/>
<path d="M147.008 68.7013H294.922C300.169 68.7013 304.422 72.9546 304.422 78.2013V163.974C304.422 169.22 300.169 173.474 294.922 173.474H147.008C141.761 173.474 137.508 169.22 137.508 163.974V78.2013C137.508 72.9546 141.761 68.7013 147.008 68.7013Z" stroke="black"/>
<path d="M304.976 174.027H136.941V68.166H304.976V174.027ZM137.061 173.916H304.865V68.2542H137.061V173.916Z" fill="#263238"/>
<path d="M302.887 68.2013H139.043C137.919 68.2013 137.008 69.1127 137.008 70.2369C137.008 71.3611 137.919 72.2725 139.043 72.2725H302.887C304.011 72.2725 304.922 71.3611 304.922 70.2369C304.922 69.1127 304.011 68.2013 302.887 68.2013Z" fill="#9747FF"/>
<path d="M140.856 70.2347C140.857 70.3885 140.812 70.539 140.726 70.667C140.64 70.7949 140.518 70.8945 140.375 70.9529C140.232 71.0113 140.075 71.0259 139.924 70.9948C139.772 70.9636 139.634 70.8882 139.526 70.7783C139.418 70.6683 139.345 70.5287 139.317 70.3774C139.29 70.2261 139.308 70.07 139.37 69.9292C139.432 69.7883 139.535 69.6691 139.665 69.5868C139.796 69.5045 139.948 69.4628 140.103 69.4672C140.304 69.4718 140.496 69.5547 140.637 69.6982C140.778 69.8416 140.857 70.0342 140.856 70.2347Z" fill="black"/>
<path d="M144.018 70.2347C144.018 70.3878 143.974 70.5376 143.889 70.6652C143.804 70.7928 143.683 70.8925 143.541 70.9514C143.399 71.0104 143.242 71.026 143.091 70.9964C142.941 70.9668 142.802 70.8932 142.693 70.7849C142.584 70.6767 142.51 70.5388 142.481 70.3886C142.451 70.2385 142.466 70.0829 142.526 69.9417C142.585 69.8005 142.685 69.68 142.813 69.5955C142.942 69.511 143.092 69.4664 143.246 69.4672C143.451 69.4672 143.647 69.5481 143.792 69.692C143.936 69.836 144.018 70.0312 144.018 70.2347Z" fill="black"/>
<path d="M147.196 70.2347C147.197 70.3878 147.152 70.5376 147.067 70.6652C146.982 70.7928 146.861 70.8925 146.719 70.9514C146.577 71.0104 146.421 71.026 146.27 70.9964C146.119 70.9668 145.981 70.8932 145.872 70.7849C145.763 70.6767 145.689 70.5388 145.659 70.3886C145.629 70.2385 145.645 70.0829 145.704 69.9417C145.764 69.8005 145.864 69.68 145.992 69.5955C146.12 69.511 146.271 69.4664 146.425 69.4672C146.629 69.4672 146.826 69.5481 146.97 69.692C147.115 69.836 147.196 70.0312 147.196 70.2347Z" fill="#455A64"/>
<path d="M154.197 72.2681H141.783V127.135H154.197V72.2681Z" fill="black"/>
<path d="M289.508 79.0344H152.422C149.661 79.0344 147.422 81.2729 147.422 84.0344V87.3243C147.422 90.0857 149.661 92.3243 152.422 92.3243H289.508C292.269 92.3243 294.508 90.0857 294.508 87.3243V84.0344C294.508 81.2729 292.269 79.0344 289.508 79.0344Z" fill="#9747FF"/>
<path d="M157.585 84.1774H154.197V84.7244H157.585V84.1774Z" fill="black"/>
<path d="M157.585 86.6343H154.197V87.1812H157.585V86.6343Z" fill="black"/>
<path d="M157.585 85.4213H154.197V85.9682H157.585V85.4213Z" fill="black"/>
<path d="M197.766 83.6834H165.162V87.6796H197.766V83.6834Z" fill="black"/>
<path d="M197.806 87.7105H165.122V83.6305H197.806V87.7105Z" fill="black"/>
<path d="M197.806 83.6393H193.705V87.7193H197.806V83.6393Z" fill="#455A64"/>
<path d="M197.03 86.8019L196.658 87.0798L195.97 86.1976L195.722 85.8668C195.773 85.8448 195.82 85.8167 195.864 85.783C195.948 85.7203 196.014 85.6366 196.055 85.5404L196.321 85.8889L197.03 86.8019Z" fill="black"/>
<path d="M196.299 84.6758C196.181 84.5242 196.022 84.4092 195.841 84.3444C195.66 84.2795 195.464 84.2674 195.276 84.3096C195.088 84.3518 194.916 84.4464 194.781 84.5824C194.645 84.7184 194.552 84.8901 194.511 85.0773C194.47 85.2645 194.484 85.4594 194.55 85.6391C194.617 85.8188 194.734 85.9757 194.887 86.0916C195.041 86.2074 195.224 86.2772 195.416 86.2929C195.608 86.3086 195.8 86.2694 195.971 86.1799C196.02 86.1532 196.068 86.1222 196.112 86.0873C196.193 86.0265 196.263 85.9536 196.321 85.8712C196.447 85.6961 196.513 85.4852 196.509 85.2699C196.505 85.0545 196.431 84.8462 196.299 84.6758ZM195.855 85.7653C195.812 85.799 195.764 85.8272 195.713 85.8491C195.577 85.903 195.426 85.906 195.288 85.8576C195.149 85.8093 195.033 85.7128 194.961 85.5859C194.889 85.4591 194.865 85.3105 194.894 85.1676C194.923 85.0246 195.003 84.897 195.119 84.8082C195.224 84.7284 195.353 84.6849 195.485 84.6843C195.617 84.6838 195.746 84.7261 195.852 84.8049C195.958 84.8837 196.035 84.9948 196.071 85.1211C196.108 85.2475 196.102 85.3823 196.055 85.5051C196.017 85.6077 195.951 85.6978 195.864 85.7653H195.855Z" fill="black"/>
<path d="M166.221 84.4686H166.004V86.8945H166.221V84.4686Z" fill="black"/>
<path d="M287.711 85.0728H273.621V86.2902H287.711V85.0728Z" fill="black"/>
<path d="M266.088 85.0728H251.998V86.2902H266.088V85.0728Z" fill="black"/>
<path opacity="0.1" d="M244.466 85.0728H230.375V86.2902H244.466V85.0728Z" fill="black"/>
<path d="M222.843 85.0728H208.753V86.2902H222.843V85.0728Z" fill="black"/>
<path d="M299.922 133.733H142.008C139.246 133.733 137.008 135.972 137.008 138.733V142.023C137.008 144.785 139.246 147.023 142.008 147.023H299.922C302.684 147.023 304.922 144.785 304.922 142.023V138.733C304.922 135.972 302.684 133.733 299.922 133.733Z" fill="#9747FF"/>
<path d="M179.921 153.3H147.422V154.795H179.921V153.3Z" fill="#455A64"/>
<path d="M147.422 158.425L152.636 158.346L157.85 158.298L168.278 158.258L178.706 158.298L183.92 158.342L189.134 158.425L183.92 158.505L178.706 158.553L168.278 158.589L157.85 158.553L152.636 158.505L147.422 158.425Z" fill="#A6A6A6"/>
<path d="M147.422 160.463L152.636 160.384L157.85 160.34L168.278 160.3L178.706 160.335L183.92 160.384L189.134 160.463L183.92 160.547L178.706 160.591L168.278 160.631L157.85 160.591L152.636 160.547L147.422 160.463Z" fill="#A6A6A6"/>
<path d="M147.422 162.506L152.636 162.426L157.85 162.378L168.278 162.338L178.706 162.378L183.92 162.426L189.134 162.506L183.92 162.585L178.706 162.633L168.278 162.669L157.85 162.633L152.636 162.585L147.422 162.506Z" fill="#A6A6A6"/>
<path d="M147.422 164.543L152.636 164.464L157.85 164.42L168.278 164.38L178.706 164.42L183.92 164.464L189.134 164.543L183.92 164.627L178.706 164.671L168.278 164.711L157.85 164.671L152.636 164.627L147.422 164.543Z" fill="#A6A6A6"/>
<path d="M147.422 166.586C149.16 166.519 150.898 166.484 152.636 166.458L157.85 166.422L163.064 166.458C164.802 166.484 166.54 166.515 168.278 166.586C166.54 166.656 164.802 166.687 163.064 166.713L157.837 166.753L152.623 166.713C150.898 166.687 149.16 166.665 147.422 166.586Z" fill="#A6A6A6"/>
<path d="M232.606 153.3H200.107V154.795H232.606V153.3Z" fill="#455A64"/>
<path d="M200.107 158.425L205.321 158.346L210.535 158.298L220.963 158.258L231.391 158.298L236.605 158.342L241.819 158.425L236.605 158.505L231.391 158.553L220.963 158.589L210.535 158.553L205.321 158.505L200.107 158.425Z" fill="#A6A6A6"/>
<path d="M200.107 160.463L205.321 160.384L210.535 160.34L220.963 160.3L231.391 160.335L236.605 160.384L241.819 160.463L236.605 160.547L231.391 160.591L220.963 160.631L210.535 160.591L205.321 160.547L200.107 160.463Z" fill="#A6A6A6"/>
<path d="M200.107 162.506L205.321 162.426L210.535 162.378L220.963 162.338L231.391 162.378L236.605 162.426L241.819 162.506L236.605 162.585L231.391 162.633L220.963 162.669L210.535 162.633L205.321 162.585L200.107 162.506Z" fill="#A6A6A6"/>
<path d="M200.107 164.543L205.321 164.464L210.535 164.42L220.963 164.38L231.391 164.42L236.605 164.464L241.819 164.543L236.605 164.627L231.391 164.671L220.963 164.711L210.535 164.671L205.321 164.627L200.107 164.543Z" fill="#A6A6A6"/>
<path d="M200.107 166.586C201.845 166.519 203.583 166.484 205.321 166.458L210.535 166.422L215.749 166.458C217.487 166.484 219.225 166.515 220.963 166.586C219.225 166.656 217.487 166.687 215.749 166.713L210.535 166.753L205.321 166.713C203.583 166.687 201.845 166.665 200.107 166.586Z" fill="#A6A6A6"/>
<path d="M285.29 153.3H252.792V154.795H285.29V153.3Z" fill="#455A64"/>
<path d="M252.792 158.425L258.006 158.346L263.22 158.298L273.648 158.258L284.08 158.298L289.294 158.342L294.508 158.425L289.294 158.505L284.08 158.553L273.648 158.589L263.22 158.553L258.006 158.505L252.792 158.425Z" fill="#A6A6A6"/>
<path d="M252.792 160.463L258.006 160.384L263.22 160.34L273.648 160.3L284.08 160.335L289.294 160.384L294.508 160.463L289.294 160.547L284.08 160.591L273.648 160.631L263.22 160.591L258.006 160.547L252.792 160.463Z" fill="#A6A6A6"/>
<path d="M252.792 162.506L258.006 162.426L263.22 162.378L273.648 162.338L284.08 162.378L289.294 162.426L294.508 162.506L289.294 162.585L284.08 162.633L273.648 162.669L263.22 162.633L258.006 162.585L252.792 162.506Z" fill="#A6A6A6"/>
<path d="M252.792 164.543L258.006 164.464L263.22 164.42L273.648 164.38L284.08 164.42L289.294 164.464L294.508 164.543L289.294 164.627L284.08 164.671L273.648 164.711L263.22 164.671L258.006 164.627L252.792 164.543Z" fill="#A6A6A6"/>
<path d="M252.792 166.586C254.53 166.519 256.268 166.484 258.006 166.458L263.22 166.422L268.434 166.458C270.172 166.484 271.91 166.515 273.648 166.586C271.91 166.656 270.172 166.687 268.434 166.713L263.22 166.753L258.006 166.713C256.264 166.687 254.53 166.665 252.792 166.586Z" fill="#A6A6A6"/>
<path d="M170.915 128.798H189.334C192.096 128.798 194.334 126.559 194.334 123.798V105.524C194.334 102.763 192.096 100.524 189.334 100.524H170.915C168.154 100.524 165.915 102.763 165.915 105.524V123.798C165.915 126.559 168.154 128.798 170.915 128.798Z" fill="black"/>
<path d="M172.587 127.135H187.663C190.425 127.135 192.663 124.896 192.663 122.135V107.187C192.663 104.426 190.425 102.187 187.663 102.187H172.587C169.825 102.187 167.587 104.426 167.587 107.187V122.135C167.587 124.896 169.825 127.135 172.587 127.135Z" fill="#455A64"/>
<path d="M171.625 108.137C171.526 108.633 171.589 109.147 171.806 109.604C172.023 110.062 172.382 110.437 172.83 110.676C173.278 110.914 173.791 111.003 174.294 110.929C174.797 110.855 175.262 110.622 175.621 110.264C175.981 109.907 176.215 109.444 176.289 108.944C176.364 108.444 176.274 107.933 176.035 107.488C175.795 107.042 175.417 106.685 174.958 106.469C174.498 106.253 173.981 106.19 173.483 106.289C173.025 106.38 172.604 106.604 172.273 106.933C171.942 107.262 171.717 107.681 171.625 108.137Z" fill="#37474F"/>
<path d="M174.539 120.66H192.663L183.601 110.55L174.539 120.66Z" fill="#37474F"/>
<path d="M167.586 120.66H182.55L175.066 114.074L167.586 120.66Z" fill="#263238"/>
<path d="M252.596 128.798H271.015C273.777 128.798 276.015 126.559 276.015 123.798V105.524C276.015 102.763 273.777 100.524 271.015 100.524H252.596C249.834 100.524 247.596 102.763 247.596 105.524V123.798C247.596 126.559 249.834 128.798 252.596 128.798Z" fill="black"/>
<path d="M254.267 127.135H269.344C272.105 127.135 274.344 124.896 274.344 122.135V107.187C274.344 104.426 272.105 102.187 269.344 102.187H254.267C251.506 102.187 249.267 104.426 249.267 107.187V122.135C249.267 124.896 251.506 127.135 254.267 127.135Z" fill="#455A64"/>
<path d="M253.306 108.137C253.207 108.632 253.271 109.145 253.488 109.601C253.705 110.057 254.063 110.431 254.51 110.669C254.957 110.906 255.469 110.995 255.971 110.921C256.472 110.847 256.936 110.614 257.295 110.257C257.653 109.901 257.887 109.439 257.961 108.94C258.036 108.441 257.947 107.932 257.708 107.487C257.469 107.042 257.093 106.686 256.635 106.47C256.177 106.254 255.661 106.191 255.164 106.289C254.705 106.38 254.284 106.604 253.953 106.933C253.622 107.262 253.397 107.681 253.306 108.137Z" fill="#37474F"/>
<path d="M256.219 120.66H274.344L265.282 110.55L256.219 120.66Z" fill="#37474F"/>
<path d="M249.263 120.66H264.226L256.747 114.074L249.263 120.66Z" fill="#263238"/>
<path d="M211.749 128.798H230.173C232.934 128.798 235.173 126.559 235.173 123.798V105.524C235.173 102.763 232.934 100.524 230.173 100.524H211.749C208.987 100.524 206.749 102.763 206.749 105.524V123.798C206.749 126.559 208.987 128.798 211.749 128.798Z" fill="black"/>
<path d="M213.424 127.135H228.501C231.262 127.135 233.501 124.896 233.501 122.135V107.187C233.501 104.426 231.262 102.187 228.501 102.187H213.424C210.663 102.187 208.424 104.426 208.424 107.187V122.135C208.424 124.896 210.663 127.135 213.424 127.135Z" fill="#9747FF"/>
<path opacity="0.1" d="M212.464 108.137C212.364 108.633 212.428 109.147 212.645 109.604C212.862 110.062 213.221 110.437 213.669 110.676C214.117 110.914 214.63 111.003 215.132 110.929C215.635 110.855 216.1 110.622 216.46 110.264C216.819 109.907 217.053 109.444 217.128 108.944C217.202 108.444 217.113 107.933 216.873 107.488C216.633 107.042 216.256 106.685 215.796 106.469C215.337 106.253 214.82 106.19 214.322 106.289C213.863 106.38 213.442 106.604 213.111 106.933C212.781 107.262 212.555 107.681 212.464 108.137Z" fill="black"/>
<path opacity="0.1" d="M215.376 120.66H233.501L224.439 110.55L215.376 120.66Z" fill="black"/>
<path d="M208.425 120.66H223.388L215.909 114.074L208.425 120.66Z" fill="#9747FF"/>
<g opacity="0.2">
<path d="M208.425 120.66H223.388L215.909 114.074L208.425 120.66Z" fill="black"/>
</g>
<path d="M167.586 137.319L174.525 137.24L181.464 137.192L195.345 137.152L209.223 137.192L216.161 137.236L223.104 137.319L216.161 137.399L209.223 137.447L195.345 137.483L181.464 137.447L174.525 137.399L167.586 137.319Z" fill="black"/>
<path d="M167.586 139.357L174.525 139.278L181.464 139.234L195.345 139.194L209.223 139.234L216.161 139.278L223.104 139.357L216.161 139.441L209.223 139.485L195.345 139.525L181.464 139.485L174.525 139.441L167.586 139.357Z" fill="black"/>
<path d="M167.586 141.4L174.525 141.32L181.464 141.272L195.345 141.236L209.223 141.272L216.161 141.32L223.104 141.4L216.161 141.479L209.223 141.527L195.345 141.563L181.464 141.527L174.525 141.479L167.586 141.4Z" fill="black"/>
<path d="M167.591 143.442C169.901 143.371 172.215 143.34 174.529 143.314L181.468 143.274L188.407 143.314C190.721 143.34 193.035 143.371 195.35 143.442C193.035 143.508 190.721 143.539 188.407 143.565L181.468 143.605L174.529 143.565C172.211 143.539 169.896 143.508 167.591 143.442Z" fill="black"/>
<path d="M149.449 142.405V138.356L147.471 140.235L149.449 142.405Z" fill="black"/>
<path d="M292.583 138.356V142.405L294.561 140.526L292.583 138.356Z" fill="black"/>
<path d="M111.581 78.086C111.581 79.783 112.087 81.4419 113.035 82.8528C113.982 84.2637 115.329 85.3633 116.905 86.0125C118.481 86.6617 120.215 86.8314 121.888 86.5C123.561 86.1686 125.098 85.3511 126.304 84.1508C127.509 82.9506 128.33 81.4215 128.663 79.757C128.995 78.0925 128.823 76.3674 128.17 74.7999C127.517 73.2323 126.411 71.8927 124.992 70.9506C123.573 70.0084 121.906 69.506 120.2 69.5069C117.914 69.5104 115.723 70.4155 114.108 72.0238C112.492 73.6321 111.583 75.8122 111.581 78.086ZM113.416 78.086C113.416 76.75 113.813 75.4438 114.559 74.3326C115.304 73.2214 116.364 72.3551 117.605 71.8435C118.845 71.3318 120.21 71.1977 121.527 71.4581C122.845 71.7185 124.054 72.3618 125.004 73.3065C125.954 74.2512 126.6 75.4549 126.862 76.7652C127.124 78.0756 126.989 79.4338 126.475 80.6679C125.96 81.902 125.09 82.9567 123.973 83.6984C122.856 84.4401 121.543 84.8355 120.2 84.8346C118.401 84.8346 116.675 84.1236 115.403 82.858C114.131 81.5924 113.416 79.8759 113.416 78.086ZM111.581 78.086C111.581 79.783 112.087 81.4419 113.035 82.8528C113.982 84.2637 115.329 85.3633 116.905 86.0125C118.481 86.6617 120.215 86.8314 121.888 86.5C123.561 86.1686 125.098 85.3511 126.304 84.1508C127.509 82.9506 128.33 81.4215 128.663 79.757C128.995 78.0925 128.823 76.3674 128.17 74.7999C127.517 73.2323 126.411 71.8927 124.992 70.9506C123.573 70.0084 121.906 69.506 120.2 69.5069C117.914 69.5104 115.723 70.4155 114.108 72.0238C112.492 73.6321 111.583 75.8122 111.581 78.086ZM113.416 78.086C113.416 76.75 113.813 75.4438 114.559 74.3326C115.304 73.2214 116.364 72.3551 117.605 71.8435C118.845 71.3318 120.21 71.1977 121.527 71.4581C122.845 71.7185 124.054 72.3618 125.004 73.3065C125.954 74.2512 126.6 75.4549 126.862 76.7652C127.124 78.0756 126.989 79.4338 126.475 80.6679C125.96 81.902 125.09 82.9567 123.973 83.6984C122.856 84.4401 121.543 84.8355 120.2 84.8346C118.401 84.8346 116.675 84.1236 115.403 82.858C114.131 81.5924 113.416 79.8759 113.416 78.086ZM105.671 78.086C105.672 80.9457 106.525 83.7409 108.123 86.1181C109.72 88.4954 111.991 90.3479 114.647 91.4415C117.303 92.535 120.225 92.8205 123.044 92.2617C125.863 91.703 128.452 90.3251 130.484 88.3024C132.516 86.2797 133.899 83.7029 134.459 80.898C135.019 78.0931 134.731 75.1861 133.63 72.5444C132.529 69.9027 130.665 67.6451 128.275 66.0571C125.884 64.4691 123.074 63.6219 120.2 63.6228C118.291 63.6228 116.401 63.997 114.638 64.7239C112.875 65.4509 111.272 66.5164 109.923 67.8595C108.574 69.2027 107.504 70.7971 106.774 72.5519C106.045 74.3066 105.67 76.1871 105.671 78.086ZM110.756 78.086C110.756 76.2268 111.31 74.4093 112.349 72.8634C113.387 71.3176 114.863 70.1128 116.59 69.4015C118.316 68.6902 120.216 68.5044 122.049 68.8674C123.882 69.2304 125.566 70.1261 126.887 71.4411C128.208 72.7561 129.107 74.4313 129.471 76.255C129.835 78.0786 129.648 79.9687 128.932 81.6861C128.216 83.4036 127.004 84.8713 125.45 85.9036C123.896 86.9359 122.069 87.4864 120.2 87.4856C117.696 87.4809 115.296 86.4889 113.526 84.7271C111.756 82.9652 110.76 80.5771 110.756 78.086ZM111.581 78.086C111.581 79.783 112.087 81.4419 113.035 82.8528C113.982 84.2637 115.329 85.3633 116.905 86.0125C118.481 86.6617 120.215 86.8314 121.888 86.5C123.561 86.1686 125.098 85.3511 126.304 84.1508C127.509 82.9506 128.33 81.4215 128.663 79.757C128.995 78.0925 128.823 76.3674 128.17 74.7999C127.517 73.2323 126.411 71.8927 124.992 70.9506C123.573 70.0084 121.906 69.506 120.2 69.5069C117.914 69.5104 115.723 70.4155 114.108 72.0238C112.492 73.6321 111.583 75.8122 111.581 78.086ZM113.416 78.086C113.416 76.75 113.813 75.4438 114.559 74.3326C115.304 73.2214 116.364 72.3551 117.605 71.8435C118.845 71.3318 120.21 71.1977 121.527 71.4581C122.845 71.7185 124.054 72.3618 125.004 73.3065C125.954 74.2512 126.6 75.4549 126.862 76.7652C127.124 78.0756 126.989 79.4338 126.475 80.6679C125.96 81.902 125.09 82.9567 123.973 83.6984C122.856 84.4401 121.543 84.8355 120.2 84.8346C118.401 84.8346 116.675 84.1236 115.403 82.858C114.131 81.5924 113.416 79.8759 113.416 78.086Z" fill="#9747FF"/>
<path d="M118.498 63.8875H121.823L121.49 60.5837H118.826L118.498 63.8875Z" fill="#9747FF"/>
<path d="M125.862 64.9417L128.744 66.5958L130.114 63.5699L127.808 62.2422L125.862 64.9417Z" fill="#9747FF"/>
<path d="M131.709 69.5157L133.372 72.3828L136.081 70.442L134.751 68.1484L131.709 69.5157Z" fill="#9747FF"/>
<path d="M134.472 76.3834V79.696L137.792 79.3652V76.7142L134.472 76.3834Z" fill="#9747FF"/>
<path d="M133.417 83.7099L131.75 86.577L134.791 87.9443L136.125 85.6507L133.417 83.7099Z" fill="#9747FF"/>
<path d="M128.814 89.5278L125.933 91.1863L127.883 93.8814L130.189 92.5537L128.814 89.5278Z" fill="#9747FF"/>
<path d="M121.911 92.2802H118.582L118.914 95.5839H121.579L121.911 92.2802Z" fill="#9747FF"/>
<path d="M114.547 91.226L111.665 89.5719L110.291 92.5977L112.601 93.9254L114.547 91.226Z" fill="#9747FF"/>
<path d="M108.699 86.6519L107.032 83.7849L104.323 85.7212L105.658 88.0193L108.699 86.6519Z" fill="#9747FF"/>
<path d="M105.933 79.7798V76.4717L102.612 76.8025V79.4534L105.933 79.7798Z" fill="#9747FF"/>
<path d="M106.992 72.4578L108.655 69.5907L105.613 68.2233L104.279 70.517L106.992 72.4578Z" fill="#9747FF"/>
<path d="M111.59 66.6354L114.472 64.9814L112.525 62.2863L110.215 63.6096L111.59 66.6354Z" fill="#9747FF"/>
<path d="M83.9331 64.9505C83.889 66.6146 84.3418 68.2543 85.2345 69.6623C86.1271 71.0703 87.4194 72.1833 88.9478 72.8605C90.4763 73.5378 92.1724 73.7489 93.8215 73.4671C95.4705 73.1853 96.9986 72.4233 98.2124 71.2775C99.4261 70.1317 100.271 68.6535 100.64 67.0299C101.01 65.4063 100.887 63.7102 100.287 62.1562C99.6871 60.6021 98.6376 59.2599 97.2711 58.2993C95.9046 57.3387 94.2824 56.8029 92.6097 56.7596C91.4993 56.7302 90.394 56.9188 89.3569 57.3147C88.3198 57.7105 87.3712 58.3057 86.5654 59.0664C85.7597 59.8271 85.1124 60.7383 84.6608 61.7479C84.2091 62.7575 83.9619 63.8458 83.9331 64.9505ZM88.4377 65.0696C88.4581 64.2925 88.7098 63.5389 89.1608 62.9041C89.6118 62.2693 90.2419 61.7818 90.9714 61.5033C91.7009 61.2248 92.497 61.1677 93.2591 61.3394C94.0212 61.5111 94.715 61.9038 95.2527 62.4678C95.7905 63.0317 96.148 63.7417 96.2802 64.5079C96.4123 65.2741 96.3131 66.062 95.995 66.7721C95.677 67.4821 95.1544 68.0824 94.4934 68.497C93.8324 68.9116 93.0627 69.1218 92.2816 69.1011C91.2346 69.0734 90.2415 68.6332 89.5206 67.8772C88.7998 67.1212 88.4103 66.1113 88.4377 65.0696Z" fill="black"/>
<path d="M90.978 57.0639L94.2279 57.1521L94.1082 54.8584L91.2174 54.7791L90.978 57.0639Z" fill="black"/>
<path d="M97.1362 58.3166L99.3752 60.6675L100.923 58.9605L98.9318 56.8742L97.1362 58.3166Z" fill="black"/>
<path d="M100.603 63.539L100.515 66.7722L102.82 66.6531L102.9 63.7772L100.603 63.539Z" fill="black"/>
<path d="M99.3441 69.6657L96.981 71.8932L98.6968 73.4326L100.798 71.4521L99.3441 69.6657Z" fill="black"/>
<path d="M94.0951 73.115L90.8452 73.0268L90.9649 75.3249L93.8556 75.3998L94.0951 73.115Z" fill="black"/>
<path d="M87.9367 71.8623L85.6977 69.5114L84.1504 71.2184L86.1411 73.3091L87.9367 71.8623Z" fill="black"/>
<path d="M84.4695 66.6398L84.5581 63.4067L82.2527 63.5258L82.1729 66.4017L84.4695 66.6398Z" fill="black"/>
<path d="M85.7286 60.5132L88.0918 58.2857L86.376 56.7463L84.2744 58.7312L85.7286 60.5132Z" fill="black"/>
<path d="M94.6357 63.1112L91.8603 62.2908L89.7632 64.2712L90.446 67.0677L93.217 67.8882L95.3229 65.9077L94.6357 63.1112ZM92.512 66.0003C92.3302 65.9958 92.1539 65.9377 92.0053 65.8334C91.8567 65.729 91.7427 65.5831 91.6777 65.4141C91.6126 65.2452 91.5995 65.0608 91.64 64.8844C91.6804 64.708 91.7726 64.5475 91.9049 64.4234C92.0372 64.2992 92.2036 64.217 92.3829 64.1871C92.5623 64.1571 92.7465 64.1809 92.9123 64.2553C93.078 64.3298 93.2178 64.4515 93.3139 64.6051C93.41 64.7588 93.458 64.9373 93.452 65.1181C93.4438 65.3588 93.3405 65.5865 93.1645 65.7517C92.9885 65.9169 92.754 66.0063 92.512 66.0003Z" fill="black"/>
<path d="M120.16 58.2548V55.9479H172.526V64.7476" stroke="#263238" stroke-width="0.75" stroke-miterlimit="10" stroke-dasharray="2 2"/>
<path d="M171.86 64.5579L172.525 65.7003L173.186 64.5579H171.86Z" fill="#263238"/>
<rect x="8.5" y="5.5" width="322" height="15" rx="7.5" stroke="black"/>
<circle cx="41.9194" cy="11.8763" r="2.5" stroke="#FFC727"/>
<circle cx="49.4302" cy="11.8763" r="2.5" stroke="#00D115"/>
<circle cx="56.9409" cy="11.8763" r="2.5" stroke="#D10000"/>
</svg>
