<svg width="216" height="56" viewBox="0 0 216 56" fill="none" xmlns="http://www.w3.org/2000/svg">
<path d="M13.7619 0.42588C9.43924 1.37421 4.56524 3.91046 2.13927 6.46876C0.441086 8.25516 0 9.26966 0 11.2545C0.0220543 14.0113 1.3012 16.2829 5.84439 21.5318C7.07943 22.9654 8.64529 24.8841 9.28486 25.7663L10.4758 27.3762L9.85827 27.8614C6.52807 30.4638 2.51419 34.3674 1.14682 36.3523C0.396977 37.433 0.132326 38.668 0.529303 39.1532C1.52175 40.3662 7.34408 38.1608 10.3876 35.4261C12.4827 33.5294 13.3649 30.927 12.5489 28.9641C12.3725 28.5451 12.2181 28.1481 12.2181 28.1261C12.2181 27.7732 19.5181 23.7373 20.9516 23.2962C21.3927 23.1639 21.4147 23.208 21.3045 24.2445C21.2162 25.259 21.2603 25.3693 21.7455 25.6119C22.4954 25.9427 23.0909 25.6119 25.4066 23.6049C26.399 22.7228 27.3032 22.0611 27.3694 22.1494C27.4355 22.2155 27.634 22.1714 27.7884 22.0391C28.031 21.8406 28.0751 22.0611 28.0751 23.0756C28.0531 24.2004 28.1192 24.421 28.6265 24.862C29.8395 25.8986 32.9932 25.3031 36.8748 23.2741C38.5509 22.414 38.7053 22.3699 38.595 22.7889C36.4337 30.2874 36.147 34.8306 37.7129 36.5067C38.3083 37.1463 38.9699 37.1683 39.0802 36.5508C39.1243 36.2862 38.9479 36.0877 38.5068 35.9333C38.1539 35.823 37.757 35.4702 37.6026 35.1614C37.2497 34.3895 37.2938 31.8091 37.7129 29.8243C38.4627 26.0971 41.8591 17.0548 43.4029 14.5847C43.7998 13.9452 44.1307 13.6805 44.4835 13.6805C44.7702 13.6805 47.7696 13.5261 51.1439 13.3497C56.6796 13.0409 57.3191 13.0409 57.4735 13.3497C57.9366 14.1437 60.1641 13.2174 60.0318 12.2911C59.9656 11.828 59.8995 11.8059 58.1131 11.8941C57.0765 11.9382 53.6361 12.1808 50.4382 12.4455C47.2403 12.7101 44.6379 12.8645 44.6379 12.8204C44.6379 12.7763 45.4319 11.4971 46.4022 10.0195C49.2031 5.76302 50.0633 3.40321 49.137 2.63131C48.5856 2.16817 47.7917 2.76363 46.5787 4.52798C45.6524 5.89535 43.05 10.8576 42.4545 12.3793C42.1678 13.1512 41.8811 13.1953 35.353 13.3718C30.5893 13.5041 29.8836 13.482 29.3984 13.1733C28.7588 12.7322 27.8325 12.9086 27.9207 13.4379C28.031 14.0334 29.8174 14.1437 36.0147 14.0113C41.5944 13.879 41.815 13.879 41.6606 14.276C40.8446 16.2609 39.3449 20.385 39.3449 20.6497C39.3449 20.8261 39.1905 20.9584 38.992 20.9584C38.7935 20.9584 38.2422 21.3113 37.757 21.7303C36.7866 22.5463 33.7872 24.0901 32.3978 24.4651C31.9126 24.5974 31.0966 24.7077 30.5893 24.7077C29.8395 24.7077 29.5748 24.5974 29.2881 24.1563C28.9573 23.6491 28.9793 23.5167 29.4204 21.995C29.6851 21.1128 29.8615 20.1424 29.8174 19.8337C29.7292 19.1279 28.9573 19.0397 28.0972 19.6352C27.5899 19.988 27.3473 20.0542 27.0165 19.8557C26.3328 19.5028 25.4066 19.5911 24.2156 20.1645C23.6202 20.4512 22.4954 20.9143 21.7014 21.179C19.2313 22.0391 13.4972 25.1046 11.9755 26.4058C11.7991 26.5602 11.5785 26.6926 11.5344 26.6926C11.4682 26.6926 10.8728 26.0309 10.2332 25.1929C9.57157 24.3769 8.16009 22.7007 7.05738 21.4436C4.41086 18.4442 2.86706 16.305 2.00694 14.5627C1.38942 13.3056 1.3012 12.9086 1.3012 11.3648C1.3012 9.35787 1.56586 8.69624 2.99938 7.15244C6.35164 3.51348 16.6289 0.183281 19.8268 1.70503C20.3561 1.94763 20.7531 2.38871 21.0839 3.0724C21.525 3.97662 21.5471 4.15306 21.2824 5.60864C20.9957 7.26271 19.5181 10.637 18.1066 12.8645C17.2244 14.2098 17.2465 14.7171 18.1286 14.9376C18.9446 15.1361 19.2975 14.8273 20.2017 13.1071C22.1205 9.51225 23.0688 5.9174 22.6277 3.82224C22.1205 1.35216 20.5546 0.22739 17.4229 0.0950661C16.232 0.028904 15.019 0.139175 13.7619 0.42588ZM25.8917 21.598C25.8917 21.7965 24.0171 23.6049 23.7966 23.6049C23.554 23.6049 23.7304 23.3403 24.5905 22.392C25.4727 21.4436 25.8917 21.179 25.8917 21.598ZM11.4241 29.2509C11.7329 30.0669 11.5344 31.8091 11.0272 32.8457C9.94649 34.9629 6.99121 37.1904 4.08005 38.0726C2.95528 38.4034 1.41148 38.4916 1.41148 38.1828C1.41148 37.1683 5.77823 32.8016 9.88033 29.714C11.0933 28.7877 11.2256 28.7436 11.4241 29.2509Z" fill="black"/>
<path d="M122.931 0.866947C122.159 1.61679 122.071 2.21226 122.71 2.36664C123.526 2.58718 123.107 3.42525 121.74 4.32947C120.747 4.96905 119.16 7.3068 117.858 10.0415C116.778 12.2911 115.962 14.4965 114.241 19.966C114.021 20.6055 113.403 21.3774 112.014 22.7228C109.412 25.2369 107.669 27.4865 106.544 29.7581C105.64 31.5665 105.618 31.6989 105.618 33.7499C105.618 35.7348 105.662 35.9553 106.28 36.9478C108.507 40.5647 114.903 41.7777 121.189 39.7928C124.982 38.6019 127.805 36.8375 130.495 33.9705C132.348 32.0076 133.693 29.6258 134.289 27.2439C134.664 25.7442 134.708 22.8551 134.377 21.4216C133.737 18.5986 131.775 16.1506 129.194 14.8494L127.54 14.0554L128.643 13.5482C131.135 12.4013 133.429 12.0485 136.009 12.4455C137.178 12.6219 137.266 12.5998 137.266 12.1808C137.266 10.9237 132.172 11.3207 127.518 12.9306C125.886 13.5041 125.07 13.6805 124.541 13.5702L123.791 13.4379L125.026 12.3352C127.187 10.3503 128.312 6.99804 127.496 5.03521C127.077 4.06482 125.996 3.31498 124.938 3.31498C124.254 3.31498 124.21 3.29292 124.386 2.69745C124.475 2.36664 124.563 1.70501 124.563 1.21982C124.585 0.469971 124.519 0.337643 124.078 0.271481C123.769 0.227371 123.35 0.425861 122.931 0.866947ZM125.666 5.29986C125.974 5.60862 126.085 6.0056 126.063 6.90982C126.04 8.65211 125.048 10.6591 123.482 12.0926C122.115 13.3497 121.938 14.0113 122.865 14.3642C123.46 14.5847 123.438 14.6068 121.608 15.6654C120.571 16.2608 119.667 16.7681 119.579 16.7681C119.49 16.7681 119.512 16.5034 119.645 16.1506C119.777 15.8198 120.615 13.46 121.497 10.9237C122.401 8.36541 123.24 5.98354 123.372 5.58657C123.747 4.57207 124.761 4.43974 125.666 5.29986ZM120.196 11.4971C119.182 14.4524 118.255 17.0989 118.145 17.3636C117.969 17.8267 115.675 19.7234 115.498 19.5469C115.3 19.3484 117.55 13.5702 118.851 10.9237C120.174 8.25514 121.74 5.78506 121.96 6.02765C122.005 6.07176 121.233 8.54184 120.196 11.4971ZM129.238 16.1285C131.333 17.3195 132.921 19.5028 133.517 22.0391C133.936 23.7814 133.693 26.891 133.032 28.6995C131.356 33.2427 126.592 37.1022 120.395 38.9547C118.674 39.462 117.991 39.5502 115.322 39.5722C111.771 39.5943 110.338 39.2855 108.772 38.0946C105.883 35.9333 106.258 32.4267 109.875 27.3542C110.624 26.3176 111.683 25.0385 112.257 24.4871C113.271 23.4947 113.293 23.4947 113.117 24.1563C112.742 25.7442 112.124 29.4934 112.124 30.2433C112.124 31.0813 112.565 31.765 113.117 31.765C113.58 31.765 114.44 30.5079 115.344 28.5671C116.094 26.869 118.079 21.179 118.388 19.7013C118.564 18.9294 119.998 17.937 123.835 15.8859L125.864 14.8273L126.989 15.1581C127.606 15.3346 128.621 15.7757 129.238 16.1285ZM117.064 20.6717C116.337 23.7152 113.999 30.0007 113.469 30.3094C112.984 30.6182 113.425 27.2218 114.308 23.8034C114.705 22.3258 114.859 22.0611 115.895 21.1128C116.535 20.5394 117.086 20.0762 117.131 20.0762C117.175 20.0762 117.131 20.3409 117.064 20.6717Z" fill="black"/>
<path d="M146.86 6.66727C145.89 7.74793 144.214 11.1884 142.471 15.6654C141.788 17.4298 140.95 19.4588 140.597 20.1866C140.222 20.9143 139.891 21.8627 139.847 22.2817C139.803 22.7007 139.538 23.8476 139.274 24.818C138.656 27.1337 138.568 28.9642 139.053 29.0744C139.296 29.1185 139.582 28.8098 139.913 28.1923C140.773 26.4941 144.545 21.8847 145.427 21.3995C145.802 21.2011 145.824 21.3113 145.78 23.0316C145.758 24.5754 145.824 24.9503 146.177 25.3473C147.037 26.2956 149.132 25.8325 151.58 24.1784C152.219 23.7373 152.793 23.3844 152.837 23.3844C152.881 23.3844 152.925 23.9578 152.925 24.6636C152.925 25.7222 153.013 26.0309 153.432 26.4279C154.535 27.4645 156.211 26.7367 157.865 24.4871C158.836 23.1639 159.1 23.0536 159.1 23.9578C159.1 24.2445 159.343 24.7297 159.608 25.0606C160.49 26.0751 162.122 25.7442 164.857 24.002C165.518 23.5829 166.158 23.1859 166.29 23.0977C166.467 23.0095 166.511 23.2962 166.422 24.0461C166.29 25.5016 166.511 26.2294 167.15 26.472C168.407 26.9572 168.981 26.5823 172.399 23.1198C174.186 21.2893 175.685 19.8337 175.729 19.8778C175.862 20.0101 174.825 24.6856 174.362 26.1412C174.141 26.869 173.37 28.3025 172.686 29.3391C170.348 32.7796 167.746 38.7563 167.657 40.7853C167.613 42.3952 168.209 43.101 169.135 42.4835C169.4 42.307 170.017 41.3807 170.502 40.4324C171.341 38.8224 174.428 30.8167 175.332 27.9497C175.84 26.3177 177.472 24.6195 179.589 23.5388C181 22.811 183.272 22.1053 183.492 22.3479C183.559 22.414 183.448 22.7669 183.272 23.1418C182.721 24.1784 182.809 25.3252 183.448 25.6119C184.154 25.9427 184.794 25.5678 186.999 23.6491C187.947 22.789 188.962 22.0612 189.227 21.995C189.69 21.9068 189.734 21.973 189.69 23.1198C189.69 24.1784 189.756 24.3989 190.285 24.84C191.52 25.9207 194.696 25.3032 198.533 23.2742C199.526 22.7449 200.342 22.3479 200.342 22.414C200.342 22.4802 200.077 23.5388 199.769 24.7518C199.305 26.6044 199.261 27.0234 199.504 27.266C199.901 27.663 200.673 27.4204 200.959 26.8249C201.29 26.0971 203.804 22.9875 204.268 22.7449C204.643 22.5464 204.797 22.6787 205.37 23.605C206.649 25.6781 208.634 26.0751 211.193 24.7959C213.067 23.8476 214.898 22.4802 214.898 22.0391C214.898 21.3775 214.302 21.5539 212.825 22.6125C210.266 24.421 208.48 24.9062 207.267 24.1122C206.958 23.9137 206.407 23.2301 206.054 22.5905C205.679 21.9509 205.26 21.3113 205.084 21.179C204.598 20.782 203.76 21.0908 202.768 21.973C202.283 22.414 201.886 22.7449 201.886 22.7007C201.886 22.6566 202.128 21.8627 202.415 20.9585C203.033 19.0618 202.9 18.4663 201.93 18.5766C201.423 18.6428 201.29 18.7971 201.026 19.7896C200.849 20.4512 200.585 20.9585 200.43 20.9585C200.276 20.9585 200.055 21.0908 199.967 21.2672C199.724 21.7083 197.144 23.2301 195.468 23.9578C194.696 24.2666 193.439 24.5974 192.711 24.6636C191.432 24.7518 191.322 24.7297 190.969 24.2004C190.616 23.6491 190.616 23.5388 191.079 22.0832C191.675 20.1645 191.608 19.3264 190.881 19.2382C190.594 19.1941 190.087 19.3485 189.756 19.5911C189.359 19.8999 189.072 19.966 188.852 19.8337C188.124 19.3706 186.051 19.8116 185.124 20.6056C184.948 20.782 184.353 20.9805 183.801 21.0687C182.279 21.3113 179.589 22.414 178.266 23.3403C177.604 23.8035 176.964 24.2445 176.832 24.3328C176.678 24.421 176.722 23.8917 176.986 22.8992C177.67 20.3409 177.516 19.0397 176.479 18.6869C175.862 18.4663 174.296 19.7014 172.576 21.7083C170.723 23.8917 169.069 25.4134 168.782 25.237C168.429 25.0164 168.584 23.4947 169.135 21.598C169.819 19.2823 169.819 19.0618 169.135 18.6207C168.275 18.0693 167.812 18.3781 167.415 19.8116C167.062 21.0026 166.952 21.1349 165.32 22.3258C163.511 23.6491 161.262 24.9282 160.732 24.9282C160.027 24.9282 159.784 23.1198 160.181 21.0246C160.313 20.3409 160.269 19.966 160.049 19.6352C159.519 18.8854 159.145 19.128 158.483 20.5615C157.49 22.7228 155.175 25.5899 154.403 25.5899C153.896 25.5899 154.469 23.4285 155.55 21.2893C156.696 18.9956 156.785 18.4443 155.991 18.2017C155.219 17.9591 154.8 18.2899 154.248 19.6573C153.851 20.6497 153.366 21.2893 152.506 22.0832C151.117 23.3183 148.184 24.9282 147.301 24.9282H146.706L146.86 22.6346C146.993 20.4512 146.993 20.3189 146.551 20.0983C146.309 19.966 145.846 19.8999 145.515 19.9881C144.831 20.1645 142.449 22.3479 141.567 23.605C141.236 24.0902 140.906 24.4651 140.884 24.421C140.619 24.1784 141.964 21.2011 143.111 19.4147C147.345 12.9527 149.661 7.76999 149 6.29235C148.603 5.43223 147.831 5.56456 146.86 6.66727ZM147.412 8.67421C146.662 10.7032 143.508 16.9005 143.31 16.702C143.089 16.4814 146.816 7.92437 147.478 7.0863C147.941 6.51289 147.919 7.28479 147.412 8.67421ZM187.55 21.598C187.55 21.7965 185.676 23.605 185.455 23.605C185.213 23.605 185.389 23.3403 186.249 22.392C187.131 21.4437 187.55 21.179 187.55 21.598ZM171.804 34.8527C170.701 38.249 168.518 42.6158 169.378 39.7046C170.017 37.5212 172.377 31.9856 172.487 32.3385C172.531 32.4708 172.223 33.5956 171.804 34.8527Z" fill="black"/>
<path d="M209.714 8.16693C209.626 8.29926 209.824 8.38747 210.133 8.38747C210.706 8.38747 210.706 8.40953 210.706 10.0415C210.706 10.9899 210.795 11.6956 210.927 11.6956C211.059 11.6956 211.147 10.9899 211.147 10.0415C211.147 8.40953 211.147 8.38747 211.721 8.38747C212.03 8.38747 212.228 8.29926 212.14 8.16693C212.074 8.0346 211.522 7.94639 210.927 7.94639C210.331 7.94639 209.78 8.0346 209.714 8.16693Z" fill="black"/>
<path d="M212.692 9.84308C212.692 11.034 212.781 11.6736 212.913 11.5854C213.045 11.5192 213.133 10.8355 213.133 10.0857L213.156 8.71831L213.729 9.6887L214.302 10.637L214.876 9.6887L215.449 8.71831L215.515 10.196C215.604 12.3573 216.001 12.0485 216.001 9.82103C216.001 7.68176 215.714 7.39506 214.876 8.76242L214.391 9.55638L213.861 8.9168C213.597 8.56393 213.354 8.21107 213.354 8.10079C213.354 8.01258 213.2 7.94641 213.023 7.94641C212.759 7.94641 212.692 8.29928 212.692 9.84308Z" fill="black"/>
<path d="M79.748 18.0252C79.5054 18.2457 79.1304 18.9515 78.9099 19.6131C78.6894 20.2527 78.3365 20.8481 78.1601 20.9143C77.9836 20.9805 77.5866 21.2672 77.2999 21.5318C76.5721 22.2596 73.8595 23.7152 72.2495 24.2445C70.8601 24.7297 69.2281 24.84 68.7208 24.5092C68.3018 24.2666 68.3459 23.0536 68.787 21.7083C69.4927 19.569 68.8311 18.5766 67.3976 19.6131C66.9785 19.8998 66.6698 19.988 66.4492 19.8337C65.7214 19.3705 64.0674 19.7454 62.5015 20.7158C62.3251 20.8261 61.487 21.0907 60.6269 21.2672C58.7964 21.6862 56.6792 22.6566 55.1574 23.7373C54.1209 24.4871 54.0768 24.4871 54.2091 24.024C54.2973 23.7373 54.5178 22.7448 54.7163 21.8185C55.1354 19.7895 54.8707 18.9074 53.8342 18.7971C52.952 18.6868 52.4447 19.0838 50.0408 21.7744C48.8719 23.0977 47.5487 24.443 47.1076 24.7738C46.3357 25.3693 46.2916 25.3693 46.1372 24.9282C45.9387 24.3989 46.2254 22.7228 46.9091 20.6717L47.3943 19.15L46.865 18.7089C45.8726 17.9149 45.4756 18.2237 44.7919 20.2968C43.2481 25.0605 43.6671 27.1777 46.0269 26.494C46.7768 26.2515 47.5487 25.6119 50.107 22.9874C51.8272 21.201 53.2387 19.8998 53.2387 20.0983C53.2387 20.6276 52.3786 24.4651 51.9154 25.9206C51.6949 26.6705 50.9009 28.1922 50.1731 29.3391C47.5487 33.397 45.4756 38.0946 45.1668 40.6529C45.0565 41.6012 45.1007 41.888 45.4756 42.3511C46.6445 43.8067 47.9236 41.5351 51.5626 31.5445C52.2242 29.7801 52.8197 27.9937 52.9079 27.5747C53.1284 26.6264 55.0913 24.6194 56.7894 23.649C58.0465 22.9433 60.8254 22.0832 61.068 22.3258C61.1562 22.3919 61.0459 22.7669 60.8695 23.1418C60.3181 24.1783 60.4063 25.3252 61.0459 25.6119C61.7517 25.9427 62.5015 25.5237 64.6408 23.627C65.5891 22.811 66.5815 22.0832 66.8683 22.017C67.3314 21.8847 67.3534 21.9509 67.3534 23.0756C67.3534 24.0681 67.4417 24.3768 67.9048 24.8179C69.0075 25.9427 72.2716 25.3252 76.1311 23.2741C77.1235 22.7448 77.9395 22.3699 77.9395 22.4581C77.9395 22.5463 77.741 23.3403 77.4984 24.2445C76.903 26.4499 76.925 27.4865 77.5205 27.8173C78.535 28.3466 79.5054 27.3542 82.3063 22.833C83.2987 21.2451 84.3573 19.6572 84.6661 19.3043L85.2395 18.6427L85.1292 19.569C85.041 20.0762 84.4896 21.6642 83.8942 23.0977C82.6591 25.9868 82.6371 26.5823 83.6736 26.8028C84.4896 26.9792 84.7763 26.7808 86.651 24.7518C87.467 23.8696 88.2168 23.208 88.305 23.2741C88.4153 23.3403 88.5476 23.6932 88.6358 24.046C88.7241 24.4209 89.0328 25.0164 89.3416 25.3693C90.334 26.5602 91.9219 26.2073 94.8111 24.1563C96.5533 22.9213 97.4355 21.9509 97.2811 21.5318C97.0385 20.8923 96.4431 21.1569 95.1419 22.5022C93.8407 23.8034 91.7896 25.3031 91.1721 25.3693C90.2899 25.5016 90.0914 25.3472 89.8488 24.4209C89.099 21.5098 88.5917 21.3113 86.3422 23.1197L85.3939 23.8916L85.7247 23.2521C86.3863 21.9509 87.0479 19.4808 86.8936 18.8853C86.6951 18.0914 85.857 17.7826 84.9307 18.1796C83.9824 18.5766 83.6295 18.9956 81.2477 22.5684C80.1229 24.2445 79.1745 25.5678 79.1084 25.5016C78.954 25.3693 79.3069 24.3107 80.6081 20.9805C81.402 18.9294 81.6226 18.1575 81.4241 17.937C81.0933 17.54 80.2773 17.5841 79.748 18.0252ZM65.148 21.598C65.148 21.7965 63.2734 23.6049 63.0529 23.6049C62.8103 23.6049 62.9867 23.3403 63.8468 22.3919C64.729 21.4436 65.148 21.179 65.148 21.598ZM49.5556 34.0146C48.6955 36.8375 46.9312 40.9617 46.6886 40.7191C46.4019 40.4324 49.6438 32.2061 50.0188 32.2061C50.0849 32.2061 49.8644 33.0221 49.5556 34.0146Z" fill="black"/>
<path d="M32.4645 49.3203C32.3542 49.4085 32.2881 50.9082 32.2881 52.6505V55.8042H32.8394C33.3246 55.8042 33.3687 55.716 33.4349 54.5251L33.5011 53.268L35.111 53.1577C36.5005 53.0695 36.7872 52.9813 37.14 52.4961C37.7355 51.7242 37.6914 50.6656 37.0518 49.9378C36.5887 49.3644 36.3902 49.3203 34.5817 49.232C33.5011 49.1879 32.5527 49.21 32.4645 49.3203ZM36.2138 50.5553C36.5887 50.9302 36.5446 51.3934 36.1035 51.8786C35.8388 52.1653 35.4419 52.2755 34.5597 52.2755H33.3908V51.2831V50.2907H34.67C35.3757 50.2907 36.0594 50.4009 36.2138 50.5553Z" fill="black"/>
<path d="M46.1153 49.3423C46.0271 49.4085 45.9609 50.9082 45.9609 52.6505V55.8042H46.5123C47.0195 55.8042 47.0416 55.7381 47.1078 54.3045L47.1739 52.8269H48.7177H50.2615L50.2174 54.3045L50.1733 55.8042H50.8129H51.4525L51.4083 52.5402L51.3642 49.2982H50.8129C50.2395 49.2982 50.2174 49.3423 50.1733 50.8861L50.1513 51.8345H48.6075H47.0637V50.5112C47.0637 49.3644 46.9975 49.1879 46.6667 49.1879C46.4461 49.1879 46.1815 49.2541 46.1153 49.3423Z" fill="black"/>
<path d="M61.4656 49.629C60.5173 50.2024 60.0762 51.1287 60.0762 52.4961C60.0762 54.084 60.5834 55.0323 61.7082 55.5837C62.855 56.135 63.4505 56.135 64.6414 55.6057C66.7145 54.6574 67.0453 51.4595 65.2589 49.8716C64.5973 49.2982 64.2885 49.1879 63.3182 49.1879C62.5683 49.1879 61.9287 49.3423 61.4656 49.629ZM64.3327 50.5112C65.5456 51.4595 65.5677 53.7973 64.3768 54.5692C62.833 55.5837 61.1789 54.503 61.1789 52.452C61.1789 51.5477 61.2892 51.261 61.8185 50.7097C62.5904 49.9378 63.5166 49.8716 64.3327 50.5112Z" fill="black"/>
<path d="M74.4548 49.6731C74.521 50.1142 74.6754 50.1804 75.5796 50.2465L76.6162 50.3127V53.0695V55.8042H77.1675H77.7189V53.0695V50.3127L78.7775 50.2465C79.6376 50.1804 79.814 50.1142 79.814 49.7393C79.814 49.3203 79.6376 49.2982 77.1014 49.232L74.3887 49.1659L74.4548 49.6731Z" fill="black"/>
<path d="M89.0113 49.629C87.1808 50.7538 87.2029 54.106 89.0334 55.4513C89.8714 56.0689 91.8122 56.0689 92.6503 55.4513C94.5249 54.084 94.4367 50.5112 92.4959 49.5187C91.5696 49.0335 89.8935 49.0997 89.0113 49.629ZM91.7019 50.3127C92.2974 50.5994 92.937 51.7242 92.937 52.474C92.937 53.2239 92.3636 54.4148 91.8784 54.6794C90.489 55.4072 88.9893 54.5471 88.8128 52.9151C88.5702 50.842 90.0258 49.5629 91.7019 50.3127Z" fill="black"/>
<path d="M103.787 49.629C102.905 50.1804 102.419 51.239 102.419 52.6284C102.419 54.7015 103.566 55.8924 105.617 55.9145C106.257 55.9145 107.117 55.7381 107.668 55.4955L108.595 55.0764V53.7752V52.4961H107.051C105.661 52.4961 105.507 52.5402 105.507 52.9372C105.507 53.3121 105.661 53.3782 106.499 53.3782C107.404 53.3782 107.492 53.4224 107.492 53.9296C107.492 54.3266 107.338 54.5471 106.919 54.7015C105.154 55.3852 103.522 54.4369 103.522 52.7166C103.522 52.2314 103.677 51.5257 103.853 51.1949C104.493 49.9378 106.411 49.7613 107.227 50.8861C107.514 51.261 107.779 51.4154 108.021 51.3272C108.528 51.1287 108.462 50.6435 107.845 49.9378C107.404 49.4085 107.139 49.3203 105.926 49.2541C104.779 49.1879 104.382 49.2541 103.787 49.629Z" fill="black"/>
<path d="M117.196 52.4961V55.8042H117.748C118.277 55.8042 118.299 55.7381 118.299 54.481C118.299 53.4444 118.387 53.1136 118.652 53.0033C119.336 52.7387 120.174 53.29 121.034 54.5471C121.762 55.5837 122.026 55.8042 122.533 55.8042C122.864 55.8042 123.151 55.7601 123.151 55.694C123.151 55.4955 122.004 53.7532 121.519 53.2018C121.188 52.8269 121.166 52.7166 121.431 52.7166C121.894 52.7166 122.71 51.7683 122.71 51.2169C122.71 50.4009 122.225 49.6511 121.541 49.4085C121.188 49.2982 120.041 49.1879 119.049 49.1879H117.196V52.4961ZM121.342 50.5553C122.114 51.3272 121.276 52.055 119.6 52.055H118.299V51.1728V50.2907H119.688C120.482 50.2907 121.188 50.4009 121.342 50.5553Z" fill="black"/>
<path d="M132.105 52.2755C131.421 53.9737 130.87 55.4734 130.87 55.5837C130.87 55.716 131.113 55.8042 131.399 55.8042C131.796 55.8042 131.995 55.6057 132.304 54.8118L132.679 53.7973L133.914 53.8635C135.127 53.9296 135.127 53.9296 135.479 54.8559C135.766 55.6719 135.898 55.8042 136.428 55.8042C136.759 55.8042 137.045 55.7381 137.045 55.6719C137.045 55.5837 136.45 54.106 135.7 52.3638C134.531 49.5849 134.289 49.1879 133.847 49.1879C133.406 49.1879 133.186 49.5629 132.105 52.2755ZM134.597 52.6505C134.619 52.8269 134.333 52.9372 133.825 52.9372C133.274 52.9372 133.053 52.849 133.142 52.6505C133.186 52.5181 133.362 52.0109 133.539 51.5477L133.847 50.6876L134.222 51.5477C134.421 52.0109 134.597 52.5181 134.597 52.6505Z" fill="black"/>
<path d="M145.206 52.474V55.8042H145.757C146.286 55.8042 146.308 55.7381 146.308 54.481V53.1577H147.742C148.999 53.1577 149.264 53.0916 149.727 52.6064C150.499 51.8565 150.477 50.5553 149.705 49.8275C149.219 49.3644 148.889 49.2982 147.168 49.232L145.206 49.1438V52.474ZM148.911 50.5553C149.043 50.6876 149.175 50.9743 149.175 51.1949C149.175 51.9006 148.558 52.2755 147.389 52.2755H146.308V51.2169V50.1804L147.455 50.2686C148.095 50.2907 148.756 50.445 148.911 50.5553Z" fill="black"/>
<path d="M158.879 52.2535C158.879 53.9737 158.857 55.4293 158.835 55.5175C158.791 55.6278 159.034 55.716 159.387 55.7601L159.982 55.8263V54.2604V52.6946L161.482 52.7607L162.959 52.8269L163.026 54.3045C163.092 55.738 163.114 55.8042 163.643 55.8042H164.194L164.128 52.5402C164.062 49.3644 164.062 49.2982 163.577 49.232C163.092 49.1659 163.07 49.232 163.07 50.4891V51.8344H161.526H160.004L159.938 50.5553C159.872 49.4526 159.806 49.2982 159.387 49.232C158.879 49.1659 158.879 49.1659 158.879 52.2535Z" fill="black"/>
<path d="M172.333 49.2982C172.333 49.3644 172.884 50.2245 173.546 51.239C174.692 52.9372 174.758 53.1136 174.758 54.4148C174.758 55.7601 174.781 55.8042 175.31 55.8042C175.839 55.8042 175.861 55.7381 175.861 54.481C175.861 53.268 175.949 53.0254 176.898 51.658C177.449 50.842 178.045 50.026 178.221 49.8275C178.64 49.3203 178.574 49.1879 177.868 49.1879C177.339 49.1879 177.118 49.3864 176.435 50.5112C175.971 51.239 175.53 51.8345 175.442 51.8345C175.332 51.8345 174.891 51.239 174.45 50.5112C173.744 49.3864 173.546 49.1879 172.972 49.1879C172.619 49.1879 172.333 49.232 172.333 49.2982Z" fill="black"/>
</svg>
