<svg width="123" height="28" viewBox="0 0 123 28" fill="none" xmlns="http://www.w3.org/2000/svg">
<path d="M0.617188 27V8.38477H6.80469V12.3926H7.06836C7.43164 10.9277 8.22852 9.77344 9.45898 8.92969C10.6895 8.08594 12.207 7.66406 14.0117 7.66406V13.7812C11.5977 13.7812 9.80469 14.3438 8.63281 15.4688C7.47266 16.5938 6.89258 18.4336 6.89258 20.9883V27H0.617188ZM27.6172 27.7207C23.8203 27.7207 20.8086 26.8535 18.582 25.1191C16.3672 23.373 15.2598 20.9062 15.2598 17.7188C15.2598 15.5859 15.752 13.7578 16.7363 12.2344C17.7207 10.6992 19.0918 9.55078 20.8496 8.78906C22.6074 8.01562 24.6699 7.62891 27.0371 7.62891C28.7246 7.62891 30.2656 7.81641 31.6602 8.19141C33.0547 8.56641 34.2969 9.14062 35.3867 9.91406C36.4766 10.6758 37.3262 11.7012 37.9355 12.9902C38.5449 14.2793 38.8496 15.7793 38.8496 17.4902V18.9668H21.7461C21.957 20.209 22.584 21.1523 23.627 21.7969C24.6816 22.4297 26 22.7461 27.582 22.7461C30.0781 22.7461 31.7305 21.9668 32.5391 20.4082L38.8848 21.1641C37.3145 25.5352 33.5586 27.7207 27.6172 27.7207ZM22.1328 14.5371H32.1523C31.8125 13.7285 31.2266 13.1133 30.3945 12.6914C29.5742 12.2695 28.584 12.0586 27.4238 12.0586C24.6934 12.0586 22.9297 12.8848 22.1328 14.5371ZM43.666 27V12.8848H40.0977V8.38477H43.666C43.666 5.7832 44.2402 3.80859 45.3887 2.46094C46.5488 1.11328 48.2656 0.439453 50.5391 0.439453C52.0273 0.439453 53.3984 0.679688 54.6523 1.16016V5.80078C53.7969 5.64844 53.0996 5.57227 52.5605 5.57227C51.6699 5.57227 51.0254 5.7832 50.627 6.20508C50.2402 6.61523 50.0469 7.3418 50.0469 8.38477H63.0723V27H56.6211V12.8848H50.2227V27H43.666ZM56.5156 6.11719V1.16016H63.2129V6.11719H56.5156ZM80.4746 15.8379C80.4746 13.7754 79.3496 12.7441 77.0996 12.7441C76.502 12.7441 75.9688 12.8086 75.5 12.9375C75.0312 13.0664 74.5801 13.2891 74.1465 13.6055C73.7246 13.9102 73.3906 14.373 73.1445 14.9941C72.9102 15.6152 72.7871 16.377 72.7754 17.2793V27H66.3242V8.38477H72.7754V10.2656C74.3574 8.53125 76.4902 7.66406 79.1738 7.66406C81.7168 7.66406 83.6504 8.24414 84.9746 9.4043C86.2988 10.5645 86.9609 12.252 86.9609 14.4668V27H80.4746V15.8379ZM101.621 27.7207C97.8242 27.7207 94.8125 26.8535 92.5859 25.1191C90.3711 23.373 89.2637 20.9062 89.2637 17.7188C89.2637 15.5859 89.7559 13.7578 90.7402 12.2344C91.7246 10.6992 93.0957 9.55078 94.8535 8.78906C96.6113 8.01562 98.6738 7.62891 101.041 7.62891C102.729 7.62891 104.27 7.81641 105.664 8.19141C107.059 8.56641 108.301 9.14062 109.391 9.91406C110.48 10.6758 111.33 11.7012 111.939 12.9902C112.549 14.2793 112.854 15.7793 112.854 17.4902V18.9668H95.75C95.9609 20.209 96.5879 21.1523 97.6309 21.7969C98.6855 22.4297 100.004 22.7461 101.586 22.7461C104.082 22.7461 105.734 21.9668 106.543 20.4082L112.889 21.1641C111.318 25.5352 107.562 27.7207 101.621 27.7207ZM96.1367 14.5371H106.156C105.816 13.7285 105.23 13.1133 104.398 12.6914C103.578 12.2695 102.588 12.0586 101.428 12.0586C98.6973 12.0586 96.9336 12.8848 96.1367 14.5371ZM114.646 27V20.584H122.715V27H114.646Z" fill="white"/>
</svg>
