<svg width="42" height="42" viewBox="0 0 42 42" fill="none" xmlns="http://www.w3.org/2000/svg">
<path d="M27.8767 1.62952H27.7846C26.4309 1.62952 25.3294 2.73095 25.3294 4.08471V27.2984C25.3294 28.7804 24.7928 30.2568 23.8184 31.4556C23.03 32.4259 22.5958 33.6498 22.5958 34.9022C22.5958 37.9174 25.0487 40.3704 28.0639 40.3704H28.8524L26.8656 36.3068L27.2757 34.9562H29.2107L30.8797 38.8505L31.3845 38.4476C31.4558 38.3908 32.0937 37.8548 32.5659 36.5501C32.5886 36.4874 32.6103 36.4245 32.6311 36.3611C33.3151 34.2763 32.8479 31.9051 31.4117 30.1729C30.9355 29.5983 30.6058 28.9235 30.4584 28.2213C30.3745 27.8212 30.3319 27.411 30.3319 27.0021V4.08471C30.3319 2.73095 29.2306 1.62952 27.8767 1.62952ZM26.3138 9.19157H27.3636V24.8585H28.3479V9.19157H29.3476V27.0021C29.3476 27.2786 29.3664 27.5552 29.3994 27.8302H26.2924C26.3055 27.6534 26.3139 27.476 26.3139 27.2985V9.19157H26.3138ZM29.3476 8.20719H26.3139V7.84494H29.3476V8.20719ZM27.7846 2.61389H27.8767C28.6878 2.61389 29.3476 3.27367 29.3476 4.08471V6.86049H26.3139V4.08471C26.3138 3.27367 26.9736 2.61389 27.7846 2.61389ZM30.654 30.8011C31.8761 32.2752 32.2754 34.288 31.6959 36.0541C31.6782 36.1078 31.6599 36.1614 31.6404 36.215C31.5021 36.5971 31.3485 36.8956 31.2092 37.1203L29.8599 33.9717H26.5459L25.8113 36.3913L27.2382 39.3097C25.1589 38.921 23.5803 37.0924 23.5803 34.9021C23.5803 33.8751 23.9361 32.8717 24.5825 32.0764C25.3661 31.1124 25.9014 29.9889 26.1516 28.8145H29.5939C29.8028 29.5303 30.1644 30.2107 30.654 30.8011Z" fill="#EDEDED"/>
<path d="M27.8557 5.39544C28.5757 5.39544 29.1615 4.80966 29.1615 4.08967C29.1615 3.3696 28.5757 2.78381 27.8557 2.78381C27.1357 2.78381 26.5498 3.3696 26.5498 4.08967C26.5498 4.80966 27.1357 5.39544 27.8557 5.39544ZM27.8557 3.76819C28.0329 3.76819 28.1771 3.91232 28.1771 4.08967C28.1771 4.26694 28.0329 4.41107 27.8557 4.41107C27.6784 4.41107 27.5342 4.26686 27.5342 4.08967C27.5342 3.91232 27.6784 3.76819 27.8557 3.76819Z" fill="#EDEDED"/>
<path d="M28.3479 25.8425H27.3635V27.448H28.3479V25.8425Z" fill="#EDEDED"/>
<path d="M15.5518 36.6045C14.8318 36.6045 14.246 37.1903 14.246 37.9103C14.246 38.6304 14.8318 39.2162 15.5518 39.2162C16.2719 39.2162 16.8577 38.6304 16.8577 37.9103C16.8577 37.1903 16.2719 36.6045 15.5518 36.6045ZM15.5518 38.2317C15.3746 38.2317 15.2303 38.0875 15.2303 37.9103C15.2303 37.733 15.3746 37.5888 15.5518 37.5888C15.7291 37.5888 15.8733 37.733 15.8733 37.9103C15.8733 38.0875 15.7292 38.2317 15.5518 38.2317Z" fill="#EDEDED"/>
<path d="M19.983 9.95306C20.5089 9.09559 20.7868 8.10826 20.7868 7.09772C20.7868 4.0825 18.3339 1.62952 15.3186 1.62952H14.5302L16.517 5.6931L16.1069 7.04366H14.1718L12.5028 3.14947L11.9979 3.55241C11.9276 3.60852 10.3468 4.91602 10.3185 8.54229H9.05908V10.8478L9.49557 11.0993C9.8497 11.302 10.1863 11.5352 10.4969 11.7933C10.572 11.8553 10.6465 11.9196 10.7179 11.9838C12.2005 13.3211 13.0507 15.2332 13.0507 17.2297V37.9151C13.0507 39.2689 14.1522 40.3704 15.5061 40.3704H15.5978C16.9517 40.3704 18.0532 39.2689 18.0532 37.9151V18.0106V16.8787C18.0532 14.4062 18.7205 12.0114 19.983 9.95306ZM12.1746 4.88238L13.2484 7.38786L11.8242 8.54229H11.3023C11.3186 6.64343 11.8 5.49212 12.1746 4.88238ZM11.3767 11.2524C11.2947 11.1786 11.2098 11.1054 11.1253 11.0355C10.7888 10.7559 10.4249 10.5014 10.0435 10.279V9.52666H12.1729L14.0218 8.02804H16.8368L17.5714 5.60852L16.1444 2.6901C18.2237 3.07876 19.8025 4.90732 19.8025 7.09772C19.8025 7.92656 19.5747 8.73588 19.1438 9.4384C17.7864 11.6516 17.0689 14.2244 17.0688 16.8786V18.0107V32.8084H16.044V17.1414H15.0597V32.8084H14.0351V17.2298C14.0352 14.955 13.0664 12.7765 11.3767 11.2524ZM14.0352 33.7928H17.0689V34.155H14.0352V33.7928ZM15.5979 39.386H15.5062C14.695 39.386 14.0352 38.7261 14.0352 37.9151V35.1394H17.0689V37.9151C17.0689 38.7261 16.4089 39.386 15.5979 39.386Z" fill="#EDEDED"/>
<path d="M17.0585 9.11609H13.064V11.9624H17.0585V9.11609ZM14.0483 10.1005H14.5691V10.978H14.0483V10.1005ZM16.0741 10.978H15.5535V10.1005H16.0741V10.978Z" fill="#EDEDED"/>
<path d="M16.0441 14.5519H15.0597V16.1575H16.0441V14.5519Z" fill="#EDEDED"/>
</svg>
