<svg width="549" height="549" viewBox="0 0 549 549" fill="none" xmlns="http://www.w3.org/2000/svg">
<path d="M495.198 267.791H363.043C363.043 267.791 376.153 231.996 396.323 231.996C416.493 231.996 422.807 256.701 422.807 256.701C422.807 256.701 436.422 243.284 447.6 243.284C458.777 243.284 468.462 261.016 468.462 261.016C468.462 261.016 484.295 251.442 495.198 267.791Z" fill="#EBEBEB"/>
<path d="M338.239 81.5046H276.465C276.465 81.5046 290.267 61.488 301.148 61.488C312.03 61.488 315.236 74.8397 315.236 74.8397C315.236 74.8397 322.922 68.625 330.015 69.734C337.108 70.843 338.239 81.5046 338.239 81.5046Z" fill="#EBEBEB"/>
<path d="M455.67 123.273H393.885C393.885 123.273 407.687 103.267 418.558 103.267C429.428 103.267 432.612 116.608 432.612 116.608C432.612 116.608 440.298 110.382 447.391 111.491C454.484 112.6 455.67 123.273 455.67 123.273Z" fill="#EBEBEB"/>
<path d="M368.752 223.213H306.979C306.979 223.213 320.781 203.207 331.651 203.207C342.521 203.207 345.738 216.548 345.738 216.548C345.738 216.548 353.424 210.322 360.528 211.431C367.632 212.54 368.752 223.213 368.752 223.213Z" fill="#EBEBEB"/>
<path d="M115.543 265.892H53.802C53.802 265.892 67.5709 245.952 78.4411 245.952C89.3113 245.952 92.5394 259.282 92.5394 259.282C92.5394 259.282 100.225 253.056 107.319 254.176C114.412 255.296 115.543 265.892 115.543 265.892Z" fill="#EBEBEB"/>
<path d="M197.541 141.938H77.2113C77.2113 141.938 93.6813 105.155 111.315 102.85C128.949 100.544 137.371 130.19 137.371 130.19C137.371 130.19 148.746 119.715 157.684 119.715C166.621 119.715 173.484 133.506 173.484 133.506C173.484 133.506 191.403 124.074 197.541 141.938Z" fill="#EBEBEB"/>
<path d="M407.611 294.923H371.201V485.81H407.611V294.923Z" fill="#DBDBDB"/>
<path d="M383.927 301.126H376.845V308.417H383.927V301.126Z" fill="#EBEBEB"/>
<path d="M392.985 301.126H385.903V308.417H392.985V301.126Z" fill="#EBEBEB"/>
<path d="M383.927 313.49H376.845V320.781H383.927V313.49Z" fill="#EBEBEB"/>
<path d="M392.985 313.49H385.903V320.781H392.985V313.49Z" fill="#EBEBEB"/>
<path d="M383.927 325.865H376.845V333.155H383.927V325.865Z" fill="#EBEBEB"/>
<path d="M392.985 325.865H385.903V333.155H392.985V325.865Z" fill="#EBEBEB"/>
<path d="M383.927 338.239H376.845V345.53H383.927V338.239Z" fill="#EBEBEB"/>
<path d="M392.985 338.239H385.903V345.53H392.985V338.239Z" fill="#EBEBEB"/>
<path d="M383.927 350.613H376.845V357.904H383.927V350.613Z" fill="#EBEBEB"/>
<path d="M392.985 350.613H385.903V357.904H392.985V350.613Z" fill="#EBEBEB"/>
<path d="M383.927 362.988H376.845V370.279H383.927V362.988Z" fill="#EBEBEB"/>
<path d="M392.985 362.988H385.903V370.279H392.985V362.988Z" fill="#EBEBEB"/>
<path d="M383.927 375.362H376.845V382.653H383.927V375.362Z" fill="#EBEBEB"/>
<path d="M392.985 375.362H385.903V382.653H392.985V375.362Z" fill="#EBEBEB"/>
<path d="M383.927 387.737H376.845V395.028H383.927V387.737Z" fill="#EBEBEB"/>
<path d="M392.985 387.737H385.903V395.028H392.985V387.737Z" fill="#EBEBEB"/>
<path d="M383.927 400.111H376.845V407.402H383.927V400.111Z" fill="#EBEBEB"/>
<path d="M392.985 400.111H385.903V407.402H392.985V400.111Z" fill="#EBEBEB"/>
<path d="M383.927 412.486H376.845V419.777H383.927V412.486Z" fill="#EBEBEB"/>
<path d="M392.985 412.486H385.903V419.777H392.985V412.486Z" fill="#EBEBEB"/>
<path d="M383.927 424.86H376.845V432.151H383.927V424.86Z" fill="#EBEBEB"/>
<path d="M392.985 424.86H385.903V432.151H392.985V424.86Z" fill="#EBEBEB"/>
<path d="M383.927 437.235H376.845V444.525H383.927V437.235Z" fill="#EBEBEB"/>
<path d="M392.985 437.235H385.903V444.525H392.985V437.235Z" fill="#EBEBEB"/>
<path d="M383.927 449.609H376.845V456.9H383.927V449.609Z" fill="#EBEBEB"/>
<path d="M392.985 449.609H385.903V456.9H392.985V449.609Z" fill="#EBEBEB"/>
<path d="M383.927 461.984H376.845V469.274H383.927V461.984Z" fill="#EBEBEB"/>
<path d="M394.874 469.274H401.956V461.983H394.874V469.274Z" fill="#EBEBEB"/>
<path d="M394.874 456.9H401.956V449.609H394.874V456.9Z" fill="#EBEBEB"/>
<path d="M394.874 444.525H401.956V437.235H394.874V444.525Z" fill="#EBEBEB"/>
<path d="M394.874 432.151H401.956V424.86H394.874V432.151Z" fill="#EBEBEB"/>
<path d="M394.874 419.776H401.956V412.486H394.874V419.776Z" fill="#EBEBEB"/>
<path d="M394.874 407.413H401.956V400.122H394.874V407.413Z" fill="#EBEBEB"/>
<path d="M394.874 395.039H401.956V387.748H394.874V395.039Z" fill="#EBEBEB"/>
<path d="M394.874 382.664H401.956V375.373H394.874V382.664Z" fill="#EBEBEB"/>
<path d="M394.874 370.29H401.956V362.999H394.874V370.29Z" fill="#EBEBEB"/>
<path d="M394.874 357.915H401.956V350.624H394.874V357.915Z" fill="#EBEBEB"/>
<path d="M394.874 345.541H401.956V338.25H394.874V345.541Z" fill="#EBEBEB"/>
<path d="M394.874 333.166H401.956V325.876H394.874V333.166Z" fill="#EBEBEB"/>
<path d="M394.874 320.792H401.956V313.501H394.874V320.792Z" fill="#EBEBEB"/>
<path d="M394.874 308.406H401.956V301.116H394.874V308.406Z" fill="#EBEBEB"/>
<path d="M392.985 461.984H385.903V469.274H392.985V461.984Z" fill="#EBEBEB"/>
<path d="M436.323 294.923H407.611V485.81H436.323V294.923Z" fill="#A6A6A6"/>
<path d="M427.517 469.274H433.359V461.983H427.517V469.274Z" fill="#C7C7C7"/>
<path d="M420.04 469.274H425.881V461.983H420.04V469.274Z" fill="#C7C7C7"/>
<path d="M427.517 456.9H433.359V449.609H427.517V456.9Z" fill="#C7C7C7"/>
<path d="M420.04 456.9H425.881V449.609H420.04V456.9Z" fill="#C7C7C7"/>
<path d="M427.517 444.525H433.359V437.235H427.517V444.525Z" fill="#C7C7C7"/>
<path d="M420.04 444.525H425.881V437.235H420.04V444.525Z" fill="#C7C7C7"/>
<path d="M427.517 432.151H433.359V424.86H427.517V432.151Z" fill="#C7C7C7"/>
<path d="M420.04 432.151H425.881V424.86H420.04V432.151Z" fill="#C7C7C7"/>
<path d="M427.517 419.776H433.359V412.486H427.517V419.776Z" fill="#C7C7C7"/>
<path d="M420.04 419.776H425.881V412.486H420.04V419.776Z" fill="#C7C7C7"/>
<path d="M427.517 407.413H433.359V400.122H427.517V407.413Z" fill="#C7C7C7"/>
<path d="M420.04 407.413H425.881V400.122H420.04V407.413Z" fill="#C7C7C7"/>
<path d="M427.517 395.039H433.359V387.748H427.517V395.039Z" fill="#C7C7C7"/>
<path d="M420.04 395.039H425.881V387.748H420.04V395.039Z" fill="#C7C7C7"/>
<path d="M427.517 382.664H433.359V375.373H427.517V382.664Z" fill="#C7C7C7"/>
<path d="M420.04 382.664H425.881V375.373H420.04V382.664Z" fill="#C7C7C7"/>
<path d="M427.517 370.29H433.359V362.999H427.517V370.29Z" fill="#C7C7C7"/>
<path d="M420.04 370.29H425.881V362.999H420.04V370.29Z" fill="#C7C7C7"/>
<path d="M427.517 357.915H433.359V350.624H427.517V357.915Z" fill="#C7C7C7"/>
<path d="M420.04 357.915H425.881V350.624H420.04V357.915Z" fill="#C7C7C7"/>
<path d="M427.517 345.541H433.359V338.25H427.517V345.541Z" fill="#C7C7C7"/>
<path d="M420.04 345.541H425.881V338.25H420.04V345.541Z" fill="#C7C7C7"/>
<path d="M427.517 333.166H433.359V325.876H427.517V333.166Z" fill="#C7C7C7"/>
<path d="M420.04 333.166H425.881V325.876H420.04V333.166Z" fill="#C7C7C7"/>
<path d="M427.517 320.792H433.359V313.501H427.517V320.792Z" fill="#C7C7C7"/>
<path d="M420.04 320.792H425.881V313.501H420.04V320.792Z" fill="#C7C7C7"/>
<path d="M427.517 308.406H433.359V301.116H427.517V308.406Z" fill="#C7C7C7"/>
<path d="M418.47 301.126H412.628V308.417H418.47V301.126Z" fill="#C7C7C7"/>
<path d="M418.47 313.49H412.628V320.781H418.47V313.49Z" fill="#C7C7C7"/>
<path d="M418.47 325.865H412.628V333.155H418.47V325.865Z" fill="#C7C7C7"/>
<path d="M418.47 338.239H412.628V345.53H418.47V338.239Z" fill="#C7C7C7"/>
<path d="M418.47 350.613H412.628V357.904H418.47V350.613Z" fill="#C7C7C7"/>
<path d="M418.47 362.988H412.628V370.279H418.47V362.988Z" fill="#C7C7C7"/>
<path d="M418.47 375.362H412.628V382.653H418.47V375.362Z" fill="#C7C7C7"/>
<path d="M418.47 387.737H412.628V395.028H418.47V387.737Z" fill="#C7C7C7"/>
<path d="M418.47 400.111H412.628V407.402H418.47V400.111Z" fill="#C7C7C7"/>
<path d="M418.47 412.486H412.628V419.777H418.47V412.486Z" fill="#C7C7C7"/>
<path d="M418.47 424.86H412.628V432.151H418.47V424.86Z" fill="#C7C7C7"/>
<path d="M418.47 437.235H412.628V444.525H418.47V437.235Z" fill="#C7C7C7"/>
<path d="M418.47 449.609H412.628V456.9H418.47V449.609Z" fill="#C7C7C7"/>
<path d="M418.47 461.984H412.628V469.274H418.47V461.984Z" fill="#C7C7C7"/>
<path d="M420.04 308.406H425.881V301.116H420.04V308.406Z" fill="#C7C7C7"/>
<path d="M149.065 284.624H105.99V485.799H149.065V284.624Z" fill="#EBEBEB"/>
<path d="M149.065 280.221H104.947V284.624H149.065V280.221Z" fill="#C7C7C7"/>
<path d="M114.236 291.124H109.877V485.81H114.236V291.124Z" fill="white"/>
<path d="M121.977 291.124H117.618V485.81H121.977V291.124Z" fill="white"/>
<path d="M129.707 291.124H125.348V485.81H129.707V291.124Z" fill="white"/>
<path d="M137.448 291.124H133.078V485.81H137.448V291.124Z" fill="white"/>
<path d="M145.167 291.124H140.807V485.81H145.167V291.124Z" fill="white"/>
<path d="M114.236 296.691H109.877V305.387H114.236V296.691Z" fill="#EBEBEB"/>
<path d="M121.977 296.691H117.618V305.387H121.977V296.691Z" fill="#EBEBEB"/>
<path d="M129.707 296.691H125.348V305.387H129.707V296.691Z" fill="#EBEBEB"/>
<path d="M137.448 296.691H133.078V305.387H137.448V296.691Z" fill="#EBEBEB"/>
<path d="M145.167 296.691H140.807V305.387H145.167V296.691Z" fill="#EBEBEB"/>
<path d="M114.236 310.811H109.877V319.507H114.236V310.811Z" fill="#EBEBEB"/>
<path d="M121.977 310.811H117.618V319.507H121.977V310.811Z" fill="#EBEBEB"/>
<path d="M129.707 310.811H125.348V319.507H129.707V310.811Z" fill="#EBEBEB"/>
<path d="M137.448 310.811H133.078V319.507H137.448V310.811Z" fill="#EBEBEB"/>
<path d="M145.167 310.811H140.807V319.507H145.167V310.811Z" fill="#EBEBEB"/>
<path d="M114.236 324.942H109.877V333.638H114.236V324.942Z" fill="#EBEBEB"/>
<path d="M121.977 324.942H117.618V333.638H121.977V324.942Z" fill="#EBEBEB"/>
<path d="M129.707 324.942H125.348V333.638H129.707V324.942Z" fill="#EBEBEB"/>
<path d="M137.448 324.942H133.078V333.638H137.448V324.942Z" fill="#EBEBEB"/>
<path d="M145.167 324.942H140.807V333.638H145.167V324.942Z" fill="#EBEBEB"/>
<path d="M114.236 339.073H109.877V347.77H114.236V339.073Z" fill="#EBEBEB"/>
<path d="M121.977 339.073H117.618V347.77H121.977V339.073Z" fill="#EBEBEB"/>
<path d="M129.707 339.073H125.348V347.77H129.707V339.073Z" fill="#EBEBEB"/>
<path d="M137.448 339.073H133.078V347.77H137.448V339.073Z" fill="#EBEBEB"/>
<path d="M145.167 339.073H140.807V347.77H145.167V339.073Z" fill="#EBEBEB"/>
<path d="M114.236 353.205H109.877V361.901H114.236V353.205Z" fill="#EBEBEB"/>
<path d="M121.977 353.205H117.618V361.901H121.977V353.205Z" fill="#EBEBEB"/>
<path d="M129.707 353.205H125.348V361.901H129.707V353.205Z" fill="#EBEBEB"/>
<path d="M137.448 353.205H133.078V361.901H137.448V353.205Z" fill="#EBEBEB"/>
<path d="M145.167 353.205H140.807V361.901H145.167V353.205Z" fill="#EBEBEB"/>
<path d="M114.236 367.336H109.877V376.032H114.236V367.336Z" fill="#EBEBEB"/>
<path d="M121.977 367.336H117.618V376.032H121.977V367.336Z" fill="#EBEBEB"/>
<path d="M129.707 367.336H125.348V376.032H129.707V367.336Z" fill="#EBEBEB"/>
<path d="M137.448 367.336H133.078V376.032H137.448V367.336Z" fill="#EBEBEB"/>
<path d="M145.167 367.336H140.807V376.032H145.167V367.336Z" fill="#EBEBEB"/>
<path d="M114.236 381.467H109.877V390.163H114.236V381.467Z" fill="#EBEBEB"/>
<path d="M121.977 381.467H117.618V390.163H121.977V381.467Z" fill="#EBEBEB"/>
<path d="M129.707 381.467H125.348V390.163H129.707V381.467Z" fill="#EBEBEB"/>
<path d="M137.448 381.467H133.078V390.163H137.448V381.467Z" fill="#EBEBEB"/>
<path d="M145.167 381.467H140.807V390.163H145.167V381.467Z" fill="#EBEBEB"/>
<path d="M114.236 395.598H109.877V404.295H114.236V395.598Z" fill="#EBEBEB"/>
<path d="M121.977 395.598H117.618V404.295H121.977V395.598Z" fill="#EBEBEB"/>
<path d="M129.707 395.598H125.348V404.295H129.707V395.598Z" fill="#EBEBEB"/>
<path d="M137.448 395.598H133.078V404.295H137.448V395.598Z" fill="#EBEBEB"/>
<path d="M145.167 395.598H140.807V404.295H145.167V395.598Z" fill="#EBEBEB"/>
<path d="M114.236 409.73H109.877V418.426H114.236V409.73Z" fill="#EBEBEB"/>
<path d="M121.977 409.73H117.618V418.426H121.977V409.73Z" fill="#EBEBEB"/>
<path d="M129.707 409.73H125.348V418.426H129.707V409.73Z" fill="#EBEBEB"/>
<path d="M137.448 409.73H133.078V418.426H137.448V409.73Z" fill="#EBEBEB"/>
<path d="M145.167 409.73H140.807V418.426H145.167V409.73Z" fill="#EBEBEB"/>
<path d="M114.236 423.861H109.877V432.557H114.236V423.861Z" fill="#EBEBEB"/>
<path d="M121.977 423.861H117.618V432.557H121.977V423.861Z" fill="#EBEBEB"/>
<path d="M129.707 423.861H125.348V432.557H129.707V423.861Z" fill="#EBEBEB"/>
<path d="M137.448 423.861H133.078V432.557H137.448V423.861Z" fill="#EBEBEB"/>
<path d="M145.167 423.861H140.807V432.557H145.167V423.861Z" fill="#EBEBEB"/>
<path d="M114.236 437.992H109.877V446.688H114.236V437.992Z" fill="#EBEBEB"/>
<path d="M121.977 437.992H117.618V446.688H121.977V437.992Z" fill="#EBEBEB"/>
<path d="M129.707 437.992H125.348V446.688H129.707V437.992Z" fill="#EBEBEB"/>
<path d="M137.448 437.992H133.078V446.688H137.448V437.992Z" fill="#EBEBEB"/>
<path d="M145.167 437.992H140.807V446.688H145.167V437.992Z" fill="#EBEBEB"/>
<path d="M114.236 452.124H109.877V460.82H114.236V452.124Z" fill="#EBEBEB"/>
<path d="M121.977 452.124H117.618V460.82H121.977V452.124Z" fill="#EBEBEB"/>
<path d="M129.707 452.124H125.348V460.82H129.707V452.124Z" fill="#EBEBEB"/>
<path d="M137.448 452.124H133.078V460.82H137.448V452.124Z" fill="#EBEBEB"/>
<path d="M145.167 452.124H140.807V460.82H145.167V452.124Z" fill="#EBEBEB"/>
<path d="M114.236 466.255H109.877V474.951H114.236V466.255Z" fill="#EBEBEB"/>
<path d="M121.977 466.255H117.618V474.951H121.977V466.255Z" fill="#EBEBEB"/>
<path d="M129.707 466.255H125.348V474.951H129.707V466.255Z" fill="#EBEBEB"/>
<path d="M137.448 466.255H133.078V474.951H137.448V466.255Z" fill="#EBEBEB"/>
<path d="M145.167 466.255H140.807V474.951H145.167V466.255Z" fill="#EBEBEB"/>
<path d="M114.236 480.386H109.877V485.81H114.236V480.386Z" fill="#EBEBEB"/>
<path d="M121.977 480.386H117.618V485.81H121.977V480.386Z" fill="#EBEBEB"/>
<path d="M129.707 480.386H125.348V485.81H129.707V480.386Z" fill="#EBEBEB"/>
<path d="M137.448 480.386H133.078V485.81H137.448V480.386Z" fill="#EBEBEB"/>
<path d="M145.167 480.386H140.807V485.81H145.167V480.386Z" fill="#EBEBEB"/>
<path d="M176.723 284.624H149.064V485.799H176.723V284.624Z" fill="#DBDBDB"/>
<path d="M177.92 280.221H149.064V284.624H177.92V280.221Z" fill="#C7C7C7"/>
<path d="M157.332 291.124H152.962V485.81H157.332V291.124Z" fill="#C7C7C7"/>
<path d="M165.051 291.124H160.692V485.81H165.051V291.124Z" fill="#C7C7C7"/>
<path d="M172.781 291.124H168.422V485.81H172.781V291.124Z" fill="#C7C7C7"/>
<path d="M157.332 296.691H152.962V305.387H157.332V296.691Z" fill="#DBDBDB"/>
<path d="M165.051 296.691H160.692V305.387H165.051V296.691Z" fill="#DBDBDB"/>
<path d="M172.781 296.691H168.422V305.387H172.781V296.691Z" fill="#DBDBDB"/>
<path d="M157.332 310.811H152.962V319.507H157.332V310.811Z" fill="#DBDBDB"/>
<path d="M165.051 310.811H160.692V319.507H165.051V310.811Z" fill="#DBDBDB"/>
<path d="M172.781 310.811H168.422V319.507H172.781V310.811Z" fill="#DBDBDB"/>
<path d="M157.332 324.942H152.962V333.638H157.332V324.942Z" fill="#DBDBDB"/>
<path d="M165.051 324.942H160.692V333.638H165.051V324.942Z" fill="#DBDBDB"/>
<path d="M172.781 324.942H168.422V333.638H172.781V324.942Z" fill="#DBDBDB"/>
<path d="M157.332 339.073H152.962V347.77H157.332V339.073Z" fill="#DBDBDB"/>
<path d="M165.051 339.073H160.692V347.77H165.051V339.073Z" fill="#DBDBDB"/>
<path d="M172.781 339.073H168.422V347.77H172.781V339.073Z" fill="#DBDBDB"/>
<path d="M157.332 353.205H152.962V361.901H157.332V353.205Z" fill="#DBDBDB"/>
<path d="M165.051 353.205H160.692V361.901H165.051V353.205Z" fill="#DBDBDB"/>
<path d="M172.781 353.205H168.422V361.901H172.781V353.205Z" fill="#DBDBDB"/>
<path d="M157.332 367.336H152.962V376.032H157.332V367.336Z" fill="#DBDBDB"/>
<path d="M165.051 367.336H160.692V376.032H165.051V367.336Z" fill="#DBDBDB"/>
<path d="M172.781 367.336H168.422V376.032H172.781V367.336Z" fill="#DBDBDB"/>
<path d="M157.332 381.467H152.962V390.163H157.332V381.467Z" fill="#DBDBDB"/>
<path d="M165.051 381.467H160.692V390.163H165.051V381.467Z" fill="#DBDBDB"/>
<path d="M172.781 381.467H168.422V390.163H172.781V381.467Z" fill="#DBDBDB"/>
<path d="M157.332 395.598H152.962V404.295H157.332V395.598Z" fill="#DBDBDB"/>
<path d="M165.051 395.598H160.692V404.295H165.051V395.598Z" fill="#DBDBDB"/>
<path d="M172.781 395.598H168.422V404.295H172.781V395.598Z" fill="#DBDBDB"/>
<path d="M157.332 409.73H152.962V418.426H157.332V409.73Z" fill="#DBDBDB"/>
<path d="M165.051 409.73H160.692V418.426H165.051V409.73Z" fill="#DBDBDB"/>
<path d="M172.781 409.73H168.422V418.426H172.781V409.73Z" fill="#DBDBDB"/>
<path d="M157.332 423.861H152.962V432.557H157.332V423.861Z" fill="#DBDBDB"/>
<path d="M165.051 423.861H160.692V432.557H165.051V423.861Z" fill="#DBDBDB"/>
<path d="M172.781 423.861H168.422V432.557H172.781V423.861Z" fill="#DBDBDB"/>
<path d="M157.332 437.992H152.962V446.688H157.332V437.992Z" fill="#DBDBDB"/>
<path d="M165.051 437.992H160.692V446.688H165.051V437.992Z" fill="#DBDBDB"/>
<path d="M172.781 437.992H168.422V446.688H172.781V437.992Z" fill="#DBDBDB"/>
<path d="M157.332 452.124H152.962V460.82H157.332V452.124Z" fill="#DBDBDB"/>
<path d="M165.051 452.124H160.692V460.82H165.051V452.124Z" fill="#DBDBDB"/>
<path d="M172.781 452.124H168.422V460.82H172.781V452.124Z" fill="#DBDBDB"/>
<path d="M157.332 466.255H152.962V474.951H157.332V466.255Z" fill="#DBDBDB"/>
<path d="M165.051 466.255H160.692V474.951H165.051V466.255Z" fill="#DBDBDB"/>
<path d="M172.781 466.255H168.422V474.951H172.781V466.255Z" fill="#DBDBDB"/>
<path d="M157.332 480.386H152.962V485.81H157.332V480.386Z" fill="#DBDBDB"/>
<path d="M165.051 480.386H160.692V485.81H165.051V480.386Z" fill="#DBDBDB"/>
<path d="M172.781 480.386H168.422V485.81H172.781V480.386Z" fill="#DBDBDB"/>
<path d="M94.8013 358.563H51.9025V485.81H94.8013V358.563Z" fill="#EBEBEB"/>
<path d="M94.8013 347.77H58.0073V358.563H94.8013V347.77Z" fill="#C7C7C7"/>
<path d="M90.1019 364.196H56.6129V485.81H90.1019V364.196Z" fill="#DBDBDB"/>
<path d="M90.1019 375.802H56.6129V378.678H90.1019V375.802Z" fill="white"/>
<path d="M90.1019 387.704H56.6129V390.581H90.1019V387.704Z" fill="white"/>
<path d="M90.1019 399.606H56.6129V402.483H90.1019V399.606Z" fill="white"/>
<path d="M90.1019 411.509H56.6129V414.385H90.1019V411.509Z" fill="white"/>
<path d="M90.1019 423.411H56.6129V426.288H90.1019V423.411Z" fill="white"/>
<path d="M90.1019 435.313H56.6129V438.19H90.1019V435.313Z" fill="white"/>
<path d="M90.1019 447.215H56.6129V450.092H90.1019V447.215Z" fill="white"/>
<path d="M90.1019 459.118H56.6129V461.994H90.1019V459.118Z" fill="white"/>
<path d="M90.1019 471.031H56.6129V473.908H90.1019V471.031Z" fill="white"/>
<path d="M90.1019 482.933H56.6129V485.81H90.1019V482.933Z" fill="white"/>
<path d="M121.669 358.563H94.8013V485.81H121.669V358.563Z" fill="#DBDBDB"/>
<path d="M117.64 347.77H94.8013V358.563H117.64V347.77Z" fill="#A6A6A6"/>
<path d="M119.155 364.196H98.5016V485.81H119.155V364.196Z" fill="#C7C7C7"/>
<path d="M119.155 375.802H98.5016V378.678H119.155V375.802Z" fill="white"/>
<path d="M119.155 387.704H98.5016V390.581H119.155V387.704Z" fill="white"/>
<path d="M119.155 399.606H98.5016V402.483H119.155V399.606Z" fill="white"/>
<path d="M119.155 411.509H98.5016V414.385H119.155V411.509Z" fill="white"/>
<path d="M119.155 423.411H98.5016V426.288H119.155V423.411Z" fill="white"/>
<path d="M119.155 435.313H98.5016V438.19H119.155V435.313Z" fill="white"/>
<path d="M119.155 447.215H98.5016V450.092H119.155V447.215Z" fill="white"/>
<path d="M119.155 459.118H98.5016V461.994H119.155V459.118Z" fill="white"/>
<path d="M119.155 471.031H98.5016V473.908H119.155V471.031Z" fill="white"/>
<path d="M119.155 482.933H98.5016V485.81H119.155V482.933Z" fill="white"/>
<path d="M215.021 411.311H181.862V485.799H215.021V411.311Z" fill="#DBDBDB"/>
<path d="M192.941 417.756H187.077V422.324H192.941V417.756Z" fill="#C7C7C7"/>
<path d="M192.941 427.506H187.077V432.074H192.941V427.506Z" fill="#C7C7C7"/>
<path d="M192.941 437.257H187.077V441.824H192.941V437.257Z" fill="#C7C7C7"/>
<path d="M192.941 447.007H187.077V451.575H192.941V447.007Z" fill="#C7C7C7"/>
<path d="M192.941 456.757H187.077V461.325H192.941V456.757Z" fill="#C7C7C7"/>
<path d="M192.941 466.496H187.077V471.064H192.941V466.496Z" fill="#C7C7C7"/>
<path d="M192.941 476.247H187.077V480.814H192.941V476.247Z" fill="#C7C7C7"/>
<path d="M201.384 417.756H195.521V422.324H201.384V417.756Z" fill="#C7C7C7"/>
<path d="M201.384 427.506H195.521V432.074H201.384V427.506Z" fill="#C7C7C7"/>
<path d="M201.384 437.257H195.521V441.824H201.384V437.257Z" fill="#C7C7C7"/>
<path d="M201.384 447.007H195.521V451.575H201.384V447.007Z" fill="#C7C7C7"/>
<path d="M201.384 456.757H195.521V461.325H201.384V456.757Z" fill="#C7C7C7"/>
<path d="M201.384 466.496H195.521V471.064H201.384V466.496Z" fill="#C7C7C7"/>
<path d="M201.384 476.247H195.521V480.814H201.384V476.247Z" fill="#C7C7C7"/>
<path d="M209.806 417.756H203.943V422.324H209.806V417.756Z" fill="#C7C7C7"/>
<path d="M209.806 427.506H203.943V432.074H209.806V427.506Z" fill="#C7C7C7"/>
<path d="M209.806 437.257H203.943V441.824H209.806V437.257Z" fill="#C7C7C7"/>
<path d="M209.806 447.007H203.943V451.575H209.806V447.007Z" fill="#C7C7C7"/>
<path d="M209.806 456.757H203.943V461.325H209.806V456.757Z" fill="#C7C7C7"/>
<path d="M209.806 466.496H203.943V471.064H209.806V466.496Z" fill="#C7C7C7"/>
<path d="M209.806 476.247H203.943V480.814H209.806V476.247Z" fill="#C7C7C7"/>
<path d="M238.288 411.311H215.021V485.799H238.288V411.311Z" fill="#A6A6A6"/>
<path d="M231.129 480.079H235.905V475.511H231.129V480.079Z" fill="#C7C7C7"/>
<path d="M231.129 470.339H235.905V465.772H231.129V470.339Z" fill="#C7C7C7"/>
<path d="M231.129 460.589H235.905V456.021H231.129V460.589Z" fill="#C7C7C7"/>
<path d="M231.129 450.85H235.905V446.282H231.129V450.85Z" fill="#C7C7C7"/>
<path d="M231.129 441.089H235.905V436.521H231.129V441.089Z" fill="#C7C7C7"/>
<path d="M231.129 431.338H235.905V426.771H231.129V431.338Z" fill="#C7C7C7"/>
<path d="M231.129 421.599H235.905V417.031H231.129V421.599Z" fill="#C7C7C7"/>
<path d="M224.256 480.079H229.032V475.511H224.256V480.079Z" fill="#C7C7C7"/>
<path d="M224.256 470.339H229.032V465.772H224.256V470.339Z" fill="#C7C7C7"/>
<path d="M224.256 460.589H229.032V456.021H224.256V460.589Z" fill="#C7C7C7"/>
<path d="M224.256 450.85H229.032V446.282H224.256V450.85Z" fill="#C7C7C7"/>
<path d="M224.256 441.089H229.032V436.521H224.256V441.089Z" fill="#C7C7C7"/>
<path d="M224.256 431.338H229.032V426.771H224.256V431.338Z" fill="#C7C7C7"/>
<path d="M224.256 421.599H229.032V417.031H224.256V421.599Z" fill="#C7C7C7"/>
<path d="M217.404 480.079H222.18V475.511H217.404V480.079Z" fill="#C7C7C7"/>
<path d="M217.404 470.339H222.18V465.772H217.404V470.339Z" fill="#C7C7C7"/>
<path d="M217.404 460.589H222.18V456.021H217.404V460.589Z" fill="#C7C7C7"/>
<path d="M217.404 450.85H222.18V446.282H217.404V450.85Z" fill="#C7C7C7"/>
<path d="M217.404 441.089H222.18V436.521H217.404V441.089Z" fill="#C7C7C7"/>
<path d="M217.404 431.338H222.18V426.771H217.404V431.338Z" fill="#C7C7C7"/>
<path d="M217.404 421.599H222.18V417.031H217.404V421.599Z" fill="#C7C7C7"/>
<path d="M461.72 325.865H438.816V352.93H461.72V325.865Z" fill="#DBDBDB"/>
<path d="M476.258 325.865H461.731V353.918H476.258V325.865Z" fill="#C7C7C7"/>
<path d="M477.224 337.822H462.807V353.929H477.224V337.822Z" fill="#DBDBDB"/>
<path d="M486.216 337.822H477.224V353.929H486.216V337.822Z" fill="#C7C7C7"/>
<path d="M467.078 351.173H430.032V485.799H467.078V351.173Z" fill="#EBEBEB"/>
<path d="M445.92 356.96H434.27V361.714H445.92V356.96Z" fill="white"/>
<path d="M460.82 356.96H449.17V361.714H460.82V356.96Z" fill="white"/>
<path d="M445.92 365.041H434.27V369.795H445.92V365.041Z" fill="white"/>
<path d="M460.82 365.041H449.17V369.795H460.82V365.041Z" fill="white"/>
<path d="M445.92 373.122H434.27V377.877H445.92V373.122Z" fill="white"/>
<path d="M460.82 373.122H449.17V377.877H460.82V373.122Z" fill="white"/>
<path d="M445.92 381.204H434.27V385.958H445.92V381.204Z" fill="white"/>
<path d="M460.82 381.204H449.17V385.958H460.82V381.204Z" fill="white"/>
<path d="M445.92 389.285H434.27V394.039H445.92V389.285Z" fill="white"/>
<path d="M460.82 389.285H449.17V394.039H460.82V389.285Z" fill="white"/>
<path d="M445.92 397.366H434.27V402.121H445.92V397.366Z" fill="white"/>
<path d="M460.82 397.366H449.17V402.121H460.82V397.366Z" fill="white"/>
<path d="M445.92 405.448H434.27V410.202H445.92V405.448Z" fill="white"/>
<path d="M460.82 405.448H449.17V410.202H460.82V405.448Z" fill="white"/>
<path d="M445.92 413.529H434.27V418.283H445.92V413.529Z" fill="white"/>
<path d="M460.82 413.529H449.17V418.283H460.82V413.529Z" fill="white"/>
<path d="M445.92 421.61H434.27V426.364H445.92V421.61Z" fill="white"/>
<path d="M460.82 421.61H449.17V426.364H460.82V421.61Z" fill="white"/>
<path d="M445.92 429.691H434.27V434.446H445.92V429.691Z" fill="white"/>
<path d="M460.82 429.691H449.17V434.446H460.82V429.691Z" fill="white"/>
<path d="M445.92 437.773H434.27V442.527H445.92V437.773Z" fill="white"/>
<path d="M460.82 437.773H449.17V442.527H460.82V437.773Z" fill="white"/>
<path d="M445.92 445.854H434.27V450.619H445.92V445.854Z" fill="white"/>
<path d="M460.82 445.854H449.17V450.619H460.82V445.854Z" fill="white"/>
<path d="M445.92 453.935H434.27V458.69H445.92V453.935Z" fill="white"/>
<path d="M460.82 453.935H449.17V458.69H460.82V453.935Z" fill="white"/>
<path d="M445.92 462.017H434.27V466.771H445.92V462.017Z" fill="white"/>
<path d="M460.82 462.017H449.17V466.771H460.82V462.017Z" fill="white"/>
<path d="M497.098 351.173H467.078V485.799H497.098V351.173Z" fill="#C7C7C7"/>
<path d="M484.526 466.771H494.089V462.016H484.526V466.771Z" fill="#EBEBEB"/>
<path d="M472.283 466.771H481.846V462.016H472.283V466.771Z" fill="#EBEBEB"/>
<path d="M484.526 458.689H494.089V453.935H484.526V458.689Z" fill="#EBEBEB"/>
<path d="M472.283 458.689H481.846V453.935H472.283V458.689Z" fill="#EBEBEB"/>
<path d="M484.526 450.608H494.089V445.843H484.526V450.608Z" fill="#EBEBEB"/>
<path d="M472.283 450.608H481.846V445.843H472.283V450.608Z" fill="#EBEBEB"/>
<path d="M484.526 442.527H494.089V437.773H484.526V442.527Z" fill="#EBEBEB"/>
<path d="M472.283 442.527H481.846V437.773H472.283V442.527Z" fill="#EBEBEB"/>
<path d="M484.526 434.446H494.089V429.691H484.526V434.446Z" fill="#EBEBEB"/>
<path d="M472.283 434.446H481.846V429.691H472.283V434.446Z" fill="#EBEBEB"/>
<path d="M484.526 426.365H494.089V421.61H484.526V426.365Z" fill="#EBEBEB"/>
<path d="M472.283 426.365H481.846V421.61H472.283V426.365Z" fill="#EBEBEB"/>
<path d="M484.526 418.283H494.089V413.529H484.526V418.283Z" fill="#EBEBEB"/>
<path d="M472.283 418.283H481.846V413.529H472.283V418.283Z" fill="#EBEBEB"/>
<path d="M484.526 410.202H494.089V405.448H484.526V410.202Z" fill="#EBEBEB"/>
<path d="M472.283 410.202H481.846V405.448H472.283V410.202Z" fill="#EBEBEB"/>
<path d="M484.526 402.121H494.089V397.366H484.526V402.121Z" fill="#EBEBEB"/>
<path d="M472.283 402.121H481.846V397.366H472.283V402.121Z" fill="#EBEBEB"/>
<path d="M484.526 394.039H494.089V389.285H484.526V394.039Z" fill="#EBEBEB"/>
<path d="M472.283 394.039H481.846V389.285H472.283V394.039Z" fill="#EBEBEB"/>
<path d="M484.526 385.958H494.089V381.204H484.526V385.958Z" fill="#EBEBEB"/>
<path d="M472.283 385.958H481.846V381.204H472.283V385.958Z" fill="#EBEBEB"/>
<path d="M484.526 377.877H494.089V373.122H484.526V377.877Z" fill="#EBEBEB"/>
<path d="M472.283 377.877H481.846V373.122H472.283V377.877Z" fill="#EBEBEB"/>
<path d="M484.526 369.795H494.089V365.041H484.526V369.795Z" fill="#EBEBEB"/>
<path d="M472.283 369.795H481.846V365.041H472.283V369.795Z" fill="#EBEBEB"/>
<path d="M484.526 361.725H494.089V356.971H484.526V361.725Z" fill="#EBEBEB"/>
<path d="M472.283 361.725H481.846V356.971H472.283V361.725Z" fill="#EBEBEB"/>
<path d="M310.339 398.08H266.649V485.81H310.339V398.08Z" fill="#C7C7C7"/>
<path d="M281.253 405.667H273.523V411.036H281.253V405.667Z" fill="#DBDBDB"/>
<path d="M281.253 417.152H273.523V422.533H281.253V417.152Z" fill="#DBDBDB"/>
<path d="M281.253 428.626H273.523V434.006H281.253V428.626Z" fill="#DBDBDB"/>
<path d="M281.253 440.111H273.523V445.492H281.253V440.111Z" fill="#DBDBDB"/>
<path d="M281.253 451.585H273.523V456.966H281.253V451.585Z" fill="#DBDBDB"/>
<path d="M281.253 463.071H273.523V468.451H281.253V463.071Z" fill="#DBDBDB"/>
<path d="M281.253 474.545H273.523V479.925H281.253V474.545Z" fill="#DBDBDB"/>
<path d="M292.375 405.667H284.646V411.036H292.375V405.667Z" fill="#DBDBDB"/>
<path d="M292.375 417.152H284.646V422.533H292.375V417.152Z" fill="#DBDBDB"/>
<path d="M292.375 428.626H284.646V434.006H292.375V428.626Z" fill="#DBDBDB"/>
<path d="M292.375 440.111H284.646V445.492H292.375V440.111Z" fill="#DBDBDB"/>
<path d="M292.375 451.585H284.646V456.966H292.375V451.585Z" fill="#DBDBDB"/>
<path d="M292.375 463.071H284.646V468.451H292.375V463.071Z" fill="#DBDBDB"/>
<path d="M292.375 474.545H284.646V479.925H292.375V474.545Z" fill="#DBDBDB"/>
<path d="M303.465 405.667H295.735V411.036H303.465V405.667Z" fill="#DBDBDB"/>
<path d="M303.465 417.152H295.735V422.533H303.465V417.152Z" fill="#DBDBDB"/>
<path d="M303.465 428.626H295.735V434.006H303.465V428.626Z" fill="#DBDBDB"/>
<path d="M303.465 440.111H295.735V445.492H303.465V440.111Z" fill="#DBDBDB"/>
<path d="M303.465 451.585H295.735V456.966H303.465V451.585Z" fill="#DBDBDB"/>
<path d="M303.465 463.071H295.735V468.451H303.465V463.071Z" fill="#DBDBDB"/>
<path d="M303.465 474.545H295.735V479.925H303.465V474.545Z" fill="#DBDBDB"/>
<path d="M310.339 388.934H281.253V398.069H310.339V388.934Z" fill="#DBDBDB"/>
<path d="M310.35 383.279H291.903V388.934H310.35V383.279Z" fill="#EBEBEB"/>
<path d="M340.995 398.08H310.339V485.81H340.995V398.08Z" fill="#A6A6A6"/>
<path d="M331.574 479.068H337.866V473.688H331.574V479.068Z" fill="#C7C7C7"/>
<path d="M331.574 467.583H337.866V462.203H331.574V467.583Z" fill="#C7C7C7"/>
<path d="M331.574 456.109H337.866V450.729H331.574V456.109Z" fill="#C7C7C7"/>
<path d="M331.574 444.624H337.866V439.244H331.574V444.624Z" fill="#C7C7C7"/>
<path d="M331.574 433.15H337.866V427.77H331.574V433.15Z" fill="#C7C7C7"/>
<path d="M331.574 421.665H337.866V416.285H331.574V421.665Z" fill="#C7C7C7"/>
<path d="M331.574 410.191H337.866V404.811H331.574V410.191Z" fill="#C7C7C7"/>
<path d="M322.516 479.068H328.807V473.688H322.516V479.068Z" fill="#C7C7C7"/>
<path d="M322.516 467.583H328.807V462.203H322.516V467.583Z" fill="#C7C7C7"/>
<path d="M322.516 456.109H328.807V450.729H322.516V456.109Z" fill="#C7C7C7"/>
<path d="M322.516 444.624H328.807V439.244H322.516V444.624Z" fill="#C7C7C7"/>
<path d="M322.516 433.15H328.807V427.77H322.516V433.15Z" fill="#C7C7C7"/>
<path d="M322.516 421.665H328.807V416.285H322.516V421.665Z" fill="#C7C7C7"/>
<path d="M322.516 410.191H328.807V404.811H322.516V410.191Z" fill="#C7C7C7"/>
<path d="M313.49 479.068H319.781V473.688H313.49V479.068Z" fill="#C7C7C7"/>
<path d="M313.49 467.583H319.781V462.203H313.49V467.583Z" fill="#C7C7C7"/>
<path d="M313.49 456.109H319.781V450.729H313.49V456.109Z" fill="#C7C7C7"/>
<path d="M313.49 444.624H319.781V439.244H313.49V444.624Z" fill="#C7C7C7"/>
<path d="M313.49 433.15H319.781V427.77H313.49V433.15Z" fill="#C7C7C7"/>
<path d="M313.49 421.665H319.781V416.285H313.49V421.665Z" fill="#C7C7C7"/>
<path d="M313.49 410.191H319.781V404.811H313.49V410.191Z" fill="#C7C7C7"/>
<path d="M336.35 388.934H310.339V398.069H336.35V388.934Z" fill="#C7C7C7"/>
<path d="M324.437 383.279H310.339V388.934H324.437V383.279Z" fill="#DBDBDB"/>
<path d="M505.058 492.771L447.424 493.035L389.779 493.134L274.5 493.32L159.221 493.134L101.587 493.035L43.942 492.771L101.587 492.497L159.221 492.409L274.5 492.222L389.779 492.409L447.424 492.508L505.058 492.771Z" fill="#263238"/>
<path d="M505.058 485.799H43.942V492.486H505.058V485.799Z" fill="#C7C7C7"/>
<path d="M76.2671 485.799C76.6518 486.873 76.8379 488.008 76.8161 489.148C76.8378 490.27 76.6517 491.387 76.2671 492.442C75.535 490.273 75.535 487.924 76.2671 485.755V485.799Z" fill="#263238"/>
<path d="M112.315 485.799C113.047 487.968 113.047 490.317 112.315 492.486C111.93 491.431 111.744 490.314 111.766 489.192C111.738 488.037 111.925 486.887 112.315 485.799Z" fill="#263238"/>
<path d="M148.351 485.799C148.736 486.873 148.922 488.008 148.9 489.148C148.922 490.27 148.735 491.387 148.351 492.442C147.619 490.273 147.619 487.924 148.351 485.755V485.799Z" fill="#263238"/>
<path d="M184.398 485.799C185.13 487.968 185.13 490.317 184.398 492.486C184.014 491.431 183.827 490.314 183.849 489.192C183.822 488.037 184.008 486.887 184.398 485.799Z" fill="#263238"/>
<path d="M220.434 485.799C220.819 486.873 221.005 488.008 220.983 489.148C221.005 490.27 220.819 491.387 220.434 492.442C219.702 490.273 219.702 487.924 220.434 485.755V485.799Z" fill="#263238"/>
<path d="M256.482 485.799C257.214 487.968 257.214 490.317 256.482 492.486C256.097 491.431 255.911 490.314 255.933 489.192C255.906 488.037 256.092 486.887 256.482 485.799Z" fill="#263238"/>
<path d="M292.518 485.799C292.903 486.873 293.089 488.008 293.067 489.148C293.089 490.27 292.903 491.387 292.518 492.442C291.786 490.273 291.786 487.924 292.518 485.755V485.799Z" fill="#263238"/>
<path d="M328.566 485.799C329.298 487.968 329.298 490.317 328.566 492.486C328.181 491.431 327.995 490.314 328.017 489.192C327.99 488.037 328.176 486.887 328.566 485.799Z" fill="#263238"/>
<path d="M364.602 485.799C364.987 486.873 365.173 488.008 365.151 489.148C365.173 490.27 364.987 491.387 364.602 492.442C363.87 490.273 363.87 487.924 364.602 485.755V485.799Z" fill="#263238"/>
<path d="M400.649 485.799C401.381 487.968 401.381 490.317 400.649 492.486C400.265 491.431 400.079 490.314 400.1 489.192C400.073 488.037 400.259 486.887 400.649 485.799Z" fill="#263238"/>
<path d="M436.686 485.799C437.07 486.873 437.256 488.008 437.235 489.148C437.256 490.27 437.07 491.387 436.686 492.442C435.953 490.273 435.953 487.924 436.686 485.755V485.799Z" fill="#263238"/>
<path d="M472.733 485.799C473.465 487.968 473.465 490.317 472.733 492.486C472.348 491.431 472.162 490.314 472.184 489.192C472.157 488.037 472.343 486.887 472.733 485.799Z" fill="#263238"/>
<path d="M421.907 64.9686L421.643 64.1891C422.335 63.9475 423.038 63.7279 423.74 63.5083L423.982 64.2879L421.907 64.9686Z" fill="#263238"/>
<path d="M317.816 153.72L317.641 152.907C319.09 152.611 320.528 152.249 321.923 151.809L322.142 152.6C320.737 153.05 319.277 153.412 317.816 153.72ZM327.424 150.854L327.127 150.086C328.478 149.559 329.839 148.988 331.157 148.329L331.508 149.075C330.169 149.723 328.796 150.316 327.424 150.854ZM336.416 146.462L335.988 145.759C337.229 145.013 338.47 144.2 339.677 143.355L340.15 144.025C338.92 144.848 337.668 145.661 336.416 146.418V146.462ZM344.574 140.643L344.047 140.006C345.145 139.095 346.243 138.106 347.341 137.085L347.901 137.689C346.814 138.677 345.694 139.666 344.574 140.599V140.643ZM351.898 133.769L351.294 133.198C352.282 132.177 353.282 131.079 354.292 129.904L354.907 130.453C353.896 131.584 352.886 132.693 351.898 133.725V133.769ZM358.486 126.237L357.849 125.71C358.783 124.612 359.694 123.415 360.605 122.24L361.253 122.745C360.353 123.887 359.434 125.037 358.497 126.193L358.486 126.237ZM364.613 118.309L363.954 117.826L366.589 114.247L367.248 114.73L364.613 118.309ZM370.509 110.228L369.839 109.745L372.464 106.144L373.122 106.627L370.509 110.228ZM376.427 102.114L375.769 101.62C376.658 100.434 377.558 99.2481 378.47 98.0733L379.118 98.5784C378.206 99.7532 377.317 100.928 376.427 102.114ZM382.565 94.2413L381.928 93.7142C382.873 92.6162 383.828 91.4304 384.805 90.3104L385.42 90.8484C384.454 91.9684 383.499 93.0994 382.565 94.2413ZM389.153 86.7419L388.549 86.1819C389.592 85.0839 390.647 83.9859 391.679 82.9977L392.261 83.5907C391.217 84.5459 390.163 85.6439 389.142 86.7419H389.153ZM396.323 79.8465L395.785 79.2206C396.883 78.2324 398.08 77.2772 399.222 76.3878L399.738 77.0356C398.574 77.9579 397.476 78.8583 396.312 79.8465H396.323ZM404.196 73.7855L403.735 73.1048C404.964 72.2703 406.227 71.4578 407.49 70.7111L407.918 71.4139C406.655 72.1605 405.404 72.962 404.185 73.7855H404.196ZM412.749 68.7787L412.387 68.043C413.705 67.3842 415.077 66.7583 416.439 66.1764L416.757 66.934C415.395 67.505 414.056 68.1308 412.738 68.7787H412.749Z" fill="#263238"/>
<path d="M310.02 154.884L309.943 154.06C310.675 153.995 311.407 153.918 312.139 153.83L312.238 154.642L310.02 154.884Z" fill="#263238"/>
<path d="M432.272 49.9809L423.861 63.9036L437.081 57.2058L484.02 49.948L432.272 49.9809Z" fill="#9747FF"/>
<path opacity="0.1" d="M432.272 49.9809L423.861 63.9036L437.081 57.2058L484.02 49.948L432.272 49.9809Z" fill="black"/>
<path d="M437.871 60.9938L423.861 63.9035L437.081 57.2057L437.871 60.9938Z" fill="#263238"/>
<path d="M437.081 57.2058L484.02 49.948L441.176 77.936L437.081 57.2058Z" fill="#9747FF"/>
<path d="M432.272 49.9809L416.384 34.6418L484.02 49.948L432.272 49.9809Z" fill="#9747FF"/>
<path d="M170.563 167.774H156.41V485.81H170.563V167.774Z" fill="#37474F"/>
<path d="M170.574 485.799H178.249L178.249 167.764H170.574L170.574 485.799Z" fill="#455A64"/>
<path d="M170.563 163.767H155.104V167.764H170.563V163.767Z" fill="#263238"/>
<path d="M170.563 167.774H179.578V163.778H170.563V167.774Z" fill="#37474F"/>
<path d="M170.563 160.231H158.222V163.778H170.563V160.231Z" fill="#37474F"/>
<path d="M176.734 160.231H170.563V163.778H176.734V160.231Z" fill="#455A64"/>
<path d="M175.515 152.249C175.513 153.827 175.043 155.369 174.165 156.681C173.286 157.992 172.039 159.013 170.58 159.616C169.121 160.218 167.517 160.375 165.969 160.066C164.421 159.756 163 158.995 161.885 157.878C160.769 156.762 160.01 155.339 159.703 153.791C159.396 152.243 159.555 150.639 160.159 149.181C160.764 147.723 161.787 146.477 163.099 145.6C164.412 144.723 165.955 144.255 167.533 144.255C168.582 144.255 169.621 144.462 170.59 144.864C171.559 145.266 172.44 145.855 173.181 146.597C173.923 147.34 174.51 148.221 174.911 149.191C175.311 150.16 175.517 151.2 175.515 152.249Z" fill="#37474F"/>
<path d="M109.712 195.268V229.306H73.028V195.587C73.0265 193.218 73.4918 190.873 74.3972 188.684C75.3026 186.495 76.6304 184.506 78.3047 182.831C79.979 181.156 81.967 179.827 84.1551 178.92C86.3432 178.013 88.6886 177.547 91.0571 177.547H91.9904C96.6905 177.547 101.198 179.414 104.522 182.737C107.845 186.061 109.712 190.568 109.712 195.268Z" fill="#9747FF"/>
<path d="M167.533 192.501V229.339H109.712V195.301C109.717 192.971 109.261 190.663 108.373 188.509C107.484 186.355 106.179 184.398 104.533 182.749C102.887 181.1 100.932 179.791 98.7799 178.899C96.6277 178.006 94.3205 177.547 91.9905 177.547H152.622C156.581 177.558 160.373 179.139 163.168 181.942C165.963 184.746 167.533 188.543 167.533 192.501Z" fill="#9747FF"/>
<path opacity="0.1" d="M167.533 192.501V229.339H109.712V195.301C109.717 192.971 109.261 190.663 108.373 188.509C107.484 186.355 106.179 184.398 104.533 182.749C102.887 181.1 100.932 179.791 98.7799 178.899C96.6277 178.006 94.3205 177.547 91.9905 177.547H152.622C156.581 177.558 160.373 179.139 163.168 181.942C165.963 184.746 167.533 188.543 167.533 192.501Z" fill="#020100"/>
<path opacity="0.1" d="M119.748 194.61V229.339H117.387V195.301C117.392 192.972 116.937 190.665 116.049 188.512C115.161 186.359 113.857 184.402 112.212 182.753C110.567 181.104 108.614 179.795 106.463 178.902C104.312 178.009 102.006 177.548 99.6765 177.547H102.685C107.21 177.547 111.55 179.344 114.75 182.544C117.95 185.744 119.748 190.084 119.748 194.61Z" fill="#020100"/>
<path opacity="0.1" d="M162.164 194.61V229.339H159.803V195.301C159.803 190.603 157.937 186.097 154.616 182.774C151.295 179.451 146.79 177.583 142.092 177.58H145.101C149.62 177.58 153.955 179.373 157.154 182.566C160.353 185.758 162.155 190.09 162.164 194.61Z" fill="#020100"/>
<g opacity="0.1">
<path d="M132.583 220.204V214.714L130.596 218.711H129.498L127.511 214.714V220.204H125.381V211.025H127.686L130.069 215.812L132.452 211.025H134.747V220.204H132.583Z" fill="#020100"/>
<path d="M138.952 211.025H140.873L144.167 220.204H141.971L141.258 218.14H138.403L137.7 220.204H135.504L138.952 211.025ZM140.983 216.679L139.885 213.385L138.787 216.679H140.983Z" fill="#020100"/>
<path d="M145.123 220.204V211.025H147.242V220.204H145.123Z" fill="#020100"/>
<path d="M148.999 220.204V211.025H151.118V218.337H155.565V220.204H148.999Z" fill="#020100"/>
</g>
<path opacity="0.3" d="M107.835 196.103V226.693H74.8947V196.388C74.8946 194.258 75.315 192.148 76.1317 190.181C76.9483 188.213 78.1452 186.425 79.6537 184.921C81.1623 183.416 82.9528 182.224 84.9228 181.413C86.8928 180.602 89.0036 180.187 91.1341 180.193H91.9686C96.1805 180.205 100.216 181.886 103.19 184.868C106.164 187.851 107.835 191.891 107.835 196.103Z" fill="#020100"/>
<path d="M68.9544 232.776L73.028 229.372H109.712L106.023 232.458C94.1535 242.417 77.9141 250.498 67.9552 250.498H65.5616C55.7784 250.465 54.362 244.009 68.9544 232.776Z" fill="#37474F"/>
<path d="M109.701 229.339L106.023 232.425C94.1535 242.384 77.9141 250.465 67.9552 250.465H65.353C55.7565 250.366 54.4608 243.877 68.9544 232.743L73.017 229.339H109.701Z" fill="#37474F"/>
<path d="M106.989 229.339L103.311 232.425C91.4854 242.307 75.3228 250.399 65.353 250.465C55.7565 250.366 54.4608 243.877 68.9544 232.743L73.017 229.339H106.989Z" fill="#455A64"/>
<path d="M161.856 244.448V253.814L142.389 229.339H149.844L161.856 244.448Z" fill="#455A64"/>
<path d="M161.856 253.814H159.111L139.644 229.339H142.4L161.856 253.814Z" fill="#37474F"/>
<path d="M131.76 161.703V170.377H123.822V202.954C123.822 203.682 123.532 204.381 123.018 204.895C122.503 205.41 121.805 205.699 121.077 205.699C120.349 205.699 119.65 205.41 119.136 204.895C118.621 204.381 118.332 203.682 118.332 202.954V159.529L123.822 160.418L131.76 161.703Z" fill="#455A64"/>
<path d="M131.76 161.703V170.377H123.822V202.954C123.819 203.585 123.599 204.196 123.2 204.684C122.8 205.172 122.244 205.507 121.626 205.634C121.438 205.678 121.247 205.7 121.055 205.699C120.901 205.717 120.747 205.717 120.593 205.699C120.031 205.613 119.511 205.347 119.111 204.942C118.599 204.425 118.311 203.726 118.31 202.998V159.529L123.8 160.418L131.76 161.703Z" fill="#455A64"/>
<path d="M121.044 205.699H118.902C118.302 205.706 117.723 205.482 117.283 205.073C116.844 204.665 116.578 204.102 116.542 203.503V159.529H118.299V202.954C118.3 203.683 118.588 204.381 119.1 204.898C119.639 205.376 120.324 205.658 121.044 205.699Z" fill="#37474F"/>
<path d="M107.835 196.103V217.613L102.345 215.318L99.1384 213.967L97.722 213.374L96.7997 212.979L95.8225 212.573L95.526 212.452L95.1417 212.287L87.0824 208.884L88.7843 204.832L89.1137 204.063L90.574 200.616L91.156 199.21L91.3975 198.661L92.4077 196.246L93.5057 193.523L97.8977 183.026L103.651 185.452C105.354 187.329 106.578 189.589 107.22 192.04C107.6 193.362 107.806 194.728 107.835 196.103Z" fill="#EBEBEB"/>
<path d="M107.835 201.703V204.096L107.703 203.822V203.701L107.604 203.492C107.563 203.425 107.526 203.355 107.494 203.284L106.188 200.594C106.188 200.484 106.078 200.374 106.023 200.253L104.87 197.838C104.628 197.355 104.398 196.871 104.167 196.377L104.101 196.224L102.356 192.545C101.927 191.612 101.488 190.679 101.06 189.734C100.05 187.538 99.0066 185.277 98.0294 183.004C99.2153 185.101 100.324 187.231 101.477 189.35C102.026 190.448 102.575 191.425 103.124 192.468L104.859 195.762L105.09 196.213L105.825 197.64L106.726 199.408C106.726 199.496 106.824 199.583 106.868 199.671L107.835 201.703Z" fill="#DBDBDB"/>
<path d="M107.835 203.679V203.778H107.703L107.373 203.877C105.979 204.305 104.585 204.689 103.179 205.052L102.718 205.161L101.697 205.414H101.576L100.368 205.699L98.0075 206.227C96.3385 206.578 94.7135 206.907 92.9896 207.193H92.792L91.7709 207.357C90.3544 207.599 88.938 207.797 87.5106 207.95C88.7404 207.544 89.9701 207.193 91.2109 206.852L92.3089 206.567L92.6493 206.468C94.3621 206.029 96.097 205.645 97.8208 205.26L99.369 204.931C99.8302 204.854 100.28 204.755 100.742 204.667C101.203 204.58 101.84 204.448 102.41 204.36L103.047 204.25L103.399 204.184C104.672 203.965 105.957 203.767 107.264 203.613H107.659L107.835 203.679Z" fill="#DBDBDB"/>
<path d="M107.846 198.233H79.4293V226.298H107.846V198.233Z" fill="white"/>
<path d="M107.835 211.189V212.562L107.571 212.792L107.066 213.243C107.005 213.291 106.946 213.342 106.89 213.396L106.737 213.539L106.627 213.638L102.378 217.327L101.796 217.821L101.543 218.03L101.29 217.821L99.1604 215.966L98.0624 215.054C97.8428 214.857 97.6122 214.67 97.3926 214.461C97.334 214.427 97.282 214.382 97.2389 214.33L96.4703 213.671L96.3715 213.583L96.1958 213.429L96.0201 213.287C94.5561 212.049 93.136 210.798 91.7599 209.531L91.1889 209.026L90.2776 208.214L88.7623 206.863C87.6643 205.919 86.6432 204.964 85.6001 203.997L85.2268 203.668L84.8205 203.306C83.0198 201.626 81.1971 200.012 79.4183 198.277C81.3179 199.737 83.1845 201.285 85.0621 202.779C85.2048 202.899 85.3585 203.009 85.5013 203.141L85.9734 203.525L89.0917 206.084L90.6728 207.39L92.2869 208.741L92.9786 209.323C94.2816 210.413 95.5809 211.511 96.8765 212.617L97.162 212.858L97.9196 213.506L98.26 213.792L98.8969 214.341L101.521 216.537C103.058 215.219 104.606 213.89 106.155 212.584L106.616 212.189C106.912 211.936 107.198 211.683 107.505 211.442L107.835 211.189Z" fill="#DBDBDB"/>
<path d="M96.9644 213.21L96.2616 213.803C95.1636 214.736 94.0656 215.636 92.8578 216.504C91.4524 217.602 90.014 218.612 88.5647 219.633C87.1153 220.654 85.644 221.631 84.1727 222.587C82.7013 223.542 81.1641 224.486 79.605 225.343C80.9445 224.168 82.35 223.07 83.7554 221.994C85.1609 220.918 86.6102 219.886 88.0486 218.864C89.487 217.843 90.9803 216.855 92.4406 215.9C93.6264 215.142 94.8342 214.385 96.075 213.704L96.9424 213.221L96.9644 213.21Z" fill="#DBDBDB"/>
<path d="M107.835 214.187V214.648L106.89 213.858L106.627 213.638L106.188 213.265H106.264L106.792 213.561L107.121 213.759L107.835 214.187Z" fill="#DBDBDB"/>
<path d="M208.499 367.83C208.499 367.83 173.693 397.333 173.66 397.344C166.973 402.955 161.208 407.995 158.474 410.872C157.766 411.469 157.203 412.22 156.827 413.068C156.827 413.068 156.827 413.123 156.827 413.145C157.146 416.263 200.396 471.009 202.548 472.437C204.7 473.864 208.862 467.825 208.873 464.355C208.884 460.886 201.703 432.513 201.703 432.513L236.213 402.692L208.499 367.83Z" fill="#EB9481"/>
<path d="M180.808 391.272C180.808 391.272 173.693 397.311 173.66 397.322C166.973 402.933 161.208 407.973 158.474 410.85C157.841 411.514 157.288 412.251 156.827 413.046C156.827 413.046 156.827 413.1 156.827 413.122C157.146 416.241 200.396 470.987 202.548 472.414C204.7 473.842 208.862 467.803 208.873 464.333C208.884 460.863 201.703 432.491 201.703 432.491L209.037 426.441L180.808 391.272Z" fill="#EBEBEB"/>
<path d="M202.493 472.459C200.297 471.064 157.091 416.318 156.772 413.167C156.63 411.97 164.239 405.206 173.66 397.3L173.967 397.048L202.252 432.052L201.648 432.513C201.648 432.513 208.829 460.875 208.818 464.355C208.807 467.836 204.634 473.875 202.493 472.459Z" fill="#9747FF"/>
<path d="M204.118 470.164C197.058 460.765 167.687 423.488 159.99 414.726C159.924 414.66 159.869 414.726 159.935 414.726C166.731 424.201 196.399 461.237 203.976 470.24C204.129 470.471 204.228 470.361 204.118 470.164Z" fill="#263238"/>
<path d="M203.888 435.598C201.692 431.437 197.629 427.429 192.853 426.705C192.666 426.705 192.622 426.935 192.754 427.023C196.616 429.61 200.19 432.603 203.416 435.95C203.465 436.002 203.533 436.034 203.605 436.041C203.677 436.047 203.749 436.026 203.807 435.983C203.865 435.94 203.905 435.877 203.92 435.806C203.935 435.735 203.923 435.661 203.888 435.598Z" fill="#263238"/>
<path d="M204.371 439.464C202.175 435.302 198.112 431.305 193.391 430.57C193.204 430.57 193.171 430.8 193.303 430.888C197.161 433.475 200.732 436.468 203.954 439.815C204.005 439.841 204.064 439.852 204.122 439.845C204.179 439.838 204.234 439.815 204.278 439.777C204.323 439.74 204.355 439.69 204.372 439.634C204.388 439.579 204.388 439.519 204.371 439.464Z" fill="#263238"/>
<path d="M204.865 443.339C202.669 439.167 198.606 435.17 193.83 434.435C193.643 434.435 193.61 434.676 193.742 434.764C197.6 437.347 201.171 440.336 204.393 443.68C204.443 443.727 204.508 443.755 204.577 443.76C204.645 443.764 204.713 443.744 204.769 443.704C204.825 443.664 204.865 443.606 204.882 443.539C204.9 443.472 204.894 443.402 204.865 443.339Z" fill="#263238"/>
<path d="M226.891 333.188C224.695 345.661 174.318 396.4 174.318 396.4L211.189 437.026C211.189 437.026 282.559 362.362 278.167 335C274.291 311.217 236.334 216.108 236.334 216.108L195.126 217.075C195.126 217.075 229.076 320.923 226.891 333.188Z" fill="#37474F"/>
<path d="M215.043 427.056C210.135 421.226 211.629 422.829 206.655 417.053C204.217 414.231 188.208 395.686 185.474 393.446C185.408 393.446 185.309 393.446 185.353 393.556C187.22 396.554 203.558 414.813 206.04 417.591C211.123 423.268 209.729 421.588 214.824 427.199C214.833 427.213 214.845 427.226 214.859 427.235C214.874 427.245 214.89 427.252 214.906 427.256C214.923 427.259 214.941 427.259 214.957 427.256C214.974 427.253 214.99 427.247 215.005 427.237C215.019 427.228 215.032 427.216 215.042 427.202C215.051 427.187 215.058 427.171 215.062 427.155C215.065 427.138 215.065 427.12 215.062 427.104C215.059 427.087 215.053 427.071 215.043 427.056Z" fill="#263238"/>
<path d="M233.874 328.939C233.215 325.853 232.469 322.779 231.744 319.715C230.28 313.45 228.717 307.198 227.055 300.962C223.791 288.598 220.273 276.312 216.504 264.102C212.705 251.859 208.708 239.627 204.151 227.637C203.58 226.155 202.998 224.684 202.427 223.245C202.419 223.22 202.4 223.2 202.377 223.189C202.353 223.178 202.326 223.176 202.301 223.185C202.276 223.194 202.256 223.212 202.245 223.235C202.233 223.259 202.232 223.286 202.241 223.311C206.226 235.334 210.333 247.324 214.088 259.424C217.843 271.524 221.313 283.58 224.618 295.779C226.276 301.895 227.824 308.033 229.35 314.182C230.082 317.205 230.814 320.232 231.546 323.262C232.423 326.328 233.073 329.455 233.49 332.617C233.672 335.621 232.903 338.606 231.294 341.148C229.811 343.707 228 346.133 226.353 348.549C222.938 353.413 190.272 391.569 189.218 392.601C189.131 392.689 189.218 392.809 189.35 392.722C193.742 388.582 221.5 357.113 225.002 352.26C226.726 349.867 228.417 347.429 230.075 344.98C231.731 342.747 233.052 340.284 233.995 337.668C234.715 334.797 234.674 331.788 233.874 328.939Z" fill="#263238"/>
<path d="M227.857 216.306L226.309 325.59C221.675 298.316 195.126 217.075 195.126 217.075L227.857 216.306Z" fill="#263238"/>
<path d="M216.24 418.81C216.24 418.81 226.122 461.918 226.122 461.94C226.441 470.724 226.88 478.3 227.484 482.231C227.478 482.252 227.478 482.275 227.484 482.296C227.52 483.231 227.772 484.144 228.219 484.965L228.274 485.019C230.931 486.688 300.742 486.117 303.125 485.305C305.508 484.492 303.355 477.476 300.632 475.346C297.909 473.216 271.096 461.467 271.096 461.467L260.753 418.393L216.24 418.81Z" fill="#EB9481"/>
<path d="M303.158 485.316C300.731 486.161 230.964 486.71 228.307 485.041L228.252 484.986C227.798 484.169 227.545 483.254 227.517 482.318C227.512 482.308 227.509 482.297 227.509 482.285C227.509 482.274 227.512 482.263 227.517 482.252C226.924 478.322 226.496 470.69 226.166 461.972L224.453 454.462L269.208 453.419L271.14 461.478C271.14 461.478 297.942 473.227 300.687 475.368C303.432 477.509 305.595 484.47 303.158 485.316Z" fill="#EBEBEB"/>
<path d="M303.158 485.316C300.731 486.15 230.975 486.699 228.307 485.03C227.275 484.416 226.605 474.259 226.111 461.972C226.111 461.852 226.111 461.72 226.111 461.588L271.129 460.743V461.5C271.129 461.5 297.92 473.238 300.665 475.379C303.41 477.52 305.584 484.47 303.158 485.316Z" fill="#9747FF"/>
<path d="M302.345 482.604C290.586 482.406 243.13 482.725 231.491 483.416C231.393 483.416 231.393 483.493 231.491 483.493C243.141 483.944 290.597 483.241 302.345 482.802C302.598 482.791 302.598 482.604 302.345 482.604Z" fill="#263238"/>
<path d="M274.906 461.577C270.273 460.743 264.618 461.5 261.115 464.871C260.973 465.003 261.115 465.19 261.313 465.146C265.721 463.677 270.275 462.691 274.895 462.203C274.936 462.204 274.977 462.196 275.016 462.181C275.054 462.166 275.089 462.144 275.118 462.115C275.148 462.087 275.171 462.053 275.188 462.015C275.204 461.977 275.213 461.937 275.214 461.896C275.214 461.855 275.207 461.814 275.192 461.776C275.177 461.737 275.155 461.702 275.126 461.673C275.097 461.643 275.063 461.62 275.026 461.603C274.988 461.587 274.947 461.578 274.906 461.577Z" fill="#263238"/>
<path d="M278.266 463.565C273.633 462.73 267.978 463.488 264.464 466.859C264.333 466.99 264.464 467.177 264.662 467.133C269.074 465.666 273.631 464.679 278.255 464.19C278.296 464.191 278.337 464.184 278.375 464.169C278.414 464.154 278.448 464.131 278.478 464.103C278.508 464.074 278.531 464.04 278.548 464.002C278.564 463.965 278.573 463.924 278.574 463.883C278.574 463.842 278.567 463.801 278.552 463.763C278.537 463.725 278.514 463.69 278.486 463.66C278.457 463.631 278.423 463.607 278.385 463.59C278.348 463.574 278.307 463.565 278.266 463.565Z" fill="#263238"/>
<path d="M281.615 465.552C276.982 464.717 271.327 465.475 267.824 468.846C267.681 468.978 267.824 469.164 268.022 469.12C272.43 467.653 276.984 466.666 281.604 466.178C281.687 466.179 281.767 466.148 281.827 466.09C281.887 466.032 281.921 465.953 281.923 465.87C281.924 465.787 281.892 465.707 281.835 465.647C281.777 465.588 281.698 465.553 281.615 465.552Z" fill="#263238"/>
<path d="M232.348 216.185C232.348 217.053 228.999 252.419 227.879 253.418C226.759 254.418 219.468 259.534 217.305 260.929C217.305 260.929 238.497 321.999 244.206 342.389C252.496 371.958 272.754 460.765 272.754 460.765L224.277 461.863C224.277 461.863 207.555 377.262 200.451 349.098C194.368 324.942 171.508 252.617 171.508 252.617C168.457 241.084 168.765 228.92 172.397 217.558C172.397 217.558 232.359 216.152 232.348 216.185Z" fill="#37474F"/>
<path d="M270.8 451.377C263.18 451.508 265.365 451.377 257.745 451.585C254.022 451.695 229.526 452.431 226.067 453.145C225.99 453.145 226.001 453.287 226.067 453.298C229.57 453.737 254.044 452.574 257.767 452.398C265.376 452.025 263.191 452.047 270.8 451.596C270.829 451.596 270.857 451.585 270.877 451.564C270.898 451.544 270.91 451.516 270.91 451.487C270.91 451.457 270.898 451.429 270.877 451.409C270.857 451.388 270.829 451.377 270.8 451.377Z" fill="#263238"/>
<path d="M229.987 251.585C225.333 254.284 220.924 257.384 216.811 260.852C216.793 260.864 216.778 260.88 216.766 260.898C216.754 260.916 216.746 260.937 216.741 260.958C216.737 260.979 216.738 261.001 216.742 261.023C216.746 261.044 216.755 261.064 216.767 261.082C216.78 261.1 216.795 261.116 216.813 261.128C216.832 261.14 216.852 261.148 216.873 261.152C216.895 261.156 216.917 261.156 216.938 261.152C216.96 261.147 216.98 261.139 216.998 261.126C221.456 258.173 226.034 255.307 230.339 252.123C230.391 252.069 230.423 251.999 230.43 251.925C230.437 251.85 230.419 251.776 230.378 251.713C230.337 251.651 230.276 251.604 230.205 251.58C230.134 251.557 230.057 251.559 229.987 251.585Z" fill="#263238"/>
<path d="M225.496 218.184C225.496 218.019 225.156 218.041 225.189 218.184C226.162 223.595 226.862 229.051 227.286 234.533C227.506 237.058 227.967 251.189 223.476 251.003C222.718 251.003 222.224 250.322 221.906 249.257C221.671 247.827 221.612 246.375 221.73 244.931C221.73 241.955 221.554 239.002 221.28 236.037C220.816 230.524 219.778 225.074 218.184 219.776C218.171 219.744 218.147 219.718 218.117 219.702C218.086 219.687 218.051 219.682 218.018 219.69C217.985 219.698 217.956 219.718 217.936 219.746C217.916 219.774 217.906 219.807 217.909 219.842C219.387 227.338 220.294 234.936 220.621 242.57C220.731 246.248 219.885 251.969 223.739 251.848C227.593 251.727 228.505 242.252 228.527 239.693C228.457 232.422 227.438 225.191 225.496 218.184Z" fill="#263238"/>
<path d="M223.641 251.31C223.427 252.31 223.273 253.322 223.18 254.341C223.026 255.142 223.026 255.966 223.18 256.767C223.18 256.91 223.421 256.888 223.487 256.767C223.813 255.984 224.013 255.154 224.08 254.308C224.256 253.363 224.442 252.43 224.585 251.486C224.579 251.375 224.536 251.27 224.463 251.186C224.39 251.103 224.291 251.047 224.182 251.026C224.073 251.006 223.96 251.023 223.862 251.075C223.764 251.126 223.686 251.209 223.641 251.31Z" fill="#263238"/>
<path d="M217.821 425.892C217.668 424.794 217.492 423.696 217.305 422.543C216.954 420.402 216.537 418.272 216.207 416.131C215.439 411.838 214.604 407.556 213.737 403.284C212.013 394.764 210.058 386.265 208.016 377.822C206.852 373.045 205.524 368.324 204.129 363.614C204.03 363.284 203.569 363.46 203.635 363.778C204.513 368.093 205.37 372.42 206.358 376.724C207.346 381.028 208.324 385.299 209.29 389.592C211.178 398.08 212.957 406.6 214.835 415.088C215.373 417.482 215.856 419.886 216.383 422.28C216.646 423.48 216.921 424.677 217.206 425.87C217.492 427.056 217.887 428.22 218.118 429.417C218.118 429.527 218.304 429.472 218.282 429.417C218.03 428.22 217.986 427.045 217.821 425.892Z" fill="#263238"/>
<path d="M249.74 360.704C247.939 352.7 245.579 344.816 243.207 336.965C238.431 321.165 232.875 305.606 227.341 290.059L222.554 276.619C221.752 274.423 217.81 262.29 217.338 261.148C217.329 261.124 217.311 261.103 217.288 261.092C217.264 261.081 217.237 261.079 217.212 261.088C217.187 261.097 217.167 261.115 217.156 261.139C217.144 261.162 217.143 261.189 217.152 261.214C218.25 265.332 219.875 271.338 221.17 275.422C222.466 279.507 223.86 283.438 225.222 287.5C227.879 295.373 230.58 303.235 233.171 311.14C238.288 326.754 243.372 342.367 247.61 358.255C248.785 362.702 249.971 367.149 251.058 371.629C252.145 376.109 253.1 380.589 254.143 385.069C254.143 385.189 254.374 385.145 254.363 385.069C253.231 376.875 251.688 368.743 249.74 360.704Z" fill="#263238"/>
<path d="M220.588 403.482C217.569 388.198 214 373.012 210.113 357.937C206.226 342.861 201.889 327.72 197.168 312.798C192.447 297.876 187.286 283.097 181.73 268.45C178.957 261.564 176.592 254.521 174.648 247.357C172.891 240.22 171.892 232.49 173.396 225.222C173.771 223.377 174.285 221.564 174.933 219.798C174.933 219.677 174.791 219.578 174.747 219.699C169.257 233.424 173.363 248.192 178.118 261.423C180.72 268.703 183.476 275.927 186.045 283.218C188.695 290.699 191.231 298.217 193.654 305.771C198.485 320.748 202.987 335.812 207.061 351.009C211.134 366.205 214.813 381.489 218.041 396.872C221.269 412.255 224.157 427.814 227.012 443.328C227.385 445.349 227.692 447.38 228 449.411C228 449.521 228.197 449.521 228.186 449.411C226.001 434.072 223.608 418.744 220.588 403.482Z" fill="#263238"/>
<path d="M210.816 153.401C215.834 171.936 227.615 200.615 237.432 200.264C246.38 199.913 265.98 183.564 274.248 178.161C282.515 172.759 263.268 152.688 258.524 156.125C251.201 161.439 240.286 170.882 238.387 170.322C236.026 169.619 232.897 163.931 219.15 147.264C213.462 140.412 208.62 145.507 210.816 153.401Z" fill="#EB9481"/>
<path d="M267.286 148.01C271.195 146.517 275.565 144.497 279.957 144.475C284.349 144.453 288.115 150.163 288.159 151.821C288.203 153.479 286.776 163.899 282.395 163.964C278.014 164.03 280.473 156.059 280.286 155.18C280.1 154.302 279.902 153.116 279.079 153.226C278.255 153.336 263.937 160.528 263.937 160.528L267.286 148.01Z" fill="#EB9481"/>
<path d="M267.572 148.603C267.824 148.603 279.463 143.695 283.855 143.673C288.247 143.651 292.068 149.328 292.068 151.008C292.068 152.688 290.685 163.086 286.304 163.152C281.923 163.218 284.382 155.246 284.195 154.368C284.009 153.489 283.811 152.293 282.988 152.402C282.164 152.512 267.846 159.715 267.846 159.715L267.572 148.603Z" fill="#EB9481"/>
<path d="M284.788 162.636C284.309 161.857 284.037 160.969 283.998 160.055C283.888 159.123 283.921 158.178 284.097 157.256C284.319 156.461 284.477 155.649 284.569 154.829C284.544 154.017 284.318 153.225 283.91 152.523C283.559 151.919 282.911 152.139 282.362 152.347C281.556 152.671 280.768 153.038 280.001 153.445L277.541 154.818C276.674 155.253 275.835 155.741 275.027 156.278C275.011 156.286 274.999 156.299 274.992 156.315C274.986 156.332 274.987 156.35 274.994 156.366C275.001 156.382 275.015 156.395 275.031 156.401C275.048 156.407 275.066 156.406 275.082 156.399C275.832 156.071 276.565 155.705 277.278 155.301L279.759 154.093C280.539 153.731 281.297 153.314 282.087 152.995C282.362 152.874 282.911 152.556 283.185 152.622C283.46 152.688 283.701 153.511 283.789 153.775C283.987 154.558 283.953 155.382 283.69 156.147C283.477 156.936 283.345 157.746 283.295 158.562C283.234 159.331 283.312 160.105 283.526 160.846C283.816 161.506 284.185 162.129 284.624 162.702C284.711 162.8 284.854 162.702 284.788 162.636Z" fill="#263238"/>
<path d="M253.935 160.44C253.935 160.44 265.826 149.075 268.307 146.825C273.281 142.29 294.451 133.056 297.426 132.671C300.402 132.287 301.61 138.37 287.248 145.057C279.683 148.57 278.464 152.984 278.629 155.411C278.793 157.837 281.253 162.306 285.326 162.098C289.4 161.889 291.914 155.872 295.659 155.125C299.403 154.379 297.075 161.307 294.561 165.337C291.87 169.226 288.131 172.273 283.778 174.121C280.276 175.526 269.504 180.489 269.504 180.489L253.935 160.44Z" fill="#EB9481"/>
<path d="M290.333 159.111C288.818 160.341 287.116 161.922 285.096 162.043C283.075 162.164 281.615 160.846 280.605 159.166C279.497 157.516 279.064 155.504 279.397 153.544C279.833 151.772 280.767 150.16 282.087 148.9C283.726 147.374 285.575 146.091 287.577 145.09C287.665 145.09 287.577 144.914 287.489 144.958C285.634 145.847 279.803 148.373 278.804 153.555C278.48 155.557 278.931 157.607 280.067 159.287C281.011 160.89 282.362 162.427 284.349 162.581C286.765 162.724 288.796 160.714 290.498 159.21C290.52 159.1 290.41 159.045 290.333 159.111Z" fill="#263238"/>
<path d="M253.902 158.892L272.732 186.66C272.732 186.66 244.272 203.514 236.07 201.099C227.868 198.683 214.977 175.581 209.422 155.18C203.866 134.779 216.657 142.334 221.697 148.592C226.737 154.851 237.684 169.235 238.266 169.026C238.848 168.817 253.902 158.892 253.902 158.892Z" fill="#9747FF"/>
<path d="M264.552 191.217C262.784 192.161 260.841 193.16 258.799 194.159L242.384 166.402C244.031 165.304 245.941 164.096 247.731 162.932C252.902 171.606 259.183 182.158 264.552 191.217Z" fill="#EBEBEB"/>
<path d="M256.581 195.235L254.692 196.103L238.53 168.839C238.881 168.642 239.474 168.268 240.242 167.741C245.326 176.306 251.376 186.473 256.581 195.235Z" fill="#EBEBEB"/>
<path d="M252.639 197.014C246.128 199.847 239.726 201.944 236.345 201.176L236.048 201.099C227.835 198.683 214.966 175.592 209.4 155.18C208.572 152.45 208.11 149.622 208.027 146.77C208.027 146.66 208.027 146.572 208.027 146.462C208.027 146.352 208.027 146.144 208.027 145.979C208.022 145.913 208.022 145.847 208.027 145.781C208.015 145.635 208.015 145.488 208.027 145.342L252.639 197.014Z" fill="#263238"/>
<path d="M262.521 184.146C261.928 183.157 261.313 182.169 260.709 181.192C259.49 179.226 252.178 167.577 249.312 164.052C249.235 163.953 249.092 164.052 249.136 164.173C251.179 168.257 258.744 179.688 260.006 181.576C260.654 182.531 261.291 183.498 261.95 184.453C262.609 185.408 263.377 186.298 264.036 187.264C264.102 187.352 264.256 187.264 264.201 187.176C263.597 186.188 263.114 185.134 262.521 184.146Z" fill="#263238"/>
<path d="M168.323 235.488C168.499 235.675 241.132 227.011 241.769 226.232C242.669 225.134 224.102 152.754 216.251 143.201C214.571 141.159 209.246 140.753 204.755 141.466C203.584 141.639 202.43 141.914 201.307 142.29H201.198C200.289 142.584 199.438 143.033 198.683 143.618C186.473 154.06 177.085 189.427 174.977 200.034C171.464 217.536 167.698 234.818 168.323 235.488Z" fill="#9747FF"/>
<path d="M240.275 218.381C222.707 220.654 184.596 225.595 169.443 227.407C169.97 224.717 170.607 221.51 171.332 217.975L238.123 209.619C238.969 212.913 239.704 215.9 240.275 218.381Z" fill="#EBEBEB"/>
<path d="M237.223 206.051C219.875 208.302 187.813 212.441 172.068 214.363L172.683 211.354L236.509 203.306C236.751 204.228 236.992 205.15 237.223 206.051Z" fill="#EBEBEB"/>
<path d="M193.742 162.603C197.42 181.543 214.209 216.723 224.684 219.831C236.817 223.421 278.288 209.092 286.347 202.888C289.554 200.429 271.667 179.83 267.681 181.368C250.816 188.022 235.839 191.59 233.589 190.152C230.163 187.956 216.021 168.598 206.775 156.608C195.17 141.543 192.084 154.115 193.742 162.603Z" fill="#EB9481"/>
<path d="M285.282 203.492C287.127 202.779 299.71 193.193 303.377 188.746C307.364 184.138 310.569 178.908 312.864 173.264C316.455 164.327 318.091 157.816 317.113 154.939C316.015 151.59 315.653 151.052 307.144 165.919C302.334 174.34 297.58 175.384 293.441 175.395C283.249 175.442 273.218 177.935 264.19 182.663C264.19 182.663 278.2 206.204 285.282 203.492Z" fill="#EB9481"/>
<path d="M323.207 143.838L301.752 172.243C301.445 172.633 301.033 172.928 300.564 173.093C300.096 173.258 299.59 173.287 299.106 173.177L283.569 168.411C283.369 168.37 283.185 168.274 283.036 168.134C282.888 167.994 282.781 167.815 282.729 167.618C282.677 167.42 282.68 167.212 282.739 167.017C282.799 166.822 282.911 166.647 283.064 166.512L304.519 138.106C304.825 137.714 305.237 137.418 305.706 137.253C306.175 137.087 306.681 137.06 307.165 137.173L322.702 141.938C322.902 141.979 323.087 142.075 323.235 142.216C323.384 142.356 323.49 142.535 323.543 142.732C323.595 142.929 323.592 143.137 323.532 143.333C323.473 143.528 323.36 143.703 323.207 143.838Z" fill="#37474F"/>
<path d="M321.308 141.466L305.771 136.701C305.286 136.591 304.78 136.622 304.311 136.789C303.843 136.956 303.431 137.253 303.125 137.645L281.681 166.05C281.514 166.183 281.39 166.36 281.322 166.562C281.255 166.764 281.248 166.981 281.301 167.187C281.355 167.392 281.467 167.578 281.624 167.722C281.781 167.865 281.976 167.96 282.186 167.994L297.723 172.759C298.207 172.867 298.712 172.837 299.18 172.672C299.648 172.507 300.06 172.214 300.369 171.826L321.813 143.421C321.983 143.289 322.111 143.111 322.181 142.908C322.25 142.704 322.259 142.485 322.205 142.277C322.151 142.069 322.037 141.881 321.878 141.737C321.719 141.593 321.52 141.499 321.308 141.466ZM300.04 170.596C299.761 170.964 299.385 171.245 298.954 171.409C298.522 171.572 298.054 171.61 297.602 171.519L283.712 167.258C282.933 167.017 282.757 166.16 283.328 165.469L303.301 139.018C304.399 137.502 305.134 137.612 305.914 137.854L308.692 138.71C308.857 138.71 308.868 138.963 308.692 139.16L308.626 139.248C308.264 139.731 308.56 139.819 308.922 139.929L315.357 141.905C315.527 142.001 315.729 142.026 315.918 141.975C316.107 141.924 316.268 141.8 316.367 141.631L316.433 141.543C316.492 141.448 316.577 141.372 316.678 141.323C316.78 141.275 316.892 141.256 317.004 141.269L319.793 142.125C320.561 142.356 321.044 142.751 319.99 144.145L300.04 170.596Z" fill="#263238"/>
<path d="M313.479 140.599L311.733 140.05C311.724 140.043 311.717 140.033 311.712 140.023C311.706 140.013 311.704 140.001 311.704 139.989C311.704 139.978 311.706 139.966 311.712 139.956C311.717 139.945 311.724 139.936 311.733 139.929C311.754 139.901 311.783 139.879 311.816 139.867C311.85 139.856 311.886 139.854 311.92 139.863L313.677 140.401C313.688 140.408 313.697 140.418 313.704 140.429C313.71 140.441 313.714 140.454 313.714 140.467C313.714 140.48 313.71 140.493 313.704 140.505C313.697 140.516 313.688 140.526 313.677 140.533C313.653 140.561 313.622 140.582 313.587 140.594C313.552 140.606 313.515 140.607 313.479 140.599Z" fill="white"/>
<path d="M320.012 144.145L300.04 170.596C299.761 170.964 299.385 171.245 298.954 171.409C298.522 171.572 298.054 171.61 297.602 171.519L283.712 167.258C282.933 167.017 282.757 166.16 283.328 165.469L303.301 139.018C304.399 137.502 305.134 137.612 305.914 137.854L308.692 138.71C308.856 138.71 308.867 138.963 308.692 139.16L308.626 139.248C308.264 139.731 308.56 139.819 308.922 139.929L315.357 141.905C315.527 142.001 315.729 142.026 315.918 141.975C316.107 141.924 316.268 141.8 316.367 141.631L316.433 141.543C316.492 141.448 316.577 141.372 316.678 141.323C316.779 141.275 316.892 141.256 317.004 141.269L319.793 142.125C320.616 142.356 321.066 142.74 320.012 144.145Z" fill="white"/>
<path d="M320.012 144.145L318.519 146.122L301.807 140.994L303.301 139.018C304.399 137.502 305.134 137.612 305.914 137.854L308.692 138.71C308.856 138.71 308.867 138.963 308.692 139.16L308.626 139.248C308.263 139.731 308.56 139.819 308.922 139.929L315.357 141.905C315.527 142.001 315.729 142.026 315.918 141.975C316.107 141.924 316.268 141.8 316.367 141.631L316.433 141.543C316.492 141.448 316.577 141.372 316.678 141.323C316.779 141.275 316.892 141.256 317.004 141.269L319.782 142.125C320.616 142.356 321.066 142.74 320.012 144.145Z" fill="#9747FF"/>
<path d="M304.223 140.544L304.047 139.984L304.849 139.731L304.871 139.819L304.212 140.039L304.355 140.5L304.223 140.544Z" fill="white"/>
<path d="M318.486 144.211C318.463 144.226 318.436 144.234 318.409 144.234C318.382 144.234 318.355 144.226 318.332 144.211C318.323 144.205 318.316 144.197 318.311 144.188C318.305 144.178 318.303 144.167 318.303 144.156C318.303 144.146 318.305 144.135 318.311 144.125C318.316 144.116 318.323 144.108 318.332 144.102C318.349 144.077 318.372 144.058 318.399 144.046C318.427 144.034 318.457 144.031 318.486 144.036C318.508 144.113 318.53 144.167 318.486 144.211Z" fill="white"/>
<path d="M318.255 144.519C318.231 144.534 318.202 144.543 318.173 144.543C318.144 144.543 318.115 144.534 318.091 144.519C318.082 144.513 318.074 144.505 318.069 144.495C318.064 144.485 318.061 144.475 318.061 144.464C318.061 144.453 318.064 144.442 318.069 144.433C318.074 144.423 318.082 144.415 318.091 144.409C318.106 144.383 318.129 144.363 318.157 144.351C318.184 144.339 318.215 144.336 318.244 144.343C318.268 144.342 318.291 144.349 318.308 144.365C318.326 144.38 318.336 144.402 318.338 144.425C318.339 144.449 318.331 144.472 318.316 144.489C318.3 144.507 318.279 144.517 318.255 144.519Z" fill="white"/>
<path d="M318.025 144.826C318 144.842 317.972 144.85 317.942 144.85C317.913 144.85 317.885 144.842 317.86 144.826C317.805 144.826 317.794 144.76 317.86 144.705C317.881 144.683 317.907 144.667 317.936 144.658C317.964 144.648 317.995 144.646 318.025 144.65C318.048 144.65 318.07 144.66 318.087 144.676C318.103 144.693 318.113 144.715 318.113 144.738C318.113 144.762 318.103 144.784 318.087 144.8C318.07 144.817 318.048 144.826 318.025 144.826Z" fill="white"/>
<path d="M307.769 139.161H307.693C307.681 139.117 307.657 139.077 307.624 139.046C307.591 139.015 307.55 138.994 307.506 138.985C307.398 138.952 307.284 138.952 307.177 138.985H307.231H307.341H307.528H307.605V139.051L307.769 139.161Z" fill="white"/>
<path d="M307.209 139.128C307.285 139.106 307.365 139.106 307.44 139.128C307.485 139.128 307.529 139.144 307.564 139.171C307.6 139.199 307.626 139.238 307.638 139.281H307.572C307.559 139.254 307.541 139.23 307.518 139.211C307.496 139.192 307.469 139.179 307.44 139.171C307.372 139.127 307.289 139.111 307.209 139.128Z" fill="white"/>
<path d="M307.44 139.259H307.374C307.369 139.244 307.361 139.23 307.349 139.218C307.338 139.207 307.324 139.198 307.308 139.193C307.269 139.183 307.227 139.183 307.188 139.193C307.341 139.128 307.44 139.161 307.44 139.259Z" fill="white"/>
<path d="M307.341 139.292C307.341 139.292 307.341 139.292 307.275 139.292H307.33C307.33 139.292 307.352 139.281 307.341 139.292Z" fill="white"/>
<path d="M305.09 138.425C305.107 138.4 305.13 138.38 305.157 138.366C305.184 138.353 305.214 138.347 305.244 138.348C305.255 138.355 305.265 138.364 305.271 138.376C305.278 138.388 305.281 138.401 305.281 138.414C305.281 138.427 305.278 138.44 305.271 138.452C305.265 138.463 305.255 138.473 305.244 138.48C305.223 138.508 305.194 138.53 305.161 138.541C305.128 138.553 305.092 138.555 305.057 138.546C305.05 138.536 305.044 138.525 305.042 138.513C305.039 138.501 305.04 138.489 305.043 138.477C305.046 138.465 305.052 138.454 305.06 138.445C305.069 138.436 305.079 138.429 305.09 138.425Z" fill="white"/>
<path d="M305.442 138.535C305.463 138.506 305.492 138.485 305.525 138.473C305.558 138.461 305.594 138.46 305.628 138.469C305.64 138.476 305.649 138.485 305.656 138.497C305.662 138.508 305.666 138.521 305.666 138.535C305.666 138.548 305.662 138.561 305.656 138.572C305.649 138.584 305.64 138.594 305.628 138.601C305.606 138.627 305.577 138.647 305.544 138.659C305.511 138.67 305.476 138.673 305.442 138.666C305.43 138.66 305.421 138.65 305.414 138.638C305.408 138.627 305.404 138.614 305.404 138.601C305.404 138.587 305.408 138.574 305.414 138.563C305.421 138.551 305.43 138.541 305.442 138.535Z" fill="white"/>
<path d="M305.793 138.633C305.812 138.607 305.84 138.587 305.872 138.577C305.903 138.567 305.937 138.568 305.969 138.579C306.035 138.579 306.046 138.655 305.969 138.71C305.941 138.728 305.908 138.737 305.875 138.737C305.842 138.737 305.81 138.728 305.782 138.71C305.76 138.754 305.749 138.688 305.793 138.633Z" fill="white"/>
<path d="M306.133 138.743C306.157 138.718 306.186 138.698 306.218 138.687C306.251 138.675 306.286 138.672 306.32 138.677C306.331 138.684 306.341 138.694 306.347 138.705C306.354 138.717 306.357 138.73 306.357 138.743C306.357 138.756 306.354 138.769 306.347 138.781C306.341 138.793 306.331 138.802 306.32 138.809C306.298 138.836 306.269 138.857 306.236 138.869C306.203 138.88 306.168 138.883 306.133 138.875C306.122 138.868 306.113 138.858 306.106 138.847C306.1 138.835 306.096 138.822 306.096 138.809C306.096 138.796 306.1 138.783 306.106 138.771C306.113 138.76 306.122 138.75 306.133 138.743Z" fill="white"/>
<path d="M306.485 138.853C306.506 138.825 306.535 138.803 306.568 138.791C306.601 138.78 306.637 138.778 306.671 138.787C306.737 138.787 306.748 138.864 306.671 138.919C306.651 138.947 306.622 138.969 306.588 138.981C306.555 138.992 306.519 138.994 306.485 138.985C306.473 138.978 306.464 138.968 306.457 138.957C306.451 138.945 306.448 138.932 306.448 138.919C306.448 138.906 306.451 138.893 306.457 138.881C306.464 138.869 306.473 138.86 306.485 138.853Z" fill="white"/>
<path d="M319.397 143.344L317.981 142.905L318.585 142.114L320.001 142.542L319.397 143.344Z" fill="white"/>
<path d="M319.287 142.663L318.705 142.487L318.519 142.729L319.101 142.916L319.287 142.663Z" fill="white"/>
<path d="M319.441 142.982L319.364 142.96L319.518 142.762L319.595 142.784L319.441 142.982Z" fill="white"/>
<path d="M286.062 165.985L285.941 165.941L285.546 166.468L285.304 166.391L285.502 166.127L285.085 165.996L284.887 166.259L284.646 166.193L285.041 165.666L284.909 165.633L285.886 165.282L286.062 165.985Z" fill="#EBEBEB"/>
<path d="M299.117 169.553L297.723 169.125L297.855 168.96L299.249 169.377L299.117 169.553Z" fill="#EBEBEB"/>
<path d="M298.788 169.992L297.404 169.564L297.536 169.388L298.92 169.817L298.788 169.992Z" fill="#EBEBEB"/>
<path d="M298.458 170.432L297.075 170.003L297.207 169.828L298.59 170.256L298.458 170.432Z" fill="#EBEBEB"/>
<path d="M292.332 167.818L291.651 168.071L291.541 167.577L291.651 167.533L291.75 167.95L292.299 167.73L292.332 167.818Z" fill="#EBEBEB"/>
<path d="M291.64 168.993C291.505 169.015 291.368 169.015 291.234 168.993C291.074 168.944 290.928 168.859 290.806 168.745C290.684 168.631 290.59 168.49 290.531 168.334C290.482 168.163 290.476 167.983 290.512 167.809C290.548 167.635 290.626 167.472 290.739 167.335C290.939 167.084 291.206 166.895 291.51 166.792C291.814 166.689 292.141 166.675 292.452 166.753C292.613 166.798 292.759 166.882 292.88 166.997C293.001 167.112 293.091 167.254 293.144 167.412C293.194 167.582 293.202 167.762 293.168 167.936C293.134 168.11 293.058 168.273 292.946 168.411C292.785 168.598 292.584 168.748 292.358 168.848C292.132 168.949 291.887 168.998 291.64 168.993ZM292.024 167.742C291.89 167.753 291.763 167.807 291.662 167.895C291.81 167.891 291.953 167.836 292.068 167.742H292.024Z" fill="#EBEBEB"/>
<path d="M309.636 141.862C309.725 141.754 309.841 141.673 309.973 141.626C310.104 141.58 310.246 141.57 310.383 141.598C310.43 141.609 310.474 141.631 310.512 141.661C310.55 141.692 310.581 141.73 310.602 141.774C310.602 141.774 310.602 141.851 310.547 141.862C310.492 141.872 310.46 141.862 310.449 141.862C310.434 141.831 310.413 141.804 310.386 141.783C310.359 141.762 310.328 141.748 310.295 141.741C310.203 141.708 310.102 141.708 310.009 141.741C309.921 141.772 309.842 141.825 309.779 141.894C309.753 141.924 309.735 141.96 309.725 141.998C309.716 142.036 309.715 142.076 309.724 142.114C309.738 142.151 309.76 142.184 309.788 142.21C309.817 142.237 309.851 142.257 309.889 142.268C309.968 142.29 310.051 142.29 310.13 142.268H310.218C310.216 142.287 310.207 142.306 310.193 142.32C310.179 142.333 310.161 142.342 310.141 142.345C310.026 142.378 309.905 142.378 309.79 142.345C309.744 142.328 309.702 142.301 309.668 142.266C309.634 142.231 309.608 142.188 309.593 142.141C309.578 142.094 309.574 142.045 309.582 141.996C309.589 141.948 309.608 141.902 309.636 141.862Z" fill="white"/>
<path d="M310.317 142.487L310.8 141.851C310.819 141.841 310.839 141.836 310.86 141.836C310.881 141.836 310.902 141.841 310.921 141.851C310.928 141.856 310.933 141.862 310.937 141.87C310.941 141.878 310.943 141.886 310.943 141.895C310.943 141.903 310.941 141.911 310.937 141.919C310.933 141.927 310.928 141.933 310.921 141.938L310.723 142.191L311.041 142.29L311.239 142.026C311.256 142.017 311.275 142.012 311.294 142.012C311.313 142.012 311.332 142.017 311.349 142.026C311.349 142.026 311.404 142.026 311.349 142.103L310.866 142.751C310.849 142.761 310.83 142.766 310.811 142.766C310.792 142.766 310.773 142.761 310.756 142.751C310.756 142.751 310.701 142.751 310.756 142.663L310.954 142.4L310.635 142.301L310.438 142.564C310.419 142.574 310.398 142.579 310.377 142.579C310.356 142.579 310.335 142.574 310.317 142.564C310.317 142.564 310.295 142.531 310.317 142.487Z" fill="white"/>
<path d="M311.645 142.74L311.338 142.652L311.173 142.773C311.16 142.781 311.145 142.785 311.129 142.785C311.114 142.785 311.099 142.781 311.085 142.773C311.085 142.773 311.085 142.707 311.085 142.674L311.843 142.114C311.858 142.106 311.875 142.102 311.892 142.102C311.91 142.102 311.927 142.106 311.942 142.114C311.942 142.114 311.942 142.114 311.942 142.169L311.733 142.894C311.725 142.913 311.711 142.929 311.694 142.941C311.676 142.953 311.656 142.959 311.634 142.96C311.634 142.96 311.634 142.96 311.634 142.905L311.645 142.74ZM311.645 142.608L311.722 142.334L311.448 142.542L311.645 142.608Z" fill="white"/>
<path d="M312.743 142.52L312.557 142.455L312.118 143.047C312.099 143.058 312.078 143.064 312.057 143.064C312.036 143.064 312.015 143.058 311.997 143.047V142.971L312.436 142.389L312.249 142.323C312.249 142.323 312.194 142.323 312.249 142.246C312.266 142.236 312.285 142.231 312.304 142.231C312.323 142.231 312.342 142.236 312.359 142.246L312.886 142.411V142.487C312.869 142.508 312.846 142.522 312.82 142.528C312.794 142.534 312.767 142.531 312.743 142.52Z" fill="white"/>
<path d="M295.296 152.6L307.242 156.267L309.768 152.93L297.811 149.262L295.296 152.6Z" fill="#455A64"/>
<path d="M308.351 156.608L307.242 156.267L308.022 155.235L308.351 156.608Z" fill="#455A64"/>
<path d="M308.604 153.358L298.019 150.108L298.063 150.053L308.648 153.292L308.604 153.358Z" fill="white"/>
<path d="M306.144 153.028L297.756 150.459L297.8 150.393L306.188 152.962L306.144 153.028Z" fill="white"/>
<path d="M306.957 154.115L297.24 151.14L297.284 151.074L307.001 154.06L306.957 154.115Z" fill="white"/>
<path d="M307.561 154.73L296.987 151.48L297.031 151.414L307.616 154.664L307.561 154.73Z" fill="white"/>
<path d="M307.308 155.071L296.724 151.821L296.767 151.755L307.352 155.005L307.308 155.071Z" fill="white"/>
<path d="M304.113 154.511L296.46 152.161L296.515 152.106L304.168 154.445L304.113 154.511Z" fill="white"/>
<path d="M289.345 160.473L301.302 164.14L303.817 160.802L291.87 157.135L289.345 160.473Z" fill="#455A64"/>
<path d="M302.411 164.48L301.302 164.14L302.071 163.119L302.411 164.48Z" fill="#455A64"/>
<path d="M302.653 161.23L292.068 157.98L292.112 157.925L302.697 161.164L302.653 161.23Z" fill="white"/>
<path d="M300.193 160.901L291.805 158.332L291.859 158.266L300.248 160.835L300.193 160.901Z" fill="white"/>
<path d="M301.006 161.988L291.299 159.012L291.343 158.947L301.05 161.933L301.006 161.988Z" fill="white"/>
<path d="M301.621 162.603L291.036 159.353L291.08 159.287L301.665 162.537L301.621 162.603Z" fill="white"/>
<path d="M301.357 162.943L290.772 159.693L290.827 159.627L301.412 162.877L301.357 162.943Z" fill="white"/>
<path d="M298.173 162.383L290.52 160.033L290.564 159.979L298.217 162.328L298.173 162.383Z" fill="white"/>
<path d="M313.369 149.965L301.423 146.297L303.542 143.476L315.499 147.143L313.369 149.965Z" fill="#9747FF"/>
<path d="M300.314 145.957L301.423 146.298L302.192 145.265L300.314 145.957Z" fill="#9747FF"/>
<path d="M312.612 146.978L303.806 144.277L303.85 144.211L312.667 146.923L312.612 146.978Z" fill="white"/>
<path d="M314.127 147.868L303.542 144.618L303.597 144.552L314.171 147.802L314.127 147.868Z" fill="white"/>
<path d="M313.863 148.208L303.29 144.958L303.333 144.903L313.918 148.142L313.863 148.208Z" fill="white"/>
<path d="M312.776 148.296L303.026 145.309L303.07 145.243L312.82 148.23L312.776 148.296Z" fill="white"/>
<path d="M313.347 148.889L302.774 145.65L302.817 145.584L313.402 148.834L313.347 148.889Z" fill="white"/>
<path d="M310.328 148.384L302.51 145.99L302.554 145.924L310.383 148.329L310.328 148.384Z" fill="white"/>
<path d="M311.448 152.501L299.501 148.834L301.072 146.748L313.029 150.415L311.448 152.501Z" fill="#9747FF"/>
<path d="M298.393 148.494L299.502 148.834L300.27 147.813L298.393 148.494Z" fill="#9747FF"/>
<path d="M311.898 150.788L301.335 147.549L301.379 147.483L311.942 150.722L311.898 150.788Z" fill="white"/>
<path d="M309.768 150.558L301.072 147.89L301.127 147.824L309.823 150.492L309.768 150.558Z" fill="white"/>
<path d="M310.383 151.162L300.819 148.23L300.863 148.164L310.438 151.107L310.383 151.162Z" fill="white"/>
<path d="M307.934 150.832L300.556 148.57L300.611 148.504L307.989 150.777L307.934 150.832Z" fill="white"/>
<path d="M305.519 160.363L293.561 156.696L295.79 153.753L307.736 157.42L305.519 160.363Z" fill="#DBDBDB"/>
<path d="M292.463 156.355L293.561 156.695L294.341 155.663L292.463 156.355Z" fill="#DBDBDB"/>
<path d="M305.266 158.628L295.274 155.565L295.329 155.499L305.321 158.573L305.266 158.628Z" fill="white"/>
<path d="M304.201 158.727L295.022 155.905L295.066 155.839L304.245 158.661L304.201 158.727Z" fill="white"/>
<path d="M305.211 157.771L295.79 154.884L295.845 154.818L305.255 157.706L305.211 157.771Z" fill="white"/>
<path d="M306.507 157.75L296.054 154.543L296.098 154.478L306.551 157.684L306.507 157.75Z" fill="white"/>
<path d="M304.267 159.166L294.758 156.245L294.813 156.19L304.311 159.1L304.267 159.166Z" fill="white"/>
<path d="M299.908 167.796L287.951 164.129L289.806 161.68L301.752 165.348L299.908 167.796Z" fill="#9747FF"/>
<path d="M286.842 163.789L287.951 164.129L288.719 163.097L286.842 163.789Z" fill="#9747FF"/>
<path d="M300.654 165.699L290.081 162.449L290.125 162.394L300.709 165.633L300.654 165.699Z" fill="white"/>
<path d="M300.402 166.04L289.817 162.79L289.861 162.735L300.446 165.974L300.402 166.04Z" fill="white"/>
<path d="M299.304 166.127L289.554 163.141L289.609 163.075L299.348 166.062L299.304 166.127Z" fill="white"/>
<path d="M299.886 166.72L289.301 163.481L289.345 163.415L299.93 166.665L299.886 166.72Z" fill="white"/>
<path d="M296.866 166.215L289.038 163.821L289.093 163.756L296.91 166.16L296.866 166.215Z" fill="white"/>
<path d="M295.505 175.307C291.234 175.471 304.926 166.523 305.024 161.593C305.123 156.663 300.413 158.364 296.735 161.197C283.987 171.079 274.182 170.805 267.813 180.072C261.445 189.339 295.505 175.307 295.505 175.307Z" fill="#EB9481"/>
<path d="M282.439 169.674C279.667 170.432 277.004 171.539 274.511 172.968C272.294 174.422 270.375 176.285 268.856 178.458C268.79 178.557 268.922 178.677 268.999 178.579C272.403 174.187 277.542 171.914 282.472 169.718C282.47 169.708 282.466 169.7 282.46 169.692C282.454 169.685 282.447 169.678 282.439 169.674Z" fill="#263238"/>
<path d="M234.423 188.955C237.772 189.778 260.775 182.894 260.775 182.894L274.5 214.11C274.5 214.11 234.379 224.431 224.892 221.39C215.406 218.348 200.034 186.66 194.862 168.18C189.998 150.81 195.675 139.27 208.576 157.08C208.62 157.08 232.677 188.526 234.423 188.955Z" fill="#9747FF"/>
<path d="M267.209 215.845C264.618 216.438 261.522 217.141 258.173 217.854L245.601 187.11C248.609 186.375 251.76 185.518 254.385 184.782C258.261 194.115 262.96 205.502 267.209 215.845Z" fill="#EBEBEB"/>
<path d="M254.659 218.568L251.749 219.15L239.21 188.505C240.089 188.34 241.044 188.142 242.032 187.923C245.831 197.102 250.454 208.301 254.659 218.568Z" fill="#EBEBEB"/>
<path d="M224.409 220.39C216.427 216.536 206.204 195.62 204.239 191.513C202.976 188.889 201.823 186.21 200.682 183.531C198.409 178.15 196.29 172.715 194.28 167.247C194.285 167.236 194.287 167.223 194.285 167.21C194.284 167.198 194.279 167.186 194.272 167.176C194.265 167.165 194.256 167.157 194.245 167.151C194.234 167.145 194.221 167.142 194.209 167.142C194.196 167.142 194.184 167.145 194.173 167.151C194.162 167.157 194.152 167.165 194.145 167.176C194.138 167.186 194.134 167.198 194.132 167.21C194.131 167.223 194.133 167.236 194.137 167.247C195.272 171.486 196.615 175.665 198.167 179.786C197.177 178.26 196.279 176.676 195.477 175.043C195.477 174.966 195.301 175.043 195.334 175.109C196.153 177.058 197.204 178.901 198.464 180.599C200.045 184.738 201.812 188.801 203.767 192.754C204.327 193.852 216.185 219.534 225.057 221.73C228.143 222.499 238.617 221.499 240.835 220.939C240.923 220.939 240.945 220.797 240.835 220.797C237.816 220.841 227.286 221.796 224.409 220.39Z" fill="#263238"/>
<path d="M265.716 210.454C265.299 209.356 264.882 208.258 264.453 207.226C263.597 205.085 258.436 192.326 256.24 188.351C256.24 188.241 256.021 188.351 256.054 188.439C257.338 192.831 262.784 205.403 263.74 207.478C264.201 208.576 264.662 209.597 265.145 210.651C265.628 211.705 266.243 212.727 266.704 213.792C266.704 213.89 266.924 213.792 266.88 213.726C266.441 212.661 266.155 211.53 265.716 210.454Z" fill="#263238"/>
<path d="M260.797 182.938C258.876 183.069 241.637 187.505 237.827 188.428C236.923 188.755 235.966 188.911 235.005 188.889C234.065 188.632 233.247 188.048 232.699 187.242C231.425 185.847 217.448 168.246 216.438 167.39C216.064 167.061 215.768 167.006 216.13 167.566C216.756 168.521 230.349 185.902 231.579 187.33C232.809 188.757 233.775 189.932 235.675 189.811C236.487 189.756 259.754 183.97 260.929 183.465C261.126 183.366 261.093 182.916 260.797 182.938Z" fill="#263238"/>
<path d="M215.208 153.632C211.738 154.269 202.877 150.195 200.681 145.177C200.528 144.826 201.34 141.422 202.131 137.228C202.592 134.681 203.053 131.826 203.229 129.202C203.229 128.664 219.358 134.692 219.358 134.692C218.127 137.897 217.294 141.242 216.877 144.65C216.837 145.015 216.837 145.384 216.877 145.748C216.882 145.807 216.882 145.866 216.877 145.924C217.13 147.966 218.941 152.94 215.208 153.632Z" fill="#EB9481"/>
<path d="M216.976 145.705V145.88C216.412 145.904 215.846 145.886 215.285 145.825C205.601 144.727 204.107 132.375 203.888 129.256C206.786 129.937 219.435 134.659 219.435 134.659C218.204 137.864 217.371 141.209 216.954 144.617C216.928 144.98 216.935 145.344 216.976 145.705Z" fill="#263238"/>
<path d="M196.63 111.996C196.026 118.101 202.383 134.11 207.226 136.997C214.231 141.192 224.047 139.753 227.176 131.716C230.218 123.92 221.565 103.168 216.317 100.741C208.62 97.1181 197.519 102.97 196.63 111.996Z" fill="#EB9481"/>
<path d="M214.835 118.694C214.835 118.694 214.769 118.782 214.835 118.815C215.285 119.913 215.636 121.186 214.835 121.933C215.911 121.351 215.439 119.682 214.835 118.694Z" fill="#263238"/>
<path d="M213.429 117.936C211.64 118.485 212.869 122.032 214.527 121.516C216.185 121 214.923 117.486 213.429 117.936Z" fill="#263238"/>
<path d="M221.236 116.662C221.236 116.662 221.346 116.662 221.357 116.728C221.708 117.826 222.29 119.056 223.41 119.078C222.147 119.386 221.39 117.771 221.236 116.662Z" fill="#263238"/>
<path d="M221.796 115.18C223.52 114.433 224.881 117.925 223.289 118.617C221.697 119.309 220.38 115.806 221.796 115.18Z" fill="#263238"/>
<path d="M211.464 116.805C211.883 116.509 212.286 116.19 212.672 115.85C213.14 115.57 213.506 115.147 213.715 114.642C213.745 114.47 213.718 114.292 213.639 114.136C213.56 113.979 213.433 113.853 213.276 113.775C212.942 113.672 212.586 113.66 212.246 113.741C211.907 113.823 211.595 113.993 211.343 114.236C210.752 114.644 210.337 115.259 210.179 115.96C210.149 116.121 210.168 116.288 210.232 116.439C210.296 116.59 210.404 116.719 210.541 116.809C210.678 116.899 210.839 116.947 211.003 116.946C211.167 116.946 211.327 116.897 211.464 116.805Z" fill="#263238"/>
<path d="M222.576 112.929C222.049 113.017 221.565 113.006 221.038 113.05C220.503 113.164 219.944 113.103 219.446 112.874C219.305 112.772 219.202 112.627 219.153 112.46C219.103 112.293 219.11 112.115 219.172 111.952C219.347 111.647 219.599 111.394 219.904 111.218C220.209 111.043 220.555 110.951 220.907 110.953C221.615 110.858 222.334 111.026 222.927 111.425C223.057 111.524 223.156 111.658 223.212 111.812C223.267 111.966 223.277 112.132 223.24 112.291C223.203 112.45 223.12 112.595 223.002 112.709C222.884 112.822 222.736 112.899 222.576 112.929Z" fill="#263238"/>
<path d="M217.404 125.534C217.832 125.871 218.325 126.115 218.852 126.253C219.379 126.391 219.929 126.419 220.467 126.336C220.938 126.266 221.397 126.129 221.829 125.93L222.081 125.809L222.301 125.688C222.354 125.656 222.397 125.608 222.422 125.551C222.448 125.494 222.455 125.431 222.444 125.37C222.45 125.333 222.45 125.296 222.444 125.26V125.172C222.18 124.316 221.653 123.064 221.653 123.064C222.016 123.064 223.849 123.272 223.652 122.833C222.229 119.064 220.43 115.448 218.282 112.04C218.217 111.93 218.041 112.04 218.085 112.139C219.38 115.63 221.28 118.869 222.63 122.361C221.982 122.296 221.328 122.322 220.687 122.438C220.577 122.515 221.785 124.843 221.785 125.238C221.117 125.547 220.394 125.72 219.658 125.744C218.923 125.769 218.19 125.645 217.503 125.381C217.327 125.37 217.272 125.468 217.404 125.534Z" fill="#263238"/>
<path d="M221.148 125.677C220.894 126.44 220.448 127.124 219.853 127.664C219.518 127.948 219.104 128.121 218.667 128.159C217.711 128.235 217.415 127.434 217.338 126.698C217.293 126.301 217.293 125.899 217.338 125.501C218.556 125.968 219.892 126.029 221.148 125.677Z" fill="#263238"/>
<path d="M219.853 127.664C219.518 127.948 219.104 128.121 218.667 128.159C217.711 128.235 217.415 127.434 217.338 126.698C217.805 126.557 218.306 126.576 218.761 126.751C219.216 126.925 219.6 127.247 219.853 127.664Z" fill="#FF9BBC"/>
<path d="M202.186 126.808C205.326 125.512 201.362 116.816 201.362 116.816C202.65 116.172 203.729 115.177 204.473 113.945C205.217 112.712 205.597 111.294 205.568 109.855C205.568 109.855 219.04 108.757 220.94 103.508C222.839 98.26 219.117 91.5512 217.459 91.639C215.801 91.7269 214.165 94.6036 214.165 94.6036C214.165 94.6036 212.419 92.4735 211.058 92.6272C208.96 92.8578 208.631 95.6467 207.764 96.5581C205.392 98.9407 197.223 101.576 195.455 103.915C194.948 104.491 194.592 105.183 194.418 105.93C194.244 106.677 194.257 107.456 194.456 108.197C193.716 108.683 193.107 109.344 192.684 110.122C192.26 110.899 192.036 111.769 192.029 112.655C191.766 116.619 199.023 128.126 202.186 126.808Z" fill="#263238"/>
<path d="M202.46 126.05C204.755 122.756 202.526 118.266 200.352 115.444C200.352 115.444 200.352 115.356 200.429 115.444C202.625 118.024 205.238 123.13 202.625 126.204C202.605 126.226 202.576 126.239 202.546 126.24C202.517 126.241 202.488 126.23 202.466 126.21C202.444 126.189 202.431 126.161 202.43 126.131C202.429 126.101 202.44 126.072 202.46 126.05Z" fill="#263238"/>
<path d="M203.372 109.372C206.455 109.778 209.582 109.723 212.65 109.207C214.043 108.915 215.399 108.466 216.69 107.867C217.975 107.275 220.259 106.253 220.764 104.793C220.252 105.949 219.34 106.881 218.195 107.417C216.711 108.328 215.097 109.006 213.407 109.427C210.095 110.288 206.627 110.355 203.284 109.624C203.13 109.602 203.207 109.361 203.372 109.372Z" fill="#263238"/>
<path d="M196.773 101.905C198.269 101.033 199.82 100.259 201.417 99.5886C203.372 98.6333 205.743 97.7 207.291 96.1409H207.346C206.259 97.2537 204.979 98.1612 203.569 98.82C202.186 99.5776 200.769 100.28 199.342 100.95C197.717 101.719 195.927 102.597 194.95 104.244C193.973 105.891 194.302 107.538 194.511 109.196C194.511 109.229 194.499 109.261 194.478 109.287C194.457 109.312 194.428 109.33 194.396 109.336C194.364 109.343 194.33 109.338 194.301 109.322C194.272 109.307 194.249 109.281 194.236 109.251C193.767 107.92 193.763 106.47 194.223 105.136C194.684 103.802 195.582 102.663 196.773 101.905Z" fill="#263238"/>
<path d="M193.709 108.987C190.261 111.491 192.018 116.586 193.786 119.583C195.332 122.522 197.774 124.891 200.758 126.347C200.901 126.402 200.758 126.621 200.649 126.566C197.069 125.161 194.434 121.735 192.787 118.375C191.557 115.839 190.174 110.492 193.709 108.987Z" fill="#263238"/>
<path d="M203.58 124.876C203.58 124.876 198.65 120.352 196.52 122.229C194.39 124.107 198.914 131.233 202.01 131.661C202.402 131.744 202.807 131.746 203.2 131.668C203.593 131.591 203.967 131.434 204.298 131.209C204.629 130.983 204.911 130.693 205.128 130.356C205.344 130.018 205.49 129.641 205.557 129.246L203.58 124.876Z" fill="#EB9481"/>
<path d="M197.871 124.239V124.316C200.067 124.689 201.516 126.303 202.669 128.071C202.51 127.896 202.315 127.757 202.097 127.665C201.879 127.573 201.644 127.53 201.408 127.538C201.171 127.547 200.94 127.607 200.729 127.714C200.518 127.821 200.333 127.973 200.187 128.159C200.187 128.159 200.187 128.279 200.264 128.257C200.589 128.065 200.967 127.979 201.343 128.012C201.719 128.046 202.076 128.197 202.361 128.444C202.839 128.852 203.27 129.313 203.646 129.817C203.789 129.981 204.085 129.817 203.975 129.619C203.437 127.017 200.66 123.887 197.871 124.239Z" fill="#263238"/>
<path d="M218.151 145.287H218.096C219.194 148.45 221.522 155.828 216.537 156.718C214.459 156.894 212.375 156.459 210.542 155.466C208.654 154.594 206.865 153.523 205.205 152.271C203.286 150.919 201.479 149.413 199.803 147.769C199.726 147.692 199.638 147.769 199.704 147.879C201.406 149.526 202.998 151.304 204.799 152.787C206.56 154.234 208.511 155.435 210.596 156.355C212.535 157.358 214.735 157.742 216.899 157.453C217.825 157.236 218.646 156.7 219.218 155.94C219.79 155.179 220.077 154.242 220.028 153.292C219.981 150.52 219.341 147.791 218.151 145.287Z" fill="#263238"/>
<path d="M317.827 486.008H496.406V411.047H317.827V486.008Z" fill="#263238"/>
<path d="M321.209 411.047C321.209 411.047 323.668 400.012 328.577 398.321C333.485 396.631 336.482 401.615 336.482 401.615C336.482 401.615 337.635 391.075 344.596 387.923C351.558 384.772 356.795 391.217 356.795 391.217C356.795 391.217 362.142 377.844 371.684 377.844C381.226 377.844 386.046 397.41 386.046 397.41C386.046 397.41 391.69 391.58 397.465 394.874C403.241 398.168 403.241 411.08 403.241 411.08L321.209 411.047Z" fill="#37474F"/>
<path d="M419.052 411.047H493.002C493.002 411.047 490.565 401.022 485.656 400.309C480.748 399.595 478.465 404.251 478.465 404.251C478.465 404.251 478.684 390.273 469.527 387.89C460.369 385.508 452.684 397.86 452.684 397.86C452.684 397.86 446.93 390.822 439.101 391.272C431.273 391.722 429.285 403.35 429.285 403.35C429.285 403.35 422.192 399.321 419.052 411.047Z" fill="#37474F"/>
<path d="M397.937 411.047H443.394C443.394 411.047 443.285 404.547 438.816 402.823C437.607 402.309 436.267 402.191 434.987 402.485C433.707 402.779 432.553 403.47 431.69 404.459C431.69 404.459 429.867 392.502 421.544 392.502C413.221 392.502 409.225 402.823 409.225 402.823C408.501 401.824 407.506 401.054 406.358 400.604C405.209 400.154 403.956 400.044 402.746 400.287C398.124 400.858 397.937 411.047 397.937 411.047Z" fill="#455A64"/>
<path d="M353.314 485.799H502.631V476.949H353.314V485.799Z" fill="#9747FF"/>
<path d="M353.314 474.819H502.631V465.969H353.314V474.819Z" fill="#9747FF"/>
<path d="M353.314 463.828H502.631V454.978H353.314V463.828Z" fill="#9747FF"/>
<path d="M353.314 452.848H502.631V443.998H353.314V452.848Z" fill="#9747FF"/>
<path d="M353.314 441.857H502.631V433.007H353.314V441.857Z" fill="#9747FF"/>
<path d="M353.314 430.877H502.631V422.027H353.314V430.877Z" fill="#9747FF"/>
<path d="M353.314 419.886H502.631V411.036H353.314V419.886Z" fill="#9747FF"/>
<path d="M311.601 485.799H353.314V476.949H311.601V485.799Z" fill="#9747FF"/>
<path opacity="0.2" d="M311.601 485.799H353.314V476.949H311.601V485.799Z" fill="#020100"/>
<path d="M311.601 474.819H353.314V465.969H311.601V474.819Z" fill="#9747FF"/>
<path opacity="0.2" d="M311.601 474.819H353.314V465.969H311.601V474.819Z" fill="#020100"/>
<path d="M311.601 463.828H353.314V454.978H311.601V463.828Z" fill="#9747FF"/>
<path opacity="0.2" d="M311.601 463.828H353.314V454.978H311.601V463.828Z" fill="#020100"/>
<path d="M311.601 452.848H353.314V443.998H311.601V452.848Z" fill="#9747FF"/>
<path opacity="0.2" d="M311.601 452.848H353.314V443.998H311.601V452.848Z" fill="#020100"/>
<path d="M311.601 441.857H353.314V433.007H311.601V441.857Z" fill="#9747FF"/>
<path opacity="0.2" d="M311.601 441.857H353.314V433.007H311.601V441.857Z" fill="#020100"/>
<path d="M311.601 430.877H353.314V422.027H311.601V430.877Z" fill="#9747FF"/>
<path opacity="0.2" d="M311.601 430.877H353.314V422.027H311.601V430.877Z" fill="#020100"/>
<path d="M311.601 419.886H353.314V411.036H311.601V419.886Z" fill="#9747FF"/>
<path opacity="0.2" d="M311.601 419.886H353.314V411.036H311.601V419.886Z" fill="#020100"/>
</svg>
