<svg width="66" height="66" viewBox="0 0 66 66" fill="none" xmlns="http://www.w3.org/2000/svg">
<path d="M33 0.1875C14.8787 0.1875 0.1875 14.8787 0.1875 33C0.1875 51.1213 14.8787 65.8125 33 65.8125C51.1213 65.8125 65.8125 51.1213 65.8125 33C65.8125 14.8787 51.1213 0.1875 33 0.1875ZM31.063 33.8673C31.063 34.4733 29.9189 33.6234 29.6181 34.2305C29.3173 34.8364 29.138 32.1108 29.0177 31.1997C28.8952 30.2919 28.4139 33.6847 27.9928 33.5633C27.5684 33.443 25.4608 33.3205 25.0397 32.5931C24.6186 31.8669 24.4381 30.655 25.0397 30.655C25.6434 30.655 27.8714 28.5342 28.4139 27.6242C28.9553 26.7153 29.4978 26.4714 29.2572 25.3219C29.0177 24.1702 30.4898 22.8664 30.4636 23.807C30.4012 25.8677 31.8494 25.3219 32.3908 26.9581C32.9333 28.5933 31.4884 29.7461 31.4261 29.1391C31.3659 28.5331 30.643 28.7759 29.1981 29.5645C27.7522 30.352 29.5591 29.8062 29.92 30.8366C30.282 31.8669 30.7031 31.4425 31.9686 31.8056C33.2319 32.1698 32.5723 30.7764 33.0011 30.352C33.4331 29.9277 33.3544 32.2311 33.922 31.6241C34.4886 31.0181 36.3053 31.9872 36.3053 31.9872C37.6309 32.5942 39.498 32.8097 39.498 32.8097C41.2458 33.3281 42.0278 34.8364 42.8722 35.7202C43.7155 36.6061 42.7508 36.8369 41.4273 35.7202C40.1017 34.6056 40.0416 35.0169 39.6205 35.5539C39.1972 36.0887 38.2948 35.1394 37.4505 35.5025C36.6083 35.8667 37.8125 34.1703 37.0294 33.5644C36.2462 32.9584 34.3191 32.4127 34.3803 33.0809C34.4405 33.7459 32.872 33.3817 31.728 32.8108C30.5817 32.2377 31.063 33.2603 31.063 33.8673ZM40.5808 50.6542C41.4252 50.7745 41.692 49.998 41.727 50.6542C41.7708 51.5205 41.4853 52.8953 40.9428 52.7137C40.4014 52.5311 39.7375 50.5317 40.5808 50.6542ZM53.2311 51.5588C52.5081 51.8573 52.2062 52.2905 51.8453 53.3197C51.4833 54.3489 50.4584 54.8936 49.7967 54.3489C49.1361 53.8042 50.1577 52.8341 50.8216 52.7302C51.4833 52.6252 51.725 51.4406 52.5683 50.6542C53.4127 49.8656 51.8617 48.4591 52.5683 47.8662C52.9303 47.5633 53.3536 48.9567 53.8939 48.8966C54.4375 48.8342 55.2206 49.38 54.5567 49.8952C53.8939 50.4092 53.9541 51.2591 53.2311 51.5588ZM44.235 7.17656C44.5762 6.56625 44.725 5.62125 44.7852 4.72875C45.2019 4.90266 45.612 5.0875 46.0189 5.27891C44.8595 7.18094 43.6444 8.23094 44.235 7.17656ZM39.1764 3.53875C39.5373 4.35797 39.5373 7.53859 39.5373 9.26453C39.5373 10.9927 42.158 8.4475 43.5131 8.35672C44.8672 8.26594 39.1764 11.72 39.1764 13.7194C39.1764 15.7188 36.8259 15.7188 35.38 16.7184C33.9341 17.7181 33.9352 17.9905 33.9352 16.7184C33.9352 15.4464 36.103 14.5375 37.3695 14.0825C38.6328 13.6286 38.1811 10.1745 38.5836 9.17484C38.985 8.17625 38.7323 2.53578 39.1764 3.53875ZM35.1 36.4748C35.9433 36.2933 37.0272 36.7155 36.8478 37.2011C36.6663 37.6856 36.3644 38.0488 36.8478 38.2905C37.328 38.5333 38.3528 39.7452 38.5847 39.2005C38.8133 38.6547 38.4994 35.8722 39.1961 36.4748C39.6194 36.8391 40.4025 39.382 42.1492 40.9581C43.8959 42.5331 44.317 44.655 44.0152 45.3823C43.7144 46.1097 42.9313 47.0788 42.8109 48.4722C42.6895 49.8656 40.9428 50.0472 40.2198 49.8055C39.4969 49.5638 38.2336 50.0483 38.2336 49.4423C38.2336 48.8353 38.1122 48.0489 37.2689 48.0227C36.4256 47.9964 35.8831 47.5031 35.4019 46.5931C34.9195 45.6842 32.0878 46.4728 31.6667 46.9573C31.2456 47.4408 29.7395 47.2592 28.7158 47.8662C27.6909 48.4722 27.1484 47.1991 27.4503 45.9872C27.7511 44.7753 26.3664 43.5033 26.3664 41.9261C26.3664 40.3511 29.6783 40.6541 29.92 40.1706C30.1628 39.685 30.4012 39.4422 31.0039 38.7772C31.6077 38.11 32.1491 37.4428 33.0011 37.8858C33.8531 38.3298 33.5961 37.7469 33.922 37.0808C34.248 36.4114 34.2545 36.6553 35.1 36.4748ZM33 2.375C34.3552 2.375 35.6873 2.47234 36.9966 2.64297C36.9298 3.11547 37.1672 3.44359 37.6397 3.35719C38.6328 3.17562 38.6328 4.81187 38.2719 6.90203C37.9098 8.99328 36.465 11.0823 35.2006 11.1742C33.9352 11.2661 33.3916 13.0839 33.6639 13.9009C33.9352 14.7191 32.942 16.6277 32.3077 16.6277C31.6766 16.6277 31.7673 15.0833 31.6766 13.3552C31.5858 11.6292 30.2306 12.4462 28.9662 13.3552C27.7008 14.2641 30.8617 14.2641 30.3203 14.6272C29.7778 14.9914 29.8686 15.8095 30.3203 16.9908C30.7731 18.172 28.8755 20.6275 28.0617 21.4445C27.2491 22.2627 25.6237 21.4445 23.9055 22.535C22.1894 23.6255 24.8997 26.0798 24.7181 26.8072C24.5387 27.5356 23.0917 27.353 21.7366 26.2614C20.3814 25.1709 21.0136 27.6253 22.0067 28.9892C23.002 30.352 23.002 31.8056 23.5423 32.8075C24.0859 33.8083 27.3388 33.8061 28.7836 34.5334C30.2284 35.2608 34.1134 34.715 34.1134 34.715C35.8306 34.6242 31.4031 36.9867 29.7767 36.1697C28.1514 35.3505 22.0067 33.8969 20.3803 31.8975C18.7539 29.8981 16.585 24.5355 17.8505 26.2614C19.1138 27.9884 21.7355 30.807 21.3734 30.0797C21.0125 29.3523 19.7492 27.4438 19.8378 26.0798C19.9286 24.717 19.2056 24.262 18.6653 24.717C18.1217 25.1709 18.3033 23.1716 17.67 22.0811C17.0378 20.9906 14.9597 23.445 13.5148 23.8355C12.0678 24.2259 12.07 27.353 11.2562 27.8988C10.4425 28.4423 9.08844 24.1723 9.17703 22.2627C9.26781 20.3541 8.09312 22.8981 7.1 20.9906C6.73359 20.2852 6.05875 19.9548 5.35328 19.8148C10.2817 9.50297 20.8102 2.375 33 2.375Z" fill="white"/>
</svg>
