<svg width="37" height="40" viewBox="0 0 37 40" fill="none" xmlns="http://www.w3.org/2000/svg">
<path d="M4.28005 34.308C4.11544 34.3079 3.95456 34.259 3.81779 34.1674C3.68102 34.0758 3.57452 33.9456 3.5118 33.7935C1.93867 29.8158 1.97181 25.3827 3.60421 21.429C5.23662 17.4753 8.34069 14.3101 12.2618 12.601C12.4613 12.5339 12.6787 12.5449 12.8704 12.6319C13.062 12.7188 13.2135 12.8752 13.2943 13.0695C13.3752 13.2638 13.3793 13.4816 13.3059 13.6788C13.2325 13.876 13.087 14.038 12.8988 14.1322C9.37886 15.6678 6.59294 18.5106 5.12865 22.0608C3.66436 25.611 3.63618 29.5911 5.05005 33.1617C5.09179 33.2627 5.11318 33.3709 5.11298 33.4802C5.11279 33.5894 5.091 33.6976 5.04889 33.7984C5.00677 33.8992 4.94515 33.9907 4.86757 34.0677C4.78998 34.1446 4.69797 34.2054 4.5968 34.2467C4.49671 34.2872 4.38801 34.308 4.28005 34.308ZM29.732 29.674C32.392 28.6747 33.5295 26.1565 32.777 22.9312C31.5765 17.781 25.1453 10.8002 16.6508 11.649C16.5381 11.6542 16.4276 11.6823 16.326 11.7316C16.2245 11.7809 16.1341 11.8504 16.0603 11.9358C15.9865 12.0212 15.9309 12.1208 15.8968 12.2284C15.8627 12.336 15.8509 12.4494 15.8621 12.5617C15.8733 12.674 15.9072 12.7828 15.9619 12.8816C16.0165 12.9804 16.0906 13.067 16.1798 13.1362C16.269 13.2053 16.3714 13.2556 16.4806 13.2839C16.5899 13.3123 16.7037 13.3181 16.8153 13.301C19.9866 13.0992 23.1325 13.9794 25.7386 15.7978C28.3446 17.6161 30.2566 20.2649 31.1618 23.311C31.5149 24.2168 31.5024 25.2244 31.127 26.1213C30.7515 27.0181 30.0425 27.7341 29.1493 28.1182C27.6565 28.6782 25.9713 27.4427 23.9168 25.768C23.8323 25.6991 23.7352 25.6476 23.6308 25.6163C23.5264 25.5851 23.4169 25.5747 23.3085 25.5857C23.2001 25.5968 23.095 25.6291 22.9991 25.6807C22.9032 25.7324 22.8184 25.8025 22.7495 25.887C22.6807 25.9714 22.6292 26.0686 22.5979 26.173C22.5667 26.2773 22.5562 26.3868 22.5673 26.4952C22.5784 26.6036 22.6106 26.7088 22.6623 26.8047C22.714 26.9006 22.7841 26.9854 22.8685 27.0542C24.4628 28.3545 26.3773 29.9172 28.395 29.9172C28.8519 29.9172 29.3049 29.836 29.732 29.674ZM23.1083 38.2787C23.1983 38.0781 23.2052 37.8501 23.1275 37.6444C23.0497 37.4388 22.8937 37.2723 22.6935 37.1815C17.4173 34.7997 13.8385 29.7055 13.807 26.4452C13.7558 25.9615 13.855 25.4737 14.0911 25.0484C14.3273 24.6231 14.6888 24.281 15.1265 24.0687C15.8724 23.7478 16.691 23.634 17.496 23.7393C18.3011 23.8446 19.0629 24.1652 19.701 24.6672C19.8892 24.7816 20.1152 24.8166 20.3292 24.7644C20.5432 24.7122 20.7276 24.5772 20.842 24.389C20.9565 24.2008 20.9914 23.9748 20.9392 23.7608C20.887 23.5469 20.752 23.3624 20.5638 23.248C19.6898 22.6024 18.6607 22.1993 17.5807 22.0798C16.5007 21.9602 15.4083 22.1284 14.4143 22.5672C13.689 22.9135 13.0848 23.4701 12.6802 24.1646C12.2757 24.8591 12.0897 25.6592 12.1463 26.461C12.1813 30.2182 15.963 35.9652 22.0093 38.6935C22.2101 38.784 22.4385 38.7912 22.6446 38.7134C22.8507 38.6357 23.0174 38.4793 23.1083 38.2787ZM30.1415 35.1882C30.1951 34.9747 30.1618 34.7487 30.0489 34.5597C29.9361 34.3708 29.7529 34.2343 29.5395 34.1802C24.9843 33.0287 20.2015 29.7807 18.4148 26.6237C18.3633 26.5246 18.2924 26.4368 18.2062 26.3657C18.12 26.2946 18.0204 26.2416 17.9133 26.2099C17.8062 26.1781 17.6938 26.1683 17.5828 26.181C17.4718 26.1936 17.3645 26.2285 17.2673 26.2836C17.1701 26.3387 17.085 26.4128 17.0171 26.5015C16.9492 26.5902 16.8999 26.6916 16.872 26.7998C16.8442 26.908 16.8385 27.0207 16.8552 27.1312C16.8719 27.2416 16.9107 27.3476 16.9693 27.4427C19.2565 31.4835 24.8198 34.7 29.1318 35.7902C29.1988 35.8068 29.2675 35.815 29.3365 35.8147C29.5213 35.8146 29.7007 35.7529 29.8464 35.6395C29.9922 35.526 30.096 35.3672 30.1415 35.1882ZM12.694 39.0732C12.8788 38.9535 13.0085 38.7654 13.0548 38.5502C13.1011 38.335 13.0601 38.1102 12.9408 37.9252C7.06255 28.799 8.9963 22.632 12.4385 20.1242C15.816 17.662 21.7765 17.942 26.1725 23.297C26.241 23.3831 26.3259 23.4548 26.4222 23.5078C26.5186 23.5608 26.6246 23.5941 26.734 23.6058C26.8434 23.6175 26.954 23.6073 27.0594 23.5758C27.1648 23.5443 27.2629 23.4922 27.348 23.4224C27.433 23.3527 27.5034 23.2667 27.5549 23.1695C27.6064 23.0723 27.6381 22.9658 27.6481 22.8563C27.6581 22.7467 27.6462 22.6363 27.6131 22.5314C27.58 22.4265 27.5264 22.3292 27.4553 22.2452C22.4153 16.0992 15.4538 15.8752 11.4603 18.7837C7.4353 21.715 5.0413 28.7237 11.546 38.8247C11.6651 39.0096 11.8528 39.1397 12.0677 39.1863C12.2827 39.2329 12.5073 39.1922 12.6923 39.0732H12.694ZM5.48755 6.69471C7.8028 4.53521 20.1385 -1.2993 29.4223 6.11721C29.5069 6.1887 29.605 6.24252 29.7108 6.27548C29.8166 6.30844 29.9279 6.31987 30.0382 6.30911C30.1484 6.29834 30.2554 6.2656 30.3528 6.2128C30.4503 6.16001 30.5361 6.08823 30.6053 6.00172C30.6745 5.9152 30.7257 5.8157 30.7558 5.70908C30.786 5.60246 30.7944 5.49088 30.7807 5.38094C30.767 5.27099 30.7314 5.16491 30.676 5.06895C30.6207 4.97298 30.5466 4.88908 30.4583 4.82221C20.8438 -2.8603 7.88855 2.17971 4.3553 5.48196C4.27567 5.5563 4.21146 5.6456 4.16634 5.74476C4.12122 5.84392 4.09608 5.95099 4.09234 6.05987C4.0886 6.16875 4.10635 6.27729 4.14456 6.37931C4.18277 6.48133 4.2407 6.57483 4.31505 6.65446C4.38939 6.73409 4.47869 6.79829 4.57785 6.84341C4.67701 6.88853 4.78408 6.91368 4.89296 6.91741C5.00184 6.92115 5.11038 6.90341 5.2124 6.8652C5.31442 6.82698 5.40792 6.76905 5.48755 6.69471ZM35.8448 21.8672C36.0613 21.8261 36.2525 21.7006 36.3766 21.5185C36.5006 21.3364 36.5473 21.1125 36.5063 20.896C35.6961 17.021 33.6591 13.5103 30.697 10.8839C27.735 8.25757 24.0056 6.65543 20.0615 6.31496C16.0071 5.83056 11.9066 6.70744 8.40492 8.80771C4.9032 10.908 2.19883 14.1125 0.717047 17.9175C0.638154 18.1177 0.639993 18.3407 0.722178 18.5396C0.804363 18.7385 0.960487 18.8978 1.15771 18.9839C1.35493 19.0701 1.57787 19.0764 1.77964 19.0015C1.98141 18.9266 2.14627 18.7764 2.23955 18.5825C5.51555 11.0575 12.1095 7.08496 19.876 7.96521C23.4666 8.26719 26.8644 9.71797 29.5658 12.1025C32.2671 14.4871 34.1283 17.6786 34.8735 21.204C34.9094 21.3941 35.0105 21.5658 35.1593 21.6894C35.3082 21.8131 35.4955 21.8809 35.689 21.8812C35.7413 21.8807 35.7935 21.8754 35.8448 21.8655V21.8672Z" fill="#9747FF"/>
</svg>
