<svg width="26" height="26" viewBox="0 0 26 26" fill="none" xmlns="http://www.w3.org/2000/svg">
<path d="M10.5 15.5L24.25 1.75M10.5 15.5L14.875 24.25C14.9298 24.3697 15.0179 24.4711 15.1287 24.5422C15.2394 24.6133 15.3683 24.6511 15.5 24.6511C15.6316 24.6511 15.7605 24.6133 15.8713 24.5422C15.9821 24.4711 16.0701 24.3697 16.125 24.25L24.25 1.75M10.5 15.5L1.74997 11.125C1.63029 11.0702 1.52887 10.9821 1.45777 10.8713C1.38667 10.7605 1.34888 10.6316 1.34888 10.5C1.34888 10.3684 1.38667 10.2395 1.45777 10.1287C1.52887 10.0179 1.63029 9.92984 1.74997 9.875L24.25 1.75" stroke="white" stroke-width="2" stroke-linecap="round" stroke-linejoin="round"/>
</svg>
